/* XPM */
static char *b5e6602b228647a5a77e4f4ec0bd373fGIWGp0pn5bqCt1F6[] = {
/* columns rows colors chars-per-pixel */
"128 128 24 1 ",
"  c #6A1C30",
". c #4D3B39",
"X c #534721",
"o c #77584A",
"O c #705654",
"+ c #767678",
"@ c #9D725D",
"# c #8F7772",
"$ c #539614",
"% c #6DAF2E",
"& c #74BE2C",
"* c #C79D00",
"= c #FFD600",
"- c #FFFC00",
"; c #D7CF22",
": c #8ABE58",
"> c #C26C81",
", c #B7A099",
"< c #B7B7BB",
"1 c #DD8499",
"2 c #FFA3B9",
"3 c #D9D9DD",
"4 c gainsboro",
"5 c white",
/* pixels */
"&&&&&&&&&&&&&&&&&&&&&&&&&&&&&&&&&&&&&&&&&&&&&&&&&&&&&&&&&&&&&&&&&&&&&&&&&&&&&&&&&&&&&&&&&&&&&&&&&&&&&&&&&&&&&&&&&&&&&&&&&&&&&&&&",
"&&&&&&&&&&&&&&&&&&&&&&&&&&&&&&&&&&&&&&&&&&&&&&&&&&&&&&&&&&&&&&&&&&&&&&&&&&&&&&&&&&&&&&&&&&&&&&&&&&&&&&&&&&&&&&&&&&&&&&&&&&&&&&&&",
"&&&&&&&&&&&&&&&&&&&&&&&&&&&&&&&&&&&&&&&&&&&&&&&&&&&&&&&&&&&&&&&&&&&&&&&&&&&&&&&&&&&&&&&&&&&&&&&&&&&&&&&&&&&&&&&&&&&&&&&&&&&&&&&&",
"&&&&&&&&&&&&&&&&&&&&&&&&&&&&&&&&&&&&&&&&&&&&&&&&&&&&&&&&&&&&&&&&&&&&&&&&&&&&&&&&&&&&&&&&&&&&&&&&&&&&&&&&&&&&&&&&&&&&&&&&&&&&&&&&",
"&&&&&&&&&&&&&&&&&&&&&&&&&&&&&&&&&&&&&&&&&&&&&&&&++++++++++++++++++++++++++++++++++++&&&&&&&&&&&&&&&&&&&&&&&&&&&&&&&&&&&&&&&&&&&&",
"&&&&&&&&&&&&&&&&&&&&&&&&&&&&&&&&&&&&&&&&&&&&&&&&++++++++++++++++++++++++++++++++++++&&&&&&&&&&&&&&&&&&&&&&&&&&&&&&&&&&&&&&&&&&&&",
"&&&&&&&&&&&&&&&&&&&&&&&&&&&&&&&&&&&&&&&&&&&&&&&&++++++++++++++++++++++++++++++++++++&&&&&&&&&&&&&&&&&&&&&&&&&&&&&&&&&&&&&&&&&&&&",
"&&&&&&&&&&&&&&&&&&&&&&&&&&&&&&&&&&&&&&&&&&&&&&&&++++++++++++++++++++++++++++++++++++&&&&&&&&&&&&&&&&&&&&&&&&&&&&&&&&&&&&&&&&&&&&",
"&&&&&&&&&&&&&&&&&&&&&&&&&&&&&&&&&&&&&&&&++++++++<<<<<<<<33333333333333333333<<<<<<<<++++++++&&&&&&&&&&&&&&&&4444&&&&&&&&&&&&&&&&",
"&&&&&&&&&&&&&&&&&&&&&&&&&&&&&&&&&&&&&&&&++++++++<<<<<<<<33333333333333333333<<<<<<<<++++++++&&&&&&&&&&&&&&&&4444&&&&&&&&&&&&&&&&",
"&&&&&&&&&&&&&&&&&&&&&&&&&&&&&&&&&&&&&&&&++++++++<<<<<<<<33333333333333333333<<<<<<<<++++++++&&&&&&&&&&&&&&&&4444&&&&&&&&&&&&&&&&",
"&&&&&&&&&&&&&&&&&&&&&&&&&&&&&&&&&&&&&&&&++++++++<<<<<<<<33333333333333333333<<<<<<<<++++++++&&&&&&&&&&&&&&&&4444&&&&&&&&&&&&&&&&",
"&&&&&&&&&&&&&&&&&&&&&&&&&&&&&&&&++++++++<<<<33333333555555555555555555555555555533333333<<<<++++++++&&&&4444;;;;4444&&&&&&&&&&&&",
"&&&&&&&&&&&&&&&&&&&&&&&&&&&&&&&&++++++++<<<<33333333555555555555555555555555555533333333<<<<++++++++&&&&4444;;;;4444&&&&&&&&&&&&",
"&&&&&&&&&&&&&&&&&&&&&&&&&&&&&&&&++++++++<<<<33333333555555555555555555555555555533333333<<<<++++++++&&&&4444;;;;4444&&&&&&&&&&&&",
"&&&&&&&&&&&&&&&&&&&&&&&&&&&&&&&&++++++++<<<<33333333555555555555555555555555555533333333<<<<++++++++&&&&4444;;;;4444&&&&&&&&&&&&",
"&&&&&&&&&&&&&&&&&&&&$$$$&&&&++++<<<<333333335555555555555555555555555555555555555555555533333333<<<<++++&&&&4444&&&&&&&&&&&&&&&&",
"&&&&&&&&&&&&&&&&&&&&$$$$&&&&++++<<<<333333335555555555555555555555555555555555555555555533333333<<<<++++&&&&4444&&&&&&&&&&&&&&&&",
"&&&&&&&&&&&&&&&&&&&&$$$$&&&&++++<<<<333333335555555555555555555555555555555555555555555533333333<<<<++++&&&&4444&&&&&&&&&&&&&&&&",
"&&&&&&&&&&&&&&&&&&&&$$$$&&&&++++<<<<333333335555555555555555555555555555555555555555555533333333<<<<++++&&&&4444&&&&&&&&&&&&&&&&",
"&&&&&&&&&&&&&&&&&&&&&&&&++++<<<<33333333555555555555555555555555555555555555555555555555555533333333<<<<++++&&&&&&&&&&&&&&&&&&&&",
"&&&&&&&&&&&&&&&&&&&&&&&&++++<<<<33333333555555555555555555555555555555555555555555555555555533333333<<<<++++&&&&&&&&&&&&&&&&&&&&",
"&&&&&&&&&&&&&&&&&&&&&&&&++++<<<<33333333555555555555555555555555555555555555555555555555555533333333<<<<++++&&&&&&&&&&&&&&&&&&&&",
"&&&&&&&&&&&&&&&&&&&&&&&&++++<<<<33333333555555555555555555555555555555555555555555555555555533333333<<<<++++&&&&&&&&&&&&&&&&&&&&",
"&&&&&&&&&&&&&&&&%%%%++++<<<<3333333355555555555555555555555555555555555555555555555555555555555533333333<<<<++++&&&&&&&&&&&&&&&&",
"&&&&&&&&&&&&&&&&%%%%++++<<<<3333333355555555555555555555555555555555555555555555555555555555555533333333<<<<++++&&&&&&&&&&&&&&&&",
"&&&&&&&&&&&&&&&&%%%%++++<<<<3333333355555555555555555555555555555555555555555555555555555555555533333333<<<<++++&&&&&&&&&&&&&&&&",
"&&&&&&&&&&&&&&&&%%%%++++<<<<3333333355555555555555555555555555555555555555555555555555555555555533333333<<<<++++&&&&&&&&&&&&&&&&",
"&&&&&&&&&&&&&&&&&&&&++++<<<<3333333355555555555555555555555555555555555555555555555555555555555533333333<<<<++++&&&&&&&&&&&&&&&&",
"&&&&&&&&&&&&&&&&&&&&++++<<<<3333333355555555555555555555555555555555555555555555555555555555555533333333<<<<++++&&&&&&&&&&&&&&&&",
"&&&&&&&&&&&&&&&&&&&&++++<<<<3333333355555555555555555555555555555555555555555555555555555555555533333333<<<<++++&&&&&&&&&&&&&&&&",
"&&&&&&&&&&&&&&&&&&&&++++<<<<3333333355555555555555555555555555555555555555555555555555555555555533333333<<<<++++&&&&&&&&&&&&&&&&",
"&&&&&&&&&&&&&&&&&&&&++++<<<<3333333355555555555555555555555555555555555555555555555555555555555533333333<<<<++++&&&&&&&&&&&&&&&&",
"&&&&&&&&&&&&&&&&&&&&++++<<<<3333333355555555555555555555555555555555555555555555555555555555555533333333<<<<++++&&&&&&&&&&&&&&&&",
"&&&&&&&&&&&&&&&&&&&&++++<<<<3333333355555555555555555555555555555555555555555555555555555555555533333333<<<<++++&&&&&&&&&&&&&&&&",
"&&&&&&&&&&&&&&&&&&&&++++<<<<3333333355555555555555555555555555555555555555555555555555555555555533333333<<<<++++&&&&&&&&&&&&&&&&",
"&&&&&&&&::::&&&&&&&&&&&&****3333333333335555555555555555555555555555555555555555555555555555333333333333****&&&&&&&&&&&&&&&&&&&&",
"&&&&&&&&::::&&&&&&&&&&&&****3333333333335555555555555555555555555555555555555555555555555555333333333333****&&&&&&&&&&&&&&&&&&&&",
"&&&&&&&&::::&&&&&&&&&&&&****3333333333335555555555555555555555555555555555555555555555555555333333333333****&&&&&&&&&&&&&&&&&&&&",
"&&&&&&&&::::&&&&&&&&&&&&****3333333333335555555555555555555555555555555555555555555555555555333333333333****&&&&&&&&&&&&&&&&&&&&",
"&&&&&&&&&&&&&&&&&&&&&&&&****<<<<33333333333333335555555555555555555555555555555555553333333333333333<<<<****&&&&&&&&&&&&&&&&&&&&",
"&&&&&&&&&&&&&&&&&&&&&&&&****<<<<33333333333333335555555555555555555555555555555555553333333333333333<<<<****&&&&&&&&&&&&&&&&&&&&",
"&&&&&&&&&&&&&&&&&&&&&&&&****<<<<33333333333333335555555555555555555555555555555555553333333333333333<<<<****&&&&&&&&&&&&&&&&&&&&",
"&&&&&&&&&&&&&&&&&&&&&&&&****<<<<33333333333333335555555555555555555555555555555555553333333333333333<<<<****&&&&&&&&&&&&&&&&&&&&",
"&&&&&&&&&&&&&&&&&&&&....OOOO****<<<<333333333333333333333333333333333333333333333333333333333333<<<<****OOOO....&&&&&&&&&&&&&&&&",
"&&&&&&&&&&&&&&&&&&&&....OOOO****<<<<333333333333333333333333333333333333333333333333333333333333<<<<****OOOO....&&&&&&&&&&&&&&&&",
"&&&&&&&&&&&&&&&&&&&&....OOOO****<<<<333333333333333333333333333333333333333333333333333333333333<<<<****OOOO....&&&&&&&&&&&&&&&&",
"&&&&&&&&&&&&&&&&&&&&....OOOO****<<<<333333333333333333333333333333333333333333333333333333333333<<<<****OOOO....&&&&&&&&&&&&&&&&",
"&&&&&&&&&&&&&&&&&&&&....OOOO####****====<<<<<<<<333333333333333333333333333333333333<<<<<<<<====****####OOOO....&&&&&&&&&&&&&&&&",
"&&&&&&&&&&&&&&&&&&&&....OOOO####****====<<<<<<<<333333333333333333333333333333333333<<<<<<<<====****####OOOO....&&&&&&&&&&&&&&&&",
"&&&&&&&&&&&&&&&&&&&&....OOOO####****====<<<<<<<<333333333333333333333333333333333333<<<<<<<<====****####OOOO....&&&&&&&&&&&&&&&&",
"&&&&&&&&&&&&&&&&&&&&....OOOO####****====<<<<<<<<333333333333333333333333333333333333<<<<<<<<====****####OOOO....&&&&&&&&&&&&&&&&",
"&&&&&&&&&&&&&&&&$$$$....OOOO############============<<<<<<<<<<<<<<<<<<<<<<<<<<<<============############OOOO....&&&&&&&&&&&&&&&&",
"&&&&&&&&&&&&&&&&$$$$....OOOO############============<<<<<<<<<<<<<<<<<<<<<<<<<<<<============############OOOO....&&&&&&&&&&&&&&&&",
"&&&&&&&&&&&&&&&&$$$$....OOOO############============<<<<<<<<<<<<<<<<<<<<<<<<<<<<============############OOOO....&&&&&&&&&&&&&&&&",
"&&&&&&&&&&&&&&&&$$$$....OOOO############============<<<<<<<<<<<<<<<<<<<<<<<<<<<<============############OOOO....&&&&&&&&&&&&&&&&",
"&&&&&&&&&&&&&&&&&&&&....OOOO########################============================########################OOOO....$$$$&&&&&&&&&&&&",
"&&&&&&&&&&&&&&&&&&&&....OOOO########################============================########################OOOO....$$$$&&&&&&&&&&&&",
"&&&&&&&&&&&&&&&&&&&&....OOOO########################============================########################OOOO....$$$$&&&&&&&&&&&&",
"&&&&&&&&&&&&&&&&&&&&....OOOO########################============================########################OOOO....$$$$&&&&&&&&&&&&",
"&&&&&&&&&&&&%%%%....OOOOOOOO################################################################################OOOO....&&&&&&&&&&&&",
"&&&&&&&&&&&&%%%%....OOOOOOOO################################################################################OOOO....&&&&&&&&&&&&",
"&&&&&&&&&&&&%%%%....OOOOOOOO################################################################################OOOO....&&&&&&&&&&&&",
"&&&&&&&&&&&&%%%%....OOOOOOOO################################################################################OOOO....&&&&&&&&&&&&",
"&&&&&&&&&&&&&&&&....OOOO########################################################################################....%%%%&&&&&&&&",
"&&&&&&&&&&&&&&&&....OOOO########################################################################################....%%%%&&&&&&&&",
"&&&&&&&&&&&&&&&&....OOOO########################################################################################....%%%%&&&&&&&&",
"&&&&&&&&&&&&&&&&....OOOO########################################################################################....%%%%&&&&&&&&",
"&&&&&&&&&&&&&&&&....OOOO############,,,,############################################################,,,,########OOOO....&&&&&&&&",
"&&&&&&&&&&&&&&&&....OOOO############,,,,############################################################,,,,########OOOO....&&&&&&&&",
"&&&&&&&&&&&&&&&&....OOOO############,,,,############################################################,,,,########OOOO....&&&&&&&&",
"&&&&&&&&&&&&&&&&....OOOO############,,,,############################################################,,,,########OOOO....&&&&&&&&",
"&&&&&&&&&&&&&&&&....OOOO########OOOO####,,,,,,,,############################################,,,,,,,,################....&&&&&&&&",
"&&&&&&&&&&&&&&&&....OOOO########OOOO####,,,,,,,,############################################,,,,,,,,################....&&&&&&&&",
"&&&&&&&&&&&&&&&&....OOOO########OOOO####,,,,,,,,############################################,,,,,,,,################....&&&&&&&&",
"&&&&&&&&&&&&&&&&....OOOO########OOOO####,,,,,,,,############################################,,,,,,,,################....&&&&&&&&",
"&&&&&&&&&&&&&&&&....OOOO########OOOO########,,,,############,,,,,,,,,,,,,,,,,,,,####OOOO####,,,,########OOOO########OOOO....&&&&",
"&&&&&&&&&&&&&&&&....OOOO########OOOO########,,,,############,,,,,,,,,,,,,,,,,,,,####OOOO####,,,,########OOOO########OOOO....&&&&",
"&&&&&&&&&&&&&&&&....OOOO########OOOO########,,,,############,,,,,,,,,,,,,,,,,,,,####OOOO####,,,,########OOOO########OOOO....&&&&",
"&&&&&&&&&&&&&&&&....OOOO########OOOO########,,,,############,,,,,,,,,,,,,,,,,,,,####OOOO####,,,,########OOOO########OOOO....&&&&",
"&&&&&&&&&&&&&&&&....OOOO########OOOO################OOOO########,,,,,,,,,,,,########OOOO################OOOO########OOOO....&&&&",
"&&&&&&&&&&&&&&&&....OOOO########OOOO################OOOO########,,,,,,,,,,,,########OOOO################OOOO########OOOO....&&&&",
"&&&&&&&&&&&&&&&&....OOOO########OOOO################OOOO########,,,,,,,,,,,,########OOOO################OOOO########OOOO....&&&&",
"&&&&&&&&&&&&&&&&....OOOO########OOOO################OOOO########,,,,,,,,,,,,########OOOO################OOOO########OOOO....&&&&",
"&&&&&&&&&&&&&&&&....OOOOOOOO####OOOOOOOO############OOOO############################OOOO############OOOOOOOO########OOOO....&&&&",
"&&&&&&&&&&&&&&&&....OOOOOOOO####OOOOOOOO############OOOO############################OOOO############OOOOOOOO########OOOO....&&&&",
"&&&&&&&&&&&&&&&&....OOOOOOOO####OOOOOOOO############OOOO############################OOOO############OOOOOOOO########OOOO....&&&&",
"&&&&&&&&&&&&&&&&....OOOOOOOO####OOOOOOOO############OOOO############################OOOO############OOOOOOOO########OOOO....&&&&",
"&&&&&&&&&&&&&&&&&&&&....OOOO####OOOOOOOOOOOO############OOOO########################OOOOOOOO########OOOOOOOOOOOO####OOOO....&&&&",
"&&&&&&&&&&&&&&&&&&&&....OOOO####OOOOOOOOOOOO############OOOO########################OOOOOOOO########OOOOOOOOOOOO####OOOO....&&&&",
"&&&&&&&&&&&&&&&&&&&&....OOOO####OOOOOOOOOOOO############OOOO########################OOOOOOOO########OOOOOOOOOOOO####OOOO....&&&&",
"&&&&&&&&&&&&&&&&&&&&....OOOO####OOOOOOOOOOOO############OOOO########################OOOOOOOO########OOOOOOOOOOOO####OOOO....&&&&",
"&&&&&&&&&&&&&&&&XXXX....OOOOOOOOOOOO....OOOOOOOOOOOOOOOOOOOOOOOOOOOO############OOOOOOOOOOOOOOOOOOOO....OOOOOOOOOOOO....&&&&&&&&",
"&&&&&&&&&&&&&&&&XXXX....OOOOOOOOOOOO....OOOOOOOOOOOOOOOOOOOOOOOOOOOO############OOOOOOOOOOOOOOOOOOOO....OOOOOOOOOOOO....&&&&&&&&",
"&&&&&&&&&&&&&&&&XXXX....OOOOOOOOOOOO....OOOOOOOOOOOOOOOOOOOOOOOOOOOO############OOOOOOOOOOOOOOOOOOOO....OOOOOOOOOOOO....&&&&&&&&",
"&&&&&&&&&&&&&&&&XXXX....OOOOOOOOOOOO....OOOOOOOOOOOOOOOOOOOOOOOOOOOO############OOOOOOOOOOOOOOOOOOOO....OOOOOOOOOOOO....&&&&&&&&",
"&&&&&&&&&&&&&&&&XXXX----....OOOOOOOO........OOOOOOOOOOOOOOOOOOOOOOOOOOOOOOOOOOOOOOOO....OOOOOOOOOOOO........OOOO....&&&&&&&&&&&&",
"&&&&&&&&&&&&&&&&XXXX----....OOOOOOOO........OOOOOOOOOOOOOOOOOOOOOOOOOOOOOOOOOOOOOOOO....OOOOOOOOOOOO........OOOO....&&&&&&&&&&&&",
"&&&&&&&&&&&&&&&&XXXX----....OOOOOOOO........OOOOOOOOOOOOOOOOOOOOOOOOOOOOOOOOOOOOOOOO....OOOOOOOOOOOO........OOOO....&&&&&&&&&&&&",
"&&&&&&&&&&&&&&&&XXXX----....OOOOOOOO........OOOOOOOOOOOOOOOOOOOOOOOOOOOOOOOOOOOOOOOO....OOOOOOOOOOOO........OOOO....&&&&&&&&&&&&",
"&&&&&&&&&&&&&&&&XXXX----3333........11112222........OOOOOOOO....OOOOOOOOOOOOOOOOOOOO....OOOOOOOO....****XXXX....$$$$&&&&%%%%&&&&",
"&&&&&&&&&&&&&&&&XXXX----3333........11112222........OOOOOOOO....OOOOOOOOOOOOOOOOOOOO....OOOOOOOO....****XXXX....$$$$&&&&%%%%&&&&",
"&&&&&&&&&&&&&&&&XXXX----3333........11112222........OOOOOOOO....OOOOOOOOOOOOOOOOOOOO....OOOOOOOO....****XXXX....$$$$&&&&%%%%&&&&",
"&&&&&&&&&&&&&&&&XXXX----3333........11112222........OOOOOOOO....OOOOOOOOOOOOOOOOOOOO....OOOOOOOO....****XXXX....$$$$&&&&%%%%&&&&",
"&&&&&&&&&&&&&&&&XXXX====<<<<3333<<<<++++111122222222........2222....OOOOOOOOOOOO....1111........****XXXX$$$$&&&&%%%%%%%%&&&&&&&&",
"&&&&&&&&&&&&&&&&XXXX====<<<<3333<<<<++++111122222222........2222....OOOOOOOOOOOO....1111........****XXXX$$$$&&&&%%%%%%%%&&&&&&&&",
"&&&&&&&&&&&&&&&&XXXX====<<<<3333<<<<++++111122222222........2222....OOOOOOOOOOOO....1111........****XXXX$$$$&&&&%%%%%%%%&&&&&&&&",
"&&&&&&&&&&&&&&&&XXXX====<<<<3333<<<<++++111122222222........2222....OOOOOOOOOOOO....1111........****XXXX$$$$&&&&%%%%%%%%&&&&&&&&",
"&&&&&&&&&&&&&&&&&&&&XXXX====<<<<<<<<>>>><<<<111111112222222222222222............22221111<<<<++++XXXX&&&&%%%%&&&&&&&&&&&&&&&&&&&&",
"&&&&&&&&&&&&&&&&&&&&XXXX====<<<<<<<<>>>><<<<111111112222222222222222............22221111<<<<++++XXXX&&&&%%%%&&&&&&&&&&&&&&&&&&&&",
"&&&&&&&&&&&&&&&&&&&&XXXX====<<<<<<<<>>>><<<<111111112222222222222222............22221111<<<<++++XXXX&&&&%%%%&&&&&&&&&&&&&&&&&&&&",
"&&&&&&&&&&&&&&&&&&&&XXXX====<<<<<<<<>>>><<<<111111112222222222222222............22221111<<<<++++XXXX&&&&%%%%&&&&&&&&&&&&&&&&&&&&",
"&&&&&&&&&&&&&&&&&&&&&&&&XXXX********>>>><<<<<<<<****33333333333333333333====555533333333<<<<>>>>    &&&&&&&&&&&&&&&&&&&&&&&&&&&&",
"&&&&&&&&&&&&&&&&&&&&&&&&XXXX********>>>><<<<<<<<****33333333333333333333====555533333333<<<<>>>>    &&&&&&&&&&&&&&&&&&&&&&&&&&&&",
"&&&&&&&&&&&&&&&&&&&&&&&&XXXX********>>>><<<<<<<<****33333333333333333333====555533333333<<<<>>>>    &&&&&&&&&&&&&&&&&&&&&&&&&&&&",
"&&&&&&&&&&&&&&&&&&&&&&&&XXXX********>>>><<<<<<<<****33333333333333333333====555533333333<<<<>>>>    &&&&&&&&&&&&&&&&&&&&&&&&&&&&",
"&&&&&&&&&&&&&&&&&&&&&&&&&&&&XXXXXXXX    >>>>>>>>3333========--------====55555555555522221111>>>>    &&&&&&&&&&&&&&&&&&&&&&&&&&&&",
"&&&&&&&&&&&&&&&&&&&&&&&&&&&&XXXXXXXX    >>>>>>>>3333========--------====55555555555522221111>>>>    &&&&&&&&&&&&&&&&&&&&&&&&&&&&",
"&&&&&&&&&&&&&&&&&&&&&&&&&&&&XXXXXXXX    >>>>>>>>3333========--------====55555555555522221111>>>>    &&&&&&&&&&&&&&&&&&&&&&&&&&&&",
"&&&&&&&&&&&&&&&&&&&&&&&&&&&&XXXXXXXX    >>>>>>>>3333========--------====55555555555522221111>>>>    &&&&&&&&&&&&&&&&&&&&&&&&&&&&",
"&&&&&&&&&&&&&&&&&&&&&&&&&&&&&&&&%%%%%%%%        >>>>>>>>11111111222222222222222222221111        &&&&&&&&&&&&&&&&&&&&&&&&&&&&&&&&",
"&&&&&&&&&&&&&&&&&&&&&&&&&&&&&&&&%%%%%%%%        >>>>>>>>11111111222222222222222222221111        &&&&&&&&&&&&&&&&&&&&&&&&&&&&&&&&",
"&&&&&&&&&&&&&&&&&&&&&&&&&&&&&&&&%%%%%%%%        >>>>>>>>11111111222222222222222222221111        &&&&&&&&&&&&&&&&&&&&&&&&&&&&&&&&",
"&&&&&&&&&&&&&&&&&&&&&&&&&&&&&&&&%%%%%%%%        >>>>>>>>11111111222222222222222222221111        &&&&&&&&&&&&&&&&&&&&&&&&&&&&&&&&",
"&&&&&&&&&&&&&&&&&&&&&&&&&&&&&&&&&&&&&&&&&&&&&&&&                    oooo@@@@@@@@@@@@XXXX&&&&&&&&&&&&&&&&&&&&&&&&&&&&&&&&&&&&&&&&",
"&&&&&&&&&&&&&&&&&&&&&&&&&&&&&&&&&&&&&&&&&&&&&&&&                    oooo@@@@@@@@@@@@XXXX&&&&&&&&&&&&&&&&&&&&&&&&&&&&&&&&&&&&&&&&",
"&&&&&&&&&&&&&&&&&&&&&&&&&&&&&&&&&&&&&&&&&&&&&&&&                    oooo@@@@@@@@@@@@XXXX&&&&&&&&&&&&&&&&&&&&&&&&&&&&&&&&&&&&&&&&",
"&&&&&&&&&&&&&&&&&&&&&&&&&&&&&&&&&&&&&&&&&&&&&&&&                    oooo@@@@@@@@@@@@XXXX&&&&&&&&&&&&&&&&&&&&&&&&&&&&&&&&&&&&&&&&"
};
