/* XPM */
static char *_55687d9bb6a4ae9d76ad40c43c0311bmn6ideMjSPNb8AgF[] = {
/* columns rows colors chars-per-pixel */
"128 128 19 1 ",
"  c #1D331A",
". c #2D4D22",
"X c #467D12",
"o c #406324",
"O c #567829",
"+ c #1D2E6E",
"@ c #539614",
"# c #718E37",
"$ c #6DAF2E",
"% c #74BE2C",
"& c #88A03C",
"* c #8ABE58",
"= c #A1AF42",
"- c #4F72BE",
"; c #64A3DE",
": c #84DAF1",
"> c #AAFEFF",
", c #BCFFFF",
"< c LightCyan",
/* pixels */
"%%%%%%%%%%%%%%%%%%%%%%%%%%%%%%%%%%%%%%%%%%%%%%%%%%%%%%%%%%%%%%%%++++%%%%%%%%%%%%%%%%%%%%%%%%%%%%%%%%%%%%%%%%%%%%%%%%%%%%%%%%%%%%",
"%%%%%%%%%%%%%%%%%%%%%%%%%%%%%%%%%%%%%%%%%%%%%%%%%%%%%%%%%%%%%%%%++++%%%%%%%%%%%%%%%%%%%%%%%%%%%%%%%%%%%%%%%%%%%%%%%%%%%%%%%%%%%%",
"%%%%%%%%%%%%%%%%%%%%%%%%%%%%%%%%%%%%%%%%%%%%%%%%%%%%%%%%%%%%%%%%++++%%%%%%%%%%%%%%%%%%%%%%%%%%%%%%%%%%%%%%%%%%%%%%%%%%%%%%%%%%%%",
"%%%%%%%%%%%%%%%%%%%%%%%%%%%%%%%%%%%%%%%%%%%%%%%%%%%%%%%%%%%%%%%%++++%%%%%%%%%%%%%%%%%%%%%%%%%%%%%%%%%%%%%%%%%%%%%%%%%%%%%%%%%%%%",
"%%%%%%%%%%%%%%%%%%%%%%%%%%%%%%%%%%%%%%%%%%%%%%%%%%%%%%%%%%%%$$$$::::++++$$$$%%%%%%%%%%%%%%%%%%%%%%%%%%%%%%%%%%%%%%%%%%%%%%%%%%%%",
"%%%%%%%%%%%%%%%%%%%%%%%%%%%%%%%%%%%%%%%%%%%%%%%%%%%%%%%%%%%%$$$$::::++++$$$$%%%%%%%%%%%%%%%%%%%%%%%%%%%%%%%%%%%%%%%%%%%%%%%%%%%%",
"%%%%%%%%%%%%%%%%%%%%%%%%%%%%%%%%%%%%%%%%%%%%%%%%%%%%%%%%%%%%$$$$::::++++$$$$%%%%%%%%%%%%%%%%%%%%%%%%%%%%%%%%%%%%%%%%%%%%%%%%%%%%",
"%%%%%%%%%%%%%%%%%%%%%%%%%%%%%%%%%%%%%%%%%%%%%%%%%%%%%%%%%%%%$$$$::::++++$$$$%%%%%%%%%%%%%%%%%%%%%%%%%%%%%%%%%%%%%%%%%%%%%%%%%%%%",
"%%%%%%%%%%%%%%%%%%%%%%%%%%%%    $$$$%%%%%%%%%%%%%%%%    $$$$++++::::::::++++$$$$%%%%XXXX%%%%    %%%%%%%%%%%%%%%%%%%%%%%%%%%%%%%%",
"%%%%%%%%%%%%%%%%%%%%%%%%%%%%    $$$$%%%%%%%%%%%%%%%%    $$$$++++::::::::++++$$$$%%%%XXXX%%%%    %%%%%%%%%%%%%%%%%%%%%%%%%%%%%%%%",
"%%%%%%%%%%%%%%%%%%%%%%%%%%%%    $$$$%%%%%%%%%%%%%%%%    $$$$++++::::::::++++$$$$%%%%XXXX%%%%    %%%%%%%%%%%%%%%%%%%%%%%%%%%%%%%%",
"%%%%%%%%%%%%%%%%%%%%%%%%%%%%    $$$$%%%%%%%%%%%%%%%%    $$$$++++::::::::++++$$$$%%%%XXXX%%%%    %%%%%%%%%%%%%%%%%%%%%%%%%%%%%%%%",
"%%%%%%%%%%%%%%%%%%%%%%%%    oooo    @@@@$$$$%%%%    OOOO++++::::::::::::++++    $$$$        oooo    %%%%%%%%$$$$%%%%%%%%%%%%%%%%",
"%%%%%%%%%%%%%%%%%%%%%%%%    oooo    @@@@$$$$%%%%    OOOO++++::::::::::::++++    $$$$        oooo    %%%%%%%%$$$$%%%%%%%%%%%%%%%%",
"%%%%%%%%%%%%%%%%%%%%%%%%    oooo    @@@@$$$$%%%%    OOOO++++::::::::::::++++    $$$$        oooo    %%%%%%%%$$$$%%%%%%%%%%%%%%%%",
"%%%%%%%%%%%%%%%%%%%%%%%%    oooo    @@@@$$$$%%%%    OOOO++++::::::::::::++++    $$$$        oooo    %%%%%%%%$$$$%%%%%%%%%%%%%%%%",
"%%%%%%%%%%%%%%%%%%%%        ooooOOOOOOOO    $$$$    ooooOOOOOOOO::::;;;;;;;;ooooOOOOOOOOoooo        OOOOoooo$$$$%%%%%%%%%%%%%%%%",
"%%%%%%%%%%%%%%%%%%%%        ooooOOOOOOOO    $$$$    ooooOOOOOOOO::::;;;;;;;;ooooOOOOOOOOoooo        OOOOoooo$$$$%%%%%%%%%%%%%%%%",
"%%%%%%%%%%%%%%%%%%%%        ooooOOOOOOOO    $$$$    ooooOOOOOOOO::::;;;;;;;;ooooOOOOOOOOoooo        OOOOoooo$$$$%%%%%%%%%%%%%%%%",
"%%%%%%%%%%%%%%%%%%%%        ooooOOOOOOOO    $$$$    ooooOOOOOOOO::::;;;;;;;;ooooOOOOOOOOoooo        OOOOoooo$$$$%%%%%%%%%%%%%%%%",
"%%%%%%%%%%%%%%%%    OOOO....    ooooOOOOOOOO    OOOOooooooooOOOO;;;;ooooOOOOoooo####oooo    OOOOOOOOoooooooo    $$$$$$$$%%%%%%%%",
"%%%%%%%%%%%%%%%%    OOOO....    ooooOOOOOOOO    OOOOooooooooOOOO;;;;ooooOOOOoooo####oooo    OOOOOOOOoooooooo    $$$$$$$$%%%%%%%%",
"%%%%%%%%%%%%%%%%    OOOO....    ooooOOOOOOOO    OOOOooooooooOOOO;;;;ooooOOOOoooo####oooo    OOOOOOOOoooooooo    $$$$$$$$%%%%%%%%",
"%%%%%%%%%%%%%%%%    OOOO....    ooooOOOOOOOO    OOOOooooooooOOOO;;;;ooooOOOOoooo####oooo    OOOOOOOOoooooooo    $$$$$$$$%%%%%%%%",
"%%%%%%%%%%%%%%%%$$$$;;;;OOOO....OOOOOOOOOOOOOOOO&&&&OOOOOOOOOOOO;;;;&&&&OOOOOOOO########OOOOOOOOooooOOOO::::oooo    %%%%%%%%%%%%",
"%%%%%%%%%%%%%%%%$$$$;;;;OOOO....OOOOOOOOOOOOOOOO&&&&OOOOOOOOOOOO;;;;&&&&OOOOOOOO########OOOOOOOOooooOOOO::::oooo    %%%%%%%%%%%%",
"%%%%%%%%%%%%%%%%$$$$;;;;OOOO....OOOOOOOOOOOOOOOO&&&&OOOOOOOOOOOO;;;;&&&&OOOOOOOO########OOOOOOOOooooOOOO::::oooo    %%%%%%%%%%%%",
"%%%%%%%%%%%%%%%%$$$$;;;;OOOO....OOOOOOOOOOOOOOOO&&&&OOOOOOOOOOOO;;;;&&&&OOOOOOOO########OOOOOOOOooooOOOO::::oooo    %%%%%%%%%%%%",
"%%%%%%%%%%%%        <<<<::::oooo####OOOO====OOOO&&&&&&&&OOOOOOOO&&&&OOOOOOOO&&&&####====OOOO####OOOO::::<<<<....        %%%%%%%%",
"%%%%%%%%%%%%        <<<<::::oooo####OOOO====OOOO&&&&&&&&OOOOOOOO&&&&OOOOOOOO&&&&####====OOOO####OOOO::::<<<<....        %%%%%%%%",
"%%%%%%%%%%%%        <<<<::::oooo####OOOO====OOOO&&&&&&&&OOOOOOOO&&&&OOOOOOOO&&&&####====OOOO####OOOO::::<<<<....        %%%%%%%%",
"%%%%%%%%%%%%        <<<<::::oooo####OOOO====OOOO&&&&&&&&OOOOOOOO&&&&OOOOOOOO&&&&####====OOOO####OOOO::::<<<<....        %%%%%%%%",
"%%%%%%%%    oooooooo;;;;ooooOOOOOOOO####========&&&&&&&&::::OOOO&&&&####::::&&&&====OOOO####ooooooooOOOO;;;;OOOOoooooooo    %%%%",
"%%%%%%%%    oooooooo;;;;ooooOOOOOOOO####========&&&&&&&&::::OOOO&&&&####::::&&&&====OOOO####ooooooooOOOO;;;;OOOOoooooooo    %%%%",
"%%%%%%%%    oooooooo;;;;ooooOOOOOOOO####========&&&&&&&&::::OOOO&&&&####::::&&&&====OOOO####ooooooooOOOO;;;;OOOOoooooooo    %%%%",
"%%%%%%%%    oooooooo;;;;ooooOOOOOOOO####========&&&&&&&&::::OOOO&&&&####::::&&&&====OOOO####ooooooooOOOO;;;;OOOOoooooooo    %%%%",
"%%%%%%%%****    ooooOOOOOOOOOOOO::::########====####;;;;<<<<::::::::::::::::::::########====OOOOoooooooooooooooooooo    $$$$%%%%",
"%%%%%%%%****    ooooOOOOOOOOOOOO::::########====####;;;;<<<<::::::::::::::::::::########====OOOOoooooooooooooooooooo    $$$$%%%%",
"%%%%%%%%****    ooooOOOOOOOOOOOO::::########====####;;;;<<<<::::::::::::::::::::########====OOOOoooooooooooooooooooo    $$$$%%%%",
"%%%%%%%%****    ooooOOOOOOOOOOOO::::########====####;;;;<<<<::::::::::::::::::::########====OOOOoooooooooooooooooooo    $$$$%%%%",
"%%%%%%%%$$$$$$$$    ooooOOOO;;;;;;;;;;;;::::OOOO####&&&&;;;;########::::<<<<::::========OOOOOOOO############oooo    $$$$$$$$%%%%",
"%%%%%%%%$$$$$$$$    ooooOOOO;;;;;;;;;;;;::::OOOO####&&&&;;;;########::::<<<<::::========OOOOOOOO############oooo    $$$$$$$$%%%%",
"%%%%%%%%$$$$$$$$    ooooOOOO;;;;;;;;;;;;::::OOOO####&&&&;;;;########::::<<<<::::========OOOOOOOO############oooo    $$$$$$$$%%%%",
"%%%%%%%%$$$$$$$$    ooooOOOO;;;;;;;;;;;;::::OOOO####&&&&;;;;########::::<<<<::::========OOOOOOOO############oooo    $$$$$$$$%%%%",
"%%%%%%%%$$$$$$$$$$$$oooooooo----,,,,;;;;############&&&&&&&&====&&&&;;;;::::;;;;;;;;====&&&&&&&&&&&&####oooo    $$$$%%%%%%%%%%%%",
"%%%%%%%%$$$$$$$$$$$$oooooooo----,,,,;;;;############&&&&&&&&====&&&&;;;;::::;;;;;;;;====&&&&&&&&&&&&####oooo    $$$$%%%%%%%%%%%%",
"%%%%%%%%$$$$$$$$$$$$oooooooo----,,,,;;;;############&&&&&&&&====&&&&;;;;::::;;;;;;;;====&&&&&&&&&&&&####oooo    $$$$%%%%%%%%%%%%",
"%%%%%%%%$$$$$$$$$$$$oooooooo----,,,,;;;;############&&&&&&&&====&&&&;;;;::::;;;;;;;;====&&&&&&&&&&&&####oooo    $$$$%%%%%%%%%%%%",
"%%%%%%%%        ooooOOOO&&&&&&&&----&&&&&&&&####========OOOO====&&&&OOOO&&&&OOOO&&&&&&&&####oooo;;;;;;;;oooooooo    %%%%%%%%%%%%",
"%%%%%%%%        ooooOOOO&&&&&&&&----&&&&&&&&####========OOOO====&&&&OOOO&&&&OOOO&&&&&&&&####oooo;;;;;;;;oooooooo    %%%%%%%%%%%%",
"%%%%%%%%        ooooOOOO&&&&&&&&----&&&&&&&&####========OOOO====&&&&OOOO&&&&OOOO&&&&&&&&####oooo;;;;;;;;oooooooo    %%%%%%%%%%%%",
"%%%%%%%%        ooooOOOO&&&&&&&&----&&&&&&&&####========OOOO====&&&&OOOO&&&&OOOO&&&&&&&&####oooo;;;;;;;;oooooooo    %%%%%%%%%%%%",
"%%%%    ooooOOOO&&&&OOOOOOOO####&&&&========;;;;&&&&========&&&&&&&&============############;;;;;;;;;;;;oooo....        %%%%%%%%",
"%%%%    ooooOOOO&&&&OOOOOOOO####&&&&========;;;;&&&&========&&&&&&&&============############;;;;;;;;;;;;oooo....        %%%%%%%%",
"%%%%    ooooOOOO&&&&OOOOOOOO####&&&&========;;;;&&&&========&&&&&&&&============############;;;;;;;;;;;;oooo....        %%%%%%%%",
"%%%%    ooooOOOO&&&&OOOOOOOO####&&&&========;;;;&&&&========&&&&&&&&============############;;;;;;;;;;;;oooo....        %%%%%%%%",
"%%%%$$$$    ooooOOOO&&&&OOOOOOOO========;;;;;;;;####&&&&&&&&&&&&============####&&&&----;;;;;;;;,,,,;;;;;;;;OOOOoooooooo    %%%%",
"%%%%$$$$    ooooOOOO&&&&OOOOOOOO========;;;;;;;;####&&&&&&&&&&&&============####&&&&----;;;;;;;;,,,,;;;;;;;;OOOOoooooooo    %%%%",
"%%%%$$$$    ooooOOOO&&&&OOOOOOOO========;;;;;;;;####&&&&&&&&&&&&============####&&&&----;;;;;;;;,,,,;;;;;;;;OOOOoooooooo    %%%%",
"%%%%$$$$    ooooOOOO&&&&OOOOOOOO========;;;;;;;;####&&&&&&&&&&&&============####&&&&----;;;;;;;;,,,,;;;;;;;;OOOOoooooooo    %%%%",
"%%%%$$$$    ....ooooOOOOOOOO########OOOO;;;;;;;;;;;;;;;;&&&&####========####&&&&========----;;;;------------####OOOOOOOOoooo    ",
"%%%%$$$$    ....ooooOOOOOOOO########OOOO;;;;;;;;;;;;;;;;&&&&####========####&&&&========----;;;;------------####OOOOOOOOoooo    ",
"%%%%$$$$    ....ooooOOOOOOOO########OOOO;;;;;;;;;;;;;;;;&&&&####========####&&&&========----;;;;------------####OOOOOOOOoooo    ",
"%%%%$$$$    ....ooooOOOOOOOO########OOOO;;;;;;;;;;;;;;;;&&&&####========####&&&&========----;;;;------------####OOOOOOOOoooo    ",
"%%%%%%%%$$$$    ....oooo&&&&&&&&--------;;;;,,,,;;;;--------====&&&&########========&&&&&&&&--------OOOOooooOOOOoooooooo    $$$$",
"%%%%%%%%$$$$    ....oooo&&&&&&&&--------;;;;,,,,;;;;--------====&&&&########========&&&&&&&&--------OOOOooooOOOOoooooooo    $$$$",
"%%%%%%%%$$$$    ....oooo&&&&&&&&--------;;;;,,,,;;;;--------====&&&&########========&&&&&&&&--------OOOOooooOOOOoooooooo    $$$$",
"%%%%%%%%$$$$    ....oooo&&&&&&&&--------;;;;,,,,;;;;--------====&&&&########========&&&&&&&&--------OOOOooooOOOOoooooooo    $$$$",
"%%%%%%%%$$$$++++++++ooooOOOO&&&&OOOO----------------========&&&&&&&&====########&&&&&&&&OOOO####----####OOOOoooooooo....    $$$$",
"%%%%%%%%$$$$++++++++ooooOOOO&&&&OOOO----------------========&&&&&&&&====########&&&&&&&&OOOO####----####OOOOoooooooo....    $$$$",
"%%%%%%%%$$$$++++++++ooooOOOO&&&&OOOO----------------========&&&&&&&&====########&&&&&&&&OOOO####----####OOOOoooooooo....    $$$$",
"%%%%%%%%$$$$++++++++ooooOOOO&&&&OOOO----------------========&&&&&&&&====########&&&&&&&&OOOO####----####OOOOoooooooo....    $$$$",
"%%%%    ++++--------;;;;OOOOOOOOoooo&&&&####--------====&&&&####============----####OOOO&&&&oooo########OOOO........    $$$$%%%%",
"%%%%    ++++--------;;;;OOOOOOOOoooo&&&&####--------====&&&&####============----####OOOO&&&&oooo########OOOO........    $$$$%%%%",
"%%%%    ++++--------;;;;OOOOOOOOoooo&&&&####--------====&&&&####============----####OOOO&&&&oooo########OOOO........    $$$$%%%%",
"%%%%    ++++--------;;;;OOOOOOOOoooo&&&&####--------====&&&&####============----####OOOO&&&&oooo########OOOO........    $$$$%%%%",
"    ....oooooooo--------oooooooo&&&&&&&&OOOO----OOOO&&&&&&&&&&&&OOOO====----,,,,----####OOOOOOOOOOOOooooOOOO----    $$$$%%%%%%%%",
"    ....oooooooo--------oooooooo&&&&&&&&OOOO----OOOO&&&&&&&&&&&&OOOO====----,,,,----####OOOOOOOOOOOOooooOOOO----    $$$$%%%%%%%%",
"    ....oooooooo--------oooooooo&&&&&&&&OOOO----OOOO&&&&&&&&&&&&OOOO====----,,,,----####OOOOOOOOOOOOooooOOOO----    $$$$%%%%%%%%",
"    ....oooooooo--------oooooooo&&&&&&&&OOOO----OOOO&&&&&&&&&&&&OOOO====----,,,,----####OOOOOOOOOOOOooooOOOO----    $$$$%%%%%%%%",
"%%%%$$$$    ........OOOOooooOOOOoooooooo########OOOO####----;;;;----########OOOO&&&&&&&&OOOOOOOO&&&&&&&&OOOO----    XXXX%%%%%%%%",
"%%%%$$$$    ........OOOOooooOOOOoooooooo########OOOO####----;;;;----########OOOO&&&&&&&&OOOOOOOO&&&&&&&&OOOO----    XXXX%%%%%%%%",
"%%%%$$$$    ........OOOOooooOOOOoooooooo########OOOO####----;;;;----########OOOO&&&&&&&&OOOOOOOO&&&&&&&&OOOO----    XXXX%%%%%%%%",
"%%%%$$$$    ........OOOOooooOOOOoooooooo########OOOO####----;;;;----########OOOO&&&&&&&&OOOOOOOO&&&&&&&&OOOO----    XXXX%%%%%%%%",
"%%%%%%%%$$$$        oooooooooooo....OOOO####OOOOOOOO------------------------####OOOO&&&&ooooOOOOooooOOOOoooo....    $$$$%%%%%%%%",
"%%%%%%%%$$$$        oooooooooooo....OOOO####OOOOOOOO------------------------####OOOO&&&&ooooOOOOooooOOOOoooo....    $$$$%%%%%%%%",
"%%%%%%%%$$$$        oooooooooooo....OOOO####OOOOOOOO------------------------####OOOO&&&&ooooOOOOooooOOOOoooo....    $$$$%%%%%%%%",
"%%%%%%%%$$$$        oooooooooooo....OOOO####OOOOOOOO------------------------####OOOO&&&&ooooOOOOooooOOOOoooo....    $$$$%%%%%%%%",
"%%%%%%%%$$$$$$$$    oooooooo........ooooOOOOOOOOoooo########------------####ooooOOOOOOOOoooo;;;;oooooooooooooooo....    %%%%%%%%",
"%%%%%%%%$$$$$$$$    oooooooo........ooooOOOOOOOOoooo########------------####ooooOOOOOOOOoooo;;;;oooooooooooooooo....    %%%%%%%%",
"%%%%%%%%$$$$$$$$    oooooooo........ooooOOOOOOOOoooo########------------####ooooOOOOOOOOoooo;;;;oooooooooooooooo....    %%%%%%%%",
"%%%%%%%%$$$$$$$$    oooooooo........ooooOOOOOOOOoooo########------------####ooooOOOOOOOOoooo;;;;oooooooooooooooo....    %%%%%%%%",
"%%%%%%%%$$$$    oooo............----ooooOOOOoooooooo####OOOO----OOOOOOOO####OOOOooooOOOO;;;;------------................    %%%%",
"%%%%%%%%$$$$    oooo............----ooooOOOOoooooooo####OOOO----OOOOOOOO####OOOOooooOOOO;;;;------------................    %%%%",
"%%%%%%%%$$$$    oooo............----ooooOOOOoooooooo####OOOO----OOOOOOOO####OOOOooooOOOO;;;;------------................    %%%%",
"%%%%%%%%$$$$    oooo............----ooooOOOOoooooooo####OOOO----OOOOOOOO####OOOOooooOOOO;;;;------------................    %%%%",
"%%%%%%%%$$$$    ........    ---->>>>----ooooooooooooOOOOooooooooOOOOooooOOOOOOOOoooooooo---->>>>----............        %%%%%%%%",
"%%%%%%%%$$$$    ........    ---->>>>----ooooooooooooOOOOooooooooOOOOooooOOOOOOOOoooooooo---->>>>----............        %%%%%%%%",
"%%%%%%%%$$$$    ........    ---->>>>----ooooooooooooOOOOooooooooOOOOooooOOOOOOOOoooooooo---->>>>----............        %%%%%%%%",
"%%%%%%%%$$$$    ........    ---->>>>----ooooooooooooOOOOooooooooOOOOooooOOOOOOOOoooooooo---->>>>----............        %%%%%%%%",
"%%%%%%%%$$$$    ....        ....----ooooooooooooooooooooooooooooOOOOooooooooOOOOoooo----------------........    @@@@%%%%$$$$%%%%",
"%%%%%%%%$$$$    ....        ....----ooooooooooooooooooooooooooooOOOOooooooooOOOOoooo----------------........    @@@@%%%%$$$$%%%%",
"%%%%%%%%$$$$    ....        ....----ooooooooooooooooooooooooooooOOOOooooooooOOOOoooo----------------........    @@@@%%%%$$$$%%%%",
"%%%%%%%%$$$$    ....        ....----ooooooooooooooooooooooooooooOOOOooooooooOOOOoooo----------------........    @@@@%%%%$$$$%%%%",
"%%%%%%%%%%%%%%%%    $$$$$$$$    ....oooooooo........oooooooo....OOOOoooo....oooooooo........----........    %%%%$$$$$$$$%%%%%%%%",
"%%%%%%%%%%%%%%%%    $$$$$$$$    ....oooooooo........oooooooo....OOOOoooo....oooooooo........----........    %%%%$$$$$$$$%%%%%%%%",
"%%%%%%%%%%%%%%%%    $$$$$$$$    ....oooooooo........oooooooo....OOOOoooo....oooooooo........----........    %%%%$$$$$$$$%%%%%%%%",
"%%%%%%%%%%%%%%%%    $$$$$$$$    ....oooooooo........oooooooo....OOOOoooo....oooooooo........----........    %%%%$$$$$$$$%%%%%%%%",
"%%%%%%%%%%%%%%%%%%%%%%%%$$$$    ....oooo............oooo........oooooooo....oooo........    ........    $$$$%%%%%%%%%%%%%%%%%%%%",
"%%%%%%%%%%%%%%%%%%%%%%%%$$$$    ....oooo............oooo........oooooooo....oooo........    ........    $$$$%%%%%%%%%%%%%%%%%%%%",
"%%%%%%%%%%%%%%%%%%%%%%%%$$$$    ....oooo............oooo........oooooooo....oooo........    ........    $$$$%%%%%%%%%%%%%%%%%%%%",
"%%%%%%%%%%%%%%%%%%%%%%%%$$$$    ....oooo............oooo........oooooooo....oooo........    ........    $$$$%%%%%%%%%%%%%%%%%%%%",
"%%%%%%%%%%%%%%%%%%%%%%%%$$$$$$$$    ....    @@@@$$$$    $$$$    oooo....    ....    XXXX$$$$$$$$    %%%%%%%%%%%%%%%%%%%%%%%%%%%%",
"%%%%%%%%%%%%%%%%%%%%%%%%$$$$$$$$    ....    @@@@$$$$    $$$$    oooo....    ....    XXXX$$$$$$$$    %%%%%%%%%%%%%%%%%%%%%%%%%%%%",
"%%%%%%%%%%%%%%%%%%%%%%%%$$$$$$$$    ....    @@@@$$$$    $$$$    oooo....    ....    XXXX$$$$$$$$    %%%%%%%%%%%%%%%%%%%%%%%%%%%%",
"%%%%%%%%%%%%%%%%%%%%%%%%$$$$$$$$    ....    @@@@$$$$    $$$$    oooo....    ....    XXXX$$$$$$$$    %%%%%%%%%%%%%%%%%%%%%%%%%%%%",
"%%%%%%%%%%%%%%%%%%%%%%%%%%%%$$$$$$$$    %%%%$$$$$$$$%%%%$$$$    ........        %%%%%%%%%%%%%%%%%%%%%%%%%%%%%%%%%%%%%%%%%%%%%%%%",
"%%%%%%%%%%%%%%%%%%%%%%%%%%%%$$$$$$$$    %%%%$$$$$$$$%%%%$$$$    ........        %%%%%%%%%%%%%%%%%%%%%%%%%%%%%%%%%%%%%%%%%%%%%%%%",
"%%%%%%%%%%%%%%%%%%%%%%%%%%%%$$$$$$$$    %%%%$$$$$$$$%%%%$$$$    ........        %%%%%%%%%%%%%%%%%%%%%%%%%%%%%%%%%%%%%%%%%%%%%%%%",
"%%%%%%%%%%%%%%%%%%%%%%%%%%%%$$$$$$$$    %%%%$$$$$$$$%%%%$$$$    ........        %%%%%%%%%%%%%%%%%%%%%%%%%%%%%%%%%%%%%%%%%%%%%%%%",
"%%%%%%%%%%%%%%%%%%%%%%%%%%%%%%%%$$$$$$$$%%%%%%%%%%%%%%%%%%%%$$$$....    $$$$$$$$%%%%%%%%%%%%%%%%%%%%%%%%%%%%%%%%%%%%%%%%%%%%%%%%",
"%%%%%%%%%%%%%%%%%%%%%%%%%%%%%%%%$$$$$$$$%%%%%%%%%%%%%%%%%%%%$$$$....    $$$$$$$$%%%%%%%%%%%%%%%%%%%%%%%%%%%%%%%%%%%%%%%%%%%%%%%%",
"%%%%%%%%%%%%%%%%%%%%%%%%%%%%%%%%$$$$$$$$%%%%%%%%%%%%%%%%%%%%$$$$....    $$$$$$$$%%%%%%%%%%%%%%%%%%%%%%%%%%%%%%%%%%%%%%%%%%%%%%%%",
"%%%%%%%%%%%%%%%%%%%%%%%%%%%%%%%%$$$$$$$$%%%%%%%%%%%%%%%%%%%%$$$$....    $$$$$$$$%%%%%%%%%%%%%%%%%%%%%%%%%%%%%%%%%%%%%%%%%%%%%%%%",
"%%%%%%%%%%%%%%%%%%%%%%%%%%%%%%%%%%%%%%%%%%%%%%%%%%%%%%%%%%%%%%%%    %%%%%%%%%%%%%%%%%%%%%%%%%%%%%%%%%%%%%%%%%%%%%%%%%%%%%%%%%%%%",
"%%%%%%%%%%%%%%%%%%%%%%%%%%%%%%%%%%%%%%%%%%%%%%%%%%%%%%%%%%%%%%%%    %%%%%%%%%%%%%%%%%%%%%%%%%%%%%%%%%%%%%%%%%%%%%%%%%%%%%%%%%%%%",
"%%%%%%%%%%%%%%%%%%%%%%%%%%%%%%%%%%%%%%%%%%%%%%%%%%%%%%%%%%%%%%%%    %%%%%%%%%%%%%%%%%%%%%%%%%%%%%%%%%%%%%%%%%%%%%%%%%%%%%%%%%%%%",
"%%%%%%%%%%%%%%%%%%%%%%%%%%%%%%%%%%%%%%%%%%%%%%%%%%%%%%%%%%%%%%%%    %%%%%%%%%%%%%%%%%%%%%%%%%%%%%%%%%%%%%%%%%%%%%%%%%%%%%%%%%%%%"
};
