/* XPM */
static char *result[] = {
/* columns rows colors chars-per-pixel */
"128 128 13 1 ",
"  c #4F3239",
". c #467D12",
"X c #60384F",
"o c #703D65",
"O c #539614",
"+ c #6DAF2E",
"@ c #74BE2C",
"# c #D7CF22",
"$ c #8ABE58",
"% c #5D78DE",
"& c #833CA3",
"* c #70B5FF",
"= c gainsboro",
/* pixels */
"@@@@@@@@@@@@@@@@@@@@@@@@@@@@@@@@@@@@@@@@@@@@@@@@@@@@@@@@@@@@@@@@@@@@@@@@@@@@@@@@@@@@@@@@@@@@@@@@@@@@@@@@@@@@@@@@@@@@@@@@@@@@@@@@",
"@@@@@@@@@@@@@@@@@@@@@@@@@@@@@@@@@@@@@@@@@@@@@@@@@@@@@@@@@@@@@@@@@@@@@@@@@@@@@@@@@@@@@@@@@@@@@@@@@@@@@@@@@@@@@@@@@@@@@@@@@@@@@@@@",
"@@@@@@@@@@@@@@@@@@@@@@@@@@@@@@@@@@@@@@@@@@@@@@@@@@@@@@@@@@@@@@@@@@@@@@@@@@@@@@@@@@@@@@@@@@@@@@@@@@@@@@@@@@@@@@@@@@@@@@@@@@@@@@@@",
"@@@@@@@@@@@@@@@@@@@@@@@@@@@@@@@@@@@@@@@@@@@@@@@@@@@@@@@@@@@@@@@@@@@@@@@@@@@@@@@@@@@@@@@@@@@@@@@@@@@@@@@@@@@@@@@@@@@@@@@@@@@@@@@@",
"@@@@@@@@@@@@@@@@@@@@@@@@@@@@@@@@@@@@@@@@@@@@@@@@@@@@@@@@@@@@&&&&&&&&&&&&&&&&@@@@@@@@@@@@@@@@@@@@@@@@@@@@@@@@@@@@@@@@@@@@@@@@@@@@",
"@@@@@@@@@@@@@@@@@@@@@@@@@@@@@@@@@@@@@@@@@@@@@@@@@@@@@@@@@@@@&&&&&&&&&&&&&&&&@@@@@@@@@@@@@@@@@@@@@@@@@@@@@@@@@@@@@@@@@@@@@@@@@@@@",
"@@@@@@@@@@@@@@@@@@@@@@@@@@@@@@@@@@@@@@@@@@@@@@@@@@@@@@@@@@@@&&&&&&&&&&&&&&&&@@@@@@@@@@@@@@@@@@@@@@@@@@@@@@@@@@@@@@@@@@@@@@@@@@@@",
"@@@@@@@@@@@@@@@@@@@@@@@@@@@@@@@@@@@@@@@@@@@@@@@@@@@@@@@@@@@@&&&&&&&&&&&&&&&&@@@@@@@@@@@@@@@@@@@@@@@@@@@@@@@@@@@@@@@@@@@@@@@@@@@@",
"@@@@@@@@@@@@@@@@@@@@@@@@@@@@@@@@@@@@@@@@@@@@@@@@@@@@@@@@%%%%&&&&oooooooo&&&&&&&&@@@@....@@@@@@@@@@@@@@@@@@@@====@@@@@@@@@@@@@@@@",
"@@@@@@@@@@@@@@@@@@@@@@@@@@@@@@@@@@@@@@@@@@@@@@@@@@@@@@@@%%%%&&&&oooooooo&&&&&&&&@@@@....@@@@@@@@@@@@@@@@@@@@====@@@@@@@@@@@@@@@@",
"@@@@@@@@@@@@@@@@@@@@@@@@@@@@@@@@@@@@@@@@@@@@@@@@@@@@@@@@%%%%&&&&oooooooo&&&&&&&&@@@@....@@@@@@@@@@@@@@@@@@@@====@@@@@@@@@@@@@@@@",
"@@@@@@@@@@@@@@@@@@@@@@@@@@@@@@@@@@@@@@@@@@@@@@@@@@@@@@@@%%%%&&&&oooooooo&&&&&&&&@@@@....@@@@@@@@@@@@@@@@@@@@====@@@@@@@@@@@@@@@@",
"@@@@@@@@@@@@@@@@@@@@@@@@@@@@@@@@@@@@OOOO@@@@@@@@@@@@@@@@&&&&oooooooooooooooo&&&&@@@@@@@@@@@@@@@@@@@@@@@@====####====@@@@@@@@@@@@",
"@@@@@@@@@@@@@@@@@@@@@@@@@@@@@@@@@@@@OOOO@@@@@@@@@@@@@@@@&&&&oooooooooooooooo&&&&@@@@@@@@@@@@@@@@@@@@@@@@====####====@@@@@@@@@@@@",
"@@@@@@@@@@@@@@@@@@@@@@@@@@@@@@@@@@@@OOOO@@@@@@@@@@@@@@@@&&&&oooooooooooooooo&&&&@@@@@@@@@@@@@@@@@@@@@@@@====####====@@@@@@@@@@@@",
"@@@@@@@@@@@@@@@@@@@@@@@@@@@@@@@@@@@@OOOO@@@@@@@@@@@@@@@@&&&&oooooooooooooooo&&&&@@@@@@@@@@@@@@@@@@@@@@@@====####====@@@@@@@@@@@@",
"@@@@@@@@@@@@@@@@@@@@OOOO@@@@@@@@OOOO@@@@@@@@@@@@@@@@%%%%ooooooooXXXXXXXXoooooooo&&&&@@@@@@@@@@@@@@@@@@@@@@@@====@@@@@@@@@@@@@@@@",
"@@@@@@@@@@@@@@@@@@@@OOOO@@@@@@@@OOOO@@@@@@@@@@@@@@@@%%%%ooooooooXXXXXXXXoooooooo&&&&@@@@@@@@@@@@@@@@@@@@@@@@====@@@@@@@@@@@@@@@@",
"@@@@@@@@@@@@@@@@@@@@OOOO@@@@@@@@OOOO@@@@@@@@@@@@@@@@%%%%ooooooooXXXXXXXXoooooooo&&&&@@@@@@@@@@@@@@@@@@@@@@@@====@@@@@@@@@@@@@@@@",
"@@@@@@@@@@@@@@@@@@@@OOOO@@@@@@@@OOOO@@@@@@@@@@@@@@@@%%%%ooooooooXXXXXXXXoooooooo&&&&@@@@@@@@@@@@@@@@@@@@@@@@====@@@@@@@@@@@@@@@@",
"@@@@@@@@@@@@@@@@@@@@@@@@OOOO@@@@%%%%****++++@@@@@@@@&&&&ooooXXXX        XXXXoooo&&&&@@@@@@@@@@@@@@@@@@@@@@@@@@@@@@@@@@@@@@@@@@@@",
"@@@@@@@@@@@@@@@@@@@@@@@@OOOO@@@@%%%%****++++@@@@@@@@&&&&ooooXXXX        XXXXoooo&&&&@@@@@@@@@@@@@@@@@@@@@@@@@@@@@@@@@@@@@@@@@@@@",
"@@@@@@@@@@@@@@@@@@@@@@@@OOOO@@@@%%%%****++++@@@@@@@@&&&&ooooXXXX        XXXXoooo&&&&@@@@@@@@@@@@@@@@@@@@@@@@@@@@@@@@@@@@@@@@@@@@",
"@@@@@@@@@@@@@@@@@@@@@@@@OOOO@@@@%%%%****++++@@@@@@@@&&&&ooooXXXX        XXXXoooo&&&&@@@@@@@@@@@@@@@@@@@@@@@@@@@@@@@@@@@@@@@@@@@@",
"@@@@@@@@@@@@@@@@++++@@@@OOOO@@@@********@@@@@@@@%%%%&&&&ooooXXXX        XXXXoooo&&&&&&&&@@@@@@@@OOOO@@@@@@@@@@@@@@@@@@@@@@@@@@@@",
"@@@@@@@@@@@@@@@@++++@@@@OOOO@@@@********@@@@@@@@%%%%&&&&ooooXXXX        XXXXoooo&&&&&&&&@@@@@@@@OOOO@@@@@@@@@@@@@@@@@@@@@@@@@@@@",
"@@@@@@@@@@@@@@@@++++@@@@OOOO@@@@********@@@@@@@@%%%%&&&&ooooXXXX        XXXXoooo&&&&&&&&@@@@@@@@OOOO@@@@@@@@@@@@@@@@@@@@@@@@@@@@",
"@@@@@@@@@@@@@@@@++++@@@@OOOO@@@@********@@@@@@@@%%%%&&&&ooooXXXX        XXXXoooo&&&&&&&&@@@@@@@@OOOO@@@@@@@@@@@@@@@@@@@@@@@@@@@@",
"@@@@@@@@@@@@@@@@@@@@++++++++@@@@@@@@@@@@@@@@====%%%%&&&&oooo                %%%%%%%%%%%%@@@@OOOO@@@@@@@@@@@@@@@@@@@@@@@@@@@@@@@@",
"@@@@@@@@@@@@@@@@@@@@++++++++@@@@@@@@@@@@@@@@====%%%%&&&&oooo                %%%%%%%%%%%%@@@@OOOO@@@@@@@@@@@@@@@@@@@@@@@@@@@@@@@@",
"@@@@@@@@@@@@@@@@@@@@++++++++@@@@@@@@@@@@@@@@====%%%%&&&&oooo                %%%%%%%%%%%%@@@@OOOO@@@@@@@@@@@@@@@@@@@@@@@@@@@@@@@@",
"@@@@@@@@@@@@@@@@@@@@++++++++@@@@@@@@@@@@@@@@====%%%%&&&&oooo                %%%%%%%%%%%%@@@@OOOO@@@@@@@@@@@@@@@@@@@@@@@@@@@@@@@@",
"@@@@@@@@@@@@@@@@@@@@@@@@@@@@@@@@@@@@@@@@@@@@@@@@&&&&&&&&XXXX        %%%%%%%%%%%%%%%%%%%%@@@@OOOO@@@@++++@@@@@@@@@@@@@@@@@@@@@@@@",
"@@@@@@@@@@@@@@@@@@@@@@@@@@@@@@@@@@@@@@@@@@@@@@@@&&&&&&&&XXXX        %%%%%%%%%%%%%%%%%%%%@@@@OOOO@@@@++++@@@@@@@@@@@@@@@@@@@@@@@@",
"@@@@@@@@@@@@@@@@@@@@@@@@@@@@@@@@@@@@@@@@@@@@@@@@&&&&&&&&XXXX        %%%%%%%%%%%%%%%%%%%%@@@@OOOO@@@@++++@@@@@@@@@@@@@@@@@@@@@@@@",
"@@@@@@@@@@@@@@@@@@@@@@@@@@@@@@@@@@@@@@@@@@@@@@@@&&&&&&&&XXXX        %%%%%%%%%%%%%%%%%%%%@@@@OOOO@@@@++++@@@@@@@@@@@@@@@@@@@@@@@@",
"@@@@@@@@$$$$@@@@@@@@@@@@@@@@@@@@@@@@@@@@%%%%@@@@&&&&ooooXXXX    %%%%%%%%%%%%************@@@@++++++++@@@@@@@@@@@@@@@@@@@@@@@@@@@@",
"@@@@@@@@$$$$@@@@@@@@@@@@@@@@@@@@@@@@@@@@%%%%@@@@&&&&ooooXXXX    %%%%%%%%%%%%************@@@@++++++++@@@@@@@@@@@@@@@@@@@@@@@@@@@@",
"@@@@@@@@$$$$@@@@@@@@@@@@@@@@@@@@@@@@@@@@%%%%@@@@&&&&ooooXXXX    %%%%%%%%%%%%************@@@@++++++++@@@@@@@@@@@@@@@@@@@@@@@@@@@@",
"@@@@@@@@$$$$@@@@@@@@@@@@@@@@@@@@@@@@@@@@%%%%@@@@&&&&ooooXXXX    %%%%%%%%%%%%************@@@@++++++++@@@@@@@@@@@@@@@@@@@@@@@@@@@@",
"@@@@@@@@@@@@@@@@@@@@@@@@@@@@@@@@@@@@@@@@@@@@&&&&&&&&XXXX    %%%%%%%%************************@@@@@@@@@@@@@@@@@@@@@@@@@@@@@@@@@@@@",
"@@@@@@@@@@@@@@@@@@@@@@@@@@@@@@@@@@@@@@@@@@@@&&&&&&&&XXXX    %%%%%%%%************************@@@@@@@@@@@@@@@@@@@@@@@@@@@@@@@@@@@@",
"@@@@@@@@@@@@@@@@@@@@@@@@@@@@@@@@@@@@@@@@@@@@&&&&&&&&XXXX    %%%%%%%%************************@@@@@@@@@@@@@@@@@@@@@@@@@@@@@@@@@@@@",
"@@@@@@@@@@@@@@@@@@@@@@@@@@@@@@@@@@@@@@@@@@@@&&&&&&&&XXXX    %%%%%%%%************************@@@@@@@@@@@@@@@@@@@@@@@@@@@@@@@@@@@@",
"@@@@@@@@@@@@@@@@@@@@@@@@@@@@@@@@@@@@@@@@@@@@&&&&ooooXXXX    %%%%****************************@@@@@@@@@@@@@@@@$$$$@@@@@@@@@@@@@@@@",
"@@@@@@@@@@@@@@@@@@@@@@@@@@@@@@@@@@@@@@@@@@@@&&&&ooooXXXX    %%%%****************************@@@@@@@@@@@@@@@@$$$$@@@@@@@@@@@@@@@@",
"@@@@@@@@@@@@@@@@@@@@@@@@@@@@@@@@@@@@@@@@@@@@&&&&ooooXXXX    %%%%****************************@@@@@@@@@@@@@@@@$$$$@@@@@@@@@@@@@@@@",
"@@@@@@@@@@@@@@@@@@@@@@@@@@@@@@@@@@@@@@@@@@@@&&&&ooooXXXX    %%%%****************************@@@@@@@@@@@@@@@@$$$$@@@@@@@@@@@@@@@@",
"@@@@@@@@@@@@@@@@@@@@@@@@@@@@@@@@OOOO@@@@@@@@&&&&ooooXXXX%%%%********%%%%%%%%%%%%************@@@@@@@@@@@@@@@@@@@@@@@@@@@@@@@@@@@@",
"@@@@@@@@@@@@@@@@@@@@@@@@@@@@@@@@OOOO@@@@@@@@&&&&ooooXXXX%%%%********%%%%%%%%%%%%************@@@@@@@@@@@@@@@@@@@@@@@@@@@@@@@@@@@@",
"@@@@@@@@@@@@@@@@@@@@@@@@@@@@@@@@OOOO@@@@@@@@&&&&ooooXXXX%%%%********%%%%%%%%%%%%************@@@@@@@@@@@@@@@@@@@@@@@@@@@@@@@@@@@@",
"@@@@@@@@@@@@@@@@@@@@@@@@@@@@@@@@OOOO@@@@@@@@&&&&ooooXXXX%%%%********%%%%%%%%%%%%************@@@@@@@@@@@@@@@@@@@@@@@@@@@@@@@@@@@@",
"@@@@@@@@@@@@@@@@OOOO@@@@@@@@OOOO@@@@@@@@@@@@&&&&ooooXXXX%%%%****%%%%%%%%%%%%%%%%%%%%%%%%****@@@@@@@@@@@@@@@@@@@@@@@@@@@@@@@@@@@@",
"@@@@@@@@@@@@@@@@OOOO@@@@@@@@OOOO@@@@@@@@@@@@&&&&ooooXXXX%%%%****%%%%%%%%%%%%%%%%%%%%%%%%****@@@@@@@@@@@@@@@@@@@@@@@@@@@@@@@@@@@@",
"@@@@@@@@@@@@@@@@OOOO@@@@@@@@OOOO@@@@@@@@@@@@&&&&ooooXXXX%%%%****%%%%%%%%%%%%%%%%%%%%%%%%****@@@@@@@@@@@@@@@@@@@@@@@@@@@@@@@@@@@@",
"@@@@@@@@@@@@@@@@OOOO@@@@@@@@OOOO@@@@@@@@@@@@&&&&ooooXXXX%%%%****%%%%%%%%%%%%%%%%%%%%%%%%****@@@@@@@@@@@@@@@@@@@@@@@@@@@@@@@@@@@@",
"@@@@@@@@@@@@@@@@@@@@OOOO@@@@OOOO@@@@++++@@@@&&&&ooooXXXX%%%%****%%%%            %%%%%%%%****OOOO@@@@@@@@@@@@@@@@OOOO@@@@@@@@@@@@",
"@@@@@@@@@@@@@@@@@@@@OOOO@@@@OOOO@@@@++++@@@@&&&&ooooXXXX%%%%****%%%%            %%%%%%%%****OOOO@@@@@@@@@@@@@@@@OOOO@@@@@@@@@@@@",
"@@@@@@@@@@@@@@@@@@@@OOOO@@@@OOOO@@@@++++@@@@&&&&ooooXXXX%%%%****%%%%            %%%%%%%%****OOOO@@@@@@@@@@@@@@@@OOOO@@@@@@@@@@@@",
"@@@@@@@@@@@@@@@@@@@@OOOO@@@@OOOO@@@@++++@@@@&&&&ooooXXXX%%%%****%%%%            %%%%%%%%****OOOO@@@@@@@@@@@@@@@@OOOO@@@@@@@@@@@@",
"@@@@@@@@@@@@++++@@@@OOOO@@@@++++++++@@@@@@@@&&&&ooooXXXX%%%%%%%%                XXXX%%%%****@@@@OOOO@@@@@@@@OOOO@@@@@@@@@@@@@@@@",
"@@@@@@@@@@@@++++@@@@OOOO@@@@++++++++@@@@@@@@&&&&ooooXXXX%%%%%%%%                XXXX%%%%****@@@@OOOO@@@@@@@@OOOO@@@@@@@@@@@@@@@@",
"@@@@@@@@@@@@++++@@@@OOOO@@@@++++++++@@@@@@@@&&&&ooooXXXX%%%%%%%%                XXXX%%%%****@@@@OOOO@@@@@@@@OOOO@@@@@@@@@@@@@@@@",
"@@@@@@@@@@@@++++@@@@OOOO@@@@++++++++@@@@@@@@&&&&ooooXXXX%%%%%%%%                XXXX%%%%****@@@@OOOO@@@@@@@@OOOO@@@@@@@@@@@@@@@@",
"@@@@@@@@@@@@@@@@++++++++@@@@@@@@@@@@@@@@@@@@%%%%&&&&XXXX%%%%%%%%    &&&&&&&&    XXXX%%%%%%%%@@@@OOOO@@@@@@@@OOOO@@@@++++@@@@@@@@",
"@@@@@@@@@@@@@@@@++++++++@@@@@@@@@@@@@@@@@@@@%%%%&&&&XXXX%%%%%%%%    &&&&&&&&    XXXX%%%%%%%%@@@@OOOO@@@@@@@@OOOO@@@@++++@@@@@@@@",
"@@@@@@@@@@@@@@@@++++++++@@@@@@@@@@@@@@@@@@@@%%%%&&&&XXXX%%%%%%%%    &&&&&&&&    XXXX%%%%%%%%@@@@OOOO@@@@@@@@OOOO@@@@++++@@@@@@@@",
"@@@@@@@@@@@@@@@@++++++++@@@@@@@@@@@@@@@@@@@@%%%%&&&&XXXX%%%%%%%%    &&&&&&&&    XXXX%%%%%%%%@@@@OOOO@@@@@@@@OOOO@@@@++++@@@@@@@@",
"@@@@@@@@@@@@@@@@@@@@@@@@@@@@@@@@@@@@@@@@$$$$%%%%&&&&XXXX%%%%%%%%    %%%%&&&&&&&&XXXX%%%%%%%%++++++++@@@@OOOO++++++++@@@@@@@@@@@@",
"@@@@@@@@@@@@@@@@@@@@@@@@@@@@@@@@@@@@@@@@$$$$%%%%&&&&XXXX%%%%%%%%    %%%%&&&&&&&&XXXX%%%%%%%%++++++++@@@@OOOO++++++++@@@@@@@@@@@@",
"@@@@@@@@@@@@@@@@@@@@@@@@@@@@@@@@@@@@@@@@$$$$%%%%&&&&XXXX%%%%%%%%    %%%%&&&&&&&&XXXX%%%%%%%%++++++++@@@@OOOO++++++++@@@@@@@@@@@@",
"@@@@@@@@@@@@@@@@@@@@@@@@@@@@@@@@@@@@@@@@$$$$%%%%&&&&XXXX%%%%%%%%    %%%%&&&&&&&&XXXX%%%%%%%%++++++++@@@@OOOO++++++++@@@@@@@@@@@@",
"@@@@@@@@@@@@@@@@@@@@@@@@@@@@@@@@@@@@@@@@@@@@%%%%%%%%&&&&    %%%%%%%%%%%%&&&&&&&&XXXX%%%%****@@@@@@@@@@@@++++@@@@@@@@@@@@@@@@@@@@",
"@@@@@@@@@@@@@@@@@@@@@@@@@@@@@@@@@@@@@@@@@@@@%%%%%%%%&&&&    %%%%%%%%%%%%&&&&&&&&XXXX%%%%****@@@@@@@@@@@@++++@@@@@@@@@@@@@@@@@@@@",
"@@@@@@@@@@@@@@@@@@@@@@@@@@@@@@@@@@@@@@@@@@@@%%%%%%%%&&&&    %%%%%%%%%%%%&&&&&&&&XXXX%%%%****@@@@@@@@@@@@++++@@@@@@@@@@@@@@@@@@@@",
"@@@@@@@@@@@@@@@@@@@@@@@@@@@@@@@@@@@@@@@@@@@@%%%%%%%%&&&&    %%%%%%%%%%%%&&&&&&&&XXXX%%%%****@@@@@@@@@@@@++++@@@@@@@@@@@@@@@@@@@@",
"@@@@@@@@@@@@@@@@@@@@@@@@@@@@@@@@@@@@@@@@@@@@%%%%%%%%&&&&&&&&&&&&        &&&&&&&&XXXX%%%%****@@@@@@@@@@@@@@@@@@@@@@@@@@@@@@@@@@@@",
"@@@@@@@@@@@@@@@@@@@@@@@@@@@@@@@@@@@@@@@@@@@@%%%%%%%%&&&&&&&&&&&&        &&&&&&&&XXXX%%%%****@@@@@@@@@@@@@@@@@@@@@@@@@@@@@@@@@@@@",
"@@@@@@@@@@@@@@@@@@@@@@@@@@@@@@@@@@@@@@@@@@@@%%%%%%%%&&&&&&&&&&&&        &&&&&&&&XXXX%%%%****@@@@@@@@@@@@@@@@@@@@@@@@@@@@@@@@@@@@",
"@@@@@@@@@@@@@@@@@@@@@@@@@@@@@@@@@@@@@@@@@@@@%%%%%%%%&&&&&&&&&&&&        &&&&&&&&XXXX%%%%****@@@@@@@@@@@@@@@@@@@@@@@@@@@@@@@@@@@@",
"@@@@@@@@@@@@@@@@@@@@@@@@@@@@@@@@@@@@@@@@@@@@&&&&%%%%%%%%%%%%&&&&&&&&&&&&%%%%&&&&XXXX%%%%%%%%@@@@@@@@@@@@@@@@@@@@@@@@....@@@@@@@@",
"@@@@@@@@@@@@@@@@@@@@@@@@@@@@@@@@@@@@@@@@@@@@&&&&%%%%%%%%%%%%&&&&&&&&&&&&%%%%&&&&XXXX%%%%%%%%@@@@@@@@@@@@@@@@@@@@@@@@....@@@@@@@@",
"@@@@@@@@@@@@@@@@@@@@@@@@@@@@@@@@@@@@@@@@@@@@&&&&%%%%%%%%%%%%&&&&&&&&&&&&%%%%&&&&XXXX%%%%%%%%@@@@@@@@@@@@@@@@@@@@@@@@....@@@@@@@@",
"@@@@@@@@@@@@@@@@@@@@@@@@@@@@@@@@@@@@@@@@@@@@&&&&%%%%%%%%%%%%&&&&&&&&&&&&%%%%&&&&XXXX%%%%%%%%@@@@@@@@@@@@@@@@@@@@@@@@....@@@@@@@@",
"@@@@@@@@@@@@@@@@@@@@....@@@@@@@@@@@@@@@@@@@@%%%%&&&&&&&&%%%%%%%%%%%%&&&&&&&&    oooo%%%%%%%%@@@@@@@@$$$$@@@@@@@@@@@@@@@@@@@@@@@@",
"@@@@@@@@@@@@@@@@@@@@....@@@@@@@@@@@@@@@@@@@@%%%%&&&&&&&&%%%%%%%%%%%%&&&&&&&&    oooo%%%%%%%%@@@@@@@@$$$$@@@@@@@@@@@@@@@@@@@@@@@@",
"@@@@@@@@@@@@@@@@@@@@....@@@@@@@@@@@@@@@@@@@@%%%%&&&&&&&&%%%%%%%%%%%%&&&&&&&&    oooo%%%%%%%%@@@@@@@@$$$$@@@@@@@@@@@@@@@@@@@@@@@@",
"@@@@@@@@@@@@@@@@@@@@....@@@@@@@@@@@@@@@@@@@@%%%%&&&&&&&&%%%%%%%%%%%%&&&&&&&&    oooo%%%%%%%%@@@@@@@@$$$$@@@@@@@@@@@@@@@@@@@@@@@@",
"@@@@@@@@@@@@@@@@@@@@@@@@@@@@@@@@@@@@@@@@@@@@++++&&&&oooo&&&&&&&&&&&&&&&&    XXXX%%%%%%%%%%%%@@@@@@@@@@@@@@@@@@@@@@@@@@@@@@@@@@@@",
"@@@@@@@@@@@@@@@@@@@@@@@@@@@@@@@@@@@@@@@@@@@@++++&&&&oooo&&&&&&&&&&&&&&&&    XXXX%%%%%%%%%%%%@@@@@@@@@@@@@@@@@@@@@@@@@@@@@@@@@@@@",
"@@@@@@@@@@@@@@@@@@@@@@@@@@@@@@@@@@@@@@@@@@@@++++&&&&oooo&&&&&&&&&&&&&&&&    XXXX%%%%%%%%%%%%@@@@@@@@@@@@@@@@@@@@@@@@@@@@@@@@@@@@",
"@@@@@@@@@@@@@@@@@@@@@@@@@@@@@@@@@@@@@@@@@@@@++++&&&&oooo&&&&&&&&&&&&&&&&    XXXX%%%%%%%%%%%%@@@@@@@@@@@@@@@@@@@@@@@@@@@@@@@@@@@@",
"@@@@@@@@@@@@@@@@@@@@@@@@@@@@@@@@@@@@@@@@@@@@@@@@&&&&ooooXXXX                XXXX%%%%%%%%%%%%@@@@OOOO@@@@@@@@@@@@@@@@OOOO@@@@@@@@",
"@@@@@@@@@@@@@@@@@@@@@@@@@@@@@@@@@@@@@@@@@@@@@@@@&&&&ooooXXXX                XXXX%%%%%%%%%%%%@@@@OOOO@@@@@@@@@@@@@@@@OOOO@@@@@@@@",
"@@@@@@@@@@@@@@@@@@@@@@@@@@@@@@@@@@@@@@@@@@@@@@@@&&&&ooooXXXX                XXXX%%%%%%%%%%%%@@@@OOOO@@@@@@@@@@@@@@@@OOOO@@@@@@@@",
"@@@@@@@@@@@@@@@@@@@@@@@@@@@@@@@@@@@@@@@@@@@@@@@@&&&&ooooXXXX                XXXX%%%%%%%%%%%%@@@@OOOO@@@@@@@@@@@@@@@@OOOO@@@@@@@@",
"@@@@@@@@@@@@@@@@@@@@@@@@@@@@@@@@@@@@@@@@@@@@@@@@&&&&oooooooo                oooo%%%%****@@@@@@@@@@@@OOOO@@@@@@@@OOOO@@@@@@@@@@@@",
"@@@@@@@@@@@@@@@@@@@@@@@@@@@@@@@@@@@@@@@@@@@@@@@@&&&&oooooooo                oooo%%%%****@@@@@@@@@@@@OOOO@@@@@@@@OOOO@@@@@@@@@@@@",
"@@@@@@@@@@@@@@@@@@@@@@@@@@@@@@@@@@@@@@@@@@@@@@@@&&&&oooooooo                oooo%%%%****@@@@@@@@@@@@OOOO@@@@@@@@OOOO@@@@@@@@@@@@",
"@@@@@@@@@@@@@@@@@@@@@@@@@@@@@@@@@@@@@@@@@@@@@@@@&&&&oooooooo                oooo%%%%****@@@@@@@@@@@@OOOO@@@@@@@@OOOO@@@@@@@@@@@@",
"@@@@@@@@@@@@@@@@@@@@====@@@@@@@@@@@@@@@@@@@@@@@@%%%%&&&&ooooXXXX        XXXXoooo%%%%****@@@@++++@@@@OOOO@@@@@@@@OOOO@@@@++++@@@@",
"@@@@@@@@@@@@@@@@@@@@====@@@@@@@@@@@@@@@@@@@@@@@@%%%%&&&&ooooXXXX        XXXXoooo%%%%****@@@@++++@@@@OOOO@@@@@@@@OOOO@@@@++++@@@@",
"@@@@@@@@@@@@@@@@@@@@====@@@@@@@@@@@@@@@@@@@@@@@@%%%%&&&&ooooXXXX        XXXXoooo%%%%****@@@@++++@@@@OOOO@@@@@@@@OOOO@@@@++++@@@@",
"@@@@@@@@@@@@@@@@@@@@====@@@@@@@@@@@@@@@@@@@@@@@@%%%%&&&&ooooXXXX        XXXXoooo%%%%****@@@@++++@@@@OOOO@@@@@@@@OOOO@@@@++++@@@@",
"@@@@@@@@@@@@@@@@====####====@@@@@@@@@@@@@@@@@@@@OOOO&&&&ooooooooXXXXXXXXoooooooo%%%%%%%%&&&&@@@@++++++++OOOO@@@@++++++++@@@@@@@@",
"@@@@@@@@@@@@@@@@====####====@@@@@@@@@@@@@@@@@@@@OOOO&&&&ooooooooXXXXXXXXoooooooo%%%%%%%%&&&&@@@@++++++++OOOO@@@@++++++++@@@@@@@@",
"@@@@@@@@@@@@@@@@====####====@@@@@@@@@@@@@@@@@@@@OOOO&&&&ooooooooXXXXXXXXoooooooo%%%%%%%%&&&&@@@@++++++++OOOO@@@@++++++++@@@@@@@@",
"@@@@@@@@@@@@@@@@====####====@@@@@@@@@@@@@@@@@@@@OOOO&&&&ooooooooXXXXXXXXoooooooo%%%%%%%%&&&&@@@@++++++++OOOO@@@@++++++++@@@@@@@@",
"@@@@@@@@@@@@@@@@@@@@====@@@@@@@@OOOO@@@@@@@@OOOO@@@@%%%%&&&&oooooooooooooooo%%%%%%%%@@@@&&&&@@@@@@@@@@@@++++@@@@@@@@@@@@@@@@@@@@",
"@@@@@@@@@@@@@@@@@@@@====@@@@@@@@OOOO@@@@@@@@OOOO@@@@%%%%&&&&oooooooooooooooo%%%%%%%%@@@@&&&&@@@@@@@@@@@@++++@@@@@@@@@@@@@@@@@@@@",
"@@@@@@@@@@@@@@@@@@@@====@@@@@@@@OOOO@@@@@@@@OOOO@@@@%%%%&&&&oooooooooooooooo%%%%%%%%@@@@&&&&@@@@@@@@@@@@++++@@@@@@@@@@@@@@@@@@@@",
"@@@@@@@@@@@@@@@@@@@@====@@@@@@@@OOOO@@@@@@@@OOOO@@@@%%%%&&&&oooooooooooooooo%%%%%%%%@@@@&&&&@@@@@@@@@@@@++++@@@@@@@@@@@@@@@@@@@@",
"@@@@@@@@@@@@@@@@@@@@@@@@@@@@@@@@@@@@OOOO@@@@OOOO@@@@++++&&&&oooooooooooooooo%%%%@@@@....@@@@@@@@@@@@@@@@@@@@@@@@@@@@@@@@@@@@@@@@",
"@@@@@@@@@@@@@@@@@@@@@@@@@@@@@@@@@@@@OOOO@@@@OOOO@@@@++++&&&&oooooooooooooooo%%%%@@@@....@@@@@@@@@@@@@@@@@@@@@@@@@@@@@@@@@@@@@@@@",
"@@@@@@@@@@@@@@@@@@@@@@@@@@@@@@@@@@@@OOOO@@@@OOOO@@@@++++&&&&oooooooooooooooo%%%%@@@@....@@@@@@@@@@@@@@@@@@@@@@@@@@@@@@@@@@@@@@@@",
"@@@@@@@@@@@@@@@@@@@@@@@@@@@@@@@@@@@@OOOO@@@@OOOO@@@@++++&&&&oooooooooooooooo%%%%@@@@....@@@@@@@@@@@@@@@@@@@@@@@@@@@@@@@@@@@@@@@@",
"@@@@@@@@@@@@@@@@@@@@@@@@@@@@++++@@@@OOOO@@@@++++++++@@@@%%%%&&&&oooooooo%%%%%%%%@@@@@@@@@@@@@@@@@@@@@@@@@@@@@@@@@@@@@@@@@@@@@@@@",
"@@@@@@@@@@@@@@@@@@@@@@@@@@@@++++@@@@OOOO@@@@++++++++@@@@%%%%&&&&oooooooo%%%%%%%%@@@@@@@@@@@@@@@@@@@@@@@@@@@@@@@@@@@@@@@@@@@@@@@@",
"@@@@@@@@@@@@@@@@@@@@@@@@@@@@++++@@@@OOOO@@@@++++++++@@@@%%%%&&&&oooooooo%%%%%%%%@@@@@@@@@@@@@@@@@@@@@@@@@@@@@@@@@@@@@@@@@@@@@@@@",
"@@@@@@@@@@@@@@@@@@@@@@@@@@@@++++@@@@OOOO@@@@++++++++@@@@%%%%&&&&oooooooo%%%%%%%%@@@@@@@@@@@@@@@@@@@@@@@@@@@@@@@@@@@@@@@@@@@@@@@@",
"@@@@@@@@@@@@@@@@@@@@@@@@@@@@@@@@++++++++@@@@@@@@@@@@@@@@@@@@%%%%%%%%%%%%%%%%@@@@@@@@@@@@@@@@@@@@@@@@@@@@@@@@@@@@@@@@@@@@@@@@@@@@",
"@@@@@@@@@@@@@@@@@@@@@@@@@@@@@@@@++++++++@@@@@@@@@@@@@@@@@@@@%%%%%%%%%%%%%%%%@@@@@@@@@@@@@@@@@@@@@@@@@@@@@@@@@@@@@@@@@@@@@@@@@@@@",
"@@@@@@@@@@@@@@@@@@@@@@@@@@@@@@@@++++++++@@@@@@@@@@@@@@@@@@@@%%%%%%%%%%%%%%%%@@@@@@@@@@@@@@@@@@@@@@@@@@@@@@@@@@@@@@@@@@@@@@@@@@@@",
"@@@@@@@@@@@@@@@@@@@@@@@@@@@@@@@@++++++++@@@@@@@@@@@@@@@@@@@@%%%%%%%%%%%%%%%%@@@@@@@@@@@@@@@@@@@@@@@@@@@@@@@@@@@@@@@@@@@@@@@@@@@@",
"@@@@@@@@@@@@@@@@@@@@@@@@@@@@@@@@@@@@@@@@@@@@@@@@@@@@@@@@@@@@@@@@@@@@@@@@@@@@@@@@@@@@@@@@@@@@@@@@@@@@@@@@@@@@@@@@@@@@@@@@@@@@@@@@",
"@@@@@@@@@@@@@@@@@@@@@@@@@@@@@@@@@@@@@@@@@@@@@@@@@@@@@@@@@@@@@@@@@@@@@@@@@@@@@@@@@@@@@@@@@@@@@@@@@@@@@@@@@@@@@@@@@@@@@@@@@@@@@@@@",
"@@@@@@@@@@@@@@@@@@@@@@@@@@@@@@@@@@@@@@@@@@@@@@@@@@@@@@@@@@@@@@@@@@@@@@@@@@@@@@@@@@@@@@@@@@@@@@@@@@@@@@@@@@@@@@@@@@@@@@@@@@@@@@@@",
"@@@@@@@@@@@@@@@@@@@@@@@@@@@@@@@@@@@@@@@@@@@@@@@@@@@@@@@@@@@@@@@@@@@@@@@@@@@@@@@@@@@@@@@@@@@@@@@@@@@@@@@@@@@@@@@@@@@@@@@@@@@@@@@@"
};
