/* XPM */
static char *result[] = {
/* columns rows colors chars-per-pixel */
"128 128 13 1 ",
"  c #467D12",
". c #000B41",
"X c #00115F",
"o c #001578",
"O c #539614",
"+ c #5B9623",
"@ c #6DAF2E",
"# c #74BE2C",
"$ c #D7CF22",
"% c #8ABE58",
"& c #001A96",
"* c #1E3CCD",
"= c gainsboro",
/* pixels */
"################################################################################################################################",
"################################################################################################################################",
"################################################################################################################################",
"################################################################################################################################",
"################################################################################################################################",
"################################################################################################################################",
"################################################################################################################################",
"################################################################################################################################",
"####################################################################################    ####################====################",
"####################################################################################    ####################====################",
"####################################################################################    ####################====################",
"####################################################################################    ####################====################",
"####################################OOOO################################################################====$$$$====############",
"####################################OOOO################################################################====$$$$====############",
"####################################OOOO################################################################====$$$$====############",
"####################################OOOO################################################################====$$$$====############",
"####################OOOO########OOOO########################################################################====################",
"####################OOOO########OOOO########################################################################====################",
"####################OOOO########OOOO########################################################################====################",
"####################OOOO########OOOO########################################################################====################",
"########################OOOO####OOOO####@@@@################%%%%################################################################",
"########################OOOO####OOOO####@@@@################%%%%################################################################",
"########################OOOO####OOOO####@@@@################%%%%################################################################",
"########################OOOO####OOOO####@@@@################%%%%################################################################",
"################@@@@####OOOO####@@@@@@@@########====########################OOOO################OOOO############################",
"################@@@@####OOOO####@@@@@@@@########====########################OOOO################OOOO############################",
"################@@@@####OOOO####@@@@@@@@########====########################OOOO################OOOO############################",
"################@@@@####OOOO####@@@@@@@@########====########################OOOO################OOOO############################",
"####################@@@@@@@@################====$$$$====####........############OOOO########OOOO################################",
"####################@@@@@@@@################====$$$$====####........############OOOO########OOOO################################",
"####################@@@@@@@@################====$$$$====####........############OOOO########OOOO################################",
"####################@@@@@@@@################====$$$$====####........############OOOO########OOOO################################",
"################################################====####....oooo&&&&....@@@@####OOOO########OOOO####@@@@########################",
"################################################====####....oooo&&&&....@@@@####OOOO########OOOO####@@@@########################",
"################################################====####....oooo&&&&....@@@@####OOOO########OOOO####@@@@########################",
"################################################====####....oooo&&&&....@@@@####OOOO########OOOO####@@@@########################",
"########%%%%########################################....oooooooo&&&&&&&&....@@@@@@@@OOOO####@@@@@@@@############################",
"########%%%%########################################....oooooooo&&&&&&&&....@@@@@@@@OOOO####@@@@@@@@############################",
"########%%%%########################################....oooooooo&&&&&&&&....@@@@@@@@OOOO####@@@@@@@@############################",
"########%%%%########################################....oooooooo&&&&&&&&....@@@@@@@@OOOO####@@@@@@@@############################",
"################################################....oooooooooooo&&&&&&&&&&&&....####@@@@########################################",
"################################################....oooooooooooo&&&&&&&&&&&&....####@@@@########################################",
"################################################....oooooooooooo&&&&&&&&&&&&....####@@@@########################################",
"################################################....oooooooooooo&&&&&&&&&&&&....####@@@@########################################",
"############################################....ooooooooooooXXXXXXXX&&&&&&&&&&&&....########################%%%%################",
"############################################....ooooooooooooXXXXXXXX&&&&&&&&&&&&....########################%%%%################",
"############################################....ooooooooooooXXXXXXXX&&&&&&&&&&&&....########################%%%%################",
"############################################....ooooooooooooXXXXXXXX&&&&&&&&&&&&....########################%%%%################",
"################################OOOO####....XXXXooooooooXXXX********XXXX&&&&&&&&XXXX....########################################",
"################################OOOO####....XXXXooooooooXXXX********XXXX&&&&&&&&XXXX....########################################",
"################################OOOO####....XXXXooooooooXXXX********XXXX&&&&&&&&XXXX....########################################",
"################################OOOO####....XXXXooooooooXXXX********XXXX&&&&&&&&XXXX....########################################",
"################OOOO########OOOO########....********XXXXoooooooooooo****XXXX&&&&&&&&....########################################",
"################OOOO########OOOO########....********XXXXoooooooooooo****XXXX&&&&&&&&....########################################",
"################OOOO########OOOO########....********XXXXoooooooooooo****XXXX&&&&&&&&....########################################",
"################OOOO########OOOO########....********XXXXoooooooooooo****XXXX&&&&&&&&....########################################",
"####################OOOO####OOOO####@@@@....********XXXXooooooooooooooooXXXX&&&&&&&&....####OOOO################OOOO############",
"####################OOOO####OOOO####@@@@....********XXXXooooooooooooooooXXXX&&&&&&&&....####OOOO################OOOO############",
"####################OOOO####OOOO####@@@@....********XXXXooooooooooooooooXXXX&&&&&&&&....####OOOO################OOOO############",
"####################OOOO####OOOO####@@@@....********XXXXooooooooooooooooXXXX&&&&&&&&....####OOOO################OOOO############",
"############@@@@####OOOO####@@@@@@@@####....********XXXXooooooooooooooooXXXX&&&&&&&&....########OOOO########OOOO################",
"############@@@@####OOOO####@@@@@@@@####....********XXXXooooooooooooooooXXXX&&&&&&&&....########OOOO########OOOO################",
"############@@@@####OOOO####@@@@@@@@####....********XXXXooooooooooooooooXXXX&&&&&&&&....########OOOO########OOOO################",
"############@@@@####OOOO####@@@@@@@@####....********XXXXooooooooooooooooXXXX&&&&&&&&....########OOOO########OOOO################",
"################@@@@@@@@################....********XXXXooooooooooooooooXXXX&&&&&&&&....@@@@####OOOO########OOOO####@@@@########",
"################@@@@@@@@################....********XXXXooooooooooooooooXXXX&&&&&&&&....@@@@####OOOO########OOOO####@@@@########",
"################@@@@@@@@################....********XXXXooooooooooooooooXXXX&&&&&&&&....@@@@####OOOO########OOOO####@@@@########",
"################@@@@@@@@################....********XXXXooooooooooooooooXXXX&&&&&&&&....@@@@####OOOO########OOOO####@@@@########",
"########################################....********XXXXooooooooooooooooXXXX&&&&&&&&....####@@@@@@@@####OOOO@@@@@@@@############",
"########################################....********XXXXooooooooooooooooXXXX&&&&&&&&....####@@@@@@@@####OOOO@@@@@@@@############",
"########################################....********XXXXooooooooooooooooXXXX&&&&&&&&....####@@@@@@@@####OOOO@@@@@@@@############",
"########################################....********XXXXooooooooooooooooXXXX&&&&&&&&....####@@@@@@@@####OOOO@@@@@@@@############",
"########################################....********XXXXooooooooooooooooXXXX&&&&&&&&....################@@@@####################",
"########################################....********XXXXooooooooooooooooXXXX&&&&&&&&....################@@@@####################",
"########################################....********XXXXooooooooooooooooXXXX&&&&&&&&....################@@@@####################",
"########################################....********XXXXooooooooooooooooXXXX&&&&&&&&....################@@@@####################",
"########################################....********XXXXooooooooooooooooXXXX&&&&&&&&....====####################################",
"########################################....********XXXXooooooooooooooooXXXX&&&&&&&&....====####################################",
"########################################....********XXXXooooooooooooooooXXXX&&&&&&&&....====####################################",
"########################################....********XXXXooooooooooooooooXXXX&&&&&&&&....====####################################",
"########################################....XXXX&&&&&&&&XXXXooooooooXXXXooooooooXXXX....############################    ########",
"########################################....XXXX&&&&&&&&XXXXooooooooXXXXooooooooXXXX....############################    ########",
"########################################....XXXX&&&&&&&&XXXXooooooooXXXXooooooooXXXX....############################    ########",
"########################################....XXXX&&&&&&&&XXXXooooooooXXXXooooooooXXXX....############################    ########",
"####################    ####################....&&&&&&&&&&&&XXXXXXXXoooooooooooo....################%%%%########################",
"####################    ####################....&&&&&&&&&&&&XXXXXXXXoooooooooooo....################%%%%########################",
"####################    ####################....&&&&&&&&&&&&XXXXXXXXoooooooooooo....################%%%%########################",
"####################    ####################....&&&&&&&&&&&&XXXXXXXXoooooooooooo....################%%%%########################",
"################################################....&&&&&&&&&&&&oooooooooooo....################################################",
"################################################....&&&&&&&&&&&&oooooooooooo....################################################",
"################################################....&&&&&&&&&&&&oooooooooooo....################################################",
"################################################....&&&&&&&&&&&&oooooooooooo....################################################",
"################################################++++....&&&&&&&&oooooooo....++++################OOOO################OOOO########",
"################################################++++....&&&&&&&&oooooooo....++++################OOOO################OOOO########",
"################################################++++....&&&&&&&&oooooooo....++++################OOOO################OOOO########",
"################################################++++....&&&&&&&&oooooooo....++++################OOOO################OOOO########",
"############################################++++++++++++....&&&&oooo....++++++++++++################OOOO########OOOO############",
"############################################++++++++++++....&&&&oooo....++++++++++++################OOOO########OOOO############",
"############################################++++++++++++....&&&&oooo....++++++++++++################OOOO########OOOO############",
"############################################++++++++++++....&&&&oooo....++++++++++++################OOOO########OOOO############",
"####################====####################++++++++++++++++........++++++++++++++++########@@@@####OOOO########OOOO####@@@@####",
"####################====####################++++++++++++++++........++++++++++++++++########@@@@####OOOO########OOOO####@@@@####",
"####################====####################++++++++++++++++........++++++++++++++++########@@@@####OOOO########OOOO####@@@@####",
"####################====####################++++++++++++++++........++++++++++++++++########@@@@####OOOO########OOOO####@@@@####",
"################====$$$$====####################OOOO++++++++++++++++++++++++++++################@@@@@@@@OOOO####@@@@@@@@########",
"################====$$$$====####################OOOO++++++++++++++++++++++++++++################@@@@@@@@OOOO####@@@@@@@@########",
"################====$$$$====####################OOOO++++++++++++++++++++++++++++################@@@@@@@@OOOO####@@@@@@@@########",
"################====$$$$====####################OOOO++++++++++++++++++++++++++++################@@@@@@@@OOOO####@@@@@@@@########",
"####################====########OOOO########OOOO####++++++++++++++++++++++++############################@@@@####################",
"####################====########OOOO########OOOO####++++++++++++++++++++++++############################@@@@####################",
"####################====########OOOO########OOOO####++++++++++++++++++++++++############################@@@@####################",
"####################====########OOOO########OOOO####++++++++++++++++++++++++############################@@@@####################",
"####################################OOOO####OOOO####@@@@++++++++++++++++############    ########################################",
"####################################OOOO####OOOO####@@@@++++++++++++++++############    ########################################",
"####################################OOOO####OOOO####@@@@++++++++++++++++############    ########################################",
"####################################OOOO####OOOO####@@@@++++++++++++++++############    ########################################",
"############################@@@@####OOOO####@@@@@@@@################%%%%########################################################",
"############################@@@@####OOOO####@@@@@@@@################%%%%########################################################",
"############################@@@@####OOOO####@@@@@@@@################%%%%########################################################",
"############################@@@@####OOOO####@@@@@@@@################%%%%########################################################",
"################################@@@@@@@@########################################################################################",
"################################@@@@@@@@########################################################################################",
"################################@@@@@@@@########################################################################################",
"################################@@@@@@@@########################################################################################",
"################################################################################################################################",
"################################################################################################################################",
"################################################################################################################################",
"################################################################################################################################"
};
