/* XPM */
static char *result[] = {
/* columns rows colors chars-per-pixel */
"128 128 13 1 ",
"  c #467D12",
". c #000B41",
"X c #00115F",
"o c #001578",
"O c #539614",
"+ c #5B9623",
"@ c #6DAF2E",
"# c #74BE2C",
"$ c #D7CF22",
"% c #8ABE58",
"& c #001A96",
"* c #1E3CCD",
"= c gainsboro",
/* pixels */
"################################################################################################################################",
"################################################################################################################################",
"################################################################################################################################",
"################################################################################################################################",
"################################################################################################################################",
"################################################################################################################################",
"################################################################################################################################",
"################################################################################################################################",
"####################################################################################    ####################====################",
"####################################################################################    ####################====################",
"####################################################################################    ####################====################",
"####################################################################################    ####################====################",
"####################################OOOO####################........####################################====$$$$====############",
"####################################OOOO####################........####################################====$$$$====############",
"####################################OOOO####################........####################################====$$$$====############",
"####################################OOOO####################........####################################====$$$$====############",
"####################OOOO########OOOO####################....oooo&&&&....####################################====################",
"####################OOOO########OOOO####################....oooo&&&&....####################################====################",
"####################OOOO########OOOO####################....oooo&&&&....####################################====################",
"####################OOOO########OOOO####################....oooo&&&&....####################################====################",
"########################OOOO####OOOO####@@@@########....oooooooo&&&&&&&&....####################################################",
"########################OOOO####OOOO####@@@@########....oooooooo&&&&&&&&....####################################################",
"########################OOOO####OOOO####@@@@########....oooooooo&&&&&&&&....####################################################",
"########################OOOO####OOOO####@@@@########....oooooooo&&&&&&&&....####################################################",
"################@@@@####OOOO####@@@@@@@@########....oooooooooooo&&&&&&&&&&&&....################OOOO############################",
"################@@@@####OOOO####@@@@@@@@########....oooooooooooo&&&&&&&&&&&&....################OOOO############################",
"################@@@@####OOOO####@@@@@@@@########....oooooooooooo&&&&&&&&&&&&....################OOOO############################",
"################@@@@####OOOO####@@@@@@@@########....oooooooooooo&&&&&&&&&&&&....################OOOO############################",
"####################@@@@@@@@################....ooooooooooooXXXXXXXX&&&&&&&&&&&&....########OOOO################################",
"####################@@@@@@@@################....ooooooooooooXXXXXXXX&&&&&&&&&&&&....########OOOO################################",
"####################@@@@@@@@################....ooooooooooooXXXXXXXX&&&&&&&&&&&&....########OOOO################################",
"####################@@@@@@@@################....ooooooooooooXXXXXXXX&&&&&&&&&&&&....########OOOO################################",
"########################################....XXXXooooooooXXXX********XXXX&&&&&&&&XXXX....####OOOO####@@@@########################",
"########################################....XXXXooooooooXXXX********XXXX&&&&&&&&XXXX....####OOOO####@@@@########################",
"########################################....XXXXooooooooXXXX********XXXX&&&&&&&&XXXX....####OOOO####@@@@########################",
"########################################....XXXXooooooooXXXX********XXXX&&&&&&&&XXXX....####OOOO####@@@@########################",
"########%%%%############################....********XXXXoooooooooooo****XXXX&&&&&&&&....####@@@@@@@@############################",
"########%%%%############################....********XXXXoooooooooooo****XXXX&&&&&&&&....####@@@@@@@@############################",
"########%%%%############################....********XXXXoooooooooooo****XXXX&&&&&&&&....####@@@@@@@@############################",
"########%%%%############################....********XXXXoooooooooooo****XXXX&&&&&&&&....####@@@@@@@@############################",
"########################################....********XXXXooooooooooooooooXXXX&&&&&&&&....########################################",
"########################################....********XXXXooooooooooooooooXXXX&&&&&&&&....########################################",
"########################################....********XXXXooooooooooooooooXXXX&&&&&&&&....########################################",
"########################################....********XXXXooooooooooooooooXXXX&&&&&&&&....########################################",
"########################################....********XXXXooooooooooooooooXXXX&&&&&&&&....####################%%%%################",
"########################################....********XXXXooooooooooooooooXXXX&&&&&&&&....####################%%%%################",
"########################################....********XXXXooooooooooooooooXXXX&&&&&&&&....####################%%%%################",
"########################################....********XXXXooooooooooooooooXXXX&&&&&&&&....####################%%%%################",
"################################OOOO####....********XXXXooooooooooooooooXXXX&&&&&&&&....########################################",
"################################OOOO####....********XXXXooooooooooooooooXXXX&&&&&&&&....########################################",
"################################OOOO####....********XXXXooooooooooooooooXXXX&&&&&&&&....########################################",
"################################OOOO####....********XXXXooooooooooooooooXXXX&&&&&&&&....########################################",
"################OOOO########OOOO########....********XXXXooooooooooooooooXXXX&&&&&&&&....########################################",
"################OOOO########OOOO########....********XXXXooooooooooooooooXXXX&&&&&&&&....########################################",
"################OOOO########OOOO########....********XXXXooooooooooooooooXXXX&&&&&&&&....########################################",
"################OOOO########OOOO########....********XXXXooooooooooooooooXXXX&&&&&&&&....########################################",
"####################OOOO####OOOO####@@@@....********XXXXooooooooooooooooXXXX&&&&&&&&....####OOOO################OOOO############",
"####################OOOO####OOOO####@@@@....********XXXXooooooooooooooooXXXX&&&&&&&&....####OOOO################OOOO############",
"####################OOOO####OOOO####@@@@....********XXXXooooooooooooooooXXXX&&&&&&&&....####OOOO################OOOO############",
"####################OOOO####OOOO####@@@@....********XXXXooooooooooooooooXXXX&&&&&&&&....####OOOO################OOOO############",
"############@@@@####OOOO####@@@@@@@@####....********XXXXooooooooooooooooXXXX&&&&&&&&....########OOOO########OOOO################",
"############@@@@####OOOO####@@@@@@@@####....********XXXXooooooooooooooooXXXX&&&&&&&&....########OOOO########OOOO################",
"############@@@@####OOOO####@@@@@@@@####....********XXXXooooooooooooooooXXXX&&&&&&&&....########OOOO########OOOO################",
"############@@@@####OOOO####@@@@@@@@####....********XXXXooooooooooooooooXXXX&&&&&&&&....########OOOO########OOOO################",
"################@@@@@@@@################....XXXX&&&&&&&&XXXXooooooooXXXXooooooooXXXX....@@@@####OOOO########OOOO####@@@@########",
"################@@@@@@@@################....XXXX&&&&&&&&XXXXooooooooXXXXooooooooXXXX....@@@@####OOOO########OOOO####@@@@########",
"################@@@@@@@@################....XXXX&&&&&&&&XXXXooooooooXXXXooooooooXXXX....@@@@####OOOO########OOOO####@@@@########",
"################@@@@@@@@################....XXXX&&&&&&&&XXXXooooooooXXXXooooooooXXXX....@@@@####OOOO########OOOO####@@@@########",
"############################################....&&&&&&&&&&&&XXXXXXXXoooooooooooo....########@@@@@@@@####OOOO@@@@@@@@############",
"############################################....&&&&&&&&&&&&XXXXXXXXoooooooooooo....########@@@@@@@@####OOOO@@@@@@@@############",
"############################################....&&&&&&&&&&&&XXXXXXXXoooooooooooo....########@@@@@@@@####OOOO@@@@@@@@############",
"############################################....&&&&&&&&&&&&XXXXXXXXoooooooooooo....########@@@@@@@@####OOOO@@@@@@@@############",
"################################################....&&&&&&&&&&&&oooooooooooo....####====################@@@@####################",
"################################################....&&&&&&&&&&&&oooooooooooo....####====################@@@@####################",
"################################################....&&&&&&&&&&&&oooooooooooo....####====################@@@@####################",
"################################################....&&&&&&&&&&&&oooooooooooo....####====################@@@@####################",
"####################################################....&&&&&&&&oooooooo....####====$$$$====####################################",
"####################################################....&&&&&&&&oooooooo....####====$$$$====####################################",
"####################################################....&&&&&&&&oooooooo....####====$$$$====####################################",
"####################################################....&&&&&&&&oooooooo....####====$$$$====####################################",
"########################################################....&&&&oooo....############====############################    ########",
"########################################################....&&&&oooo....############====############################    ########",
"########################################################....&&&&oooo....############====############################    ########",
"########################################################....&&&&oooo....############====############################    ########",
"####################    ####################################........################################%%%%########################",
"####################    ####################################........################################%%%%########################",
"####################    ####################################........################################%%%%########################",
"####################    ####################################........################################%%%%########################",
"################################################################################################################################",
"################################################################################################################################",
"################################################################################################################################",
"################################################################################################################################",
"################################################################################################OOOO################OOOO########",
"################################################################################################OOOO################OOOO########",
"################################################################################################OOOO################OOOO########",
"################################################################################################OOOO################OOOO########",
"####################################################################################################OOOO########OOOO############",
"####################################################################################################OOOO########OOOO############",
"####################################################################################################OOOO########OOOO############",
"####################################################################################################OOOO########OOOO############",
"####################====####################################++++++++########################@@@@####OOOO########OOOO####@@@@####",
"####################====####################################++++++++########################@@@@####OOOO########OOOO####@@@@####",
"####################====####################################++++++++########################@@@@####OOOO########OOOO####@@@@####",
"####################====####################################++++++++########################@@@@####OOOO########OOOO####@@@@####",
"################====$$$$====####################OOOO####++++++++++++++++########################@@@@@@@@OOOO####@@@@@@@@########",
"################====$$$$====####################OOOO####++++++++++++++++########################@@@@@@@@OOOO####@@@@@@@@########",
"################====$$$$====####################OOOO####++++++++++++++++########################@@@@@@@@OOOO####@@@@@@@@########",
"################====$$$$====####################OOOO####++++++++++++++++########################@@@@@@@@OOOO####@@@@@@@@########",
"####################====########OOOO########OOOO############++++++++####################################@@@@####################",
"####################====########OOOO########OOOO############++++++++####################################@@@@####################",
"####################====########OOOO########OOOO############++++++++####################################@@@@####################",
"####################====########OOOO########OOOO############++++++++####################################@@@@####################",
"####################################OOOO####OOOO####@@@@############################    ########################################",
"####################################OOOO####OOOO####@@@@############################    ########################################",
"####################################OOOO####OOOO####@@@@############################    ########################################",
"####################################OOOO####OOOO####@@@@############################    ########################################",
"############################@@@@####OOOO####@@@@@@@@################%%%%########################################################",
"############################@@@@####OOOO####@@@@@@@@################%%%%########################################################",
"############################@@@@####OOOO####@@@@@@@@################%%%%########################################################",
"############################@@@@####OOOO####@@@@@@@@################%%%%########################################################",
"################################@@@@@@@@########################################################################################",
"################################@@@@@@@@########################################################################################",
"################################@@@@@@@@########################################################################################",
"################################@@@@@@@@########################################################################################",
"################################################################################################################################",
"################################################################################################################################",
"################################################################################################################################",
"################################################################################################################################"
};
