/* XPM */
static char *result[] = {
/* columns rows colors chars-per-pixel */
"32 32 152 2 ",
"   c #78273E",
".  c #743839",
"X  c #66681E",
"o  c #6C6B1D",
"O  c #78771E",
"+  c #5D5522",
"@  c #59473A",
"#  c #554C3A",
"$  c #565537",
"%  c #595939",
"&  c #675A25",
"*  c #604E3D",
"=  c #754537",
"-  c #685536",
";  c #5C6225",
":  c #7A2940",
">  c #7E3944",
",  c #584342",
"<  c #5B5140",
"1  c #614747",
"2  c #664C4B",
"3  c #6A514F",
"4  c #6D5453",
"5  c #6E5B5A",
"6  c #725555",
"7  c #735A57",
"8  c #765C5A",
"9  c #795F5C",
"0  c #7A6344",
"q  c #7A615E",
"w  c #7C706F",
"e  c #987A13",
"r  c #88504F",
"t  c #967A5A",
"y  c #B15D72",
"u  c #856D69",
"i  c #886F6B",
"p  c #8B726E",
"a  c #957B66",
"s  c #8F7772",
"d  c #927A75",
"f  c #977F7A",
"g  c #A67566",
"h  c #AE6376",
"j  c #B16B7B",
"k  c #B67179",
"l  c #C1716C",
"z  c #5A8D1C",
"x  c #61A61E",
"c  c #6D942F",
"v  c #719B2D",
"b  c #689A30",
"n  c #6DA52C",
"m  c #6EAD2C",
"M  c #79AD27",
"N  c #72AC2C",
"B  c #6FB22B",
"V  c #70B22D",
"C  c #7EB42F",
"Z  c #74BE2C",
"A  c #70AD35",
"S  c #74AE3B",
"D  c #74B534",
"F  c #76BE30",
"G  c #75B13B",
"H  c #7DC13D",
"J  c #7EB34C",
"K  c #7C8C6E",
"L  c #7D8677",
"P  c #7D8578",
"I  c #AE8F19",
"U  c #B49B1F",
"Y  c #B88F24",
"T  c #B69737",
"R  c #BEA930",
"E  c #D5B91B",
"W  c #C09E2A",
"Q  c #D0B42B",
"!  c #C8C012",
"~  c #E6DE1C",
"^  c #E9C723",
"/  c #EAC822",
"(  c #F7D12C",
")  c #E3C436",
"_  c #E8C936",
"`  c #F1CB3C",
"'  c #FAEA2F",
"]  c #A68A5B",
"[  c #81BE46",
"{  c #8AB65C",
"}  c #9C8264",
"|  c #818A7A",
" . c #98807A",
".. c #829177",
"X. c #839178",
"o. c #CDA84D",
"O. c #D6887B",
"+. c #89C44D",
"@. c #F2D349",
"#. c #D6D46A",
"$. c #997F87",
"%. c #B97988",
"&. c #CA7C89",
"*. c #CF7E93",
"=. c #878E82",
"-. c #A78F89",
";. c #A79089",
":. c #AB948D",
">. c #AE9790",
",. c #B39C95",
"<. c #AA9FA4",
"1. c #BCA5AF",
"2. c #B5B2A6",
"3. c #AEAEB1",
"4. c #B1B1B4",
"5. c #B8B7BC",
"6. c #D58A9B",
"7. c #E08D91",
"8. c #C1B79B",
"9. c #C2BA9A",
"0. c #EFA098",
"q. c #D692A2",
"w. c #D994A5",
"e. c #E697A9",
"r. c #E89FB2",
"t. c #C4BFA8",
"y. c #D5BCA0",
"u. c #C1AEB6",
"i. c #F3A7B8",
"p. c #BDD296",
"a. c #C9C199",
"s. c #D3C89E",
"d. c #C7C2AC",
"f. c #E1CEAC",
"g. c #E2D7BE",
"h. c #C1BFC2",
"j. c #D4CFC3",
"k. c #DAD6C3",
"l. c #CECDD2",
"z. c #DBC9D0",
"x. c #D3D3D6",
"c. c #D5D5DA",
"v. c #D9D9DF",
"b. c #E9E3CF",
"n. c #FFEEC9",
"m. c #DDDDE1",
"M. c #E4D9E0",
"N. c #E1E1E4",
"B. c #FCE9EE",
"V. c #F8F5F5",
"C. c #F7F7F8",
"Z. c #FEFEFE",
/* pixels */
"Z Z Z Z Z Z Z Z Z Z H Z D D D D D D D G D Z H Z Z Z Z Z Z Z Z Z ",
"Z Z Z Z Z H Z Z Z Z B D K L | | | | | L K S V H Z Z H H Z Z Z Z ",
"Z Z Z Z H Z Z Z D S K =.3.5.l.x.x.x.l.5.3.=.K S B H H p.H Z Z Z ",
"Z Z Z Z Z B Z D K =.4.x.v.C.Z.C.C.Z.C.C.m.l.4.=.K J p.#.p.H Z Z ",
"Z Z Z Z B x m K 4.l.v.C.Z.Z.Z.Z.Z.Z.Z.Z.Z.C.m.l.4.| { p.+.Z Z Z ",
"Z Z Z Z Z m X.4.x.N.C.Z.Z.Z.Z.Z.Z.Z.Z.Z.Z.Z.C.N.x.4...[ H Z Z Z ",
"H Z Z Z A K 4.x.m.C.Z.Z.Z.Z.Z.Z.Z.Z.Z.Z.Z.Z.Z.C.v.x.3.K Z Z Z Z ",
"Z Z F Z D P 4.c.m.Z.Z.Z.Z.Z.Z.Z.Z.Z.Z.Z.Z.Z.Z.Z.N.c.4.L V Z Z Z ",
"Z Z Z H D K 2.x.v.C.Z.Z.Z.Z.Z.Z.Z.Z.Z.Z.Z.Z.Z.C.v.c.8.K D Z Z Z ",
"Z Z G Z Z C R j.v.N.C.Z.Z.Z.Z.Z.Z.Z.Z.Z.Z.Z.C.N.v.k.U [ Z Z Z Z ",
"Z Z H H Z M U 8.x.v.m.N.C.C.Z.C.Z.C.Z.C.C.N.m.v.x.8.U M Z Z Z Z ",
"Z Z Z Z V % 0 T 8.k.x.c.m.m.m.m.N.m.m.m.m.c.c.j.8.T 0 % B H Z Z ",
"Z Z Z Z x $ 4 t W ) a.d.g.c.c.c.c.c.c.x.k.d.a.) W t 4 # B Z Z Z ",
"Z Z Z Z z # 7 p a ] Q ^ _ a.t.t.t.t.d.a._ / ^ ] a p 6 $ n Z Z Z ",
"Z Z Z H n $ 4 p d d } } ] ^ ^ ^ ^ ^ ^ Q ] } } s s p 7 # z Z Z Z ",
"Z Z Z x $ 2 8 p s s s s d } } } } } ] } s s s d p d i 3 $ x H Z ",
"Z Z H m # 4 p s d d s s s s s s d s s s s s s s s d d u < b Z Z ",
"Z Z Z m # 7 p s d -.f d d s s s s s s s s s s d  .;.d s 4 % B Z ",
"Z Z Z m # 4 p p 9 d >.>.d s d d f d f d s s d >.:.f p s u < n Z ",
"Z Z H m $ 4 s p 8 s f :.d p d :.,.,.,.:.s 9 d :. .s q p s 4 % m ",
"Z Z Z B # 4 p p 9 i s d s 9 p f >.,.>.f s 7 p d s i 7 s s 4 # m ",
"Z Z Z B $ 3 8 i 7 8 p s p 9 p s f d d s s 9 p s s 8 7 p i 4 # A ",
"Z Z Z B b @ 6 u 6 4 8 p p i 9 p s s s d i 7 7 p u 4 6 8 i 4 % m ",
"Z Z H B ; - 3 7 4 , 3 6 8 6 6 6 7 i p i 7 4 6 7 7 , 3 4 4 % n Z ",
"Z Z Z B o ! 0 3 3 1 2 2 3 6 6 3 6 7 7 7 4 , 3 6 3 @ @ 1 $ n Z Z ",
"Z Z Z B o ~ p.5 2 %.6.6 2 3 3 2 4 4 6 4 3 1 3 3 - e + $ z V B Z ",
"Z Z Z x o E a.h.<.$.6.e.6.6 6 6.6 3 4 3 6 j 4 * e o z m m B Z Z ",
"Z Z Z Z m O Q 9.u.%.u.6.7.e.r.i.w.7 - 8 q.w.<.w & n B Z Z Z Z Z ",
"Z Z Z Z Z n O I Y k 1.8.o.f.g.g.k.s.@.b.M.z.u.j . m Z Z Z Z Z Z ",
"Z Z Z Z Z Z n X & . h %.y.` ( ' ' @.n.V.B.i.*.y = B H Z Z Z Z Z ",
"Z Z Z Z Z Z Z B n c = > h l O.O.0.0.i.i.r.&.r = v Z Z Z Z Z Z Z ",
"Z H Z Z Z Z Z Z Z Z N v .   : : > r g g g & v N Z Z Z Z Z Z Z Z "
};
