/* XPM */
static char *b6525a1c2fbf4093a0fec5e6f138ee3eTNBZnpMoHUrYFu8B[] = {
/* columns rows colors chars-per-pixel */
"32 32 19 1 ",
"  c #1D331A",
". c #2D4D22",
"X c #467D12",
"o c #406324",
"O c #567829",
"+ c #1D2E6E",
"@ c #539614",
"# c #718E37",
"$ c #6DAF2E",
"% c #74BE2C",
"& c #88A03C",
"* c #8ABE58",
"= c #A1AF42",
"- c #4F72BE",
"; c #64A3DE",
": c #84DAF1",
"> c #AAFEFF",
", c #BCFFFF",
"< c LightCyan",
/* pixels */
"%%%%%%%%%%%%%%%%+%%%%%%%%%%%%%%%",
"%%%%%%%%%%%%%%%$:+$%%%%%%%%%%%%%",
"%%%%%%% $%%%% $+::+$%X% %%%%%%%%",
"%%%%%% o @$% O+:::+ $  o %%$%%%%",
"%%%%%  oOO $ oOO:;;oOOo  Oo$%%%%",
"%%%% O. oOO OooO;oOo#o OOoo $$%%",
"%%%%$;O.OOOO&OOO;&OO##OOoO:o %%%",
"%%%  <:o#O=O&&OO&OO&#=O#O:<.  %%",
"%% oo;oOO#==&&:O&#:&=O#ooO;Ooo %",
"%%* oOOO:##=#;<:::::##=Oooooo $%",
"%%$$ oO;;;:O#&;##:<:==OO###o $$%",
"%%$$$oo-,;###&&=&;:;;=&&&#o $%%%",
"%%  oO&&-&&#==O=&O&O&&#o;;oo %%%",
"% oO&OO#&==;&==&&===###;;;o.  %%",
"%$ oO&OO==;;#&&&===#&-;;,;;Ooo %",
"%$ .oOO##O;;;;&#==#&==-;---#OOo ",
"%%$ .o&&--;,;--=&##==&&--OoOoo $",
"%%$++oO&O----==&&=##&&O#-#Ooo. $",
"% +--;OOo&#--=&#===-#O&o##O.. $%",
" .oo--oo&&O-O&&&O=-,-#OOOoO- $%%",
"%$ ..OoOoo##O#-;-##O&&OO&&O- X%%",
"%%$  ooo.O#OO------#O&oOoOo. $%%",
"%%$$ oo..oOOo##---#oOOo;oooo. %%",
"%%$ o...-oOoo#O-OO#OoO;---.... %",
"%%$ .. ->-oooOooOoOOoo->-...  %%",
"%%$ .  .-oooooooOooOo----.. @%$%",
"%%%% $$ .oo..oo.Oo.oo..-.. %$$%%",
"%%%%%%$ .o...o..oo.o.. .. $%%%%%",
"%%%%%%$$ . @$ $ o. . X$$ %%%%%%%",
"%%%%%%%$$ %$$%$ ..  %%%%%%%%%%%%",
"%%%%%%%%$$%%%%%$. $$%%%%%%%%%%%%",
"%%%%%%%%%%%%%%%% %%%%%%%%%%%%%%%"
};
