/* XPM */
static char *result[] = {
/* columns rows colors chars-per-pixel */
"32 32 181 2 ",
"   c #233B1B",
".  c #243D2A",
"X  c #26421D",
"o  c #29441E",
"O  c #2D4C1E",
"+  c #304D1F",
"@  c #2F501F",
"#  c #31521F",
"$  c #294622",
"%  c #2D4C21",
"&  c #28432C",
"*  c #2C492C",
"=  c #304F2F",
"-  c #345422",
";  c #365922",
":  c #3A5D22",
">  c #34542B",
",  c #335331",
"<  c #3D5B38",
"1  c #3D6123",
"2  c #487C1A",
"3  c #426425",
"4  c #466925",
"5  c #4B6C27",
"6  c #45642A",
"7  c #4C6D29",
"8  c #4E7226",
"9  c #4F7029",
"0  c #567727",
"q  c #547529",
"w  c #57792A",
"e  c #5C7D2C",
"r  c #436633",
"t  c #436935",
"y  c #4A6D35",
"u  c #42653B",
"i  c #4B7238",
"p  c #547636",
"a  c #52763A",
"s  c #55793B",
"d  c #587C3C",
"f  c #273E69",
"g  c #335442",
"h  c #2D485E",
"j  c #395A6A",
"k  c #304E7F",
"l  c #406343",
"z  c #456945",
"x  c #466D4A",
"c  c #4B734A",
"v  c #54764A",
"b  c #547C4E",
"n  c #5A7B49",
"m  c #436B7D",
"M  c #4E871A",
"N  c #518C1C",
"B  c #568B28",
"V  c #5A9227",
"C  c #5D9A26",
"Z  c #5C9529",
"A  c #5E992A",
"S  c #5F853D",
"D  c #578C3A",
"F  c #5E9832",
"G  c #5E963D",
"H  c #62812E",
"J  c #609F27",
"K  c #619E29",
"L  c #648431",
"P  c #698733",
"I  c #6C8A34",
"U  c #63833E",
"Y  c #6A873F",
"T  c #728E35",
"R  c #769135",
"E  c #799336",
"W  c #769238",
"Q  c #7B9539",
"!  c #7F993A",
"~  c #64A32A",
"^  c #67A929",
"/  c #6AAD2B",
"(  c #6DB22B",
")  c #74BD2C",
"_  c #6BAE36",
"`  c #73B831",
"'  c #5B864F",
"]  c #5C8852",
"[  c #688742",
"{  c #6B8B44",
"}  c #708D46",
"|  c #769346",
" . c #7B9646",
".. c #7D9C4C",
"X. c #648552",
"o. c #698750",
"O. c #6B8954",
"+. c #6A9258",
"@. c #779557",
"#. c #739A5C",
"$. c #7B9B5B",
"%. c #6CA545",
"&. c #7FA04D",
"*. c #77A061",
"=. c #859D3C",
"-. c #899E3B",
";. c #8BA23D",
":. c #94A63E",
">. c #97A83F",
",. c #9CAC3F",
"<. c #819A47",
"1. c #849D4A",
"2. c #86A14D",
"3. c #8CA04A",
"4. c #95A741",
"5. c #9BAB41",
"6. c #93A54C",
"7. c #95A94A",
"8. c #83A45E",
"9. c #8EA25C",
"0. c #A1AF42",
"q. c #89AC61",
"w. c #92AD63",
"e. c #45668E",
"r. c #4F728F",
"t. c #47699F",
"y. c #4E7596",
"u. c #547691",
"i. c #557A95",
"p. c #597A93",
"a. c #4B6FA0",
"s. c #4E72AE",
"d. c #5376A2",
"f. c #567BA5",
"g. c #5A7CA5",
"h. c #5173AF",
"j. c #4E71B4",
"k. c #5276B0",
"l. c #557BB5",
"z. c #5679BB",
"x. c #547BC2",
"c. c #658699",
"v. c #6B8D9D",
"b. c #588CA7",
"n. c #5A86B6",
"m. c #5C92B5",
"M. c #6087AC",
"N. c #689BA8",
"B. c #659AB9",
"V. c #639CBA",
"C. c #6EA2AB",
"Z. c #6EAABC",
"A. c #79AAB1",
"S. c #70A5BE",
"D. c #75B8B5",
"F. c #79BBB5",
"G. c #5B85C6",
"H. c #5F96D5",
"J. c #6195C5",
"K. c #629FCD",
"L. c #6CAFC3",
"P. c #65A2CE",
"I. c #6BA9CE",
"U. c #69A3DB",
"Y. c #70B8D7",
"T. c #6CACE1",
"R. c #6FB0E1",
"E. c #79C5D6",
"W. c #79C7E4",
"Q. c #84C4B9",
"!. c #84CCCA",
"~. c #85C8DD",
"^. c #91C6D1",
"/. c #84D3DC",
"(. c #ABD7DC",
"). c #85C5E7",
"_. c #8AD3E1",
"`. c #95D3ED",
"'. c #8DDDF0",
"]. c #B3E2EE",
"[. c #B9EFFD",
/* pixels */
") ) ) ) ) ) ) ) ) ) ) ) ) ) ) _ j _ ` ) ) ) ) ) ) ) ) ) ) ) ) ) ",
") ) ) ) ) ) ) ) ) ) ) ) ) ( ) %.Z.m G ) ) ) ) / ) ) ) ) ) ) ) ) ",
") ) ) ) ) ) ~ # K ( ) ) ^ 3 D m W.Y.j F ( N J 1 ~ ) ) ) ) ) ) ) ",
") ) ) ) ) ^ # : # N ^ / # 6 j Z.W.W.k = V # o + # ^ ) / ) ) ) ) ",
") ) ) ) ^ #   : 5 0 # B O 3 i ] E.I.b.u w 9 ; o o 8 8 K ) ) ) ) ",
") ) ) ( 1 t - o 3 q 5 - 5 4 4 d V.' p 7 L 4 % 4 5 4 t ; J ( ) ) ",
") ) ) ^ { N.b ; 0 w e 0 R e q d N.| w e I I q q 5 ] F.r + ~ ) ) ",
") ) ^ # < (.F.i e H -.P =.=.S e | S D ! ! ;.H L d Q.(.u   # ~ ) ",
") ( 1 # u N.b q S T 4.4.;.8.Q.+.&.*.Q.q.;.P T 5 4 ' N.a : ; : ( ",
") ) %.: : p q ' D.#...4. .A.].!.E./.'.!.<.R -.w 4 4 y 6 : - Z ) ",
") ) ` A - 1 p B.R.I.D.Y T *.A.$.$./.[._.w.4.P e I I e 3 - Z ( ) ",
") ) ~ ~ Z 5 y M.`.L.#.T W ;.1.:.2.Z.~.I.A.6.=.! ..} 6 % B ) ) ) ",
") ~ # + 8 w W @.v.$.=.| 4.>.T :.;.Y &.{ ..=.T b V.V.u ; # ~ ) ) ",
"( : ; 9 T H e T 1.5.w.C.2.,.4.;.;.>.,.:.E } +.V.T.P.x -   # ~ ) ",
") Z % 1 e R e H :.7.S.P.#.2.4.-.5.0.>.! <.c.J.T.`.U.m.a 3 : # ~ ",
") ~ O % 3 q e I } X.P.T.K.B.@.! ,.>.Q ;.,.9.n.H.G.l.d.U 0 8 : # ",
") ) Z $ % 4 R <.p.k.U.`.U.n.c.6.;.Q W :.0.-.@.g.h.v y q 4 : + V ",
") / G f f z e R n g.l.x.l.9.6.1.;.>.Q | -.=.L X.p.[ 0 3 : % - K ",
"K - h a.j.n.d w 0 <.O.h.g.7.-.! ;.0.9.v.O.e I q [ P q , % + K ` ",
"- - > l a.d.r 5 T E d u.n =.1...Y 3.v.^.v.[ B w e 9 s e.* V ` ) ",
"^ A - % , y 6 9 6 9 I [ e o.g.J.f.O.O.{  .! w e W W s e.& M ) ) ",
") ) A %   1 3 1 # 9 P e p u.k.x.z.k.p.U H W 8 p 7 q 4 , o V ) ) ",
") ) / B $ : 1 - , 3 0 q 5 [ X.h.j.d.X.9 q w c b.x r 1 : % # K ) ",
") ) ~ - - - % g u.z 9 3 4 P d r.v p I q 4 a m.G.s.e.> % % o : / ",
") ) ~ $ % o . y.~.i.r 3 6 q 4 r q 4 w w 3 z n.).l.g % $ X # J ) ",
") ) ^ @ $ X X g y.x : 1 : 3 3 3 9 3 3 9 r e.j.x.t., % O M ^ ( ) ",
") ) ) ~ ; Z Z X = 1 1 @ - 1 : > 8 1 - 1 1 , g e.g % # J ( ( ) ) ",
") ) ) ) ( ) ^ % % : % - ; : ; % 1 1 % : % @ O , % # A ) ) ) ) ) ",
") ) ) ) ) ) ( A % % O N Z 1 B O : %   % @ 2 J C 1 ^ ) ) ) ) ) ) ",
") ) ) ) ) ) ) ( Z ; ~ / ( / ~ @ % % X % J ) ) ) ( ) ) ) ) ) ) ) ",
") ) ) ) ) ) ) ) ( ^ ) ) ) ) ) A - @ Z ^ ) ) ) ) ) ) ) ) ) ) ) ) ",
") ) ) ) ) ) ) ) ) ) ) ) ) ) ) ^ - K ) ) ) ) ) ) ) ) ) ) ) ) ) ) "
};
