/* XPM */
static char *result[] = {
/* columns rows colors chars-per-pixel */
"32 32 180 2 ",
"   c #774C1E",
".  c #67621F",
"X  c #584929",
"o  c #5C5526",
"O  c #54453C",
"+  c #554D3B",
"@  c #545435",
"#  c #59593A",
"$  c #704720",
"%  c #665E26",
"&  c #754539",
"*  c #6D5F31",
"=  c #73563A",
"-  c #725A3A",
";  c #676127",
":  c #6A6631",
">  c #757331",
",  c #564443",
"<  c #5A4644",
"1  c #5A4A49",
"2  c #654D4C",
"3  c #6A534F",
"4  c #6E5553",
"5  c #715856",
"6  c #755D5C",
"7  c #776849",
"8  c #7C6B4B",
"9  c #7A635A",
"0  c #766F70",
"q  c #7C777A",
"w  c #803C32",
"e  c #807730",
"r  c #A56823",
"t  c #8B454B",
"y  c #8B5E4D",
"u  c #89664F",
"i  c #9D744F",
"p  c #846B52",
"a  c #977B55",
"s  c #B15D72",
"d  c #826963",
"f  c #886A67",
"g  c #866E69",
"h  c #8E7065",
"j  c #8A726D",
"k  c #927864",
"l  c #997F61",
"z  c #8C7571",
"x  c #8B7876",
"c  c #937674",
"v  c #947B75",
"b  c #AB646F",
"n  c #B46C79",
"m  c #BC6E7C",
"M  c #58941A",
"N  c #60A61E",
"B  c #588B20",
"V  c #689D2B",
"C  c #6D9C2F",
"Z  c #6DA32C",
"A  c #6FAE2C",
"S  c #72A62C",
"D  c #6FB52B",
"F  c #70B12D",
"G  c #74BE2C",
"H  c #75AC38",
"J  c #75AE3D",
"K  c #74B634",
"L  c #78B237",
"P  c #76BE30",
"I  c #7DC13D",
"U  c #79876D",
"Y  c #7C8C6E",
"T  c #7D8677",
"R  c #B99417",
"E  c #BF9B1F",
"W  c #B39125",
"Q  c #B09D30",
"!  c #BDA039",
"~  c #DBB213",
"^  c #CAA82A",
"/  c #CFA93D",
"(  c #F1CE0F",
")  c #EFE108",
"_  c #F1E90C",
"`  c #FFF305",
"'  c #FFE21B",
"]  c #EAC92C",
"[  c #F2CF27",
"{  c #F1D533",
"}  c #FFE834",
"|  c #FBF537",
" . c #BDB848",
".. c #9A8462",
"X. c #888174",
"o. c #968879",
"O. c #829076",
"+. c #BA9575",
"@. c #C38465",
"#. c #C9926D",
"$. c #CB8E73",
"%. c #DCA97B",
"&. c #89C44E",
"*. c #FFDB47",
"=. c #FFE64C",
"-. c #FFE750",
";. c #FCF150",
":. c #D6D36A",
">. c #F0C86A",
",. c #E7CC7F",
"<. c #7F7E82",
"1. c #BA7484",
"2. c #CA7A8A",
"3. c #838285",
"4. c #868E81",
"5. c #8D8E90",
"6. c #929590",
"7. c #AB938D",
"8. c #ABA79F",
"9. c #BEB599",
"0. c #ABA8AB",
"q. c #B6A9A9",
"w. c #B8B4A6",
"e. c #AEAEB0",
"r. c #B7ADB1",
"t. c #B1B1B6",
"y. c #B7B7BC",
"u. c #C88293",
"i. c #D88997",
"p. c #DB919D",
"a. c #EE9F94",
"s. c #D6AF8F",
"d. c #DCB688",
"f. c #D3B693",
"g. c #E1AE86",
"h. c #ECA190",
"j. c #DC96A8",
"k. c #E393A4",
"l. c #F397AD",
"z. c #F99CB3",
"x. c #C3B1B8",
"c. c #F9A8BC",
"v. c #BDD295",
"b. c #BEC5A6",
"n. c #EECA98",
"m. c #F3D29D",
"M. c #C6C1AA",
"N. c #DBDABE",
"B. c #EDD0A2",
"V. c #F2D6A9",
"C. c #FEDDAC",
"Z. c #E0DBB3",
"A. c #F9DEB2",
"S. c #FFE1AF",
"D. c #FFE2B0",
"F. c #CDBCC4",
"G. c #CAC6C1",
"H. c #C7C7CD",
"J. c #DDCEC1",
"K. c #DEDACC",
"L. c #CECDD1",
"P. c #D2D2D5",
"I. c #D5D5D9",
"U. c #DDD6DA",
"Y. c #E6D6C8",
"T. c #E2D7DE",
"R. c #E1E0C4",
"E. c #FCEAC7",
"W. c #FBF5C9",
"Q. c #FFF7C9",
"!. c #F6F1DD",
"~. c #FAF5DC",
"^. c #DCDDE0",
"/. c #E1E1E4",
"(. c #F8E5E8",
"). c #FFFDE2",
"_. c #FFFBE9",
"`. c #F4F4F4",
"'. c #F7F7F8",
"]. c #FEFEFE",
/* pixels */
"G G G G G G G G I G D J T <.3.3.3.3.3.<.T J K G G G I D G G G G ",
"G G G G G G G G K J Y O.e.y.L.L.P.P.L.y.e.4.Y J K G I I G G G G ",
"G G G G G G G L Y 4.t.P.^.`.].].].].].`.^.L.t.4.Y J &.v.I G G G ",
"G G G G G G J O.t.L.U.'.].].].].].].].].].'.^.L.t.4.M.:.v.I G G ",
"G G G G D V Y t.I./.'.].].].].].].].].].].].'./.I.t.6.b.&.I D G ",
"G G G G K U e.P.^.'.].].].].].]._.].].].].].].'.^.I.t.T G I G G ",
"G G G G H T t.I.^.'.].].].).~.Q.=.Q.).).].].].'.^.I.t.T G G G G ",
"G G G G K Y w.P.I.K.!._.Q.} ' ' ` ' ' { Q.).!.K.I.P.9.Y D G G G ",
"G G P P G L Q f.9.^ ^ ] [ ( ) _ _ _ ) ( [ ] ^ ^ 9.9.Q L G G G G ",
"G P I P G Z * W E R a 8 l l p ....l p l l p a R W W * Z G G G G ",
"G D K I A # 3 k k p g d j j d j z g d j g d g p ..k 4 # D I G G ",
"G I D I A + 4 z z g h +.9 9 f.j p c f.p 6 +.h z z j 5 @ A G G G ",
"G G G I N @ 5 j c v +.p X 7 B.V.V.V.B.7 X 8 +.v c j 5 + A G G G ",
"G G G D B X 5 z v j 7 8., w.D.D.A.A.D.q.1 0.7 j v j 5 O Z G G G ",
"G G G D @ O 4 z 7.j 8 G., o.V.D.D.D.V.o., M.p j 7.c 4 O @ A G G ",
"G G G N O 1 < z 7.o.s.Y.$ $ B.D.D.D.m.$   Y.s.o.7.j + 2 + Z G G ",
"G G A # 3 4 , g v v $.g.r r m.S.D.D.m.r r d.@.c v f < 3 3 # A G ",
"G G A + 4 4 O 5 c j t @.%.n.C.C.C.C.C.n.%.@.t f c 6 , 4 4 + A G ",
"G I A + 4 d 1 4 j c b - i #.g.d.d.d.d.#.i y b c j 4 < d 4 + A G ",
"G G A + 5 g 4 1 f c m b = = - - = = = = = b 1.c g 1 4 g 5 + A G ",
"G I N @ 4 g 6 0 6 v q.2.2.2.m m m m m 2.2.2.q.c 6 0 9 g 5 + A G ",
"G G F # 3 6 q 0.z c e.F.u.i.l.z.z.z.z.2.u.F.e.x z 0.q 6 3 # F G ",
"G G G Z # 3 x P.^.x 3.t.r.i.k.c.c.c.k.i.x.t.3.x U.P.X.4 # V G G ",
"G G G G Z % ! W.`.e.3.t.w./ J.T.T.T.N./ w.t.3.r.`.W.Q % V N G G ",
"G G G I N ; ,.;.Z.t.5.H.M.{ ~.].'.].~.{ M.H.5.e.N.;.,.: M D G I ",
"G G G I P > d.>.] o.t.I.K.| ).].].].).| N.I.t.o.] >.d.: M G D D ",
"G G G I v. .e R ~ X.H.^.R.| ~.].].].).| R.I.H.o.~ R > Z N D G G ",
"G G G G &.v.L . w 1.x.U.!.=.Q.~.).).Q.-.~.I.x.1.w . V G I G G G ",
"G G G G I I G Z & s 2.k.(.E.*.} | | *.E.(.j.2.s & N G G G G G G ",
"G G G G G G G D C & w n i.p.h.h.a.h.a.p.i.n w & S G G G G G G G ",
"G G G G G G G G A Z C : y u u - & = u y y ; S S G G G G G G G G ",
"G G G G G G G G G G G Z o X o Z S V % X o Z G G G G G G G G G G "
};
