/* XPM */
static char *result[] = {
/* columns rows colors chars-per-pixel */
"32 32 188 2 ",
"   c #79293F",
".  c #773A3B",
"X  c #774C1E",
"o  c #6B6C1E",
"O  c #594D2B",
"+  c #54453C",
"@  c #554D3A",
"#  c #545535",
"$  c #59593A",
"%  c #704720",
"&  c #635528",
"*  c #775E2A",
"=  c #76463A",
"-  c #6E5A33",
";  c #74563A",
":  c #725939",
">  c #686424",
",  c #73683C",
"<  c #782E41",
"1  c #554747",
"2  c #5A4643",
"3  c #585041",
"4  c #664D4C",
"5  c #69514F",
"6  c #6E5553",
"7  c #705655",
"8  c #725955",
"9  c #745C5A",
"0  c #776946",
"q  c #7C6B4B",
"w  c #7E6358",
"e  c #7B7876",
"r  c #A17F18",
"t  c #946D3D",
"y  c #A56823",
"u  c #874548",
"i  c #84684E",
"p  c #9A734E",
"a  c #826754",
"s  c #956B56",
"d  c #877050",
"f  c #997857",
"g  c #856B64",
"h  c #876A67",
"j  c #866D6A",
"k  c #8B7167",
"l  c #8B736E",
"z  c #947A60",
"x  c #8D7671",
"c  c #937673",
"v  c #947B75",
"b  c #927D7B",
"n  c #A8646E",
"m  c #A87169",
"M  c #BC6E7C",
"N  c #C87871",
"B  c #5C981F",
"V  c #61A61E",
"C  c #588B20",
"Z  c #6B9D2B",
"A  c #729A2E",
"S  c #689A30",
"D  c #6DA42E",
"F  c #6EAC2D",
"G  c #72AA2C",
"H  c #6EB42B",
"J  c #70B22C",
"K  c #74BE2C",
"L  c #6BA233",
"P  c #71AB35",
"I  c #74AD3B",
"U  c #74B534",
"Y  c #7AB234",
"T  c #76BE30",
"R  c #7DC13D",
"E  c #7EB34C",
"W  c #7C8C6E",
"Q  c #7D8678",
"!  c #AD8B10",
"~  c #B18B17",
"^  c #BB961A",
"/  c #B39125",
"(  c #B09D30",
")  c #CA9F0F",
"_  c #CAA82A",
"`  c #CFA93D",
"'  c #F1CE0F",
"]  c #EFE108",
"[  c #F1E90C",
"{  c #FFF305",
"}  c #FFE21B",
"|  c #EFCB2A",
" . c #F2CF27",
".. c #ECCD32",
"X. c #F4CA3A",
"o. c #F1D432",
"O. c #FAEF2F",
"+. c #FBE333",
"@. c #82845B",
"#. c #86BA51",
"$. c #9A8362",
"%. c #818A7A",
"&. c #99837B",
"*. c #839177",
"=. c #BA9575",
"-. c #C38465",
";. c #CA936A",
":. c #CA8A72",
">. c #D58578",
",. c #DCA97B",
"<. c #EDBE73",
"1. c #89C44D",
"2. c #F6DA47",
"3. c #FFE64C",
"4. c #FCF548",
"5. c #D6D36A",
"6. c #BE798A",
"7. c #C16B80",
"8. c #C07788",
"9. c #CA7A88",
"0. c #878E82",
"q. c #868689",
"w. c #AB938D",
"e. c #AB9F9D",
"r. c #ABA79D",
"t. c #B8BC93",
"y. c #BEB599",
"u. c #ACA8AD",
"i. c #B7B3A7",
"p. c #AEAEB1",
"a. c #B9ACB1",
"s. c #B1B1B5",
"d. c #B8B7BC",
"f. c #C98395",
"g. c #D88695",
"h. c #D6AF8F",
"j. c #DCB287",
"k. c #E1AE86",
"l. c #F3AF8F",
"z. c #E393A4",
"x. c #F397AD",
"c. c #F99CB3",
"v. c #C8B5BB",
"b. c #E8A0AD",
"n. c #F6A7B9",
"m. c #B9C696",
"M. c #BDD296",
"N. c #DEC398",
"B. c #E6C584",
"V. c #EECA98",
"C. c #F3D29D",
"Z. c #FFE087",
"A. c #C6C1AB",
"S. c #DAD4AD",
"D. c #D4CAB5",
"F. c #ECD3A7",
"G. c #F3D7AB",
"H. c #FEDDAC",
"J. c #E3DABB",
"K. c #FADFB3",
"L. c #FFE1AF",
"P. c #E9E9B8",
"I. c #FFE2B0",
"U. c #BCBCC0",
"Y. c #CDBCC3",
"T. c #C9C6C3",
"R. c #C6C4C8",
"E. c #D9CAC3",
"W. c #DEDBCA",
"Q. c #CECDD2",
"!. c #D6CDD1",
"~. c #D2D2D6",
"^. c #D6D5D9",
"/. c #DBD6D8",
"(. c #E6D6C8",
"). c #E2D7DE",
"_. c #E5E1CA",
"`. c #FFF7C9",
"'. c #FFFECA",
"]. c #FAF5DD",
"[. c #DDDDE1",
"{. c #E1E1E4",
"}. c #FFFCE3",
"|. c #FFFBE9",
" X c #F9EEF1",
".X c #F7F4F6",
"XX c #F7F7F8",
"oX c #FEFEFE",
/* pixels */
"K K K K K R K K K K R K J U U U U U U U U K R K K K K K K K K K ",
"K K K K K K K K R K H J W Q %.Q %.%.%.Q W I J R K K R R K K K K ",
"K K K K K K K K U I W 0.p.d.Q.Q.~.~.~.U.p.0.W I H R R M.R K K K ",
"K K K K K H K U W 0.s.~.[..XoXoXXXoXXX.X[.~.s.0.W E M.5.M.R K K ",
"K K K K H V P *.s.Q./.XXoXoXoXoXoXoXoXoXoXXX[.Q.s.%.#.M.1.K K K ",
"K K K K K P *.s.~.{.XXoXoXoXoXoXoXoXoXoXoXoXXX{.~.s.%.#.R K K K ",
"K K K K U W p.~.[.XXoXoXoXoXoXoX|.oXoXoXoXoXoXXX[.~.p.W K K K K ",
"K K K K U Q s.^.{.XXoXoXoX}.}.`.3.`.}.}.oXoXoXXX[.^.s.W J K K K ",
"K K T K K W i.Q.^.^.].].`.+.} } { } } +.`.].].W.^.~.i.W J K K K ",
"K T E T K Y ( y.h._ _ |  .' ] [ [ [ ] '  .| _ _ h.y.( U R K K K ",
"K K R R K D - / ^ ^ f q z $.d $.$.$.d z z i f ^ ( / - F K K K K ",
"K K K K J $ 6 k $.w l w l j 9 l x l 9 j l g j i f z 5 $ V R K K ",
"K K K K F O 6 x x l k =.w 8 w g g g a 6 w =.k k x l 6 @ H K K K ",
"K K K K B @ 6 l x v =.0 O 0 N.F.F.F.h.0 O 0 =.v x l 6 # F R K K ",
"K K K K B @ 6 x v k 0 u.1 i.K.I.I.I.I.s.1 u.0 k b l 6 @ C K K K ",
"K K K V # 1 6 x w.x q T.2 &.F.L.I.I.G.&.1 T.q x w.c 5 + O V K K ",
"K K R F @ 4 1 l w.v h.(.X X V.H.I.I.C.X % (.h.&.w.c 2 4 @ S K K ",
"K K K F @ 4 1 k v v :.l.y y F.H.I.I.C.y y k.:.v v h 2 5 6 # J K ",
"K K R F @ 4 2 k v k u -.,.V.G.H.H.H.H.V.,.-.u l l 8 2 6 6 @ L K ",
"K K K J @ 4 2 k c c n ; p ;.j.j.j.j.j.;.p ; h x h 2 6 g 9 5 $ F ",
"K K K V # : O g c 6.6.n ; : : ; : : : : ; n c x 7 1 6 9 j 7 @ F ",
"K K R H # O r w b T.Y.w.9.9.N 6.M M 7.9.9.8.c x j e 9 9 j 7 @ F ",
"K K K K D & p i b R.Y.Y.f.g.x.n.c.c.x.g.f.v.b b ^.s.e 9 8 6 $ G ",
"K K K K F > t ~ k p.q.s.a.g.z.n.n.n.z.g.a.s.l J.].~.e 6 5 $ D K ",
"K K K K R G o ^ r.u.Q s.p.` E./.).).D.` i.p., | 4.S.e 3 # D K K ",
"K K K K R m.0 ~ r.Q q.R.A.o.}.XXoXXX}.o.A.A.0 B.Z...@.D B H J K ",
"K K K R M.5.t., e 6.s.^.W.4.'.XXoXoX}.2.J.T., ;.<.' > F J H K K ",
"K K K K 1.M.1.U e u.~.{.XXP.4..XoXoX.XJ.2.D.0 ! ) ! > J K K K K ",
"K K K K K R K G . 6.!. XXX].4.'.}.]._.J.X.J.e.* ! o F K K K K K ",
"K K K K K K K D = M g.b.n.b.l.+.O.O. .| >.9.7.= > V K K K K K K ",
"K K K K K K K K A = . : s m m p :.>.>.N u . = Z F K K R K K K K ",
"K K K K K K K K K D Z & s f f u <     < A G G K K K K K K K K K "
};
