/* XPM */
static char *b3a48c5d1e73414cb70a630b82612b64n1r3BZGYwJkJLB8W[] = {
/* columns rows colors chars-per-pixel */
"128 128 35 1 ",
"  c #2E1E22",
". c #5C2E00",
"X c #6A1C30",
"o c #4D3B39",
"O c #534721",
"+ c #77584A",
"@ c #705654",
"# c #767678",
"$ c #964F00",
"% c #8B5E4A",
"& c #9D704C",
"* c #9D725D",
"= c #8F7772",
"- c #539614",
"; c #6DAF2E",
": c #74BE2C",
"> c #C79D00",
", c #FFD600",
"< c #FFFC00",
"1 c #D7CF22",
"2 c #8ABE58",
"3 c #D7906E",
"4 c #C26C81",
"5 c #928A8C",
"6 c #B7A099",
"7 c #B7B7BB",
"8 c #DD8499",
"9 c #EEBE93",
"0 c #FFA3B9",
"q c #FFE1AF",
"w c gray85",
"e c #D9D9DD",
"r c gainsboro",
"t c gray95",
"y c white",
/* pixels */
"::::::::::::::::::::::::::::::::::::::::::::::::::::::::::::::::::::::::::::::::::::::::::::::::::::::::::::::::::::::::::::::::",
"::::::::::::::::::::::::::::::::::::::::::::::::::::::::::::::::::::::::::::::::::::::::::::::::::::::::::::::::::::::::::::::::",
"::::::::::::::::::::::::::::::::::::::::::::::::::::::::::::::::::::::::::::::::::::::::::::::::::::::::::::::::::::::::::::::::",
"::::::::::::::::::::::::::::::::::::::::::::::::::::::::::::::::::::::::::::::::::::::::::::::::::::::::::::::::::::::::::::::::",
"::::::::::::::::::::::::::::::::::::::::::::::::####################################::::::::::::::::::::::::::::::::::::::::::::",
"::::::::::::::::::::::::::::::::::::::::::::::::####################################::::::::::::::::::::::::::::::::::::::::::::",
"::::::::::::::::::::::::::::::::::::::::::::::::####################################::::::::::::::::::::::::::::::::::::::::::::",
"::::::::::::::::::::::::::::::::::::::::::::::::####################################::::::::::::::::::::::::::::::::::::::::::::",
"::::::::::::::::::::::::::::::::::::::::########77777777eeeeeeeeeeeeeeeeeeee77777777########::::::::::::::::rrrr::::::::::::::::",
"::::::::::::::::::::::::::::::::::::::::########77777777eeeeeeeeeeeeeeeeeeee77777777########::::::::::::::::rrrr::::::::::::::::",
"::::::::::::::::::::::::::::::::::::::::########77777777eeeeeeeeeeeeeeeeeeee77777777########::::::::::::::::rrrr::::::::::::::::",
"::::::::::::::::::::::::::::::::::::::::########77777777eeeeeeeeeeeeeeeeeeee77777777########::::::::::::::::rrrr::::::::::::::::",
"::::::::::::::::::::::::::::::::########7777eeeeeeeeyyyyyyyyyyyyyyyyyyyyyyyyyyyyeeeeeeee7777########::::rrrr1111rrrr::::::::::::",
"::::::::::::::::::::::::::::::::########7777eeeeeeeeyyyyyyyyyyyyyyyyyyyyyyyyyyyyeeeeeeee7777########::::rrrr1111rrrr::::::::::::",
"::::::::::::::::::::::::::::::::########7777eeeeeeeeyyyyyyyyyyyyyyyyyyyyyyyyyyyyeeeeeeee7777########::::rrrr1111rrrr::::::::::::",
"::::::::::::::::::::::::::::::::########7777eeeeeeeeyyyyyyyyyyyyyyyyyyyyyyyyyyyyeeeeeeee7777########::::rrrr1111rrrr::::::::::::",
"::::::::::::::::::::----::::####7777eeeeeeeeyyyyyyyyyyyyyyyyyyyyyyyyyyyyyyyyyyyyyyyyyyyyeeeeeeee7777####::::rrrr::::::::::::::::",
"::::::::::::::::::::----::::####7777eeeeeeeeyyyyyyyyyyyyyyyyyyyyyyyyyyyyyyyyyyyyyyyyyyyyeeeeeeee7777####::::rrrr::::::::::::::::",
"::::::::::::::::::::----::::####7777eeeeeeeeyyyyyyyyyyyyyyyyyyyyyyyyyyyyyyyyyyyyyyyyyyyyeeeeeeee7777####::::rrrr::::::::::::::::",
"::::::::::::::::::::----::::####7777eeeeeeeeyyyyyyyyyyyyyyyyyyyyyyyyyyyyyyyyyyyyyyyyyyyyeeeeeeee7777####::::rrrr::::::::::::::::",
"::::::::::::::::::::::::####7777eeeeeeeeyyyyyyyyyyyyyyyyyyyyyyyyyyyyyyyyyyyyyyyyyyyyyyyyyyyyeeeeeeee7777####::::::::::::::::::::",
"::::::::::::::::::::::::####7777eeeeeeeeyyyyyyyyyyyyyyyyyyyyyyyyyyyyyyyyyyyyyyyyyyyyyyyyyyyyeeeeeeee7777####::::::::::::::::::::",
"::::::::::::::::::::::::####7777eeeeeeeeyyyyyyyyyyyyyyyyyyyyyyyyyyyyyyyyyyyyyyyyyyyyyyyyyyyyeeeeeeee7777####::::::::::::::::::::",
"::::::::::::::::::::::::####7777eeeeeeeeyyyyyyyyyyyyyyyyyyyyyyyyyyyyyyyyyyyyyyyyyyyyyyyyyyyyeeeeeeee7777####::::::::::::::::::::",
"::::::::::::::::;;;;####7777eeeeeeeeyyyyyyyyyyyyyyyyyyyyyyyyyyyyyyyyyyyyyyyyyyyyyyyyyyyyyyyyyyyyeeeeeeee7777####::::::::::::::::",
"::::::::::::::::;;;;####7777eeeeeeeeyyyyyyyyyyyyyyyyyyyyyyyyyyyyyyyyyyyyyyyyyyyyyyyyyyyyyyyyyyyyeeeeeeee7777####::::::::::::::::",
"::::::::::::::::;;;;####7777eeeeeeeeyyyyyyyyyyyyyyyyyyyyyyyyyyyyyyyyyyyyyyyyyyyyyyyyyyyyyyyyyyyyeeeeeeee7777####::::::::::::::::",
"::::::::::::::::;;;;####7777eeeeeeeeyyyyyyyyyyyyyyyyyyyyyyyyyyyyyyyyyyyyyyyyyyyyyyyyyyyyyyyyyyyyeeeeeeee7777####::::::::::::::::",
"::::::::::::::::::::####7777eeeeeeeeyyyyyyyyyyyyyyyyyyyyyyyyyyyy,,,,yyyyyyyyyyyyyyyyyyyyyyyyyyyyeeeeeeee7777####::::::::::::::::",
"::::::::::::::::::::####7777eeeeeeeeyyyyyyyyyyyyyyyyyyyyyyyyyyyy,,,,yyyyyyyyyyyyyyyyyyyyyyyyyyyyeeeeeeee7777####::::::::::::::::",
"::::::::::::::::::::####7777eeeeeeeeyyyyyyyyyyyyyyyyyyyyyyyyyyyy,,,,yyyyyyyyyyyyyyyyyyyyyyyyyyyyeeeeeeee7777####::::::::::::::::",
"::::::::::::::::::::####7777eeeeeeeeyyyyyyyyyyyyyyyyyyyyyyyyyyyy,,,,yyyyyyyyyyyyyyyyyyyyyyyyyyyyeeeeeeee7777####::::::::::::::::",
"::::::::::::::::::::####7777eeeeeeeeeeeeyyyyyyyyyyyy,,,,,,,,,,,,<<<<,,,,,,,,,,,,yyyyyyyyyyyyeeeeeeeeeeee7777####::::::::::::::::",
"::::::::::::::::::::####7777eeeeeeeeeeeeyyyyyyyyyyyy,,,,,,,,,,,,<<<<,,,,,,,,,,,,yyyyyyyyyyyyeeeeeeeeeeee7777####::::::::::::::::",
"::::::::::::::::::::####7777eeeeeeeeeeeeyyyyyyyyyyyy,,,,,,,,,,,,<<<<,,,,,,,,,,,,yyyyyyyyyyyyeeeeeeeeeeee7777####::::::::::::::::",
"::::::::::::::::::::####7777eeeeeeeeeeeeyyyyyyyyyyyy,,,,,,,,,,,,<<<<,,,,,,,,,,,,yyyyyyyyyyyyeeeeeeeeeeee7777####::::::::::::::::",
"::::::::2222::::::::::::>>>>77777777>>>>>>>>,,,,,,,,,,,,<<<<<<<<<<<<<<<<<<<<,,,,,,,,,,,,>>>>>>>>77777777>>>>::::::::::::::::::::",
"::::::::2222::::::::::::>>>>77777777>>>>>>>>,,,,,,,,,,,,<<<<<<<<<<<<<<<<<<<<,,,,,,,,,,,,>>>>>>>>77777777>>>>::::::::::::::::::::",
"::::::::2222::::::::::::>>>>77777777>>>>>>>>,,,,,,,,,,,,<<<<<<<<<<<<<<<<<<<<,,,,,,,,,,,,>>>>>>>>77777777>>>>::::::::::::::::::::",
"::::::::2222::::::::::::>>>>77777777>>>>>>>>,,,,,,,,,,,,<<<<<<<<<<<<<<<<<<<<,,,,,,,,,,,,>>>>>>>>77777777>>>>::::::::::::::::::::",
"::::::::::::::::::::::::oooo>>>>>>>>>>>>====@@@@========@@@@============@@@@========@@@@====>>>>>>>>>>>>oooo::::::::::::::::::::",
"::::::::::::::::::::::::oooo>>>>>>>>>>>>====@@@@========@@@@============@@@@========@@@@====>>>>>>>>>>>>oooo::::::::::::::::::::",
"::::::::::::::::::::::::oooo>>>>>>>>>>>>====@@@@========@@@@============@@@@========@@@@====>>>>>>>>>>>>oooo::::::::::::::::::::",
"::::::::::::::::::::::::oooo>>>>>>>>>>>>====@@@@========@@@@============@@@@========@@@@====>>>>>>>>>>>>oooo::::::::::::::::::::",
"::::::::::::::::::::oooo@@@@========@@@@====@@@@========@@@@============@@@@========@@@@====@@@@========@@@@oooo::::::::::::::::",
"::::::::::::::::::::oooo@@@@========@@@@====@@@@========@@@@============@@@@========@@@@====@@@@========@@@@oooo::::::::::::::::",
"::::::::::::::::::::oooo@@@@========@@@@====@@@@========@@@@============@@@@========@@@@====@@@@========@@@@oooo::::::::::::::::",
"::::::::::::::::::::oooo@@@@========@@@@====@@@@========@@@@============@@@@========@@@@====@@@@========@@@@oooo::::::::::::::::",
"::::::::::::::::::::oooo@@@@============@@@@9999@@@@@@@@@@@@@@@@@@@@@@@@@@@@@@@@@@@@9999@@@@============@@@@oooo::::::::::::::::",
"::::::::::::::::::::oooo@@@@============@@@@9999@@@@@@@@@@@@@@@@@@@@@@@@@@@@@@@@@@@@9999@@@@============@@@@oooo::::::::::::::::",
"::::::::::::::::::::oooo@@@@============@@@@9999@@@@@@@@@@@@@@@@@@@@@@@@@@@@@@@@@@@@9999@@@@============@@@@oooo::::::::::::::::",
"::::::::::::::::::::oooo@@@@============@@@@9999@@@@@@@@@@@@@@@@@@@@@@@@@@@@@@@@@@@@9999@@@@============@@@@oooo::::::::::::::::",
"::::::::::::::::----oooo@@@@============9999OOOOOOOOOOOOqqqqqqqqqqqqqqqqqqqqOOOOOOOOOOOO9999============@@@@oooo::::::::::::::::",
"::::::::::::::::----oooo@@@@============9999OOOOOOOOOOOOqqqqqqqqqqqqqqqqqqqqOOOOOOOOOOOO9999============@@@@oooo::::::::::::::::",
"::::::::::::::::----oooo@@@@============9999OOOOOOOOOOOOqqqqqqqqqqqqqqqqqqqqOOOOOOOOOOOO9999============@@@@oooo::::::::::::::::",
"::::::::::::::::----oooo@@@@============9999OOOOOOOOOOOOqqqqqqqqqqqqqqqqqqqqOOOOOOOOOOOO9999============@@@@oooo::::::::::::::::",
"::::::::::::::::::::oooo@@@@============OOOOwwww    eeeeqqqqqqqqqqqqqqqqqqqqeeee    wwwwOOOO============@@@@oooo----::::::::::::",
"::::::::::::::::::::oooo@@@@============OOOOwwww    eeeeqqqqqqqqqqqqqqqqqqqqeeee    wwwwOOOO============@@@@oooo----::::::::::::",
"::::::::::::::::::::oooo@@@@============OOOOwwww    eeeeqqqqqqqqqqqqqqqqqqqqeeee    wwwwOOOO============@@@@oooo----::::::::::::",
"::::::::::::::::::::oooo@@@@============OOOOwwww    eeeeqqqqqqqqqqqqqqqqqqqqeeee    wwwwOOOO============@@@@oooo----::::::::::::",
"::::::::::::;;;;oooooooo@@@@====6666====OOOOtttt    5555qqqqqqqqqqqqqqqqqqqq5555    ttttOOOO====6666====@@@@oooooooo::::::::::::",
"::::::::::::;;;;oooooooo@@@@====6666====OOOOtttt    5555qqqqqqqqqqqqqqqqqqqq5555    ttttOOOO====6666====@@@@oooooooo::::::::::::",
"::::::::::::;;;;oooooooo@@@@====6666====OOOOtttt    5555qqqqqqqqqqqqqqqqqqqq5555    ttttOOOO====6666====@@@@oooooooo::::::::::::",
"::::::::::::;;;;oooooooo@@@@====6666====OOOOtttt    5555qqqqqqqqqqqqqqqqqqqq5555    ttttOOOO====6666====@@@@oooooooo::::::::::::",
"::::::::::::::::oooo@@@@oooo====6666====9999yyyy........qqqqqqqqqqqqqqqqqqqq........yyyy9999====6666====oooo@@@@oooo;;;;::::::::",
"::::::::::::::::oooo@@@@oooo====6666====9999yyyy........qqqqqqqqqqqqqqqqqqqq........yyyy9999====6666====oooo@@@@oooo;;;;::::::::",
"::::::::::::::::oooo@@@@oooo====6666====9999yyyy........qqqqqqqqqqqqqqqqqqqq........yyyy9999====6666====oooo@@@@oooo;;;;::::::::",
"::::::::::::::::oooo@@@@oooo====6666====9999yyyy........qqqqqqqqqqqqqqqqqqqq........yyyy9999====6666====oooo@@@@oooo;;;;::::::::",
"::::::::::::::::oooo@@@@oooo============33339999$$$$$$$$qqqqqqqqqqqqqqqqqqqq$$$$$$$$99993333============oooo@@@@@@@@oooo::::::::",
"::::::::::::::::oooo@@@@oooo============33339999$$$$$$$$qqqqqqqqqqqqqqqqqqqq$$$$$$$$99993333============oooo@@@@@@@@oooo::::::::",
"::::::::::::::::oooo@@@@oooo============33339999$$$$$$$$qqqqqqqqqqqqqqqqqqqq$$$$$$$$99993333============oooo@@@@@@@@oooo::::::::",
"::::::::::::::::oooo@@@@oooo============33339999$$$$$$$$qqqqqqqqqqqqqqqqqqqq$$$$$$$$99993333============oooo@@@@@@@@oooo::::::::",
"::::::::::::::::oooo@@@@oooo============XXXX33339999qqqqqqqqqqqqqqqqqqqqqqqqqqqq99993333XXXX========@@@@oooo@@@@@@@@oooo::::::::",
"::::::::::::::::oooo@@@@oooo============XXXX33339999qqqqqqqqqqqqqqqqqqqqqqqqqqqq99993333XXXX========@@@@oooo@@@@@@@@oooo::::::::",
"::::::::::::::::oooo@@@@oooo============XXXX33339999qqqqqqqqqqqqqqqqqqqqqqqqqqqq99993333XXXX========@@@@oooo@@@@@@@@oooo::::::::",
"::::::::::::::::oooo@@@@oooo============XXXX33339999qqqqqqqqqqqqqqqqqqqqqqqqqqqq99993333XXXX========@@@@oooo@@@@@@@@oooo::::::::",
"::::::::::::::::oooo@@@@oooo============4444OOOO&&&&3333999999999999999999993333&&&&OOOO============oooo@@@@====@@@@@@@@oooo::::",
"::::::::::::::::oooo@@@@oooo============4444OOOO&&&&3333999999999999999999993333&&&&OOOO============oooo@@@@====@@@@@@@@oooo::::",
"::::::::::::::::oooo@@@@oooo============4444OOOO&&&&3333999999999999999999993333&&&&OOOO============oooo@@@@====@@@@@@@@oooo::::",
"::::::::::::::::oooo@@@@oooo============4444OOOO&&&&3333999999999999999999993333&&&&OOOO============oooo@@@@====@@@@@@@@oooo::::",
"::::::::::::::::oooo@@@@OOOO============44444444OOOOOOOOOOOOOOOOOOOOOOOOOOOOOOOOOOOO4444========@@@@oooo@@@@@@@@====@@@@oooo::::",
"::::::::::::::::oooo@@@@OOOO============44444444OOOOOOOOOOOOOOOOOOOOOOOOOOOOOOOOOOOO4444========@@@@oooo@@@@@@@@====@@@@oooo::::",
"::::::::::::::::oooo@@@@OOOO============44444444OOOOOOOOOOOOOOOOOOOOOOOOOOOOOOOOOOOO4444========@@@@oooo@@@@@@@@====@@@@oooo::::",
"::::::::::::::::oooo@@@@OOOO============44444444OOOOOOOOOOOOOOOOOOOOOOOOOOOOOOOOOOOO4444========@@@@oooo@@@@@@@@====@@@@oooo::::",
"::::::::::::::::ooooOOOO>>>>@@@@====eeeeeeee44448888888844444444444444444444888888884444========@@@@####@@@@@@@@====@@@@oooo::::",
"::::::::::::::::ooooOOOO>>>>@@@@====eeeeeeee44448888888844444444444444444444888888884444========@@@@####@@@@@@@@====@@@@oooo::::",
"::::::::::::::::ooooOOOO>>>>@@@@====eeeeeeee44448888888844444444444444444444888888884444========@@@@####@@@@@@@@====@@@@oooo::::",
"::::::::::::::::ooooOOOO>>>>@@@@====eeeeeeee44448888888844444444444444444444888888884444========@@@@####@@@@@@@@====@@@@oooo::::",
"::::::::::::::::::::OOOO&&&&@@@@====eeee7777eeee444488880000000000000000000088884444eeee====@@@@yyyy7777####@@@@@@@@@@@@oooo::::",
"::::::::::::::::::::OOOO&&&&@@@@====eeee7777eeee444488880000000000000000000088884444eeee====@@@@yyyy7777####@@@@@@@@@@@@oooo::::",
"::::::::::::::::::::OOOO&&&&@@@@====eeee7777eeee444488880000000000000000000088884444eeee====@@@@yyyy7777####@@@@@@@@@@@@oooo::::",
"::::::::::::::::::::OOOO&&&&@@@@====eeee7777eeee444488880000000000000000000088884444eeee====@@@@yyyy7777####@@@@@@@@@@@@oooo::::",
"::::::::::::::::::::OOOO&&&&>>>>@@@@7777####77777777888888880000000000008888888877777777@@@@yyyyyyyyeeee####@@@@@@@@oooo::::::::",
"::::::::::::::::::::OOOO&&&&>>>>@@@@7777####77777777888888880000000000008888888877777777@@@@yyyyyyyyeeee####@@@@@@@@oooo::::::::",
"::::::::::::::::::::OOOO&&&&>>>>@@@@7777####77777777888888880000000000008888888877777777@@@@yyyyyyyyeeee####@@@@@@@@oooo::::::::",
"::::::::::::::::::::OOOO&&&&>>>>@@@@7777####77777777888888880000000000008888888877777777@@@@yyyyyyyyeeee####@@@@@@@@oooo::::::::",
"::::::::::::::::::::::::OOOO>>>>77777777####77777777>>>>eeeeeeeeeeeeeeeeeeee>>>>77777777OOOO,,,,<<<<eeee####oooooooo::::::::::::",
"::::::::::::::::::::::::OOOO>>>>77777777####77777777>>>>eeeeeeeeeeeeeeeeeeee>>>>77777777OOOO,,,,<<<<eeee####oooooooo::::::::::::",
"::::::::::::::::::::::::OOOO>>>>77777777####77777777>>>>eeeeeeeeeeeeeeeeeeee>>>>77777777OOOO,,,,<<<<eeee####oooooooo::::::::::::",
"::::::::::::::::::::::::OOOO>>>>77777777####77777777>>>>eeeeeeeeeeeeeeeeeeee>>>>77777777OOOO,,,,<<<<eeee####oooooooo::::::::::::",
"::::::::::::::::::::rrrrOOOO>>>>7777########eeee7777,,,,yyyyyyyyyyyyyyyyyyyy,,,,7777eeeeOOOOqqqqqqqq,,,,####::::----::::;;;;::::",
"::::::::::::::::::::rrrrOOOO>>>>7777########eeee7777,,,,yyyyyyyyyyyyyyyyyyyy,,,,7777eeeeOOOOqqqqqqqq,,,,####::::----::::;;;;::::",
"::::::::::::::::::::rrrrOOOO>>>>7777########eeee7777,,,,yyyyyyyyyyyyyyyyyyyy,,,,7777eeeeOOOOqqqqqqqq,,,,####::::----::::;;;;::::",
"::::::::::::::::::::rrrrOOOO>>>>7777########eeee7777,,,,yyyyyyyyyyyyyyyyyyyy,,,,7777eeeeOOOOqqqqqqqq,,,,####::::----::::;;;;::::",
"::::::::::::::::rrrr1111rrrrOOOO########7777eeeeeeee<<<<yyyyyyyyyyyyyyyyyyyy,,,,eeeeeeeeOOOO33339999,,,,OOOO::::;;;;;;;;::::::::",
"::::::::::::::::rrrr1111rrrrOOOO########7777eeeeeeee<<<<yyyyyyyyyyyyyyyyyyyy,,,,eeeeeeeeOOOO33339999,,,,OOOO::::;;;;;;;;::::::::",
"::::::::::::::::rrrr1111rrrrOOOO########7777eeeeeeee<<<<yyyyyyyyyyyyyyyyyyyy,,,,eeeeeeeeOOOO33339999,,,,OOOO::::;;;;;;;;::::::::",
"::::::::::::::::rrrr1111rrrrOOOO########7777eeeeeeee<<<<yyyyyyyyyyyyyyyyyyyy,,,,eeeeeeeeOOOO33339999,,,,OOOO::::;;;;;;;;::::::::",
"::::::::::::::::::::rrrr::::::::####7777eeeeeeeeyyyyeeee<<<<yyyyyyyyyyyyyyyyeeee,,,,eeeeOOOO>>>>>>>>>>>>OOOO::::::::::::::::::::",
"::::::::::::::::::::rrrr::::::::####7777eeeeeeeeyyyyeeee<<<<yyyyyyyyyyyyyyyyeeee,,,,eeeeOOOO>>>>>>>>>>>>OOOO::::::::::::::::::::",
"::::::::::::::::::::rrrr::::::::####7777eeeeeeeeyyyyeeee<<<<yyyyyyyyyyyyyyyyeeee,,,,eeeeOOOO>>>>>>>>>>>>OOOO::::::::::::::::::::",
"::::::::::::::::::::rrrr::::::::####7777eeeeeeeeyyyyeeee<<<<yyyyyyyyyyyyyyyyeeee,,,,eeeeOOOO>>>>>>>>>>>>OOOO::::::::::::::::::::",
"::::::::::::::::::::::::::::::::XXXX4444eeeeyyyyyyyyyyyy<<<<yyyyyyyyyyyyeeeeeeee,,,,eeee7777OOOO>>>>OOOO::::::::::::::::::::::::",
"::::::::::::::::::::::::::::::::XXXX4444eeeeyyyyyyyyyyyy<<<<yyyyyyyyyyyyeeeeeeee,,,,eeee7777OOOO>>>>OOOO::::::::::::::::::::::::",
"::::::::::::::::::::::::::::::::XXXX4444eeeeyyyyyyyyyyyy<<<<yyyyyyyyyyyyeeeeeeee,,,,eeee7777OOOO>>>>OOOO::::::::::::::::::::::::",
"::::::::::::::::::::::::::::::::XXXX4444eeeeyyyyyyyyyyyy<<<<yyyyyyyyyyyyeeeeeeee,,,,eeee7777OOOO>>>>OOOO::::::::::::::::::::::::",
"::::::::::::::::::::::::::::;;;;XXXX888888880000000000000000<<<<<<<<<<<<,,,,,,,,888888888888XXXXOOOO::::::::::::::::::::::::::::",
"::::::::::::::::::::::::::::;;;;XXXX888888880000000000000000<<<<<<<<<<<<,,,,,,,,888888888888XXXXOOOO::::::::::::::::::::::::::::",
"::::::::::::::::::::::::::::;;;;XXXX888888880000000000000000<<<<<<<<<<<<,,,,,,,,888888888888XXXXOOOO::::::::::::::::::::::::::::",
"::::::::::::::::::::::::::::;;;;XXXX888888880000000000000000<<<<<<<<<<<<,,,,,,,,888888888888XXXXOOOO::::::::::::::::::::::::::::",
"::::::::::::::::::::::::::::::::;;;;XXXXXXXXOOOO%%%%********++++8888888888888888XXXXXXXXXXXX::::::::::::::::::::::::::::::::::::",
"::::::::::::::::::::::::::::::::;;;;XXXXXXXXOOOO%%%%********++++8888888888888888XXXXXXXXXXXX::::::::::::::::::::::::::::::::::::",
"::::::::::::::::::::::::::::::::;;;;XXXXXXXXOOOO%%%%********++++8888888888888888XXXXXXXXXXXX::::::::::::::::::::::::::::::::::::",
"::::::::::::::::::::::::::::::::;;;;XXXXXXXXOOOO%%%%********++++8888888888888888XXXXXXXXXXXX::::::::::::::::::::::::::::::::::::",
"::::::::::::::::::::::::::::::::::::::::::::OOOO************++++XXXXXXXXXXXXXXXX::::::::::::::::::::::::::::::::::::::::::::::::",
"::::::::::::::::::::::::::::::::::::::::::::OOOO************++++XXXXXXXXXXXXXXXX::::::::::::::::::::::::::::::::::::::::::::::::",
"::::::::::::::::::::::::::::::::::::::::::::OOOO************++++XXXXXXXXXXXXXXXX::::::::::::::::::::::::::::::::::::::::::::::::",
"::::::::::::::::::::::::::::::::::::::::::::OOOO************++++XXXXXXXXXXXXXXXX::::::::::::::::::::::::::::::::::::::::::::::::"
};
