/* XPM */
static char *d36465abf061419fb79d77621d97284e2qmPoTEbd1cXKMqf[] = {
/* columns rows colors chars-per-pixel */
"128 128 33 1 ",
"  c #2E1E22",
". c #5C2E00",
"X c #6A1C30",
"o c #4D3B39",
"O c #534721",
"+ c #705654",
"@ c #767678",
"# c #964F00",
"$ c #8B5E4A",
"% c #9D704C",
"& c #8F7772",
"* c #539614",
"= c #6DAF2E",
"- c #74BE2C",
"; c #C79D00",
": c #FFD600",
"> c #FFFC00",
", c #D7CF22",
"< c #8ABE58",
"1 c #D7906E",
"2 c #C26C81",
"3 c #928A8C",
"4 c #B7A099",
"5 c #B7B7BB",
"6 c #DD8499",
"7 c #EEBE93",
"8 c #FFA3B9",
"9 c #FFE1AF",
"0 c gray85",
"q c #D9D9DD",
"w c gainsboro",
"e c gray95",
"r c white",
/* pixels */
"------------------------------------------------@@@@@@@@@@@@@@@@@@@@@@@@@@@@@@@@@@@@--------------------------------------------",
"------------------------------------------------@@@@@@@@@@@@@@@@@@@@@@@@@@@@@@@@@@@@--------------------------------------------",
"------------------------------------------------@@@@@@@@@@@@@@@@@@@@@@@@@@@@@@@@@@@@--------------------------------------------",
"------------------------------------------------@@@@@@@@@@@@@@@@@@@@@@@@@@@@@@@@@@@@--------------------------------------------",
"----------------------------------------@@@@@@@@55555555qqqqqqqqqqqqqqqqqqqq55555555@@@@@@@@------------------------------------",
"----------------------------------------@@@@@@@@55555555qqqqqqqqqqqqqqqqqqqq55555555@@@@@@@@------------------------------------",
"----------------------------------------@@@@@@@@55555555qqqqqqqqqqqqqqqqqqqq55555555@@@@@@@@------------------------------------",
"----------------------------------------@@@@@@@@55555555qqqqqqqqqqqqqqqqqqqq55555555@@@@@@@@------------------------------------",
"--------------------------------@@@@@@@@5555qqqqqqqqrrrrrrrrrrrrrrrrrrrrrrrrrrrrqqqqqqqq5555@@@@@@@@--------wwww----------------",
"--------------------------------@@@@@@@@5555qqqqqqqqrrrrrrrrrrrrrrrrrrrrrrrrrrrrqqqqqqqq5555@@@@@@@@--------wwww----------------",
"--------------------------------@@@@@@@@5555qqqqqqqqrrrrrrrrrrrrrrrrrrrrrrrrrrrrqqqqqqqq5555@@@@@@@@--------wwww----------------",
"--------------------------------@@@@@@@@5555qqqqqqqqrrrrrrrrrrrrrrrrrrrrrrrrrrrrqqqqqqqq5555@@@@@@@@--------wwww----------------",
"----------------------------@@@@5555qqqqqqqqrrrrrrrrrrrrrrrrrrrrrrrrrrrrrrrrrrrrrrrrrrrrqqqqqqqq5555@@@@wwww,,,,wwww------------",
"----------------------------@@@@5555qqqqqqqqrrrrrrrrrrrrrrrrrrrrrrrrrrrrrrrrrrrrrrrrrrrrqqqqqqqq5555@@@@wwww,,,,wwww------------",
"----------------------------@@@@5555qqqqqqqqrrrrrrrrrrrrrrrrrrrrrrrrrrrrrrrrrrrrrrrrrrrrqqqqqqqq5555@@@@wwww,,,,wwww------------",
"----------------------------@@@@5555qqqqqqqqrrrrrrrrrrrrrrrrrrrrrrrrrrrrrrrrrrrrrrrrrrrrqqqqqqqq5555@@@@wwww,,,,wwww------------",
"--------------------****@@@@5555qqqqqqqqrrrrrrrrrrrrrrrrrrrrrrrrrrrrrrrrrrrrrrrrrrrrrrrrrrrrqqqqqqqq5555@@@@wwww----------------",
"--------------------****@@@@5555qqqqqqqqrrrrrrrrrrrrrrrrrrrrrrrrrrrrrrrrrrrrrrrrrrrrrrrrrrrrqqqqqqqq5555@@@@wwww----------------",
"--------------------****@@@@5555qqqqqqqqrrrrrrrrrrrrrrrrrrrrrrrrrrrrrrrrrrrrrrrrrrrrrrrrrrrrqqqqqqqq5555@@@@wwww----------------",
"--------------------****@@@@5555qqqqqqqqrrrrrrrrrrrrrrrrrrrrrrrrrrrrrrrrrrrrrrrrrrrrrrrrrrrrqqqqqqqq5555@@@@wwww----------------",
"--------------------@@@@5555qqqqqqqqrrrrrrrrrrrrrrrrrrrrrrrrrrrrrrrrrrrrrrrrrrrrrrrrrrrrrrrrrrrrqqqqqqqq5555@@@@----------------",
"--------------------@@@@5555qqqqqqqqrrrrrrrrrrrrrrrrrrrrrrrrrrrrrrrrrrrrrrrrrrrrrrrrrrrrrrrrrrrrqqqqqqqq5555@@@@----------------",
"--------------------@@@@5555qqqqqqqqrrrrrrrrrrrrrrrrrrrrrrrrrrrrrrrrrrrrrrrrrrrrrrrrrrrrrrrrrrrrqqqqqqqq5555@@@@----------------",
"--------------------@@@@5555qqqqqqqqrrrrrrrrrrrrrrrrrrrrrrrrrrrrrrrrrrrrrrrrrrrrrrrrrrrrrrrrrrrrqqqqqqqq5555@@@@----------------",
"----------------====@@@@5555qqqqqqqqrrrrrrrrrrrrrrrrrrrrrrrrrrrr::::rrrrrrrrrrrrrrrrrrrrrrrrrrrrqqqqqqqq5555@@@@----------------",
"----------------====@@@@5555qqqqqqqqrrrrrrrrrrrrrrrrrrrrrrrrrrrr::::rrrrrrrrrrrrrrrrrrrrrrrrrrrrqqqqqqqq5555@@@@----------------",
"----------------====@@@@5555qqqqqqqqrrrrrrrrrrrrrrrrrrrrrrrrrrrr::::rrrrrrrrrrrrrrrrrrrrrrrrrrrrqqqqqqqq5555@@@@----------------",
"----------------====@@@@5555qqqqqqqqrrrrrrrrrrrrrrrrrrrrrrrrrrrr::::rrrrrrrrrrrrrrrrrrrrrrrrrrrrqqqqqqqq5555@@@@----------------",
"--------------------@@@@5555qqqqqqqqqqqqrrrrrrrrrrrr::::::::::::>>>>::::::::::::rrrrrrrrrrrrqqqqqqqqqqqq5555@@@@----------------",
"--------------------@@@@5555qqqqqqqqqqqqrrrrrrrrrrrr::::::::::::>>>>::::::::::::rrrrrrrrrrrrqqqqqqqqqqqq5555@@@@----------------",
"--------------------@@@@5555qqqqqqqqqqqqrrrrrrrrrrrr::::::::::::>>>>::::::::::::rrrrrrrrrrrrqqqqqqqqqqqq5555@@@@----------------",
"--------------------@@@@5555qqqqqqqqqqqqrrrrrrrrrrrr::::::::::::>>>>::::::::::::rrrrrrrrrrrrqqqqqqqqqqqq5555@@@@----------------",
"------------------------;;;;55555555;;;;;;;;::::::::::::>>>>>>>>>>>>>>>>>>>>::::::::::::;;;;;;;;55555555;;;;--------------------",
"------------------------;;;;55555555;;;;;;;;::::::::::::>>>>>>>>>>>>>>>>>>>>::::::::::::;;;;;;;;55555555;;;;--------------------",
"------------------------;;;;55555555;;;;;;;;::::::::::::>>>>>>>>>>>>>>>>>>>>::::::::::::;;;;;;;;55555555;;;;--------------------",
"------------------------;;;;55555555;;;;;;;;::::::::::::>>>>>>>>>>>>>>>>>>>>::::::::::::;;;;;;;;55555555;;;;--------------------",
"--------<<<<------------oooo;;;;;;;;;;;;&&&&++++&&&&&&&&++++&&&&&&&&&&&&++++&&&&&&&&++++&&&&;;;;;;;;;;;;oooo--------------------",
"--------<<<<------------oooo;;;;;;;;;;;;&&&&++++&&&&&&&&++++&&&&&&&&&&&&++++&&&&&&&&++++&&&&;;;;;;;;;;;;oooo--------------------",
"--------<<<<------------oooo;;;;;;;;;;;;&&&&++++&&&&&&&&++++&&&&&&&&&&&&++++&&&&&&&&++++&&&&;;;;;;;;;;;;oooo--------------------",
"--------<<<<------------oooo;;;;;;;;;;;;&&&&++++&&&&&&&&++++&&&&&&&&&&&&++++&&&&&&&&++++&&&&;;;;;;;;;;;;oooo--------------------",
"--------------------oooo++++&&&&&&&&++++&&&&++++&&&&&&&&++++&&&&&&&&&&&&++++&&&&&&&&++++&&&&++++&&&&&&&&++++oooo----------------",
"--------------------oooo++++&&&&&&&&++++&&&&++++&&&&&&&&++++&&&&&&&&&&&&++++&&&&&&&&++++&&&&++++&&&&&&&&++++oooo----------------",
"--------------------oooo++++&&&&&&&&++++&&&&++++&&&&&&&&++++&&&&&&&&&&&&++++&&&&&&&&++++&&&&++++&&&&&&&&++++oooo----------------",
"--------------------oooo++++&&&&&&&&++++&&&&++++&&&&&&&&++++&&&&&&&&&&&&++++&&&&&&&&++++&&&&++++&&&&&&&&++++oooo----------------",
"--------------------oooo++++&&&&&&&&&&&&++++7777++++++++9999++++++++++++9999++++++++7777++++&&&&&&&&&&&&++++oooo----------------",
"--------------------oooo++++&&&&&&&&&&&&++++7777++++++++9999++++++++++++9999++++++++7777++++&&&&&&&&&&&&++++oooo----------------",
"--------------------oooo++++&&&&&&&&&&&&++++7777++++++++9999++++++++++++9999++++++++7777++++&&&&&&&&&&&&++++oooo----------------",
"--------------------oooo++++&&&&&&&&&&&&++++7777++++++++9999++++++++++++9999++++++++7777++++&&&&&&&&&&&&++++oooo----------------",
"--------------------oooo++++&&&&&&&&&&&&7777OOOOOOOOOOOO99999999999999999999OOOOOOOOOOOO7777&&&&&&&&&&&&++++oooo----------------",
"--------------------oooo++++&&&&&&&&&&&&7777OOOOOOOOOOOO99999999999999999999OOOOOOOOOOOO7777&&&&&&&&&&&&++++oooo----------------",
"--------------------oooo++++&&&&&&&&&&&&7777OOOOOOOOOOOO99999999999999999999OOOOOOOOOOOO7777&&&&&&&&&&&&++++oooo----------------",
"--------------------oooo++++&&&&&&&&&&&&7777OOOOOOOOOOOO99999999999999999999OOOOOOOOOOOO7777&&&&&&&&&&&&++++oooo----------------",
"----------------****oooo++++&&&&&&&&&&&&OOOO0000    qqqq99999999999999999999qqqq    0000OOOO&&&&&&&&&&&&++++oooo----------------",
"----------------****oooo++++&&&&&&&&&&&&OOOO0000    qqqq99999999999999999999qqqq    0000OOOO&&&&&&&&&&&&++++oooo----------------",
"----------------****oooo++++&&&&&&&&&&&&OOOO0000    qqqq99999999999999999999qqqq    0000OOOO&&&&&&&&&&&&++++oooo----------------",
"----------------****oooo++++&&&&&&&&&&&&OOOO0000    qqqq99999999999999999999qqqq    0000OOOO&&&&&&&&&&&&++++oooo----------------",
"----------------oooooooo++++&&&&4444&&&&OOOOeeee    3333999999999999999999993333    eeeeOOOO&&&&4444&&&&++++oooooooo------------",
"----------------oooooooo++++&&&&4444&&&&OOOOeeee    3333999999999999999999993333    eeeeOOOO&&&&4444&&&&++++oooooooo------------",
"----------------oooooooo++++&&&&4444&&&&OOOOeeee    3333999999999999999999993333    eeeeOOOO&&&&4444&&&&++++oooooooo------------",
"----------------oooooooo++++&&&&4444&&&&OOOOeeee    3333999999999999999999993333    eeeeOOOO&&&&4444&&&&++++oooooooo------------",
"------------====oooo++++oooo&&&&4444&&&&7777rrrr........99999999999999999999........rrrr7777&&&&4444&&&&oooo++++oooo------------",
"------------====oooo++++oooo&&&&4444&&&&7777rrrr........99999999999999999999........rrrr7777&&&&4444&&&&oooo++++oooo------------",
"------------====oooo++++oooo&&&&4444&&&&7777rrrr........99999999999999999999........rrrr7777&&&&4444&&&&oooo++++oooo------------",
"------------====oooo++++oooo&&&&4444&&&&7777rrrr........99999999999999999999........rrrr7777&&&&4444&&&&oooo++++oooo------------",
"------------oooo++++++++oooo&&&&&&&&&&&&11117777########99999999999999999999########77771111&&&&&&&&&&&&oooo++++++++oooo--------",
"------------oooo++++++++oooo&&&&&&&&&&&&11117777########99999999999999999999########77771111&&&&&&&&&&&&oooo++++++++oooo--------",
"------------oooo++++++++oooo&&&&&&&&&&&&11117777########99999999999999999999########77771111&&&&&&&&&&&&oooo++++++++oooo--------",
"------------oooo++++++++oooo&&&&&&&&&&&&11117777########99999999999999999999########77771111&&&&&&&&&&&&oooo++++++++oooo--------",
"------------oooo++++++++oooo++++&&&&&&&&XXXX11117777999999999999999999999999999977771111XXXX&&&&&&&&++++oooo++++++++oooo--------",
"------------oooo++++++++oooo++++&&&&&&&&XXXX11117777999999999999999999999999999977771111XXXX&&&&&&&&++++oooo++++++++oooo--------",
"------------oooo++++++++oooo++++&&&&&&&&XXXX11117777999999999999999999999999999977771111XXXX&&&&&&&&++++oooo++++++++oooo--------",
"------------oooo++++++++oooo++++&&&&&&&&XXXX11117777999999999999999999999999999977771111XXXX&&&&&&&&++++oooo++++++++oooo--------",
"------------oooo++++&&&&oooo++++&&&&&&&&2222OOOO%%%%1111777777777777777777771111%%%%OOOO2222&&&&&&&&++++oooo&&&&++++oooo--------",
"------------oooo++++&&&&oooo++++&&&&&&&&2222OOOO%%%%1111777777777777777777771111%%%%OOOO2222&&&&&&&&++++oooo&&&&++++oooo--------",
"------------oooo++++&&&&oooo++++&&&&&&&&2222OOOO%%%%1111777777777777777777771111%%%%OOOO2222&&&&&&&&++++oooo&&&&++++oooo--------",
"------------oooo++++&&&&oooo++++&&&&&&&&2222OOOO%%%%1111777777777777777777771111%%%%OOOO2222&&&&&&&&++++oooo&&&&++++oooo--------",
"------------oooo++++&&&&++++oooo&&&&&&&&22222222OOOOOOOOOOOOOOOOOOOOOOOOOOOOOOOOOOOO22222222&&&&&&&&oooo++++&&&&++++oooo--------",
"------------oooo++++&&&&++++oooo&&&&&&&&22222222OOOOOOOOOOOOOOOOOOOOOOOOOOOOOOOOOOOO22222222&&&&&&&&oooo++++&&&&++++oooo--------",
"------------oooo++++&&&&++++oooo&&&&&&&&22222222OOOOOOOOOOOOOOOOOOOOOOOOOOOOOOOOOOOO22222222&&&&&&&&oooo++++&&&&++++oooo--------",
"------------oooo++++&&&&++++oooo&&&&&&&&22222222OOOOOOOOOOOOOOOOOOOOOOOOOOOOOOOOOOOO22222222&&&&&&&&oooo++++&&&&++++oooo--------",
"------------oooo++++&&&&++++@@@@++++&&&&5555222266666666222222222222222222226666666622225555&&&&++++@@@@++++&&&&++++oooo--------",
"------------oooo++++&&&&++++@@@@++++&&&&5555222266666666222222222222222222226666666622225555&&&&++++@@@@++++&&&&++++oooo--------",
"------------oooo++++&&&&++++@@@@++++&&&&5555222266666666222222222222222222226666666622225555&&&&++++@@@@++++&&&&++++oooo--------",
"------------oooo++++&&&&++++@@@@++++&&&&5555222266666666222222222222222222226666666622225555&&&&++++@@@@++++&&&&++++oooo--------",
"------------oooo++++++++@@@@5555++++&&&&5555qqqq222266668888888888888888888866662222qqqq5555&&&&++++5555@@@@++++++++oooo--------",
"------------oooo++++++++@@@@5555++++&&&&5555qqqq222266668888888888888888888866662222qqqq5555&&&&++++5555@@@@++++++++oooo--------",
"------------oooo++++++++@@@@5555++++&&&&5555qqqq222266668888888888888888888866662222qqqq5555&&&&++++5555@@@@++++++++oooo--------",
"------------oooo++++++++@@@@5555++++&&&&5555qqqq222266668888888888888888888866662222qqqq5555&&&&++++5555@@@@++++++++oooo--------",
"----------------oooo++++@@@@qqqqrrrr++++@@@@55555555666666668888888888886666666655555555@@@@++++rrrrqqqq@@@@++++oooo------------",
"----------------oooo++++@@@@qqqqrrrr++++@@@@55555555666666668888888888886666666655555555@@@@++++rrrrqqqq@@@@++++oooo------------",
"----------------oooo++++@@@@qqqqrrrr++++@@@@55555555666666668888888888886666666655555555@@@@++++rrrrqqqq@@@@++++oooo------------",
"----------------oooo++++@@@@qqqqrrrr++++@@@@55555555666666668888888888886666666655555555@@@@++++rrrrqqqq@@@@++++oooo------------",
"--------------------OOOO;;;;rrrrrrrr5555@@@@55555555;;;;qqqqqqqqqqqqqqqqqqqq;;;;55555555@@@@5555rrrrrrrr;;;;OOOO----****--------",
"--------------------OOOO;;;;rrrrrrrr5555@@@@55555555;;;;qqqqqqqqqqqqqqqqqqqq;;;;55555555@@@@5555rrrrrrrr;;;;OOOO----****--------",
"--------------------OOOO;;;;rrrrrrrr5555@@@@55555555;;;;qqqqqqqqqqqqqqqqqqqq;;;;55555555@@@@5555rrrrrrrr;;;;OOOO----****--------",
"--------------------OOOO;;;;rrrrrrrr5555@@@@55555555;;;;qqqqqqqqqqqqqqqqqqqq;;;;55555555@@@@5555rrrrrrrr;;;;OOOO----****--------",
"--------------------OOOO9999>>>>qqqq5555@@@@qqqq5555::::rrrrrrrrrrrrrrrrrrrr::::5555qqqq@@@@5555qqqq>>>>9999OOOO****------------",
"--------------------OOOO9999>>>>qqqq5555@@@@qqqq5555::::rrrrrrrrrrrrrrrrrrrr::::5555qqqq@@@@5555qqqq>>>>9999OOOO****------------",
"--------------------OOOO9999>>>>qqqq5555@@@@qqqq5555::::rrrrrrrrrrrrrrrrrrrr::::5555qqqq@@@@5555qqqq>>>>9999OOOO****------------",
"--------------------OOOO9999>>>>qqqq5555@@@@qqqq5555::::rrrrrrrrrrrrrrrrrrrr::::5555qqqq@@@@5555qqqq>>>>9999OOOO****------------",
"--------------------OOOO99997777::::@@@@5555qqqqqqqq>>>>rrrrrrrrrrrrrrrrrrrr>>>>qqqqqqqq5555@@@@::::77779999OOOO****----====----",
"--------------------OOOO99997777::::@@@@5555qqqqqqqq>>>>rrrrrrrrrrrrrrrrrrrr>>>>qqqqqqqq5555@@@@::::77779999OOOO****----====----",
"--------------------OOOO99997777::::@@@@5555qqqqqqqq>>>>rrrrrrrrrrrrrrrrrrrr>>>>qqqqqqqq5555@@@@::::77779999OOOO****----====----",
"--------------------OOOO99997777::::@@@@5555qqqqqqqq>>>>rrrrrrrrrrrrrrrrrrrr>>>>qqqqqqqq5555@@@@::::77779999OOOO****----====----",
"----------------wwww,,,,OOOO;;;;::::@@@@qqqqqqqqqqqq>>>>rrrrrrrrrrrrrrrrrrrr>>>>qqqqqqqqqqqq@@@@::::;;;;OOOO----========--------",
"----------------wwww,,,,OOOO;;;;::::@@@@qqqqqqqqqqqq>>>>rrrrrrrrrrrrrrrrrrrr>>>>qqqqqqqqqqqq@@@@::::;;;;OOOO----========--------",
"----------------wwww,,,,OOOO;;;;::::@@@@qqqqqqqqqqqq>>>>rrrrrrrrrrrrrrrrrrrr>>>>qqqqqqqqqqqq@@@@::::;;;;OOOO----========--------",
"----------------wwww,,,,OOOO;;;;::::@@@@qqqqqqqqqqqq>>>>rrrrrrrrrrrrrrrrrrrr>>>>qqqqqqqqqqqq@@@@::::;;;;OOOO----========--------",
"--------------------wwww----OOOOXXXX22225555qqqqrrrr::::rrrrrrrrrrrrrrrrrrrr::::rrrrqqqq55552222XXXXOOOO====--------------------",
"--------------------wwww----OOOOXXXX22225555qqqqrrrr::::rrrrrrrrrrrrrrrrrrrr::::rrrrqqqq55552222XXXXOOOO====--------------------",
"--------------------wwww----OOOOXXXX22225555qqqqrrrr::::rrrrrrrrrrrrrrrrrrrr::::rrrrqqqq55552222XXXXOOOO====--------------------",
"--------------------wwww----OOOOXXXX22225555qqqqrrrr::::rrrrrrrrrrrrrrrrrrrr::::rrrrqqqq55552222XXXXOOOO====--------------------",
"--------------------------------XXXX222266666666rrrrrrrr::::>>>>>>>>>>>>::::rrrrrrrr666666662222XXXX----------------------------",
"--------------------------------XXXX222266666666rrrrrrrr::::>>>>>>>>>>>>::::rrrrrrrr666666662222XXXX----------------------------",
"--------------------------------XXXX222266666666rrrrrrrr::::>>>>>>>>>>>>::::rrrrrrrr666666662222XXXX----------------------------",
"--------------------------------XXXX222266666666rrrrrrrr::::>>>>>>>>>>>>::::rrrrrrrr666666662222XXXX----------------------------",
"----------------------------====----XXXXXXXX22226666666688888888888888888888666666662222XXXXXXXX--------------------------------",
"----------------------------====----XXXXXXXX22226666666688888888888888888888666666662222XXXXXXXX--------------------------------",
"----------------------------====----XXXXXXXX22226666666688888888888888888888666666662222XXXXXXXX--------------------------------",
"----------------------------====----XXXXXXXX22226666666688888888888888888888666666662222XXXXXXXX--------------------------------",
"--------------------------------========----OOOO$$$$$$$$$$$$OOOOXXXXOOOO$$$$$$$$$$$$OOOO----------------------------------------",
"--------------------------------========----OOOO$$$$$$$$$$$$OOOOXXXXOOOO$$$$$$$$$$$$OOOO----------------------------------------",
"--------------------------------========----OOOO$$$$$$$$$$$$OOOOXXXXOOOO$$$$$$$$$$$$OOOO----------------------------------------",
"--------------------------------========----OOOO$$$$$$$$$$$$OOOOXXXXOOOO$$$$$$$$$$$$OOOO----------------------------------------",
"------------------------------------------------OOOOOOOOOOOO------------OOOOOOOOOOOO--------------------------------------------",
"------------------------------------------------OOOOOOOOOOOO------------OOOOOOOOOOOO--------------------------------------------",
"------------------------------------------------OOOOOOOOOOOO------------OOOOOOOOOOOO--------------------------------------------",
"------------------------------------------------OOOOOOOOOOOO------------OOOOOOOOOOOO--------------------------------------------"
};
