/* XPM */
static char *_725356a07b34089a0fc536485c863d1pcmThd3CdM9C88sw[] = {
/* columns rows colors chars-per-pixel */
"128 128 13 1 ",
"  c #467D12",
". c #000B41",
"X c #00115F",
"o c #001578",
"O c #539614",
"+ c #6A9B3A",
"@ c #6DAF2E",
"# c #74BE2C",
"$ c #D7CF22",
"% c #8ABE58",
"& c #001A96",
"* c #1E3CCD",
"= c gainsboro",
/* pixels */
"################################################################################################################################",
"################################################################################################################################",
"################################################################################################################################",
"################################################################################################################################",
"################################################################################################################################",
"################################################################################################################################",
"################################################################################################################################",
"################################################################################################################################",
"####################################################################################    ####################====################",
"####################################################################################    ####################====################",
"####################################################################################    ####################====################",
"####################################################################################    ####################====################",
"####################################OOOO################################################################====$$$$====############",
"####################################OOOO################################################################====$$$$====############",
"####################################OOOO################################################################====$$$$====############",
"####################################OOOO################################################################====$$$$====############",
"####################OOOO########OOOO########################........########################################====################",
"####################OOOO########OOOO########################........########################################====################",
"####################OOOO########OOOO########################........########################################====################",
"####################OOOO########OOOO########################........########################################====################",
"########################OOOO####OOOO####@@@@############....oooo&&&&....########################################################",
"########################OOOO####OOOO####@@@@############....oooo&&&&....########################################################",
"########################OOOO####OOOO####@@@@############....oooo&&&&....########################################################",
"########################OOOO####OOOO####@@@@############....oooo&&&&....########################################################",
"################@@@@####OOOO####@@@@@@@@########====....oooooooo&&&&&&&&....####################OOOO############################",
"################@@@@####OOOO####@@@@@@@@########====....oooooooo&&&&&&&&....####################OOOO############################",
"################@@@@####OOOO####@@@@@@@@########====....oooooooo&&&&&&&&....####################OOOO############################",
"################@@@@####OOOO####@@@@@@@@########====....oooooooo&&&&&&&&....####################OOOO############################",
"####################@@@@@@@@################====....oooooooooooo&&&&&&&&&&&&....############OOOO################################",
"####################@@@@@@@@################====....oooooooooooo&&&&&&&&&&&&....############OOOO################################",
"####################@@@@@@@@################====....oooooooooooo&&&&&&&&&&&&....############OOOO################################",
"####################@@@@@@@@################====....oooooooooooo&&&&&&&&&&&&....############OOOO################################",
"############################################....oooooooooooooooo&&&&&&&&&&&&&&&&....########OOOO####@@@@########################",
"############################################....oooooooooooooooo&&&&&&&&&&&&&&&&....########OOOO####@@@@########################",
"############################################....oooooooooooooooo&&&&&&&&&&&&&&&&....########OOOO####@@@@########################",
"############################################....oooooooooooooooo&&&&&&&&&&&&&&&&....########OOOO####@@@@########################",
"########%%%%############################....ooooooooooooooooXXXXXXXX&&&&&&&&&&&&&&&&....####@@@@@@@@############################",
"########%%%%############################....ooooooooooooooooXXXXXXXX&&&&&&&&&&&&&&&&....####@@@@@@@@############################",
"########%%%%############################....ooooooooooooooooXXXXXXXX&&&&&&&&&&&&&&&&....####@@@@@@@@############################",
"########%%%%############################....ooooooooooooooooXXXXXXXX&&&&&&&&&&&&&&&&....####@@@@@@@@############################",
"####################################....XXXXooooooooooooXXXX********XXXX&&&&&&&&&&&&XXXX....####################################",
"####################################....XXXXooooooooooooXXXX********XXXX&&&&&&&&&&&&XXXX....####################################",
"####################################....XXXXooooooooooooXXXX********XXXX&&&&&&&&&&&&XXXX....####################################",
"####################################....XXXXooooooooooooXXXX********XXXX&&&&&&&&&&&&XXXX....####################################",
"####################################....****XXXXooooXXXXoooooooo********XXXX&&&&XXXX&&&&....################%%%%################",
"####################################....****XXXXooooXXXXoooooooo********XXXX&&&&XXXX&&&&....################%%%%################",
"####################################....****XXXXooooXXXXoooooooo********XXXX&&&&XXXX&&&&....################%%%%################",
"####################################....****XXXXooooXXXXoooooooo********XXXX&&&&XXXX&&&&....################%%%%################",
"################################OOOO....********XXXXoooooooooooooooo********XXXX&&&&&&&&....####################################",
"################################OOOO....********XXXXoooooooooooooooo********XXXX&&&&&&&&....####################################",
"################################OOOO....********XXXXoooooooooooooooo********XXXX&&&&&&&&....####################################",
"################################OOOO....********XXXXoooooooooooooooo********XXXX&&&&&&&&....####################################",
"################OOOO########OOOO####....********XXXXoooooooooooooooooooo****XXXX&&&&&&&&....####################################",
"################OOOO########OOOO####....********XXXXoooooooooooooooooooo****XXXX&&&&&&&&....####################################",
"################OOOO########OOOO####....********XXXXoooooooooooooooooooo****XXXX&&&&&&&&....####################################",
"################OOOO########OOOO####....********XXXXoooooooooooooooooooo****XXXX&&&&&&&&....####################################",
"####################OOOO####OOOO####....********XXXXooooooooooooooooooooooooXXXX&&&&&&&&....####################OOOO############",
"####################OOOO####OOOO####....********XXXXooooooooooooooooooooooooXXXX&&&&&&&&....####################OOOO############",
"####################OOOO####OOOO####....********XXXXooooooooooooooooooooooooXXXX&&&&&&&&....####################OOOO############",
"####################OOOO####OOOO####....********XXXXooooooooooooooooooooooooXXXX&&&&&&&&....####################OOOO############",
"############@@@@####OOOO####@@@@@@@@....********XXXXooooooooooooooooooooooooXXXX&&&&&&&&....####OOOO########OOOO################",
"############@@@@####OOOO####@@@@@@@@....********XXXXooooooooooooooooooooooooXXXX&&&&&&&&....####OOOO########OOOO################",
"############@@@@####OOOO####@@@@@@@@....********XXXXooooooooooooooooooooooooXXXX&&&&&&&&....####OOOO########OOOO################",
"############@@@@####OOOO####@@@@@@@@....********XXXXooooooooooooooooooooooooXXXX&&&&&&&&....####OOOO########OOOO################",
"################@@@@@@@@############....********XXXXooooooooooooooooooooooooXXXX&&&&&&&&....####OOOO########OOOO####@@@@########",
"################@@@@@@@@############....********XXXXooooooooooooooooooooooooXXXX&&&&&&&&....####OOOO########OOOO####@@@@########",
"################@@@@@@@@############....********XXXXooooooooooooooooooooooooXXXX&&&&&&&&....####OOOO########OOOO####@@@@########",
"################@@@@@@@@############....********XXXXooooooooooooooooooooooooXXXX&&&&&&&&....####OOOO########OOOO####@@@@########",
"####################################....********XXXXooooooooooooooooooooooooXXXX&&&&&&&&....####@@@@####OOOO@@@@@@@@############",
"####################################....********XXXXooooooooooooooooooooooooXXXX&&&&&&&&....####@@@@####OOOO@@@@@@@@############",
"####################################....********XXXXooooooooooooooooooooooooXXXX&&&&&&&&....####@@@@####OOOO@@@@@@@@############",
"####################################....********XXXXooooooooooooooooooooooooXXXX&&&&&&&&....####@@@@####OOOO@@@@@@@@############",
"####################################....********XXXXooooooooooooooooooooooooXXXX&&&&&&&&....############@@@@####################",
"####################################....********XXXXooooooooooooooooooooooooXXXX&&&&&&&&....############@@@@####################",
"####################################....********XXXXooooooooooooooooooooooooXXXX&&&&&&&&....############@@@@####################",
"####################################....********XXXXooooooooooooooooooooooooXXXX&&&&&&&&....############@@@@####################",
"####################################....********XXXXooooooooooooooooooooooooXXXX&&&&&&&&....####################################",
"####################################....********XXXXooooooooooooooooooooooooXXXX&&&&&&&&....####################################",
"####################################....********XXXXooooooooooooooooooooooooXXXX&&&&&&&&....####################################",
"####################################....********XXXXooooooooooooooooooooooooXXXX&&&&&&&&....####################################",
"####################################....****XXXX&&&&XXXXooooooooooooooooXXXXooooXXXX&&&&....########################    ########",
"####################################....****XXXX&&&&XXXXooooooooooooooooXXXXooooXXXX&&&&....########################    ########",
"####################################....****XXXX&&&&XXXXooooooooooooooooXXXXooooXXXX&&&&....########################    ########",
"####################################....****XXXX&&&&XXXXooooooooooooooooXXXXooooXXXX&&&&....########################    ########",
"####################    ############....XXXX&&&&&&&&&&&&XXXXooooooooXXXXooooooooooooXXXX....########%%%%########################",
"####################    ############....XXXX&&&&&&&&&&&&XXXXooooooooXXXXooooooooooooXXXX....########%%%%########################",
"####################    ############....XXXX&&&&&&&&&&&&XXXXooooooooXXXXooooooooooooXXXX....########%%%%########################",
"####################    ############....XXXX&&&&&&&&&&&&XXXXooooooooXXXXooooooooooooXXXX....########%%%%########################",
"########################################....&&&&&&&&&&&&&&&&XXXXXXXXoooooooooooooooo....++++####################################",
"########################################....&&&&&&&&&&&&&&&&XXXXXXXXoooooooooooooooo....++++####################################",
"########################################....&&&&&&&&&&&&&&&&XXXXXXXXoooooooooooooooo....++++####################################",
"########################################....&&&&&&&&&&&&&&&&XXXXXXXXoooooooooooooooo....++++####################################",
"############################################....&&&&&&&&&&&&&&&&oooooooooooooooo....++++++++####OOOO################OOOO########",
"############################################....&&&&&&&&&&&&&&&&oooooooooooooooo....++++++++####OOOO################OOOO########",
"############################################....&&&&&&&&&&&&&&&&oooooooooooooooo....++++++++####OOOO################OOOO########",
"############################################....&&&&&&&&&&&&&&&&oooooooooooooooo....++++++++####OOOO################OOOO########",
"################################################....&&&&&&&&&&&&oooooooooooo....++++++++############OOOO########OOOO############",
"################################################....&&&&&&&&&&&&oooooooooooo....++++++++############OOOO########OOOO############",
"################################################....&&&&&&&&&&&&oooooooooooo....++++++++############OOOO########OOOO############",
"################################################....&&&&&&&&&&&&oooooooooooo....++++++++############OOOO########OOOO############",
"####################====############################....&&&&&&&&oooooooo....++++++++########@@@@####OOOO########OOOO####@@@@####",
"####################====############################....&&&&&&&&oooooooo....++++++++########@@@@####OOOO########OOOO####@@@@####",
"####################====############################....&&&&&&&&oooooooo....++++++++########@@@@####OOOO########OOOO####@@@@####",
"####################====############################....&&&&&&&&oooooooo....++++++++########@@@@####OOOO########OOOO####@@@@####",
"################====$$$$====####################OOOO####....&&&&oooo....++++++++################@@@@@@@@OOOO####@@@@@@@@########",
"################====$$$$====####################OOOO####....&&&&oooo....++++++++################@@@@@@@@OOOO####@@@@@@@@########",
"################====$$$$====####################OOOO####....&&&&oooo....++++++++################@@@@@@@@OOOO####@@@@@@@@########",
"################====$$$$====####################OOOO####....&&&&oooo....++++++++################@@@@@@@@OOOO####@@@@@@@@########",
"####################====########OOOO########OOOO############........++++++++############################@@@@####################",
"####################====########OOOO########OOOO############........++++++++############################@@@@####################",
"####################====########OOOO########OOOO############........++++++++############################@@@@####################",
"####################====########OOOO########OOOO############........++++++++############################@@@@####################",
"####################################OOOO####OOOO####@@@@############################    ########################################",
"####################################OOOO####OOOO####@@@@############################    ########################################",
"####################################OOOO####OOOO####@@@@############################    ########################################",
"####################################OOOO####OOOO####@@@@############################    ########################################",
"############################@@@@####OOOO####@@@@@@@@################%%%%########################################################",
"############################@@@@####OOOO####@@@@@@@@################%%%%########################################################",
"############################@@@@####OOOO####@@@@@@@@################%%%%########################################################",
"############################@@@@####OOOO####@@@@@@@@################%%%%########################################################",
"################################@@@@@@@@########################################################################################",
"################################@@@@@@@@########################################################################################",
"################################@@@@@@@@########################################################################################",
"################################@@@@@@@@########################################################################################",
"################################################################################################################################",
"################################################################################################################################",
"################################################################################################################################",
"################################################################################################################################"
};
