/* XPM */
static char *result[] = {
/* columns rows colors chars-per-pixel */
"32 32 141 2 ",
"   c #4F3239",
".  c #51333B",
"X  c #553345",
"o  c #5C354C",
"O  c #513A4A",
"+  c #5C3652",
"@  c #543D55",
"#  c #5F3F5E",
"$  c #60374E",
"%  c #67375F",
"&  c #66395C",
"*  c #5B3C61",
"=  c #613F61",
"-  c #6C3C62",
";  c #544251",
":  c #54425D",
">  c #584266",
",  c #584976",
"<  c #6D4066",
"1  c #6C4372",
"2  c #694477",
"3  c #6A497C",
"4  c #724272",
"5  c #70437B",
"6  c #786A70",
"7  c #7D7271",
"8  c #59981E",
"9  c #5DA21C",
"0  c #60A61E",
"q  c #5E9527",
"w  c #5D9E33",
"e  c #638B36",
"r  c #709C3E",
"t  c #6AAC2B",
"y  c #6DB627",
"u  c #6EB42A",
"i  c #6FB829",
"p  c #70B52D",
"a  c #74BD2C",
"s  c #60A535",
"d  c #71AA36",
"f  c #70A63A",
"g  c #75AD3A",
"h  c #78AF3F",
"j  c #6DB23C",
"k  c #6FB83C",
"l  c #75B137",
"z  c #76BE30",
"x  c #74B33B",
"c  c #74C02B",
"v  c #7DC13D",
"b  c #758D52",
"n  c #6FA349",
"m  c #6CAA49",
"M  c #77A444",
"N  c #74AA4A",
"B  c #6EB342",
"V  c #71B542",
"C  c #73BC44",
"Z  c #6BA753",
"A  c #6DB152",
"S  c #70B052",
"D  c #81BE46",
"F  c #80B349",
"G  c #82B055",
"H  c #89C44D",
"J  c #D6D36A",
"K  c #773A8B",
"L  c #793B8F",
"P  c #7D3B94",
"I  c #724381",
"U  c #7F4B8D",
"Y  c #7E548A",
"T  c #7E5B8C",
"R  c #754196",
"E  c #7E4B97",
"W  c #7A419D",
"Q  c #7C5294",
"!  c #75559A",
"~  c #7C539E",
"^  c #74599F",
"/  c #7C43A2",
"(  c #7648A5",
")  c #7A48A3",
"_  c #7D45A9",
"`  c #7B49AD",
"'  c #755AA3",
"]  c #7B48B1",
"[  c #5963AD",
"{  c #5A6ABD",
"}  c #5F75B8",
"|  c #6A7BAD",
" . c #7261B1",
".. c #6673B7",
"X. c #6677BE",
"o. c #6874BE",
"O. c #627ABC",
"+. c #5D72CE",
"@. c #5F75D1",
"#. c #5F78D3",
"$. c #6368C6",
"%. c #6965CB",
"&. c #6171C7",
"*. c #637AC4",
"=. c #6172C9",
"-. c #656BD2",
";. c #6573D6",
":. c #6179D5",
">. c #6172D8",
",. c #637ADB",
"<. c #5F7EE2",
"1. c #813D9D",
"2. c #823DA2",
"3. c #804B8E",
"4. c #81588B",
"5. c #824995",
"6. c #805096",
"7. c #80509D",
"8. c #8044A3",
"9. c #8952A7",
"0. c #6680B3",
"q. c #6288B5",
"w. c #6186B9",
"e. c #648CBD",
"r. c #70B4BC",
"t. c #5F80C9",
"y. c #6080CD",
"u. c #638CD2",
"i. c #6383DF",
"p. c #6DA9DF",
"a. c #6184E4",
"s. c #699BE3",
"d. c #6DA9E1",
"f. c #6EB0E4",
"g. c #6AA3F7",
"h. c #6CA8F7",
"j. c #6CA7F8",
"k. c #6DACFA",
"l. c #70B5FF",
"z. c #BDD296",
"x. c #B3C0A1",
/* pixels */
"a a c a a a a a a a a c a a a g h V V V a c a c a a a a a c a a ",
"a a a a a c c z a a a a a a M 4.~ *.t.q.k y a a c a c v z a c a ",
"a a a a a a a a a a a a c l 4.` ;.a.<.y.Z 8 i a a z H z.H z a a ",
"c a a c a a a a y 9 a a a M ~ ;.j.k.h.a.w.j a a a v z.J z.v c a ",
"a a a a a 0 y p s B a c l 4. .a.k.l.l.k.u.S c c a a H z.H a a c ",
"a a a a a y 9 k r.r.B a M 7.:.h.l.k.k.k.h.e.x c a a z v z a a a ",
"a c a a p u 9 p V V z F 4._ ,.k.h.a.<.a.j.u.V y 0 a a c c a a c ",
"a a a a a u u a z l x x.9. .a.j.a.<.+.+.a.d.V 9 y p a a z a a a ",
"a z z z c a a a l 7 x F ~ ;.h.l.a.{ : < =.d.A 9 a u a a a c a a ",
"a c D z a a a a a l z M ~ ,.k.h.+.:   $ 3 #.e.B p p c a a a z a ",
"a a z z a a a a a c l 4.' i.h.a.{ O . o = @.d.C a a a z z c c a ",
"a c a a c a a a a a l 3.I :.g.+.:   . o * #.f.C a a a D z a a a ",
"c a c a p c a y 0 a g 3.5 +.a.+.O       # &.p.C a c a z z a a a ",
"a a c p 0 a i 9 y a g U 5 ;.<.{ O       $ 3 O.B a a a a a a a a ",
"a a a a y 9 y 9 u p g U 2 :.s.:         $ 1 } w y c c i 0 i a a ",
"c z a p u 9 u u u a g U 5 :.s.; X X O   o 1 O.d 0 a i 9 i a a a ",
"a a a a u u a a a c h 3.I :.s.: K P L + + 1 O.j 9 y y 8 i p a a ",
"a a a a p a a a a z G 7./ &.+.> R %.( L - 1 O.m t a 9 t p a a a ",
"a c a c a a a a a a V o./ 2 { { , [ * P P 5 O.B a a u a a a a a ",
"a a a a c a a a a c k +./ % # { [ @ O P 1.5 O.V a a a a a a a a ",
"a a a a a a a a a c V *.] P + O O   @ $./ K ..V c z a a y 8 i a ",
"c z a c u 8 u a a a x q.-./ - X X + L -._ P T l z D c a a p a a ",
"a a a a a a a c a c a Z *.] / W W / ] %./ 5.M a a z a c a i a a ",
"a z c a a a a a a a a V *.-.>.>.>.-.%.( I Q x i 0 p a a y 0 a a ",
"c a a c z v z a a a c l ~ ] -.>.-.) W 5 ^ X.V a y 9 a p 9 y a a ",
"z a a a H z.H z a a c l Y 2.8.) R + & 4 ) 0.x p i 9 y y 9 y p a ",
"a a a v z.J z.v a a a i e E ) 4 & $ - ! ~ N a g f t 0 a t p a a ",
"c a c z H z.H a 9 y a 9 r Y W 4 < - 4 ) | j l 4.4.d t a a p a a ",
"a a a a a v a a y 9 y q 6 b 5.! 4 4 ! 7.n 8 d 4.4.l a a a a a a ",
"a c a c a a a p u 9 i t f g 4.8.^ ^ 8.0.x i a l l a a c c a a c ",
"a c a a a a a a u t a a a a M 4.6.6.4.V c z a c z a z a a a a a ",
"z a z a a a a a a a a a a a a g g h h a a a a a a a a a c a z c "
};
