/* XPM */
static char *result[] = {
/* columns rows colors chars-per-pixel */
"128 128 14 1 ",
"  c #4F3239",
". c #467D12",
"X c #60384F",
"o c #703D65",
"O c #539614",
"+ c #6DAF2E",
"@ c #74BE2C",
"# c #D7CF22",
"$ c #8ABE58",
"% c #7366A6",
"& c #5D78DE",
"* c #833CA3",
"= c #70B5FF",
"- c gainsboro",
/* pixels */
"@@@@@@@@@@@@@@@@@@@@@@@@@@@@@@@@@@@@@@@@@@@@@@@@@@@@@@@@@@@@@@@@@@@@@@@@@@@@@@@@@@@@@@@@@@@@@@@@@@@@@@@@@@@@@@@@@@@@@@@@@@@@@@@@",
"@@@@@@@@@@@@@@@@@@@@@@@@@@@@@@@@@@@@@@@@@@@@@@@@@@@@@@@@@@@@@@@@@@@@@@@@@@@@@@@@@@@@@@@@@@@@@@@@@@@@@@@@@@@@@@@@@@@@@@@@@@@@@@@@",
"@@@@@@@@@@@@@@@@@@@@@@@@@@@@@@@@@@@@@@@@@@@@@@@@@@@@@@@@@@@@@@@@@@@@@@@@@@@@@@@@@@@@@@@@@@@@@@@@@@@@@@@@@@@@@@@@@@@@@@@@@@@@@@@@",
"@@@@@@@@@@@@@@@@@@@@@@@@@@@@@@@@@@@@@@@@@@@@@@@@@@@@@@@@@@@@@@@@@@@@@@@@@@@@@@@@@@@@@@@@@@@@@@@@@@@@@@@@@@@@@@@@@@@@@@@@@@@@@@@@",
"@@@@@@@@@@@@@@@@@@@@@@@@@@@@@@@@@@@@@@@@@@@@@@@@@@@@@@@@@@@@&&&&************@@@@@@@@@@@@@@@@@@@@@@@@@@@@@@@@@@@@@@@@@@@@@@@@@@@@",
"@@@@@@@@@@@@@@@@@@@@@@@@@@@@@@@@@@@@@@@@@@@@@@@@@@@@@@@@@@@@&&&&************@@@@@@@@@@@@@@@@@@@@@@@@@@@@@@@@@@@@@@@@@@@@@@@@@@@@",
"@@@@@@@@@@@@@@@@@@@@@@@@@@@@@@@@@@@@@@@@@@@@@@@@@@@@@@@@@@@@&&&&************@@@@@@@@@@@@@@@@@@@@@@@@@@@@@@@@@@@@@@@@@@@@@@@@@@@@",
"@@@@@@@@@@@@@@@@@@@@@@@@@@@@@@@@@@@@@@@@@@@@@@@@@@@@@@@@@@@@&&&&************@@@@@@@@@@@@@@@@@@@@@@@@@@@@@@@@@@@@@@@@@@@@@@@@@@@@",
"@@@@@@@@@@@@@@@@@@@@@@@@@@@@@@@@@@@@@@@@@@@@@@@@@@@@@@@@&&&&********%%%%********@@@@....@@@@@@@@@@@@@@@@@@@@----@@@@@@@@@@@@@@@@",
"@@@@@@@@@@@@@@@@@@@@@@@@@@@@@@@@@@@@@@@@@@@@@@@@@@@@@@@@&&&&********%%%%********@@@@....@@@@@@@@@@@@@@@@@@@@----@@@@@@@@@@@@@@@@",
"@@@@@@@@@@@@@@@@@@@@@@@@@@@@@@@@@@@@@@@@@@@@@@@@@@@@@@@@&&&&********%%%%********@@@@....@@@@@@@@@@@@@@@@@@@@----@@@@@@@@@@@@@@@@",
"@@@@@@@@@@@@@@@@@@@@@@@@@@@@@@@@@@@@@@@@@@@@@@@@@@@@@@@@&&&&********%%%%********@@@@....@@@@@@@@@@@@@@@@@@@@----@@@@@@@@@@@@@@@@",
"@@@@@@@@@@@@@@@@@@@@@@@@@@@@@@@@@@@@OOOO@@@@@@@@@@@@@@@@&&&&****%%%%oooo%%%%****@@@@@@@@@@@@@@@@@@@@@@@@----####----@@@@@@@@@@@@",
"@@@@@@@@@@@@@@@@@@@@@@@@@@@@@@@@@@@@OOOO@@@@@@@@@@@@@@@@&&&&****%%%%oooo%%%%****@@@@@@@@@@@@@@@@@@@@@@@@----####----@@@@@@@@@@@@",
"@@@@@@@@@@@@@@@@@@@@@@@@@@@@@@@@@@@@OOOO@@@@@@@@@@@@@@@@&&&&****%%%%oooo%%%%****@@@@@@@@@@@@@@@@@@@@@@@@----####----@@@@@@@@@@@@",
"@@@@@@@@@@@@@@@@@@@@@@@@@@@@@@@@@@@@OOOO@@@@@@@@@@@@@@@@&&&&****%%%%oooo%%%%****@@@@@@@@@@@@@@@@@@@@@@@@----####----@@@@@@@@@@@@",
"@@@@@@@@@@@@@@@@@@@@OOOO@@@@@@@@OOOO@@@@@@@@@@@@@@@@&&&&****%%%%XXXXXXXXoooo%%%%****@@@@@@@@@@@@@@@@@@@@@@@@----@@@@@@@@@@@@@@@@",
"@@@@@@@@@@@@@@@@@@@@OOOO@@@@@@@@OOOO@@@@@@@@@@@@@@@@&&&&****%%%%XXXXXXXXoooo%%%%****@@@@@@@@@@@@@@@@@@@@@@@@----@@@@@@@@@@@@@@@@",
"@@@@@@@@@@@@@@@@@@@@OOOO@@@@@@@@OOOO@@@@@@@@@@@@@@@@&&&&****%%%%XXXXXXXXoooo%%%%****@@@@@@@@@@@@@@@@@@@@@@@@----@@@@@@@@@@@@@@@@",
"@@@@@@@@@@@@@@@@@@@@OOOO@@@@@@@@OOOO@@@@@@@@@@@@@@@@&&&&****%%%%XXXXXXXXoooo%%%%****@@@@@@@@@@@@@@@@@@@@@@@@----@@@@@@@@@@@@@@@@",
"@@@@@@@@@@@@@@@@@@@@@@@@OOOO@@@@OOOO@@@@++++@@@@@@@@&&&&****XXXX        XXXXoooo****@@@@@@@@@@@@@@@@@@@@@@@@@@@@@@@@@@@@@@@@@@@@",
"@@@@@@@@@@@@@@@@@@@@@@@@OOOO@@@@OOOO@@@@++++@@@@@@@@&&&&****XXXX        XXXXoooo****@@@@@@@@@@@@@@@@@@@@@@@@@@@@@@@@@@@@@@@@@@@@",
"@@@@@@@@@@@@@@@@@@@@@@@@OOOO@@@@OOOO@@@@++++@@@@@@@@&&&&****XXXX        XXXXoooo****@@@@@@@@@@@@@@@@@@@@@@@@@@@@@@@@@@@@@@@@@@@@",
"@@@@@@@@@@@@@@@@@@@@@@@@OOOO@@@@OOOO@@@@++++@@@@@@@@&&&&****XXXX        XXXXoooo****@@@@@@@@@@@@@@@@@@@@@@@@@@@@@@@@@@@@@@@@@@@@",
"@@@@@@@@@@@@@@@@++++@@@@OOOO@@@@++++&&&&&&&&@@@@&&&&&&&&****XXXX        XXXXoooo********@@@@@@@@OOOO@@@@@@@@@@@@@@@@@@@@@@@@@@@@",
"@@@@@@@@@@@@@@@@++++@@@@OOOO@@@@++++&&&&&&&&@@@@&&&&&&&&****XXXX        XXXXoooo********@@@@@@@@OOOO@@@@@@@@@@@@@@@@@@@@@@@@@@@@",
"@@@@@@@@@@@@@@@@++++@@@@OOOO@@@@++++&&&&&&&&@@@@&&&&&&&&****XXXX        XXXXoooo********@@@@@@@@OOOO@@@@@@@@@@@@@@@@@@@@@@@@@@@@",
"@@@@@@@@@@@@@@@@++++@@@@OOOO@@@@++++&&&&&&&&@@@@&&&&&&&&****XXXX        XXXXoooo********@@@@@@@@OOOO@@@@@@@@@@@@@@@@@@@@@@@@@@@@",
"@@@@@@@@@@@@@@@@@@@@++++++++@@@@@@@@&&&&&&&&----&&&&****%%%%XXXX        XXXXXXXX%%%%****@@@@OOOO@@@@@@@@@@@@@@@@@@@@@@@@@@@@@@@@",
"@@@@@@@@@@@@@@@@@@@@++++++++@@@@@@@@&&&&&&&&----&&&&****%%%%XXXX        XXXXXXXX%%%%****@@@@OOOO@@@@@@@@@@@@@@@@@@@@@@@@@@@@@@@@",
"@@@@@@@@@@@@@@@@@@@@++++++++@@@@@@@@&&&&&&&&----&&&&****%%%%XXXX        XXXXXXXX%%%%****@@@@OOOO@@@@@@@@@@@@@@@@@@@@@@@@@@@@@@@@",
"@@@@@@@@@@@@@@@@@@@@++++++++@@@@@@@@&&&&&&&&----&&&&****%%%%XXXX        XXXXXXXX%%%%****@@@@OOOO@@@@@@@@@@@@@@@@@@@@@@@@@@@@@@@@",
"@@@@@@@@@@@@@@@@@@@@@@@@@@@@@@@@@@@@@@@@@@@@@@@@&&&&****XXXX                XXXXoooo****@@@@OOOO@@@@++++@@@@@@@@@@@@@@@@@@@@@@@@",
"@@@@@@@@@@@@@@@@@@@@@@@@@@@@@@@@@@@@@@@@@@@@@@@@&&&&****XXXX                XXXXoooo****@@@@OOOO@@@@++++@@@@@@@@@@@@@@@@@@@@@@@@",
"@@@@@@@@@@@@@@@@@@@@@@@@@@@@@@@@@@@@@@@@@@@@@@@@&&&&****XXXX                XXXXoooo****@@@@OOOO@@@@++++@@@@@@@@@@@@@@@@@@@@@@@@",
"@@@@@@@@@@@@@@@@@@@@@@@@@@@@@@@@@@@@@@@@@@@@@@@@&&&&****XXXX                XXXXoooo****@@@@OOOO@@@@++++@@@@@@@@@@@@@@@@@@@@@@@@",
"@@@@@@@@$$$$@@@@@@@@@@@@@@@@@@@@@@@@@@@@@@@@@@@@&&&&****XXXX                XXXXoooo****@@@@++++++++@@@@@@@@@@@@@@@@@@@@@@@@@@@@",
"@@@@@@@@$$$$@@@@@@@@@@@@@@@@@@@@@@@@@@@@@@@@@@@@&&&&****XXXX                XXXXoooo****@@@@++++++++@@@@@@@@@@@@@@@@@@@@@@@@@@@@",
"@@@@@@@@$$$$@@@@@@@@@@@@@@@@@@@@@@@@@@@@@@@@@@@@&&&&****XXXX                XXXXoooo****@@@@++++++++@@@@@@@@@@@@@@@@@@@@@@@@@@@@",
"@@@@@@@@$$$$@@@@@@@@@@@@@@@@@@@@@@@@@@@@@@@@@@@@&&&&****XXXX                XXXXoooo****@@@@++++++++@@@@@@@@@@@@@@@@@@@@@@@@@@@@",
"@@@@@@@@@@@@@@@@@@@@@@@@@@@@@@@@@@@@@@@@@@@@&&&&&&&&****XXXX                XXXXXXXX********@@@@@@@@@@@@@@@@@@@@@@@@@@@@@@@@@@@@",
"@@@@@@@@@@@@@@@@@@@@@@@@@@@@@@@@@@@@@@@@@@@@&&&&&&&&****XXXX                XXXXXXXX********@@@@@@@@@@@@@@@@@@@@@@@@@@@@@@@@@@@@",
"@@@@@@@@@@@@@@@@@@@@@@@@@@@@@@@@@@@@@@@@@@@@&&&&&&&&****XXXX                XXXXXXXX********@@@@@@@@@@@@@@@@@@@@@@@@@@@@@@@@@@@@",
"@@@@@@@@@@@@@@@@@@@@@@@@@@@@@@@@@@@@@@@@@@@@&&&&&&&&****XXXX                XXXXXXXX********@@@@@@@@@@@@@@@@@@@@@@@@@@@@@@@@@@@@",
"@@@@@@@@@@@@@@@@@@@@@@@@@@@@@@@@@@@@@@@@@@@@&&&&&&&&****                    XXXXXXXX%%%%****@@@@&&&&@@@@@@@@$$$$@@@@@@@@@@@@@@@@",
"@@@@@@@@@@@@@@@@@@@@@@@@@@@@@@@@@@@@@@@@@@@@&&&&&&&&****                    XXXXXXXX%%%%****@@@@&&&&@@@@@@@@$$$$@@@@@@@@@@@@@@@@",
"@@@@@@@@@@@@@@@@@@@@@@@@@@@@@@@@@@@@@@@@@@@@&&&&&&&&****                    XXXXXXXX%%%%****@@@@&&&&@@@@@@@@$$$$@@@@@@@@@@@@@@@@",
"@@@@@@@@@@@@@@@@@@@@@@@@@@@@@@@@@@@@@@@@@@@@&&&&&&&&****                    XXXXXXXX%%%%****@@@@&&&&@@@@@@@@$$$$@@@@@@@@@@@@@@@@",
"@@@@@@@@@@@@@@@@@@@@@@@@@@@@@@@@OOOO@@@@@@@@&&&&&&&&****                        XXXXoooo****@@@@@@@@@@@@@@@@@@@@@@@@@@@@@@@@@@@@",
"@@@@@@@@@@@@@@@@@@@@@@@@@@@@@@@@OOOO@@@@@@@@&&&&&&&&****                        XXXXoooo****@@@@@@@@@@@@@@@@@@@@@@@@@@@@@@@@@@@@",
"@@@@@@@@@@@@@@@@@@@@@@@@@@@@@@@@OOOO@@@@@@@@&&&&&&&&****                        XXXXoooo****@@@@@@@@@@@@@@@@@@@@@@@@@@@@@@@@@@@@",
"@@@@@@@@@@@@@@@@@@@@@@@@@@@@@@@@OOOO@@@@@@@@&&&&&&&&****                        XXXXoooo****@@@@@@@@@@@@@@@@@@@@@@@@@@@@@@@@@@@@",
"@@@@@@@@@@@@@@@@OOOO@@@@@@@@OOOO@@@@****@@@@&&&&&&&&****                &&&&&&&&&&&&&&&&****@@@@@@@@@@@@@@@@@@@@@@@@@@@@@@@@@@@@",
"@@@@@@@@@@@@@@@@OOOO@@@@@@@@OOOO@@@@****@@@@&&&&&&&&****                &&&&&&&&&&&&&&&&****@@@@@@@@@@@@@@@@@@@@@@@@@@@@@@@@@@@@",
"@@@@@@@@@@@@@@@@OOOO@@@@@@@@OOOO@@@@****@@@@&&&&&&&&****                &&&&&&&&&&&&&&&&****@@@@@@@@@@@@@@@@@@@@@@@@@@@@@@@@@@@@",
"@@@@@@@@@@@@@@@@OOOO@@@@@@@@OOOO@@@@****@@@@&&&&&&&&****                &&&&&&&&&&&&&&&&****@@@@@@@@@@@@@@@@@@@@@@@@@@@@@@@@@@@@",
"@@@@@@@@@@@@@@@@@@@@OOOO@@@@OOOO@@@@++++@@@@****&&&&****        &&&&&&&&&&&&========&&&&&&&&OOOO@@@@@@@@@@@@@@@@OOOO@@@@@@@@@@@@",
"@@@@@@@@@@@@@@@@@@@@OOOO@@@@OOOO@@@@++++@@@@****&&&&****        &&&&&&&&&&&&========&&&&&&&&OOOO@@@@@@@@@@@@@@@@OOOO@@@@@@@@@@@@",
"@@@@@@@@@@@@@@@@@@@@OOOO@@@@OOOO@@@@++++@@@@****&&&&****        &&&&&&&&&&&&========&&&&&&&&OOOO@@@@@@@@@@@@@@@@OOOO@@@@@@@@@@@@",
"@@@@@@@@@@@@@@@@@@@@OOOO@@@@OOOO@@@@++++@@@@****&&&&****        &&&&&&&&&&&&========&&&&&&&&OOOO@@@@@@@@@@@@@@@@OOOO@@@@@@@@@@@@",
"@@@@@@@@@@@@++++@@@@OOOO@@@@++++++++@@@@@@@@****&&&&&&&&****&&&&&&&&====================&&&&@@@@OOOO@@@@@@@@OOOO@@@@@@@@@@@@@@@@",
"@@@@@@@@@@@@++++@@@@OOOO@@@@++++++++@@@@@@@@****&&&&&&&&****&&&&&&&&====================&&&&@@@@OOOO@@@@@@@@OOOO@@@@@@@@@@@@@@@@",
"@@@@@@@@@@@@++++@@@@OOOO@@@@++++++++@@@@@@@@****&&&&&&&&****&&&&&&&&====================&&&&@@@@OOOO@@@@@@@@OOOO@@@@@@@@@@@@@@@@",
"@@@@@@@@@@@@++++@@@@OOOO@@@@++++++++@@@@@@@@****&&&&&&&&****&&&&&&&&====================&&&&@@@@OOOO@@@@@@@@OOOO@@@@@@@@@@@@@@@@",
"@@@@@@@@@@@@@@@@++++++++@@@@@@@@@@@@@@@@@@@@********&&&&****&&&&&&&&&&&&&&&&&&&&============@@@@OOOO@@@@@@@@OOOO@@@@++++@@@@@@@@",
"@@@@@@@@@@@@@@@@++++++++@@@@@@@@@@@@@@@@@@@@********&&&&****&&&&&&&&&&&&&&&&&&&&============@@@@OOOO@@@@@@@@OOOO@@@@++++@@@@@@@@",
"@@@@@@@@@@@@@@@@++++++++@@@@@@@@@@@@@@@@@@@@********&&&&****&&&&&&&&&&&&&&&&&&&&============@@@@OOOO@@@@@@@@OOOO@@@@++++@@@@@@@@",
"@@@@@@@@@@@@@@@@++++++++@@@@@@@@@@@@@@@@@@@@********&&&&****&&&&&&&&&&&&&&&&&&&&============@@@@OOOO@@@@@@@@OOOO@@@@++++@@@@@@@@",
"@@@@@@@@@@@@@@@@@@@@@@@@@@@@@@@@@@@@@@@@$$$$********************    ****    &&&&&&&&========++++++++@@@@OOOO++++++++@@@@@@@@@@@@",
"@@@@@@@@@@@@@@@@@@@@@@@@@@@@@@@@@@@@@@@@$$$$********************    ****    &&&&&&&&========++++++++@@@@OOOO++++++++@@@@@@@@@@@@",
"@@@@@@@@@@@@@@@@@@@@@@@@@@@@@@@@@@@@@@@@$$$$********************    ****    &&&&&&&&========++++++++@@@@OOOO++++++++@@@@@@@@@@@@",
"@@@@@@@@@@@@@@@@@@@@@@@@@@@@@@@@@@@@@@@@$$$$********************    ****    &&&&&&&&========++++++++@@@@OOOO++++++++@@@@@@@@@@@@",
"@@@@@@@@@@@@@@@@@@@@@@@@@@@@@@@@@@@@@@@@@@@@****oooo****&&&&************        &&&&========@@@@@@@@@@@@++++@@@@@@@@@@@@@@@@@@@@",
"@@@@@@@@@@@@@@@@@@@@@@@@@@@@@@@@@@@@@@@@@@@@****oooo****&&&&************        &&&&========@@@@@@@@@@@@++++@@@@@@@@@@@@@@@@@@@@",
"@@@@@@@@@@@@@@@@@@@@@@@@@@@@@@@@@@@@@@@@@@@@****oooo****&&&&************        &&&&========@@@@@@@@@@@@++++@@@@@@@@@@@@@@@@@@@@",
"@@@@@@@@@@@@@@@@@@@@@@@@@@@@@@@@@@@@@@@@@@@@****oooo****&&&&************        &&&&========@@@@@@@@@@@@++++@@@@@@@@@@@@@@@@@@@@",
"@@@@@@@@@@@@@@@@@@@@@@@@@@@@@@@@@@@@@@@@@@@@****ooooXXXX************            &&&&========@@@@@@@@@@@@@@@@@@@@@@@@@@@@@@@@@@@@",
"@@@@@@@@@@@@@@@@@@@@@@@@@@@@@@@@@@@@@@@@@@@@****ooooXXXX************            &&&&========@@@@@@@@@@@@@@@@@@@@@@@@@@@@@@@@@@@@",
"@@@@@@@@@@@@@@@@@@@@@@@@@@@@@@@@@@@@@@@@@@@@****ooooXXXX************            &&&&========@@@@@@@@@@@@@@@@@@@@@@@@@@@@@@@@@@@@",
"@@@@@@@@@@@@@@@@@@@@@@@@@@@@@@@@@@@@@@@@@@@@****ooooXXXX************            &&&&========@@@@@@@@@@@@@@@@@@@@@@@@@@@@@@@@@@@@",
"@@@@@@@@@@@@@@@@@@@@@@@@@@@@@@@@@@@@@@@@@@@@&&&&%%%%XXXXXXXX                XXXX&&&&========@@@@@@@@@@@@@@@@@@@@@@@@....@@@@@@@@",
"@@@@@@@@@@@@@@@@@@@@@@@@@@@@@@@@@@@@@@@@@@@@&&&&%%%%XXXXXXXX                XXXX&&&&========@@@@@@@@@@@@@@@@@@@@@@@@....@@@@@@@@",
"@@@@@@@@@@@@@@@@@@@@@@@@@@@@@@@@@@@@@@@@@@@@&&&&%%%%XXXXXXXX                XXXX&&&&========@@@@@@@@@@@@@@@@@@@@@@@@....@@@@@@@@",
"@@@@@@@@@@@@@@@@@@@@@@@@@@@@@@@@@@@@@@@@@@@@&&&&%%%%XXXXXXXX                XXXX&&&&========@@@@@@@@@@@@@@@@@@@@@@@@....@@@@@@@@",
"@@@@@@@@@@@@@@@@@@@@....@@@@@@@@@@@@@@@@@@@@&&&&****ooooXXXX                XXXX&&&&====&&&&@@@@@@@@$$$$@@@@@@@@@@@@@@@@@@@@@@@@",
"@@@@@@@@@@@@@@@@@@@@....@@@@@@@@@@@@@@@@@@@@&&&&****ooooXXXX                XXXX&&&&====&&&&@@@@@@@@$$$$@@@@@@@@@@@@@@@@@@@@@@@@",
"@@@@@@@@@@@@@@@@@@@@....@@@@@@@@@@@@@@@@@@@@&&&&****ooooXXXX                XXXX&&&&====&&&&@@@@@@@@$$$$@@@@@@@@@@@@@@@@@@@@@@@@",
"@@@@@@@@@@@@@@@@@@@@....@@@@@@@@@@@@@@@@@@@@&&&&****ooooXXXX                XXXX&&&&====&&&&@@@@@@@@$$$$@@@@@@@@@@@@@@@@@@@@@@@@",
"@@@@@@@@@@@@@@@@@@@@@@@@@@@@@@@@@@@@@@@@@@@@++++****ooooXXXX                XXXX&&&&&&&&@@@@@@@@@@@@@@@@@@@@@@@@@@@@@@@@@@@@@@@@",
"@@@@@@@@@@@@@@@@@@@@@@@@@@@@@@@@@@@@@@@@@@@@++++****ooooXXXX                XXXX&&&&&&&&@@@@@@@@@@@@@@@@@@@@@@@@@@@@@@@@@@@@@@@@",
"@@@@@@@@@@@@@@@@@@@@@@@@@@@@@@@@@@@@@@@@@@@@++++****ooooXXXX                XXXX&&&&&&&&@@@@@@@@@@@@@@@@@@@@@@@@@@@@@@@@@@@@@@@@",
"@@@@@@@@@@@@@@@@@@@@@@@@@@@@@@@@@@@@@@@@@@@@++++****ooooXXXX                XXXX&&&&&&&&@@@@@@@@@@@@@@@@@@@@@@@@@@@@@@@@@@@@@@@@",
"@@@@@@@@@@@@@@@@@@@@@@@@@@@@@@@@@@@@@@@@@@@@@@@@****ooooXXXX                XXXX====&&&&@@@@@@@@OOOO@@@@@@@@@@@@@@@@OOOO@@@@@@@@",
"@@@@@@@@@@@@@@@@@@@@@@@@@@@@@@@@@@@@@@@@@@@@@@@@****ooooXXXX                XXXX====&&&&@@@@@@@@OOOO@@@@@@@@@@@@@@@@OOOO@@@@@@@@",
"@@@@@@@@@@@@@@@@@@@@@@@@@@@@@@@@@@@@@@@@@@@@@@@@****ooooXXXX                XXXX====&&&&@@@@@@@@OOOO@@@@@@@@@@@@@@@@OOOO@@@@@@@@",
"@@@@@@@@@@@@@@@@@@@@@@@@@@@@@@@@@@@@@@@@@@@@@@@@****ooooXXXX                XXXX====&&&&@@@@@@@@OOOO@@@@@@@@@@@@@@@@OOOO@@@@@@@@",
"@@@@@@@@@@@@@@@@@@@@@@@@@@@@@@@@@@@@@@@@@@@@@@@@&&&&%%%%ooooXXXX        XXXX&&&&====&&&&@@@@@@@@@@@@OOOO@@@@@@@@OOOO@@@@@@@@@@@@",
"@@@@@@@@@@@@@@@@@@@@@@@@@@@@@@@@@@@@@@@@@@@@@@@@&&&&%%%%ooooXXXX        XXXX&&&&====&&&&@@@@@@@@@@@@OOOO@@@@@@@@OOOO@@@@@@@@@@@@",
"@@@@@@@@@@@@@@@@@@@@@@@@@@@@@@@@@@@@@@@@@@@@@@@@&&&&%%%%ooooXXXX        XXXX&&&&====&&&&@@@@@@@@@@@@OOOO@@@@@@@@OOOO@@@@@@@@@@@@",
"@@@@@@@@@@@@@@@@@@@@@@@@@@@@@@@@@@@@@@@@@@@@@@@@&&&&%%%%ooooXXXX        XXXX&&&&====&&&&@@@@@@@@@@@@OOOO@@@@@@@@OOOO@@@@@@@@@@@@",
"@@@@@@@@@@@@@@@@@@@@----@@@@@@@@@@@@@@@@@@@@@@@@&&&&****ooooXXXX        XXXX&&&&&&&&&&&&@@@@++++@@@@OOOO@@@@@@@@OOOO@@@@++++@@@@",
"@@@@@@@@@@@@@@@@@@@@----@@@@@@@@@@@@@@@@@@@@@@@@&&&&****ooooXXXX        XXXX&&&&&&&&&&&&@@@@++++@@@@OOOO@@@@@@@@OOOO@@@@++++@@@@",
"@@@@@@@@@@@@@@@@@@@@----@@@@@@@@@@@@@@@@@@@@@@@@&&&&****ooooXXXX        XXXX&&&&&&&&&&&&@@@@++++@@@@OOOO@@@@@@@@OOOO@@@@++++@@@@",
"@@@@@@@@@@@@@@@@@@@@----@@@@@@@@@@@@@@@@@@@@@@@@&&&&****ooooXXXX        XXXX&&&&&&&&&&&&@@@@++++@@@@OOOO@@@@@@@@OOOO@@@@++++@@@@",
"@@@@@@@@@@@@@@@@----####----@@@@@@@@@@@@@@@@@@@@&&&&****%%%%ooooXXXXXXXXoooo&&&&&&&&&&&&@@@@@@@@++++++++OOOO@@@@++++++++@@@@@@@@",
"@@@@@@@@@@@@@@@@----####----@@@@@@@@@@@@@@@@@@@@&&&&****%%%%ooooXXXXXXXXoooo&&&&&&&&&&&&@@@@@@@@++++++++OOOO@@@@++++++++@@@@@@@@",
"@@@@@@@@@@@@@@@@----####----@@@@@@@@@@@@@@@@@@@@&&&&****%%%%ooooXXXXXXXXoooo&&&&&&&&&&&&@@@@@@@@++++++++OOOO@@@@++++++++@@@@@@@@",
"@@@@@@@@@@@@@@@@----####----@@@@@@@@@@@@@@@@@@@@&&&&****%%%%ooooXXXXXXXXoooo&&&&&&&&&&&&@@@@@@@@++++++++OOOO@@@@++++++++@@@@@@@@",
"@@@@@@@@@@@@@@@@@@@@----@@@@@@@@OOOO@@@@@@@@OOOO@@@@&&&&****oooooooooooo&&&&&&&&&&&&@@@@@@@@@@@@@@@@@@@@++++@@@@@@@@@@@@@@@@@@@@",
"@@@@@@@@@@@@@@@@@@@@----@@@@@@@@OOOO@@@@@@@@OOOO@@@@&&&&****oooooooooooo&&&&&&&&&&&&@@@@@@@@@@@@@@@@@@@@++++@@@@@@@@@@@@@@@@@@@@",
"@@@@@@@@@@@@@@@@@@@@----@@@@@@@@OOOO@@@@@@@@OOOO@@@@&&&&****oooooooooooo&&&&&&&&&&&&@@@@@@@@@@@@@@@@@@@@++++@@@@@@@@@@@@@@@@@@@@",
"@@@@@@@@@@@@@@@@@@@@----@@@@@@@@OOOO@@@@@@@@OOOO@@@@&&&&****oooooooooooo&&&&&&&&&&&&@@@@@@@@@@@@@@@@@@@@++++@@@@@@@@@@@@@@@@@@@@",
"@@@@@@@@@@@@@@@@@@@@@@@@@@@@@@@@@@@@OOOO@@@@OOOO@@@@&&&&&&&&oooo&&&&&&&&&&&&====&&&&....@@@@@@@@@@@@@@@@@@@@@@@@@@@@@@@@@@@@@@@@",
"@@@@@@@@@@@@@@@@@@@@@@@@@@@@@@@@@@@@OOOO@@@@OOOO@@@@&&&&&&&&oooo&&&&&&&&&&&&====&&&&....@@@@@@@@@@@@@@@@@@@@@@@@@@@@@@@@@@@@@@@@",
"@@@@@@@@@@@@@@@@@@@@@@@@@@@@@@@@@@@@OOOO@@@@OOOO@@@@&&&&&&&&oooo&&&&&&&&&&&&====&&&&....@@@@@@@@@@@@@@@@@@@@@@@@@@@@@@@@@@@@@@@@",
"@@@@@@@@@@@@@@@@@@@@@@@@@@@@@@@@@@@@OOOO@@@@OOOO@@@@&&&&&&&&oooo&&&&&&&&&&&&====&&&&....@@@@@@@@@@@@@@@@@@@@@@@@@@@@@@@@@@@@@@@@",
"@@@@@@@@@@@@@@@@@@@@@@@@@@@@++++@@@@OOOO@@@@++++++++@@@@&&&&&&&&&&&&&&&&====&&&&@@@@@@@@@@@@@@@@@@@@@@@@@@@@@@@@@@@@@@@@@@@@@@@@",
"@@@@@@@@@@@@@@@@@@@@@@@@@@@@++++@@@@OOOO@@@@++++++++@@@@&&&&&&&&&&&&&&&&====&&&&@@@@@@@@@@@@@@@@@@@@@@@@@@@@@@@@@@@@@@@@@@@@@@@@",
"@@@@@@@@@@@@@@@@@@@@@@@@@@@@++++@@@@OOOO@@@@++++++++@@@@&&&&&&&&&&&&&&&&====&&&&@@@@@@@@@@@@@@@@@@@@@@@@@@@@@@@@@@@@@@@@@@@@@@@@",
"@@@@@@@@@@@@@@@@@@@@@@@@@@@@++++@@@@OOOO@@@@++++++++@@@@&&&&&&&&&&&&&&&&====&&&&@@@@@@@@@@@@@@@@@@@@@@@@@@@@@@@@@@@@@@@@@@@@@@@@",
"@@@@@@@@@@@@@@@@@@@@@@@@@@@@@@@@++++++++@@@@@@@@@@@@@@@@@@@@&&&&&&&&&&&&&&&&&&&&@@@@@@@@@@@@@@@@@@@@@@@@@@@@@@@@@@@@@@@@@@@@@@@@",
"@@@@@@@@@@@@@@@@@@@@@@@@@@@@@@@@++++++++@@@@@@@@@@@@@@@@@@@@&&&&&&&&&&&&&&&&&&&&@@@@@@@@@@@@@@@@@@@@@@@@@@@@@@@@@@@@@@@@@@@@@@@@",
"@@@@@@@@@@@@@@@@@@@@@@@@@@@@@@@@++++++++@@@@@@@@@@@@@@@@@@@@&&&&&&&&&&&&&&&&&&&&@@@@@@@@@@@@@@@@@@@@@@@@@@@@@@@@@@@@@@@@@@@@@@@@",
"@@@@@@@@@@@@@@@@@@@@@@@@@@@@@@@@++++++++@@@@@@@@@@@@@@@@@@@@&&&&&&&&&&&&&&&&&&&&@@@@@@@@@@@@@@@@@@@@@@@@@@@@@@@@@@@@@@@@@@@@@@@@",
"@@@@@@@@@@@@@@@@@@@@@@@@@@@@@@@@@@@@@@@@@@@@@@@@@@@@@@@@@@@@@@@@@@@@@@@@@@@@@@@@@@@@@@@@@@@@@@@@@@@@@@@@@@@@@@@@@@@@@@@@@@@@@@@@",
"@@@@@@@@@@@@@@@@@@@@@@@@@@@@@@@@@@@@@@@@@@@@@@@@@@@@@@@@@@@@@@@@@@@@@@@@@@@@@@@@@@@@@@@@@@@@@@@@@@@@@@@@@@@@@@@@@@@@@@@@@@@@@@@@",
"@@@@@@@@@@@@@@@@@@@@@@@@@@@@@@@@@@@@@@@@@@@@@@@@@@@@@@@@@@@@@@@@@@@@@@@@@@@@@@@@@@@@@@@@@@@@@@@@@@@@@@@@@@@@@@@@@@@@@@@@@@@@@@@@",
"@@@@@@@@@@@@@@@@@@@@@@@@@@@@@@@@@@@@@@@@@@@@@@@@@@@@@@@@@@@@@@@@@@@@@@@@@@@@@@@@@@@@@@@@@@@@@@@@@@@@@@@@@@@@@@@@@@@@@@@@@@@@@@@@"
};
