/* XPM */
static char *result[] = {
/* columns rows colors chars-per-pixel */
"128 128 13 1 ",
"  c #4F3239",
". c #467D12",
"X c #60384F",
"o c #703D65",
"O c #539614",
"+ c #6DAF2E",
"@ c #74BE2C",
"# c #D7CF22",
"$ c #8ABE58",
"% c #5D78DE",
"& c #833CA3",
"* c #70B5FF",
"= c gainsboro",
/* pixels */
"@@@@@@@@@@@@@@@@@@@@@@@@@@@@@@@@@@@@@@@@@@@@@@@@@@@@@@@@@@@@@@@@@@@@@@@@@@@@@@@@@@@@@@@@@@@@@@@@@@@@@@@@@@@@@@@@@@@@@@@@@@@@@@@@",
"@@@@@@@@@@@@@@@@@@@@@@@@@@@@@@@@@@@@@@@@@@@@@@@@@@@@@@@@@@@@@@@@@@@@@@@@@@@@@@@@@@@@@@@@@@@@@@@@@@@@@@@@@@@@@@@@@@@@@@@@@@@@@@@@",
"@@@@@@@@@@@@@@@@@@@@@@@@@@@@@@@@@@@@@@@@@@@@@@@@@@@@@@@@@@@@@@@@@@@@@@@@@@@@@@@@@@@@@@@@@@@@@@@@@@@@@@@@@@@@@@@@@@@@@@@@@@@@@@@@",
"@@@@@@@@@@@@@@@@@@@@@@@@@@@@@@@@@@@@@@@@@@@@@@@@@@@@@@@@@@@@@@@@@@@@@@@@@@@@@@@@@@@@@@@@@@@@@@@@@@@@@@@@@@@@@@@@@@@@@@@@@@@@@@@@",
"@@@@@@@@@@@@@@@@@@@@@@@@@@@@@@@@@@@@@@@@@@@@@@@@@@@@@@@@@@@@&&&&&&&&&&&&&&&&@@@@@@@@@@@@@@@@@@@@@@@@@@@@@@@@@@@@@@@@@@@@@@@@@@@@",
"@@@@@@@@@@@@@@@@@@@@@@@@@@@@@@@@@@@@@@@@@@@@@@@@@@@@@@@@@@@@&&&&&&&&&&&&&&&&@@@@@@@@@@@@@@@@@@@@@@@@@@@@@@@@@@@@@@@@@@@@@@@@@@@@",
"@@@@@@@@@@@@@@@@@@@@@@@@@@@@@@@@@@@@@@@@@@@@@@@@@@@@@@@@@@@@&&&&&&&&&&&&&&&&@@@@@@@@@@@@@@@@@@@@@@@@@@@@@@@@@@@@@@@@@@@@@@@@@@@@",
"@@@@@@@@@@@@@@@@@@@@@@@@@@@@@@@@@@@@@@@@@@@@@@@@@@@@@@@@@@@@&&&&&&&&&&&&&&&&@@@@@@@@@@@@@@@@@@@@@@@@@@@@@@@@@@@@@@@@@@@@@@@@@@@@",
"@@@@@@@@@@@@@@@@@@@@@@@@@@@@@@@@@@@@@@@@@@@@@@@@@@@@@@@@&&&&&&&&&&&&&&&&&&&&&&&&@@@@....@@@@@@@@@@@@@@@@@@@@====@@@@@@@@@@@@@@@@",
"@@@@@@@@@@@@@@@@@@@@@@@@@@@@@@@@@@@@@@@@@@@@@@@@@@@@@@@@&&&&&&&&&&&&&&&&&&&&&&&&@@@@....@@@@@@@@@@@@@@@@@@@@====@@@@@@@@@@@@@@@@",
"@@@@@@@@@@@@@@@@@@@@@@@@@@@@@@@@@@@@@@@@@@@@@@@@@@@@@@@@&&&&&&&&&&&&&&&&&&&&&&&&@@@@....@@@@@@@@@@@@@@@@@@@@====@@@@@@@@@@@@@@@@",
"@@@@@@@@@@@@@@@@@@@@@@@@@@@@@@@@@@@@@@@@@@@@@@@@@@@@@@@@&&&&&&&&&&&&&&&&&&&&&&&&@@@@....@@@@@@@@@@@@@@@@@@@@====@@@@@@@@@@@@@@@@",
"@@@@@@@@@@@@@@@@@@@@@@@@@@@@@@@@@@@@OOOO@@@@@@@@@@@@@@@@&&&&&&&&&&&&%%%%%%%%%%%%@@@@@@@@@@@@@@@@@@@@@@@@====####====@@@@@@@@@@@@",
"@@@@@@@@@@@@@@@@@@@@@@@@@@@@@@@@@@@@OOOO@@@@@@@@@@@@@@@@&&&&&&&&&&&&%%%%%%%%%%%%@@@@@@@@@@@@@@@@@@@@@@@@====####====@@@@@@@@@@@@",
"@@@@@@@@@@@@@@@@@@@@@@@@@@@@@@@@@@@@OOOO@@@@@@@@@@@@@@@@&&&&&&&&&&&&%%%%%%%%%%%%@@@@@@@@@@@@@@@@@@@@@@@@====####====@@@@@@@@@@@@",
"@@@@@@@@@@@@@@@@@@@@@@@@@@@@@@@@@@@@OOOO@@@@@@@@@@@@@@@@&&&&&&&&&&&&%%%%%%%%%%%%@@@@@@@@@@@@@@@@@@@@@@@@====####====@@@@@@@@@@@@",
"@@@@@@@@@@@@@@@@@@@@OOOO@@@@@@@@OOOO@@@@@@@@@@@@@@@@%%%%oooo&&&&%%%%%%%%%%%%%%%%%%%%@@@@@@@@@@@@@@@@@@@@@@@@====@@@@@@@@@@@@@@@@",
"@@@@@@@@@@@@@@@@@@@@OOOO@@@@@@@@OOOO@@@@@@@@@@@@@@@@%%%%oooo&&&&%%%%%%%%%%%%%%%%%%%%@@@@@@@@@@@@@@@@@@@@@@@@====@@@@@@@@@@@@@@@@",
"@@@@@@@@@@@@@@@@@@@@OOOO@@@@@@@@OOOO@@@@@@@@@@@@@@@@%%%%oooo&&&&%%%%%%%%%%%%%%%%%%%%@@@@@@@@@@@@@@@@@@@@@@@@====@@@@@@@@@@@@@@@@",
"@@@@@@@@@@@@@@@@@@@@OOOO@@@@@@@@OOOO@@@@@@@@@@@@@@@@%%%%oooo&&&&%%%%%%%%%%%%%%%%%%%%@@@@@@@@@@@@@@@@@@@@@@@@====@@@@@@@@@@@@@@@@",
"@@@@@@@@@@@@@@@@@@@@@@@@OOOO@@@@OOOO@@@@++++@@@@@@@@&&&&&&&&&&&&%%%%%%%%%%%%%%%%%%%%@@@@@@@@@@@@@@@@@@@@@@@@@@@@@@@@@@@@@@@@@@@@",
"@@@@@@@@@@@@@@@@@@@@@@@@OOOO@@@@OOOO@@@@++++@@@@@@@@&&&&&&&&&&&&%%%%%%%%%%%%%%%%%%%%@@@@@@@@@@@@@@@@@@@@@@@@@@@@@@@@@@@@@@@@@@@@",
"@@@@@@@@@@@@@@@@@@@@@@@@OOOO@@@@OOOO@@@@++++@@@@@@@@&&&&&&&&&&&&%%%%%%%%%%%%%%%%%%%%@@@@@@@@@@@@@@@@@@@@@@@@@@@@@@@@@@@@@@@@@@@@",
"@@@@@@@@@@@@@@@@@@@@@@@@OOOO@@@@OOOO@@@@++++@@@@@@@@&&&&&&&&&&&&%%%%%%%%%%%%%%%%%%%%@@@@@@@@@@@@@@@@@@@@@@@@@@@@@@@@@@@@@@@@@@@@",
"@@@@@@@@@@@@@@@@++++@@@@OOOO@@@@++++++++@@@@@@@@%%%%&&&&&&&&%%%%%%%%%%%%%%%%%%%%%%%%%%%%@@@@@@@@OOOO@@@@@@@@@@@@@@@@@@@@@@@@@@@@",
"@@@@@@@@@@@@@@@@++++@@@@OOOO@@@@++++++++@@@@@@@@%%%%&&&&&&&&%%%%%%%%%%%%%%%%%%%%%%%%%%%%@@@@@@@@OOOO@@@@@@@@@@@@@@@@@@@@@@@@@@@@",
"@@@@@@@@@@@@@@@@++++@@@@OOOO@@@@++++++++@@@@@@@@%%%%&&&&&&&&%%%%%%%%%%%%%%%%%%%%%%%%%%%%@@@@@@@@OOOO@@@@@@@@@@@@@@@@@@@@@@@@@@@@",
"@@@@@@@@@@@@@@@@++++@@@@OOOO@@@@++++++++@@@@@@@@%%%%&&&&&&&&%%%%%%%%%%%%%%%%%%%%%%%%%%%%@@@@@@@@OOOO@@@@@@@@@@@@@@@@@@@@@@@@@@@@",
"@@@@@@@@@@@@@@@@@@@@++++++++@@@@@@@@@@@@@@@@====%%%%oooo&&&&%%%%%%%%&&&&&&&&&&&&%%%%%%%%@@@@OOOO@@@@@@@@@@@@@@@@@@@@@@@@@@@@@@@@",
"@@@@@@@@@@@@@@@@@@@@++++++++@@@@@@@@@@@@@@@@====%%%%oooo&&&&%%%%%%%%&&&&&&&&&&&&%%%%%%%%@@@@OOOO@@@@@@@@@@@@@@@@@@@@@@@@@@@@@@@@",
"@@@@@@@@@@@@@@@@@@@@++++++++@@@@@@@@@@@@@@@@====%%%%oooo&&&&%%%%%%%%&&&&&&&&&&&&%%%%%%%%@@@@OOOO@@@@@@@@@@@@@@@@@@@@@@@@@@@@@@@@",
"@@@@@@@@@@@@@@@@@@@@++++++++@@@@@@@@@@@@@@@@====%%%%oooo&&&&%%%%%%%%&&&&&&&&&&&&%%%%%%%%@@@@OOOO@@@@@@@@@@@@@@@@@@@@@@@@@@@@@@@@",
"@@@@@@@@@@@@@@@@@@@@@@@@@@@@@@@@@@@@@@@@@@@@%%%%&&&&&&&&&&&&%%%%%%%%&&&&    XXXX&&&&%%%%@@@@OOOO@@@@++++@@@@@@@@@@@@@@@@@@@@@@@@",
"@@@@@@@@@@@@@@@@@@@@@@@@@@@@@@@@@@@@@@@@@@@@%%%%&&&&&&&&&&&&%%%%%%%%&&&&    XXXX&&&&%%%%@@@@OOOO@@@@++++@@@@@@@@@@@@@@@@@@@@@@@@",
"@@@@@@@@@@@@@@@@@@@@@@@@@@@@@@@@@@@@@@@@@@@@%%%%&&&&&&&&&&&&%%%%%%%%&&&&    XXXX&&&&%%%%@@@@OOOO@@@@++++@@@@@@@@@@@@@@@@@@@@@@@@",
"@@@@@@@@@@@@@@@@@@@@@@@@@@@@@@@@@@@@@@@@@@@@%%%%&&&&&&&&&&&&%%%%%%%%&&&&    XXXX&&&&%%%%@@@@OOOO@@@@++++@@@@@@@@@@@@@@@@@@@@@@@@",
"@@@@@@@@$$$$@@@@@@@@@@@@@@@@@@@@@@@@@@@@@@@@@@@@&&&&&&&&%%%%%%%%&&&&        XXXXoooo&&&&@@@@++++++++@@@@@@@@@@@@@@@@@@@@@@@@@@@@",
"@@@@@@@@$$$$@@@@@@@@@@@@@@@@@@@@@@@@@@@@@@@@@@@@&&&&&&&&%%%%%%%%&&&&        XXXXoooo&&&&@@@@++++++++@@@@@@@@@@@@@@@@@@@@@@@@@@@@",
"@@@@@@@@$$$$@@@@@@@@@@@@@@@@@@@@@@@@@@@@@@@@@@@@&&&&&&&&%%%%%%%%&&&&        XXXXoooo&&&&@@@@++++++++@@@@@@@@@@@@@@@@@@@@@@@@@@@@",
"@@@@@@@@$$$$@@@@@@@@@@@@@@@@@@@@@@@@@@@@@@@@@@@@&&&&&&&&%%%%%%%%&&&&        XXXXoooo&&&&@@@@++++++++@@@@@@@@@@@@@@@@@@@@@@@@@@@@",
"@@@@@@@@@@@@@@@@@@@@@@@@@@@@@@@@@@@@@@@@@@@@%%%%oooo&&&&%%%%%%%%&&&&        XXXXXXXX&&&&%%%%@@@@@@@@@@@@@@@@@@@@@@@@@@@@@@@@@@@@",
"@@@@@@@@@@@@@@@@@@@@@@@@@@@@@@@@@@@@@@@@@@@@%%%%oooo&&&&%%%%%%%%&&&&        XXXXXXXX&&&&%%%%@@@@@@@@@@@@@@@@@@@@@@@@@@@@@@@@@@@@",
"@@@@@@@@@@@@@@@@@@@@@@@@@@@@@@@@@@@@@@@@@@@@%%%%oooo&&&&%%%%%%%%&&&&        XXXXXXXX&&&&%%%%@@@@@@@@@@@@@@@@@@@@@@@@@@@@@@@@@@@@",
"@@@@@@@@@@@@@@@@@@@@@@@@@@@@@@@@@@@@@@@@@@@@%%%%oooo&&&&%%%%%%%%&&&&        XXXXXXXX&&&&%%%%@@@@@@@@@@@@@@@@@@@@@@@@@@@@@@@@@@@@",
"@@@@@@@@@@@@@@@@@@@@@@@@@@@@@@@@@@@@@@@@@@@@%%%%oooo&&&&%%%%&&&&            XXXXXXXX&&&&%%%%@@@@@@@@@@@@@@@@$$$$@@@@@@@@@@@@@@@@",
"@@@@@@@@@@@@@@@@@@@@@@@@@@@@@@@@@@@@@@@@@@@@%%%%oooo&&&&%%%%&&&&            XXXXXXXX&&&&%%%%@@@@@@@@@@@@@@@@$$$$@@@@@@@@@@@@@@@@",
"@@@@@@@@@@@@@@@@@@@@@@@@@@@@@@@@@@@@@@@@@@@@%%%%oooo&&&&%%%%&&&&            XXXXXXXX&&&&%%%%@@@@@@@@@@@@@@@@$$$$@@@@@@@@@@@@@@@@",
"@@@@@@@@@@@@@@@@@@@@@@@@@@@@@@@@@@@@@@@@@@@@%%%%oooo&&&&%%%%&&&&            XXXXXXXX&&&&%%%%@@@@@@@@@@@@@@@@$$$$@@@@@@@@@@@@@@@@",
"@@@@@@@@@@@@@@@@@@@@@@@@@@@@@@@@OOOO@@@@@@@@%%%%oooo&&&&%%%%&&&&                XXXX&&&&%%%%@@@@%%%%%%%%@@@@@@@@@@@@@@@@@@@@@@@@",
"@@@@@@@@@@@@@@@@@@@@@@@@@@@@@@@@OOOO@@@@@@@@%%%%oooo&&&&%%%%&&&&                XXXX&&&&%%%%@@@@%%%%%%%%@@@@@@@@@@@@@@@@@@@@@@@@",
"@@@@@@@@@@@@@@@@@@@@@@@@@@@@@@@@OOOO@@@@@@@@%%%%oooo&&&&%%%%&&&&                XXXX&&&&%%%%@@@@%%%%%%%%@@@@@@@@@@@@@@@@@@@@@@@@",
"@@@@@@@@@@@@@@@@@@@@@@@@@@@@@@@@OOOO@@@@@@@@%%%%oooo&&&&%%%%&&&&                XXXX&&&&%%%%@@@@%%%%%%%%@@@@@@@@@@@@@@@@@@@@@@@@",
"@@@@@@@@@@@@@@@@OOOO@@@@@@@@OOOO@@@@@@@@@@@@%%%%oooo&&&&%%%%&&&&                XXXXoooo&&&&@@@@@@@@%%%%@@@@@@@@@@@@@@@@@@@@@@@@",
"@@@@@@@@@@@@@@@@OOOO@@@@@@@@OOOO@@@@@@@@@@@@%%%%oooo&&&&%%%%&&&&                XXXXoooo&&&&@@@@@@@@%%%%@@@@@@@@@@@@@@@@@@@@@@@@",
"@@@@@@@@@@@@@@@@OOOO@@@@@@@@OOOO@@@@@@@@@@@@%%%%oooo&&&&%%%%&&&&                XXXXoooo&&&&@@@@@@@@%%%%@@@@@@@@@@@@@@@@@@@@@@@@",
"@@@@@@@@@@@@@@@@OOOO@@@@@@@@OOOO@@@@@@@@@@@@%%%%oooo&&&&%%%%&&&&                XXXXoooo&&&&@@@@@@@@%%%%@@@@@@@@@@@@@@@@@@@@@@@@",
"@@@@@@@@@@@@@@@@@@@@OOOO@@@@OOOO@@@@&&&&&&&&%%%%oooo&&&&%%%%                    XXXXoooo&&&&OOOO@@@@@@@@@@@@@@@@OOOO@@@@@@@@@@@@",
"@@@@@@@@@@@@@@@@@@@@OOOO@@@@OOOO@@@@&&&&&&&&%%%%oooo&&&&%%%%                    XXXXoooo&&&&OOOO@@@@@@@@@@@@@@@@OOOO@@@@@@@@@@@@",
"@@@@@@@@@@@@@@@@@@@@OOOO@@@@OOOO@@@@&&&&&&&&%%%%oooo&&&&%%%%                    XXXXoooo&&&&OOOO@@@@@@@@@@@@@@@@OOOO@@@@@@@@@@@@",
"@@@@@@@@@@@@@@@@@@@@OOOO@@@@OOOO@@@@&&&&&&&&%%%%oooo&&&&%%%%                    XXXXoooo&&&&OOOO@@@@@@@@@@@@@@@@OOOO@@@@@@@@@@@@",
"@@@@@@@@@@@@++++@@@@OOOO@@@@++++++++&&&&@@@@%%%%oooo&&&&%%%%                    XXXXoooo&&&&@@@@OOOO@@@@@@@@OOOO@@@@@@@@@@@@@@@@",
"@@@@@@@@@@@@++++@@@@OOOO@@@@++++++++&&&&@@@@%%%%oooo&&&&%%%%                    XXXXoooo&&&&@@@@OOOO@@@@@@@@OOOO@@@@@@@@@@@@@@@@",
"@@@@@@@@@@@@++++@@@@OOOO@@@@++++++++&&&&@@@@%%%%oooo&&&&%%%%                    XXXXoooo&&&&@@@@OOOO@@@@@@@@OOOO@@@@@@@@@@@@@@@@",
"@@@@@@@@@@@@++++@@@@OOOO@@@@++++++++&&&&@@@@%%%%oooo&&&&%%%%                    XXXXoooo&&&&@@@@OOOO@@@@@@@@OOOO@@@@@@@@@@@@@@@@",
"@@@@@@@@@@@@@@@@++++++++@@@@@@@@@@@@@@@@@@@@%%%%oooo&&&&&&&&    %%%%%%%%%%%%    XXXXoooo&&&&@@@@OOOO@@@@@@@@OOOO@@@@++++@@@@@@@@",
"@@@@@@@@@@@@@@@@++++++++@@@@@@@@@@@@@@@@@@@@%%%%oooo&&&&&&&&    %%%%%%%%%%%%    XXXXoooo&&&&@@@@OOOO@@@@@@@@OOOO@@@@++++@@@@@@@@",
"@@@@@@@@@@@@@@@@++++++++@@@@@@@@@@@@@@@@@@@@%%%%oooo&&&&&&&&    %%%%%%%%%%%%    XXXXoooo&&&&@@@@OOOO@@@@@@@@OOOO@@@@++++@@@@@@@@",
"@@@@@@@@@@@@@@@@++++++++@@@@@@@@@@@@@@@@@@@@%%%%oooo&&&&&&&&    %%%%%%%%%%%%    XXXXoooo&&&&@@@@OOOO@@@@@@@@OOOO@@@@++++@@@@@@@@",
"@@@@@@@@@@@@@@@@@@@@@@@@@@@@@@@@@@@@@@@@$$$$%%%%%%%%&&&&&&&&    &&&&&&&&%%%%%%%%XXXXoooo&&&&++++++++@@@@OOOO++++++++@@@@@@@@@@@@",
"@@@@@@@@@@@@@@@@@@@@@@@@@@@@@@@@@@@@@@@@$$$$%%%%%%%%&&&&&&&&    &&&&&&&&%%%%%%%%XXXXoooo&&&&++++++++@@@@OOOO++++++++@@@@@@@@@@@@",
"@@@@@@@@@@@@@@@@@@@@@@@@@@@@@@@@@@@@@@@@$$$$%%%%%%%%&&&&&&&&    &&&&&&&&%%%%%%%%XXXXoooo&&&&++++++++@@@@OOOO++++++++@@@@@@@@@@@@",
"@@@@@@@@@@@@@@@@@@@@@@@@@@@@@@@@@@@@@@@@$$$$%%%%%%%%&&&&&&&&    &&&&&&&&%%%%%%%%XXXXoooo&&&&++++++++@@@@OOOO++++++++@@@@@@@@@@@@",
"@@@@@@@@@@@@@@@@@@@@@@@@@@@@@@@@@@@@@@@@@@@@****%%%%XXXX&&&&&&&&    &&&&    %%%%%%%%oooo&&&&@@@@@@@@@@@@++++@@@@@@@@@@@@@@@@@@@@",
"@@@@@@@@@@@@@@@@@@@@@@@@@@@@@@@@@@@@@@@@@@@@****%%%%XXXX&&&&&&&&    &&&&    %%%%%%%%oooo&&&&@@@@@@@@@@@@++++@@@@@@@@@@@@@@@@@@@@",
"@@@@@@@@@@@@@@@@@@@@@@@@@@@@@@@@@@@@@@@@@@@@****%%%%XXXX&&&&&&&&    &&&&    %%%%%%%%oooo&&&&@@@@@@@@@@@@++++@@@@@@@@@@@@@@@@@@@@",
"@@@@@@@@@@@@@@@@@@@@@@@@@@@@@@@@@@@@@@@@@@@@****%%%%XXXX&&&&&&&&    &&&&    %%%%%%%%oooo&&&&@@@@@@@@@@@@++++@@@@@@@@@@@@@@@@@@@@",
"@@@@@@@@@@@@@@@@@@@@@@@@@@@@@@@@@@@@@@@@@@@@****%%%%XXXX    &&&&&&&&        %%%%%%%%oooo&&&&@@@@@@@@@@@@@@@@@@@@@@@@@@@@@@@@@@@@",
"@@@@@@@@@@@@@@@@@@@@@@@@@@@@@@@@@@@@@@@@@@@@****%%%%XXXX    &&&&&&&&        %%%%%%%%oooo&&&&@@@@@@@@@@@@@@@@@@@@@@@@@@@@@@@@@@@@",
"@@@@@@@@@@@@@@@@@@@@@@@@@@@@@@@@@@@@@@@@@@@@****%%%%XXXX    &&&&&&&&        %%%%%%%%oooo&&&&@@@@@@@@@@@@@@@@@@@@@@@@@@@@@@@@@@@@",
"@@@@@@@@@@@@@@@@@@@@@@@@@@@@@@@@@@@@@@@@@@@@****%%%%XXXX    &&&&&&&&        %%%%%%%%oooo&&&&@@@@@@@@@@@@@@@@@@@@@@@@@@@@@@@@@@@@",
"@@@@@@@@@@@@@@@@@@@@@@@@@@@@@@@@@@@@@@@@@@@@****%%%%%%%%XXXX                %%%%%%%%oooo&&&&@@@@@@@@@@@@@@@@@@@@@@@@....@@@@@@@@",
"@@@@@@@@@@@@@@@@@@@@@@@@@@@@@@@@@@@@@@@@@@@@****%%%%%%%%XXXX                %%%%%%%%oooo&&&&@@@@@@@@@@@@@@@@@@@@@@@@....@@@@@@@@",
"@@@@@@@@@@@@@@@@@@@@@@@@@@@@@@@@@@@@@@@@@@@@****%%%%%%%%XXXX                %%%%%%%%oooo&&&&@@@@@@@@@@@@@@@@@@@@@@@@....@@@@@@@@",
"@@@@@@@@@@@@@@@@@@@@@@@@@@@@@@@@@@@@@@@@@@@@****%%%%%%%%XXXX                %%%%%%%%oooo&&&&@@@@@@@@@@@@@@@@@@@@@@@@....@@@@@@@@",
"@@@@@@@@@@@@@@@@@@@@....@@@@@@@@@@@@@@@@@@@@********%%%%XXXX            %%%%****%%%%&&&&&&&&@@@@@@@@$$$$@@@@@@@@@@@@@@@@@@@@@@@@",
"@@@@@@@@@@@@@@@@@@@@....@@@@@@@@@@@@@@@@@@@@********%%%%XXXX            %%%%****%%%%&&&&&&&&@@@@@@@@$$$$@@@@@@@@@@@@@@@@@@@@@@@@",
"@@@@@@@@@@@@@@@@@@@@....@@@@@@@@@@@@@@@@@@@@********%%%%XXXX            %%%%****%%%%&&&&&&&&@@@@@@@@$$$$@@@@@@@@@@@@@@@@@@@@@@@@",
"@@@@@@@@@@@@@@@@@@@@....@@@@@@@@@@@@@@@@@@@@********%%%%XXXX            %%%%****%%%%&&&&&&&&@@@@@@@@$$$$@@@@@@@@@@@@@@@@@@@@@@@@",
"@@@@@@@@@@@@@@@@@@@@@@@@@@@@@@@@@@@@@@@@@@@@%%%%****%%%%%%%%%%%%%%%%%%%%********%%%%&&&&@@@@@@@@@@@@@@@@@@@@@@@@@@@@@@@@@@@@@@@@",
"@@@@@@@@@@@@@@@@@@@@@@@@@@@@@@@@@@@@@@@@@@@@%%%%****%%%%%%%%%%%%%%%%%%%%********%%%%&&&&@@@@@@@@@@@@@@@@@@@@@@@@@@@@@@@@@@@@@@@@",
"@@@@@@@@@@@@@@@@@@@@@@@@@@@@@@@@@@@@@@@@@@@@%%%%****%%%%%%%%%%%%%%%%%%%%********%%%%&&&&@@@@@@@@@@@@@@@@@@@@@@@@@@@@@@@@@@@@@@@@",
"@@@@@@@@@@@@@@@@@@@@@@@@@@@@@@@@@@@@@@@@@@@@%%%%****%%%%%%%%%%%%%%%%%%%%********%%%%&&&&@@@@@@@@@@@@@@@@@@@@@@@@@@@@@@@@@@@@@@@@",
"@@@@@@@@@@@@@@@@@@@@@@@@@@@@@@@@@@@@@@@@@@@@@@@@********************%%%%%%%%%%%%oooo&&&&@@@@@@@@OOOO@@@@@@@@@@@@@@@@OOOO@@@@@@@@",
"@@@@@@@@@@@@@@@@@@@@@@@@@@@@@@@@@@@@@@@@@@@@@@@@********************%%%%%%%%%%%%oooo&&&&@@@@@@@@OOOO@@@@@@@@@@@@@@@@OOOO@@@@@@@@",
"@@@@@@@@@@@@@@@@@@@@@@@@@@@@@@@@@@@@@@@@@@@@@@@@********************%%%%%%%%%%%%oooo&&&&@@@@@@@@OOOO@@@@@@@@@@@@@@@@OOOO@@@@@@@@",
"@@@@@@@@@@@@@@@@@@@@@@@@@@@@@@@@@@@@@@@@@@@@@@@@********************%%%%%%%%%%%%oooo&&&&@@@@@@@@OOOO@@@@@@@@@@@@@@@@OOOO@@@@@@@@",
"@@@@@@@@@@@@@@@@@@@@@@@@@@@@@@@@@@@@@@@@@@@@@@@@%%%%************%%%%%%%%%%%%oooooooo&&&&@@@@@@@@@@@@OOOO@@@@@@@@OOOO@@@@@@@@@@@@",
"@@@@@@@@@@@@@@@@@@@@@@@@@@@@@@@@@@@@@@@@@@@@@@@@%%%%************%%%%%%%%%%%%oooooooo&&&&@@@@@@@@@@@@OOOO@@@@@@@@OOOO@@@@@@@@@@@@",
"@@@@@@@@@@@@@@@@@@@@@@@@@@@@@@@@@@@@@@@@@@@@@@@@%%%%************%%%%%%%%%%%%oooooooo&&&&@@@@@@@@@@@@OOOO@@@@@@@@OOOO@@@@@@@@@@@@",
"@@@@@@@@@@@@@@@@@@@@@@@@@@@@@@@@@@@@@@@@@@@@@@@@%%%%************%%%%%%%%%%%%oooooooo&&&&@@@@@@@@@@@@OOOO@@@@@@@@OOOO@@@@@@@@@@@@",
"@@@@@@@@@@@@@@@@@@@@====@@@@@@@@@@@@&&&&@@@@@@@@&&&&%%%%%%%%%%%%%%%%    XXXXoooo&&&&&&&&@@@@++++@@@@OOOO@@@@@@@@OOOO@@@@++++@@@@",
"@@@@@@@@@@@@@@@@@@@@====@@@@@@@@@@@@&&&&@@@@@@@@&&&&%%%%%%%%%%%%%%%%    XXXXoooo&&&&&&&&@@@@++++@@@@OOOO@@@@@@@@OOOO@@@@++++@@@@",
"@@@@@@@@@@@@@@@@@@@@====@@@@@@@@@@@@&&&&@@@@@@@@&&&&%%%%%%%%%%%%%%%%    XXXXoooo&&&&&&&&@@@@++++@@@@OOOO@@@@@@@@OOOO@@@@++++@@@@",
"@@@@@@@@@@@@@@@@@@@@====@@@@@@@@@@@@&&&&@@@@@@@@&&&&%%%%%%%%%%%%%%%%    XXXXoooo&&&&&&&&@@@@++++@@@@OOOO@@@@@@@@OOOO@@@@++++@@@@",
"@@@@@@@@@@@@@@@@====####====@@@@@@@@@@@@@@@@@@@@OOOO&&&&ooooooooXXXXXXXXoooooooo&&&&@@@@@@@@@@@@++++++++OOOO@@@@++++++++@@@@@@@@",
"@@@@@@@@@@@@@@@@====####====@@@@@@@@@@@@@@@@@@@@OOOO&&&&ooooooooXXXXXXXXoooooooo&&&&@@@@@@@@@@@@++++++++OOOO@@@@++++++++@@@@@@@@",
"@@@@@@@@@@@@@@@@====####====@@@@@@@@@@@@@@@@@@@@OOOO&&&&ooooooooXXXXXXXXoooooooo&&&&@@@@@@@@@@@@++++++++OOOO@@@@++++++++@@@@@@@@",
"@@@@@@@@@@@@@@@@====####====@@@@@@@@@@@@@@@@@@@@OOOO&&&&ooooooooXXXXXXXXoooooooo&&&&@@@@@@@@@@@@++++++++OOOO@@@@++++++++@@@@@@@@",
"@@@@@@@@@@@@@@@@@@@@====@@@@@@@@OOOO@@@@@@@@OOOO@@@@&&&&&&&&oooooooooooooooo&&&&&&&&@@@@@@@@@@@@@@@@@@@@++++@@@@@@@@@@@@@@@@@@@@",
"@@@@@@@@@@@@@@@@@@@@====@@@@@@@@OOOO@@@@@@@@OOOO@@@@&&&&&&&&oooooooooooooooo&&&&&&&&@@@@@@@@@@@@@@@@@@@@++++@@@@@@@@@@@@@@@@@@@@",
"@@@@@@@@@@@@@@@@@@@@====@@@@@@@@OOOO@@@@@@@@OOOO@@@@&&&&&&&&oooooooooooooooo&&&&&&&&@@@@@@@@@@@@@@@@@@@@++++@@@@@@@@@@@@@@@@@@@@",
"@@@@@@@@@@@@@@@@@@@@====@@@@@@@@OOOO@@@@@@@@OOOO@@@@&&&&&&&&oooooooooooooooo&&&&&&&&@@@@@@@@@@@@@@@@@@@@++++@@@@@@@@@@@@@@@@@@@@",
"@@@@@@@@@@@@@@@@@@@@@@@@@@@@@@@@@@@@OOOO@@@@OOOO@@@@++++&&&&oooooooooooooooo&&&&@@@@....@@@@@@@@@@@@@@@@@@@@@@@@@@@@@@@@@@@@@@@@",
"@@@@@@@@@@@@@@@@@@@@@@@@@@@@@@@@@@@@OOOO@@@@OOOO@@@@++++&&&&oooooooooooooooo&&&&@@@@....@@@@@@@@@@@@@@@@@@@@@@@@@@@@@@@@@@@@@@@@",
"@@@@@@@@@@@@@@@@@@@@@@@@@@@@@@@@@@@@OOOO@@@@OOOO@@@@++++&&&&oooooooooooooooo&&&&@@@@....@@@@@@@@@@@@@@@@@@@@@@@@@@@@@@@@@@@@@@@@",
"@@@@@@@@@@@@@@@@@@@@@@@@@@@@@@@@@@@@OOOO@@@@OOOO@@@@++++&&&&oooooooooooooooo&&&&@@@@....@@@@@@@@@@@@@@@@@@@@@@@@@@@@@@@@@@@@@@@@",
"@@@@@@@@@@@@@@@@@@@@@@@@@@@@++++@@@@OOOO@@@@++++++++@@@@&&&&&&&&oooooooo&&&&&&&&@@@@@@@@@@@@@@@@@@@@@@@@@@@@@@@@@@@@@@@@@@@@@@@@",
"@@@@@@@@@@@@@@@@@@@@@@@@@@@@++++@@@@OOOO@@@@++++++++@@@@&&&&&&&&oooooooo&&&&&&&&@@@@@@@@@@@@@@@@@@@@@@@@@@@@@@@@@@@@@@@@@@@@@@@@",
"@@@@@@@@@@@@@@@@@@@@@@@@@@@@++++@@@@OOOO@@@@++++++++@@@@&&&&&&&&oooooooo&&&&&&&&@@@@@@@@@@@@@@@@@@@@@@@@@@@@@@@@@@@@@@@@@@@@@@@@",
"@@@@@@@@@@@@@@@@@@@@@@@@@@@@++++@@@@OOOO@@@@++++++++@@@@&&&&&&&&oooooooo&&&&&&&&@@@@@@@@@@@@@@@@@@@@@@@@@@@@@@@@@@@@@@@@@@@@@@@@",
"@@@@@@@@@@@@@@@@@@@@@@@@@@@@@@@@++++++++@@@@@@@@@@@@@@@@@@@@&&&&&&&&&&&&&&&&@@@@@@@@@@@@@@@@@@@@@@@@@@@@@@@@@@@@@@@@@@@@@@@@@@@@",
"@@@@@@@@@@@@@@@@@@@@@@@@@@@@@@@@++++++++@@@@@@@@@@@@@@@@@@@@&&&&&&&&&&&&&&&&@@@@@@@@@@@@@@@@@@@@@@@@@@@@@@@@@@@@@@@@@@@@@@@@@@@@",
"@@@@@@@@@@@@@@@@@@@@@@@@@@@@@@@@++++++++@@@@@@@@@@@@@@@@@@@@&&&&&&&&&&&&&&&&@@@@@@@@@@@@@@@@@@@@@@@@@@@@@@@@@@@@@@@@@@@@@@@@@@@@",
"@@@@@@@@@@@@@@@@@@@@@@@@@@@@@@@@++++++++@@@@@@@@@@@@@@@@@@@@&&&&&&&&&&&&&&&&@@@@@@@@@@@@@@@@@@@@@@@@@@@@@@@@@@@@@@@@@@@@@@@@@@@@",
"@@@@@@@@@@@@@@@@@@@@@@@@@@@@@@@@@@@@@@@@@@@@@@@@@@@@@@@@@@@@@@@@@@@@@@@@@@@@@@@@@@@@@@@@@@@@@@@@@@@@@@@@@@@@@@@@@@@@@@@@@@@@@@@@",
"@@@@@@@@@@@@@@@@@@@@@@@@@@@@@@@@@@@@@@@@@@@@@@@@@@@@@@@@@@@@@@@@@@@@@@@@@@@@@@@@@@@@@@@@@@@@@@@@@@@@@@@@@@@@@@@@@@@@@@@@@@@@@@@@",
"@@@@@@@@@@@@@@@@@@@@@@@@@@@@@@@@@@@@@@@@@@@@@@@@@@@@@@@@@@@@@@@@@@@@@@@@@@@@@@@@@@@@@@@@@@@@@@@@@@@@@@@@@@@@@@@@@@@@@@@@@@@@@@@@",
"@@@@@@@@@@@@@@@@@@@@@@@@@@@@@@@@@@@@@@@@@@@@@@@@@@@@@@@@@@@@@@@@@@@@@@@@@@@@@@@@@@@@@@@@@@@@@@@@@@@@@@@@@@@@@@@@@@@@@@@@@@@@@@@@"
};
