/* XPM */
static char *result[] = {
/* columns rows colors chars-per-pixel */
"128 128 13 1 ",
"  c #4F3239",
". c #467D12",
"X c #573544",
"o c #703D65",
"O c #539614",
"+ c #6DAF2E",
"@ c #74BE2C",
"# c #D7CF22",
"$ c #8ABE58",
"% c #5D78DE",
"& c #833CA3",
"* c #70B5FF",
"= c gainsboro",
/* pixels */
"@@@@@@@@@@@@@@@@@@@@@@@@@@@@@@@@@@@@@@@@@@@@@@@@@@@@@@@@@@@@@@@@@@@@@@@@@@@@@@@@@@@@@@@@@@@@@@@@@@@@@@@@@@@@@@@@@@@@@@@@@@@@@@@@",
"@@@@@@@@@@@@@@@@@@@@@@@@@@@@@@@@@@@@@@@@@@@@@@@@@@@@@@@@@@@@@@@@@@@@@@@@@@@@@@@@@@@@@@@@@@@@@@@@@@@@@@@@@@@@@@@@@@@@@@@@@@@@@@@@",
"@@@@@@@@@@@@@@@@@@@@@@@@@@@@@@@@@@@@@@@@@@@@@@@@@@@@@@@@@@@@@@@@@@@@@@@@@@@@@@@@@@@@@@@@@@@@@@@@@@@@@@@@@@@@@@@@@@@@@@@@@@@@@@@@",
"@@@@@@@@@@@@@@@@@@@@@@@@@@@@@@@@@@@@@@@@@@@@@@@@@@@@@@@@@@@@@@@@@@@@@@@@@@@@@@@@@@@@@@@@@@@@@@@@@@@@@@@@@@@@@@@@@@@@@@@@@@@@@@@@",
"@@@@@@@@@@@@@@@@@@@@@@@@@@@@@@@@@@@@@@@@@@@@@@@@@@@@@@@@%%%%****%%%%%%%%%%%%@@@@@@@@@@@@@@@@@@@@@@@@@@@@@@@@@@@@@@@@@@@@@@@@@@@@",
"@@@@@@@@@@@@@@@@@@@@@@@@@@@@@@@@@@@@@@@@@@@@@@@@@@@@@@@@%%%%****%%%%%%%%%%%%@@@@@@@@@@@@@@@@@@@@@@@@@@@@@@@@@@@@@@@@@@@@@@@@@@@@",
"@@@@@@@@@@@@@@@@@@@@@@@@@@@@@@@@@@@@@@@@@@@@@@@@@@@@@@@@%%%%****%%%%%%%%%%%%@@@@@@@@@@@@@@@@@@@@@@@@@@@@@@@@@@@@@@@@@@@@@@@@@@@@",
"@@@@@@@@@@@@@@@@@@@@@@@@@@@@@@@@@@@@@@@@@@@@@@@@@@@@@@@@%%%%****%%%%%%%%%%%%@@@@@@@@@@@@@@@@@@@@@@@@@@@@@@@@@@@@@@@@@@@@@@@@@@@@",
"@@@@@@@@@@@@@@@@@@@@@@@@@@@@@@@@@@@@@@@@@@@@@@@@@@@@@@@@****%%%%%%%%oooo&&&&%%%%@@@@....@@@@@@@@@@@@@@@@@@@@====@@@@@@@@@@@@@@@@",
"@@@@@@@@@@@@@@@@@@@@@@@@@@@@@@@@@@@@@@@@@@@@@@@@@@@@@@@@****%%%%%%%%oooo&&&&%%%%@@@@....@@@@@@@@@@@@@@@@@@@@====@@@@@@@@@@@@@@@@",
"@@@@@@@@@@@@@@@@@@@@@@@@@@@@@@@@@@@@@@@@@@@@@@@@@@@@@@@@****%%%%%%%%oooo&&&&%%%%@@@@....@@@@@@@@@@@@@@@@@@@@====@@@@@@@@@@@@@@@@",
"@@@@@@@@@@@@@@@@@@@@@@@@@@@@@@@@@@@@@@@@@@@@@@@@@@@@@@@@****%%%%%%%%oooo&&&&%%%%@@@@....@@@@@@@@@@@@@@@@@@@@====@@@@@@@@@@@@@@@@",
"@@@@@@@@@@@@@@@@@@@@@@@@@@@@@@@@@@@@OOOO@@@@@@@@@@@@%%%%%%%%%%%%oooooooooooo&&&&@@@@@@@@@@@@@@@@@@@@@@@@====####====@@@@@@@@@@@@",
"@@@@@@@@@@@@@@@@@@@@@@@@@@@@@@@@@@@@OOOO@@@@@@@@@@@@%%%%%%%%%%%%oooooooooooo&&&&@@@@@@@@@@@@@@@@@@@@@@@@====####====@@@@@@@@@@@@",
"@@@@@@@@@@@@@@@@@@@@@@@@@@@@@@@@@@@@OOOO@@@@@@@@@@@@%%%%%%%%%%%%oooooooooooo&&&&@@@@@@@@@@@@@@@@@@@@@@@@====####====@@@@@@@@@@@@",
"@@@@@@@@@@@@@@@@@@@@@@@@@@@@@@@@@@@@OOOO@@@@@@@@@@@@%%%%%%%%%%%%oooooooooooo&&&&@@@@@@@@@@@@@@@@@@@@@@@@====####====@@@@@@@@@@@@",
"@@@@@@@@@@@@@@@@@@@@OOOO@@@@@@@@OOOO****@@@@@@@@@@@@****%%%%ooooXXXXXXXXoooooooo%%%%@@@@@@@@@@@@@@@@@@@@@@@@====@@@@@@@@@@@@@@@@",
"@@@@@@@@@@@@@@@@@@@@OOOO@@@@@@@@OOOO****@@@@@@@@@@@@****%%%%ooooXXXXXXXXoooooooo%%%%@@@@@@@@@@@@@@@@@@@@@@@@====@@@@@@@@@@@@@@@@",
"@@@@@@@@@@@@@@@@@@@@OOOO@@@@@@@@OOOO****@@@@@@@@@@@@****%%%%ooooXXXXXXXXoooooooo%%%%@@@@@@@@@@@@@@@@@@@@@@@@====@@@@@@@@@@@@@@@@",
"@@@@@@@@@@@@@@@@@@@@OOOO@@@@@@@@OOOO****@@@@@@@@@@@@****%%%%ooooXXXXXXXXoooooooo%%%%@@@@@@@@@@@@@@@@@@@@@@@@====@@@@@@@@@@@@@@@@",
"@@@@@@@@@@@@@@@@@@@@@@@@OOOO@@@@OOOO@@@@++++@@@@%%%%****%%%%XXXX        XXXXoooo&&&&@@@@@@@@@@@@@@@@@@@@@@@@@@@@@@@@@@@@@@@@@@@@",
"@@@@@@@@@@@@@@@@@@@@@@@@OOOO@@@@OOOO@@@@++++@@@@%%%%****%%%%XXXX        XXXXoooo&&&&@@@@@@@@@@@@@@@@@@@@@@@@@@@@@@@@@@@@@@@@@@@@",
"@@@@@@@@@@@@@@@@@@@@@@@@OOOO@@@@OOOO@@@@++++@@@@%%%%****%%%%XXXX        XXXXoooo&&&&@@@@@@@@@@@@@@@@@@@@@@@@@@@@@@@@@@@@@@@@@@@@",
"@@@@@@@@@@@@@@@@@@@@@@@@OOOO@@@@OOOO@@@@++++@@@@%%%%****%%%%XXXX        XXXXoooo&&&&@@@@@@@@@@@@@@@@@@@@@@@@@@@@@@@@@@@@@@@@@@@@",
"@@@@@@@@@@@@@@@@++++@@@@OOOO@@@@++++++++@@@@@@@@********%%%%XXXX        XXXXoooo&&&&%%%%@@@@@@@@OOOO@@@@@@@@@@@@@@@@@@@@@@@@@@@@",
"@@@@@@@@@@@@@@@@++++@@@@OOOO@@@@++++++++@@@@@@@@********%%%%XXXX        XXXXoooo&&&&%%%%@@@@@@@@OOOO@@@@@@@@@@@@@@@@@@@@@@@@@@@@",
"@@@@@@@@@@@@@@@@++++@@@@OOOO@@@@++++++++@@@@@@@@********%%%%XXXX        XXXXoooo&&&&%%%%@@@@@@@@OOOO@@@@@@@@@@@@@@@@@@@@@@@@@@@@",
"@@@@@@@@@@@@@@@@++++@@@@OOOO@@@@++++++++@@@@@@@@********%%%%XXXX        XXXXoooo&&&&%%%%@@@@@@@@OOOO@@@@@@@@@@@@@@@@@@@@@@@@@@@@",
"@@@@@@@@@@@@@@@@@@@@++++++++@@@@@@@@@@@@@@@@====****%%%%oooo                XXXXoooo%%%%@@@@OOOO@@@@@@@@@@@@@@@@@@@@@@@@@@@@@@@@",
"@@@@@@@@@@@@@@@@@@@@++++++++@@@@@@@@@@@@@@@@====****%%%%oooo                XXXXoooo%%%%@@@@OOOO@@@@@@@@@@@@@@@@@@@@@@@@@@@@@@@@",
"@@@@@@@@@@@@@@@@@@@@++++++++@@@@@@@@@@@@@@@@====****%%%%oooo                XXXXoooo%%%%@@@@OOOO@@@@@@@@@@@@@@@@@@@@@@@@@@@@@@@@",
"@@@@@@@@@@@@@@@@@@@@++++++++@@@@@@@@@@@@@@@@====****%%%%oooo                XXXXoooo%%%%@@@@OOOO@@@@@@@@@@@@@@@@@@@@@@@@@@@@@@@@",
"@@@@@@@@@@@@@@@@@@@@@@@@@@@@@@@@@@@@@@@@@@@@%%%%****%%%%XXXX                XXXXoooo&&&&@@@@OOOO@@@@++++@@@@@@@@@@@@@@@@@@@@@@@@",
"@@@@@@@@@@@@@@@@@@@@@@@@@@@@@@@@@@@@@@@@@@@@%%%%****%%%%XXXX                XXXXoooo&&&&@@@@OOOO@@@@++++@@@@@@@@@@@@@@@@@@@@@@@@",
"@@@@@@@@@@@@@@@@@@@@@@@@@@@@@@@@@@@@@@@@@@@@%%%%****%%%%XXXX                XXXXoooo&&&&@@@@OOOO@@@@++++@@@@@@@@@@@@@@@@@@@@@@@@",
"@@@@@@@@@@@@@@@@@@@@@@@@@@@@@@@@@@@@@@@@@@@@%%%%****%%%%XXXX                XXXXoooo&&&&@@@@OOOO@@@@++++@@@@@@@@@@@@@@@@@@@@@@@@",
"@@@@@@@@$$$$@@@@@@@@@@@@@@@@@@@@@@@@@@@@@@@@%%%%****%%%%XXXX                XXXXoooo&&&&@@@@++++++++@@@@@@@@@@@@@@@@@@@@@@@@@@@@",
"@@@@@@@@$$$$@@@@@@@@@@@@@@@@@@@@@@@@@@@@@@@@%%%%****%%%%XXXX                XXXXoooo&&&&@@@@++++++++@@@@@@@@@@@@@@@@@@@@@@@@@@@@",
"@@@@@@@@$$$$@@@@@@@@@@@@@@@@@@@@@@@@@@@@@@@@%%%%****%%%%XXXX                XXXXoooo&&&&@@@@++++++++@@@@@@@@@@@@@@@@@@@@@@@@@@@@",
"@@@@@@@@$$$$@@@@@@@@@@@@@@@@@@@@@@@@@@@@@@@@%%%%****%%%%XXXX                XXXXoooo&&&&@@@@++++++++@@@@@@@@@@@@@@@@@@@@@@@@@@@@",
"@@@@@@@@@@@@@@@@@@@@@@@@@@@@@@@@@@@@@@@@@@@@********%%%%                        XXXX&&&&%%%%@@@@@@@@@@@@@@@@@@@@@@@@@@@@@@@@@@@@",
"@@@@@@@@@@@@@@@@@@@@@@@@@@@@@@@@@@@@@@@@@@@@********%%%%                        XXXX&&&&%%%%@@@@@@@@@@@@@@@@@@@@@@@@@@@@@@@@@@@@",
"@@@@@@@@@@@@@@@@@@@@@@@@@@@@@@@@@@@@@@@@@@@@********%%%%                        XXXX&&&&%%%%@@@@@@@@@@@@@@@@@@@@@@@@@@@@@@@@@@@@",
"@@@@@@@@@@@@@@@@@@@@@@@@@@@@@@@@@@@@@@@@@@@@********%%%%                        XXXX&&&&%%%%@@@@@@@@@@@@@@@@@@@@@@@@@@@@@@@@@@@@",
"@@@@@@@@@@@@@@@@@@@@@@@@@@@@@@@@@@@@@@@@@@@@********%%%%                        XXXXoooo%%%%@@@@@@@@@@@@@@@@$$$$@@@@@@@@@@@@@@@@",
"@@@@@@@@@@@@@@@@@@@@@@@@@@@@@@@@@@@@@@@@@@@@********%%%%                        XXXXoooo%%%%@@@@@@@@@@@@@@@@$$$$@@@@@@@@@@@@@@@@",
"@@@@@@@@@@@@@@@@@@@@@@@@@@@@@@@@@@@@@@@@@@@@********%%%%                        XXXXoooo%%%%@@@@@@@@@@@@@@@@$$$$@@@@@@@@@@@@@@@@",
"@@@@@@@@@@@@@@@@@@@@@@@@@@@@@@@@@@@@@@@@@@@@********%%%%                        XXXXoooo%%%%@@@@@@@@@@@@@@@@$$$$@@@@@@@@@@@@@@@@",
"@@@@@@@@@@@@@@@@@@@@@@@@@@@@@@@@OOOO@@@@@@@@********%%%%                        XXXXoooo&&&&@@@@@@@@@@@@@@@@@@@@@@@@@@@@@@@@@@@@",
"@@@@@@@@@@@@@@@@@@@@@@@@@@@@@@@@OOOO@@@@@@@@********%%%%                        XXXXoooo&&&&@@@@@@@@@@@@@@@@@@@@@@@@@@@@@@@@@@@@",
"@@@@@@@@@@@@@@@@@@@@@@@@@@@@@@@@OOOO@@@@@@@@********%%%%                        XXXXoooo&&&&@@@@@@@@@@@@@@@@@@@@@@@@@@@@@@@@@@@@",
"@@@@@@@@@@@@@@@@@@@@@@@@@@@@@@@@OOOO@@@@@@@@********%%%%                        XXXXoooo&&&&@@@@@@@@@@@@@@@@@@@@@@@@@@@@@@@@@@@@",
"@@@@@@@@@@@@@@@@OOOO@@@@@@@@OOOO@@@@@@@@@@@@********%%%%                &&&&&&&&&&&&&&&&&&&&@@@@@@@@@@@@@@@@@@@@@@@@@@@@@@@@@@@@",
"@@@@@@@@@@@@@@@@OOOO@@@@@@@@OOOO@@@@@@@@@@@@********%%%%                &&&&&&&&&&&&&&&&&&&&@@@@@@@@@@@@@@@@@@@@@@@@@@@@@@@@@@@@",
"@@@@@@@@@@@@@@@@OOOO@@@@@@@@OOOO@@@@@@@@@@@@********%%%%                &&&&&&&&&&&&&&&&&&&&@@@@@@@@@@@@@@@@@@@@@@@@@@@@@@@@@@@@",
"@@@@@@@@@@@@@@@@OOOO@@@@@@@@OOOO@@@@@@@@@@@@********%%%%                &&&&&&&&&&&&&&&&&&&&@@@@@@@@@@@@@@@@@@@@@@@@@@@@@@@@@@@@",
"@@@@@@@@@@@@@@@@@@@@OOOO@@@@OOOO@@@@++++@@@@%%%%****%%%%        &&&&&&&&&&&&%%%%%%%%%%%%&&&&OOOO@@@@@@@@@@@@@@@@OOOO@@@@@@@@@@@@",
"@@@@@@@@@@@@@@@@@@@@OOOO@@@@OOOO@@@@++++@@@@%%%%****%%%%        &&&&&&&&&&&&%%%%%%%%%%%%&&&&OOOO@@@@@@@@@@@@@@@@OOOO@@@@@@@@@@@@",
"@@@@@@@@@@@@@@@@@@@@OOOO@@@@OOOO@@@@++++@@@@%%%%****%%%%        &&&&&&&&&&&&%%%%%%%%%%%%&&&&OOOO@@@@@@@@@@@@@@@@OOOO@@@@@@@@@@@@",
"@@@@@@@@@@@@@@@@@@@@OOOO@@@@OOOO@@@@++++@@@@%%%%****%%%%        &&&&&&&&&&&&%%%%%%%%%%%%&&&&OOOO@@@@@@@@@@@@@@@@OOOO@@@@@@@@@@@@",
"@@@@@@@@@@@@++++@@@@OOOO@@@@++++++++@@@@@@@@%%%%****%%%%%%%%&&&&&&&&%%%%%%%%%%%%%%%%%%%%%%%%@@@@OOOO@@@@@@@@OOOO@@@@@@@@@@@@@@@@",
"@@@@@@@@@@@@++++@@@@OOOO@@@@++++++++@@@@@@@@%%%%****%%%%%%%%&&&&&&&&%%%%%%%%%%%%%%%%%%%%%%%%@@@@OOOO@@@@@@@@OOOO@@@@@@@@@@@@@@@@",
"@@@@@@@@@@@@++++@@@@OOOO@@@@++++++++@@@@@@@@%%%%****%%%%%%%%&&&&&&&&%%%%%%%%%%%%%%%%%%%%%%%%@@@@OOOO@@@@@@@@OOOO@@@@@@@@@@@@@@@@",
"@@@@@@@@@@@@++++@@@@OOOO@@@@++++++++@@@@@@@@%%%%****%%%%%%%%&&&&&&&&%%%%%%%%%%%%%%%%%%%%%%%%@@@@OOOO@@@@@@@@OOOO@@@@@@@@@@@@@@@@",
"@@@@@@@@@@@@@@@@++++++++@@@@@@@@@@@@@@@@@@@@&&&&%%%%****%%%%&&&&&&&&&&&&&&&&&&&&%%%%%%%%%%%%****OOOO@@@@@@@@OOOO@@@@++++@@@@@@@@",
"@@@@@@@@@@@@@@@@++++++++@@@@@@@@@@@@@@@@@@@@&&&&%%%%****%%%%&&&&&&&&&&&&&&&&&&&&%%%%%%%%%%%%****OOOO@@@@@@@@OOOO@@@@++++@@@@@@@@",
"@@@@@@@@@@@@@@@@++++++++@@@@@@@@@@@@@@@@@@@@&&&&%%%%****%%%%&&&&&&&&&&&&&&&&&&&&%%%%%%%%%%%%****OOOO@@@@@@@@OOOO@@@@++++@@@@@@@@",
"@@@@@@@@@@@@@@@@++++++++@@@@@@@@@@@@@@@@@@@@&&&&%%%%****%%%%&&&&&&&&&&&&&&&&&&&&%%%%%%%%%%%%****OOOO@@@@@@@@OOOO@@@@++++@@@@@@@@",
"@@@@@@@@@@@@@@@@@@@@@@@@@@@@@@@@@@@@@@@@$$$$&&&&%%%%****%%%%&&&&    %%%%    &&&&&&&&%%%%%%%%++++++++@@@@OOOO++++++++@@@@@@@@@@@@",
"@@@@@@@@@@@@@@@@@@@@@@@@@@@@@@@@@@@@@@@@$$$$&&&&%%%%****%%%%&&&&    %%%%    &&&&&&&&%%%%%%%%++++++++@@@@OOOO++++++++@@@@@@@@@@@@",
"@@@@@@@@@@@@@@@@@@@@@@@@@@@@@@@@@@@@@@@@$$$$&&&&%%%%****%%%%&&&&    %%%%    &&&&&&&&%%%%%%%%++++++++@@@@OOOO++++++++@@@@@@@@@@@@",
"@@@@@@@@@@@@@@@@@@@@@@@@@@@@@@@@@@@@@@@@$$$$&&&&%%%%****%%%%&&&&    %%%%    &&&&&&&&%%%%%%%%++++++++@@@@OOOO++++++++@@@@@@@@@@@@",
"@@@@@@@@@@@@@@@@@@@@@@@@@@@@@@@@@@@@@@@@@@@@&&&&oooo%%%%****%%%%&&&&%%%%        &&&&%%%%%%%%@@@@@@@@@@@@++++@@@@@@@@@@@@@@@@@@@@",
"@@@@@@@@@@@@@@@@@@@@@@@@@@@@@@@@@@@@@@@@@@@@&&&&oooo%%%%****%%%%&&&&%%%%        &&&&%%%%%%%%@@@@@@@@@@@@++++@@@@@@@@@@@@@@@@@@@@",
"@@@@@@@@@@@@@@@@@@@@@@@@@@@@@@@@@@@@@@@@@@@@&&&&oooo%%%%****%%%%&&&&%%%%        &&&&%%%%%%%%@@@@@@@@@@@@++++@@@@@@@@@@@@@@@@@@@@",
"@@@@@@@@@@@@@@@@@@@@@@@@@@@@@@@@@@@@@@@@@@@@&&&&oooo%%%%****%%%%&&&&%%%%        &&&&%%%%%%%%@@@@@@@@@@@@++++@@@@@@@@@@@@@@@@@@@@",
"@@@@@@@@@@@@@@@@@@@@@@@@@@@@@@@@@@@@@@@@@@@@&&&&ooooXXXX%%%%%%%%%%%%            &&&&%%%%%%%%@@@@@@@@@@@@@@@@@@@@@@@@@@@@@@@@@@@@",
"@@@@@@@@@@@@@@@@@@@@@@@@@@@@@@@@@@@@@@@@@@@@&&&&ooooXXXX%%%%%%%%%%%%            &&&&%%%%%%%%@@@@@@@@@@@@@@@@@@@@@@@@@@@@@@@@@@@@",
"@@@@@@@@@@@@@@@@@@@@@@@@@@@@@@@@@@@@@@@@@@@@&&&&ooooXXXX%%%%%%%%%%%%            &&&&%%%%%%%%@@@@@@@@@@@@@@@@@@@@@@@@@@@@@@@@@@@@",
"@@@@@@@@@@@@@@@@@@@@@@@@@@@@@@@@@@@@@@@@@@@@&&&&ooooXXXX%%%%%%%%%%%%            &&&&%%%%%%%%@@@@@@@@@@@@@@@@@@@@@@@@@@@@@@@@@@@@",
"@@@@@@@@@@@@@@@@@@@@@@@@@@@@@@@@@@@@@@@@@@@@&&&&ooooXXXX                        &&&&%%%%%%%%@@@@@@@@@@@@@@@@@@@@@@@@....@@@@@@@@",
"@@@@@@@@@@@@@@@@@@@@@@@@@@@@@@@@@@@@@@@@@@@@&&&&ooooXXXX                        &&&&%%%%%%%%@@@@@@@@@@@@@@@@@@@@@@@@....@@@@@@@@",
"@@@@@@@@@@@@@@@@@@@@@@@@@@@@@@@@@@@@@@@@@@@@&&&&ooooXXXX                        &&&&%%%%%%%%@@@@@@@@@@@@@@@@@@@@@@@@....@@@@@@@@",
"@@@@@@@@@@@@@@@@@@@@@@@@@@@@@@@@@@@@@@@@@@@@&&&&ooooXXXX                        &&&&%%%%%%%%@@@@@@@@@@@@@@@@@@@@@@@@....@@@@@@@@",
"@@@@@@@@@@@@@@@@@@@@....@@@@@@@@@@@@@@@@@@@@&&&&&&&&ooooXXXX                XXXX&&&&%%%%%%%%@@@@@@@@$$$$@@@@@@@@@@@@@@@@@@@@@@@@",
"@@@@@@@@@@@@@@@@@@@@....@@@@@@@@@@@@@@@@@@@@&&&&&&&&ooooXXXX                XXXX&&&&%%%%%%%%@@@@@@@@$$$$@@@@@@@@@@@@@@@@@@@@@@@@",
"@@@@@@@@@@@@@@@@@@@@....@@@@@@@@@@@@@@@@@@@@&&&&&&&&ooooXXXX                XXXX&&&&%%%%%%%%@@@@@@@@$$$$@@@@@@@@@@@@@@@@@@@@@@@@",
"@@@@@@@@@@@@@@@@@@@@....@@@@@@@@@@@@@@@@@@@@&&&&&&&&ooooXXXX                XXXX&&&&%%%%%%%%@@@@@@@@$$$$@@@@@@@@@@@@@@@@@@@@@@@@",
"@@@@@@@@@@@@@@@@@@@@@@@@@@@@@@@@@@@@@@@@@@@@++++&&&&ooooXXXX                XXXX&&&&%%%%@@@@@@@@@@@@@@@@@@@@@@@@@@@@@@@@@@@@@@@@",
"@@@@@@@@@@@@@@@@@@@@@@@@@@@@@@@@@@@@@@@@@@@@++++&&&&ooooXXXX                XXXX&&&&%%%%@@@@@@@@@@@@@@@@@@@@@@@@@@@@@@@@@@@@@@@@",
"@@@@@@@@@@@@@@@@@@@@@@@@@@@@@@@@@@@@@@@@@@@@++++&&&&ooooXXXX                XXXX&&&&%%%%@@@@@@@@@@@@@@@@@@@@@@@@@@@@@@@@@@@@@@@@",
"@@@@@@@@@@@@@@@@@@@@@@@@@@@@@@@@@@@@@@@@@@@@++++&&&&ooooXXXX                XXXX&&&&%%%%@@@@@@@@@@@@@@@@@@@@@@@@@@@@@@@@@@@@@@@@",
"@@@@@@@@@@@@@@@@@@@@@@@@@@@@@@@@@@@@@@@@@@@@@@@@&&&&ooooXXXX                XXXX&&&&%%%%@@@@@@@@OOOO@@@@@@@@@@@@@@@@OOOO@@@@@@@@",
"@@@@@@@@@@@@@@@@@@@@@@@@@@@@@@@@@@@@@@@@@@@@@@@@&&&&ooooXXXX                XXXX&&&&%%%%@@@@@@@@OOOO@@@@@@@@@@@@@@@@OOOO@@@@@@@@",
"@@@@@@@@@@@@@@@@@@@@@@@@@@@@@@@@@@@@@@@@@@@@@@@@&&&&ooooXXXX                XXXX&&&&%%%%@@@@@@@@OOOO@@@@@@@@@@@@@@@@OOOO@@@@@@@@",
"@@@@@@@@@@@@@@@@@@@@@@@@@@@@@@@@@@@@@@@@@@@@@@@@&&&&ooooXXXX                XXXX&&&&%%%%@@@@@@@@OOOO@@@@@@@@@@@@@@@@OOOO@@@@@@@@",
"@@@@@@@@@@@@@@@@@@@@@@@@@@@@@@@@@@@@@@@@@@@@@@@@&&&&oooooooo                &&&&%%%%%%%%@@@@@@@@@@@@OOOO@@@@@@@@OOOO@@@@@@@@@@@@",
"@@@@@@@@@@@@@@@@@@@@@@@@@@@@@@@@@@@@@@@@@@@@@@@@&&&&oooooooo                &&&&%%%%%%%%@@@@@@@@@@@@OOOO@@@@@@@@OOOO@@@@@@@@@@@@",
"@@@@@@@@@@@@@@@@@@@@@@@@@@@@@@@@@@@@@@@@@@@@@@@@&&&&oooooooo                &&&&%%%%%%%%@@@@@@@@@@@@OOOO@@@@@@@@OOOO@@@@@@@@@@@@",
"@@@@@@@@@@@@@@@@@@@@@@@@@@@@@@@@@@@@@@@@@@@@@@@@&&&&oooooooo                &&&&%%%%%%%%@@@@@@@@@@@@OOOO@@@@@@@@OOOO@@@@@@@@@@@@",
"@@@@@@@@@@@@@@@@@@@@====@@@@@@@@@@@@@@@@@@@@@@@@&&&&&&&&ooooXXXX        XXXX&&&&%%%%%%%%@@@@++++@@@@OOOO@@@@@@@@OOOO@@@@++++@@@@",
"@@@@@@@@@@@@@@@@@@@@====@@@@@@@@@@@@@@@@@@@@@@@@&&&&&&&&ooooXXXX        XXXX&&&&%%%%%%%%@@@@++++@@@@OOOO@@@@@@@@OOOO@@@@++++@@@@",
"@@@@@@@@@@@@@@@@@@@@====@@@@@@@@@@@@@@@@@@@@@@@@&&&&&&&&ooooXXXX        XXXX&&&&%%%%%%%%@@@@++++@@@@OOOO@@@@@@@@OOOO@@@@++++@@@@",
"@@@@@@@@@@@@@@@@@@@@====@@@@@@@@@@@@@@@@@@@@@@@@&&&&&&&&ooooXXXX        XXXX&&&&%%%%%%%%@@@@++++@@@@OOOO@@@@@@@@OOOO@@@@++++@@@@",
"@@@@@@@@@@@@@@@@====####====@@@@@@@@@@@@@@@@@@@@OOOO&&&&ooooooooXXXXXXXXoooo&&&&%%%%@@@@@@@@@@@@++++++++OOOO@@@@++++++++@@@@@@@@",
"@@@@@@@@@@@@@@@@====####====@@@@@@@@@@@@@@@@@@@@OOOO&&&&ooooooooXXXXXXXXoooo&&&&%%%%@@@@@@@@@@@@++++++++OOOO@@@@++++++++@@@@@@@@",
"@@@@@@@@@@@@@@@@====####====@@@@@@@@@@@@@@@@@@@@OOOO&&&&ooooooooXXXXXXXXoooo&&&&%%%%@@@@@@@@@@@@++++++++OOOO@@@@++++++++@@@@@@@@",
"@@@@@@@@@@@@@@@@====####====@@@@@@@@@@@@@@@@@@@@OOOO&&&&ooooooooXXXXXXXXoooo&&&&%%%%@@@@@@@@@@@@++++++++OOOO@@@@++++++++@@@@@@@@",
"@@@@@@@@@@@@@@@@@@@@====@@@@@@@@OOOO@@@@&&&&&&&&@@@@&&&&&&&&oooooooooooo&&&&%%%%%%%%@@@@@@@@@@@@%%%%%%%%++++@@@@@@@@@@@@@@@@@@@@",
"@@@@@@@@@@@@@@@@@@@@====@@@@@@@@OOOO@@@@&&&&&&&&@@@@&&&&&&&&oooooooooooo&&&&%%%%%%%%@@@@@@@@@@@@%%%%%%%%++++@@@@@@@@@@@@@@@@@@@@",
"@@@@@@@@@@@@@@@@@@@@====@@@@@@@@OOOO@@@@&&&&&&&&@@@@&&&&&&&&oooooooooooo&&&&%%%%%%%%@@@@@@@@@@@@%%%%%%%%++++@@@@@@@@@@@@@@@@@@@@",
"@@@@@@@@@@@@@@@@@@@@====@@@@@@@@OOOO@@@@&&&&&&&&@@@@&&&&&&&&oooooooooooo&&&&%%%%%%%%@@@@@@@@@@@@%%%%%%%%++++@@@@@@@@@@@@@@@@@@@@",
"@@@@@@@@@@@@@@@@@@@@@@@@@@@@@@@@@@@@OOOO&&&&&&&&@@@@++++&&&&oooo&&&&&&&&&&&&%%%%@@@@....@@@@@@@@@@@@%%%%@@@@@@@@@@@@@@@@@@@@@@@@",
"@@@@@@@@@@@@@@@@@@@@@@@@@@@@@@@@@@@@OOOO&&&&&&&&@@@@++++&&&&oooo&&&&&&&&&&&&%%%%@@@@....@@@@@@@@@@@@%%%%@@@@@@@@@@@@@@@@@@@@@@@@",
"@@@@@@@@@@@@@@@@@@@@@@@@@@@@@@@@@@@@OOOO&&&&&&&&@@@@++++&&&&oooo&&&&&&&&&&&&%%%%@@@@....@@@@@@@@@@@@%%%%@@@@@@@@@@@@@@@@@@@@@@@@",
"@@@@@@@@@@@@@@@@@@@@@@@@@@@@@@@@@@@@OOOO&&&&&&&&@@@@++++&&&&oooo&&&&&&&&&&&&%%%%@@@@....@@@@@@@@@@@@%%%%@@@@@@@@@@@@@@@@@@@@@@@@",
"@@@@@@@@@@@@@@@@@@@@@@@@@@@@++++@@@@OOOO@@@@++++++++@@@@&&&&&&&&%%%%%%%%%%%%%%%%@@@@@@@@@@@@@@@@@@@@@@@@@@@@@@@@@@@@@@@@@@@@@@@@",
"@@@@@@@@@@@@@@@@@@@@@@@@@@@@++++@@@@OOOO@@@@++++++++@@@@&&&&&&&&%%%%%%%%%%%%%%%%@@@@@@@@@@@@@@@@@@@@@@@@@@@@@@@@@@@@@@@@@@@@@@@@",
"@@@@@@@@@@@@@@@@@@@@@@@@@@@@++++@@@@OOOO@@@@++++++++@@@@&&&&&&&&%%%%%%%%%%%%%%%%@@@@@@@@@@@@@@@@@@@@@@@@@@@@@@@@@@@@@@@@@@@@@@@@",
"@@@@@@@@@@@@@@@@@@@@@@@@@@@@++++@@@@OOOO@@@@++++++++@@@@&&&&&&&&%%%%%%%%%%%%%%%%@@@@@@@@@@@@@@@@@@@@@@@@@@@@@@@@@@@@@@@@@@@@@@@@",
"@@@@@@@@@@@@@@@@@@@@@@@@@@@@@@@@++++++++@@@@@@@@@@@@@@@@@@@@&&&&&&&&&&&&&&&&@@@@@@@@@@@@@@@@@@@@@@@@@@@@@@@@@@@@@@@@@@@@@@@@@@@@",
"@@@@@@@@@@@@@@@@@@@@@@@@@@@@@@@@++++++++@@@@@@@@@@@@@@@@@@@@&&&&&&&&&&&&&&&&@@@@@@@@@@@@@@@@@@@@@@@@@@@@@@@@@@@@@@@@@@@@@@@@@@@@",
"@@@@@@@@@@@@@@@@@@@@@@@@@@@@@@@@++++++++@@@@@@@@@@@@@@@@@@@@&&&&&&&&&&&&&&&&@@@@@@@@@@@@@@@@@@@@@@@@@@@@@@@@@@@@@@@@@@@@@@@@@@@@",
"@@@@@@@@@@@@@@@@@@@@@@@@@@@@@@@@++++++++@@@@@@@@@@@@@@@@@@@@&&&&&&&&&&&&&&&&@@@@@@@@@@@@@@@@@@@@@@@@@@@@@@@@@@@@@@@@@@@@@@@@@@@@",
"@@@@@@@@@@@@@@@@@@@@@@@@@@@@@@@@@@@@@@@@@@@@@@@@@@@@@@@@@@@@@@@@@@@@@@@@@@@@@@@@@@@@@@@@@@@@@@@@@@@@@@@@@@@@@@@@@@@@@@@@@@@@@@@@",
"@@@@@@@@@@@@@@@@@@@@@@@@@@@@@@@@@@@@@@@@@@@@@@@@@@@@@@@@@@@@@@@@@@@@@@@@@@@@@@@@@@@@@@@@@@@@@@@@@@@@@@@@@@@@@@@@@@@@@@@@@@@@@@@@",
"@@@@@@@@@@@@@@@@@@@@@@@@@@@@@@@@@@@@@@@@@@@@@@@@@@@@@@@@@@@@@@@@@@@@@@@@@@@@@@@@@@@@@@@@@@@@@@@@@@@@@@@@@@@@@@@@@@@@@@@@@@@@@@@@",
"@@@@@@@@@@@@@@@@@@@@@@@@@@@@@@@@@@@@@@@@@@@@@@@@@@@@@@@@@@@@@@@@@@@@@@@@@@@@@@@@@@@@@@@@@@@@@@@@@@@@@@@@@@@@@@@@@@@@@@@@@@@@@@@@"
};
