/* XPM */
static char *result[] = {
/* columns rows colors chars-per-pixel */
"32 32 133 2 ",
"   c #4F3239",
".  c #51333B",
"X  c #553343",
"o  c #5B354C",
"O  c #513A4B",
"+  c #5D3552",
"@  c #563B56",
"#  c #5F365B",
"$  c #5D3D59",
"%  c #60384E",
"&  c #623755",
"*  c #643A5C",
"=  c #643663",
"-  c #633F62",
";  c #6E3C61",
":  c #663F6F",
">  c #703D65",
",  c #713C6B",
"<  c #743C72",
"1  c #53415B",
"2  c #584267",
"3  c #5E456B",
"4  c #61456D",
"5  c #6C4372",
"6  c #70437B",
"7  c #7E637E",
"8  c #7D7272",
"9  c #59981D",
"0  c #5DA21B",
"q  c #60A61E",
"w  c #62972C",
"e  c #638B37",
"r  c #69AC29",
"t  c #6DB627",
"y  c #6EB827",
"u  c #6EB42B",
"i  c #6FB929",
"p  c #70B52D",
"a  c #74BD2C",
"s  c #6FA933",
"d  c #71AB36",
"f  c #71A53B",
"g  c #75AE3A",
"h  c #6EB13E",
"j  c #75B137",
"k  c #76BE30",
"l  c #73B53D",
"z  c #73B93E",
"x  c #7DC13D",
"c  c #739C45",
"v  c #749B5A",
"b  c #77A543",
"n  c #78A345",
"m  c #72A74B",
"M  c #73A94C",
"N  c #72B642",
"B  c #74BD45",
"V  c #76BD49",
"C  c #7BBA4F",
"Z  c #6FAE51",
"A  c #6FB050",
"S  c #71B554",
"D  c #7EB75B",
"F  c #81BE46",
"G  c #89C44D",
"H  c #D6D36A",
"J  c #743984",
"K  c #793A8E",
"L  c #7F3C96",
"P  c #6F4886",
"I  c #734382",
"U  c #7C478B",
"Y  c #7F4B8E",
"T  c #744094",
"R  c #7D4A94",
"E  c #7A419D",
"W  c #7D4F9D",
"Q  c #7C5095",
"!  c #765F94",
"~  c #7C5D93",
"^  c #7647A2",
"/  c #7C43A2",
"(  c #7648A5",
")  c #7F42A9",
"_  c #7B49AE",
"`  c #5E62B3",
"'  c #687AA7",
"]  c #6363BF",
"[  c #6576BD",
"{  c #6874BB",
"}  c #6279BB",
"|  c #5F6BC2",
" . c #5E77C5",
".. c #5C73CD",
"X. c #5F7FCD",
"o. c #5E76D1",
"O. c #5F78D3",
"+. c #5E77DD",
"@. c #616BC6",
"#. c #626CCB",
"$. c #6479C5",
"%. c #6373CA",
"&. c #6F75CC",
"*. c #656CD2",
"=. c #6472D2",
"-. c #6179D5",
";. c #6172D8",
":. c #6378DB",
">. c #5E7CE2",
",. c #813D9F",
"<. c #833BA3",
"1. c #804A8E",
"2. c #805A87",
"3. c #80578A",
"4. c #805889",
"5. c #814A93",
"6. c #648EA7",
"7. c #6480AA",
"8. c #648DA8",
"9. c #6780B4",
"0. c #6288B6",
"q. c #6287B9",
"w. c #6484CC",
"e. c #6694C0",
"r. c #6184E4",
"t. c #6EADE4",
"y. c #6EB0E3",
"u. c #6BA4F5",
"i. c #6CAAF7",
"p. c #6DABFB",
"a. c #6EB0FD",
"s. c #BDD296",
"d. c #ACC0B9",
/* pixels */
"a a a a a a a a a a a a a a a g g g g a y x y y a a a a a a a a ",
"a a a a a a a a a a a a a a b 2.5.5.4.n x i x y a a x x a a a a ",
"a x y y a a a a a a a a x j 2.<.<.<.<.! s 9 y y a a x s.x x a a ",
"x y x y a a a a t 0 a a i m Y <._ *.:.$.N y y x a x s.H s.x a a ",
"y x a a a q y y 0 y a a l ' I ) ;.>.>.+.q.h x y a a G s.G a a a ",
"x a a a a y 0 y 0 y p a M W / _ *.>.+.>.X.Z a a a a x k x a a a ",
"y y a a t y 0 y r p a C 9./ <.*.>.;.;.+.+.0.h y q a a a a a a a ",
"a a a a a y t a a y G d.&.I / ;.+._ L ( *.X.h 0 y a a a a a a a ",
"a y x y a a a a a a x 6._ ,._ ;.*.T + * ( [ h 0 y y y x y a a a ",
"a x x a a a a a a a k M R <.*.:.( o . % , R m u y a y x y a a a ",
"a a x a a a a a a a l 7.6 / ;.*.T X . o * / 9.l a x x i x a a a ",
"a a a a a a a y a a N } 6 / *.( o   . o & / $.N x a y x a a a a ",
"a a a a a a x y q i N } 6 / *.E X     . & E { A 6.8.x a a a a a ",
"a a a y q y y 0 t j M } 6 / *.T X     . o < Q g A 6.x a y a a a ",
"a a a a y 0 y 0 d 2.~ @.6 / @.@       . o , U w t z a y q a a a ",
"a a a a y 0 y t f 7 v [ 6 / ] O O O O . o , Q r 0 y y 0 y a a a ",
"a a a a y t a a a j N } P / L @ ` | | @ % , Y d 0 a t 9 p p a a ",
"a a a a y a a a a k D w.#.^ L # T _ ..| 4 , Y f r t q r p a a a ",
"a a a a x y a a a a V t.;.: K K = J 2 ..@.6 1.g a a u a a a a a ",
"a a a a a a a a a a B t.O.3 + L J X O ....6 1.g a a a a a a a a ",
"a a a a a y x a a a B y.r.| $ X X   1 o.o.I 1.g a k a a t 9 a a ",
"a a a x y 0 y y a a B y.i.-.3 O O @  .u.:./ 4.j x F k a a p a a ",
"a a a a a y y a x y z e.i.r.-...o.o.u.u.=.W n a y a a a a a a a ",
"a a a a a y x a y x a S y.a.a.p.u.>.>...P Y g i q y a a y q y a ",
"a a a a a k x a a j a l w.p.p.i.r.%.] 6 < 1.p x y 0 t a 9 y a a ",
"a a a x G s.G a j 8 j j ~ =.-.-.| 1 - > ,.2.p y y 0 y a 0 a u a ",
"a a a k s.H s.k p j k t e R I 5 4 % ; < 1.f a y u r 9 p r r a a ",
"a a a a G s.G a q t t q d 4.L , ; ; > ,.3.d a a a a u a a a a a ",
"a a a a x k a a t q t 0 p c 1.< > > < 5.s 9 y y a a a a a x y x ",
"a a a a a a a a p 0 t r p d 2.,., < ,.3.x y y x a a a a x i y y ",
"a a a a a a a a u r a a a k n 2.1.1.2.f x a a a a a a a a a a a ",
"a a a a a a a a a a a a a a k g g g g k a a a a a a a a a a a a "
};
