/* XPM */
static char *result[] = {
/* columns rows colors chars-per-pixel */
"32 32 138 2 ",
"   c #4F3239",
".  c #50323A",
"X  c #553344",
"o  c #593545",
"O  c #5B354B",
"+  c #513A4C",
"@  c #5E3652",
"#  c #563C53",
"$  c #593D57",
"%  c #523F58",
"&  c #6B3B5E",
"*  c #5C3B61",
"=  c #6E3B65",
"-  c #6F3C6A",
";  c #713B6C",
":  c #733C72",
">  c #763D7A",
",  c #52405C",
"<  c #5B4365",
"1  c #674777",
"2  c #6D4276",
"3  c #6A4779",
"4  c #704376",
"5  c #59981D",
"6  c #5DA21C",
"7  c #60A61E",
"8  c #5F9528",
"9  c #62972B",
"0  c #648A39",
"q  c #5FA220",
"w  c #5DA130",
"e  c #69AC29",
"r  c #6DB627",
"t  c #6EB826",
"y  c #6EB42B",
"u  c #6FB82B",
"i  c #70B52D",
"p  c #74BD2C",
"a  c #6FA934",
"s  c #67A53C",
"d  c #6AAA3E",
"f  c #72AB37",
"g  c #71A63A",
"h  c #75AE3A",
"j  c #78AF3F",
"k  c #6EB23C",
"l  c #75B137",
"z  c #76BE30",
"x  c #73B53D",
"c  c #72B83D",
"v  c #74C02A",
"b  c #7DC13D",
"n  c #739B46",
"m  c #6CAB41",
"M  c #6BAB4F",
"N  c #76A343",
"B  c #73AA4B",
"V  c #71B641",
"C  c #73BC44",
"Z  c #6CAA56",
"A  c #6FB051",
"S  c #71B655",
"D  c #7DBF54",
"F  c #81BE46",
"G  c #83AE53",
"H  c #89C44D",
"J  c #D6D36A",
"K  c #783A8D",
"L  c #7F3D95",
"P  c #7D3C9A",
"I  c #6E4885",
"U  c #7D458F",
"Y  c #7D5387",
"T  c #7E558A",
"R  c #7F598A",
"E  c #754094",
"W  c #7E4B92",
"Q  c #7A429D",
"!  c #7B5193",
"~  c #7B5F91",
"^  c #77539E",
"/  c #7D529C",
"(  c #7647A7",
")  c #7B42A2",
"_  c #7748A5",
"`  c #7848A3",
"'  c #7E42A8",
"]  c #724DAB",
"[  c #7A48AD",
"{  c #7A58A2",
"}  c #7A49B1",
"|  c #5E63B5",
" . c #687AA6",
".. c #697BAE",
"X. c #6674B8",
"o. c #5E76CE",
"O. c #5F78D1",
"+. c #5D77DF",
"@. c #5E7CDF",
"#. c #616CC7",
"$. c #6A64CB",
"%. c #616DC8",
"&. c #6071C4",
"*. c #6379C6",
"=. c #607FCA",
"-. c #656BD2",
";. c #6472D5",
":. c #6178D6",
">. c #6271D9",
",. c #637BDB",
"<. c #657EE0",
"1. c #804B8F",
"2. c #80578A",
"3. c #804B92",
"4. c #8041A8",
"5. c #648DA8",
"6. c #6482B4",
"7. c #6186B9",
"8. c #648DBC",
"9. c #6694BC",
"0. c #6BB0A2",
"q. c #6BABBA",
"w. c #5F80CA",
"e. c #5F80DE",
"r. c #6581C7",
"t. c #6286CA",
"y. c #6E91CE",
"u. c #648ED1",
"i. c #6BA5DD",
"p. c #6084E5",
"a. c #6CA6E3",
"s. c #71B5E7",
"d. c #6AA2F5",
"f. c #6CA7FA",
"g. c #6DABFC",
"h. c #78B2F7",
"j. c #BDD296",
"k. c #AEC9BC",
/* pixels */
"p p v z p p v p p p p p p z V C V V V p v p v p p p p p p p p v ",
"p p p p p p p p p p p v p C 9.i.t.*.6.A i u p p p v z b v p p z ",
"p p p p p p v z p p p p p A a.p.#.I ` ..k 5 p v p v H j.H z p p ",
"v p p v p p p p y w p v x 8.e.%.3 = : ! B y p p p b j.J j.b v p ",
"p p p p p 6 u i w 0.C p S a.:.1 O o & 4  .c v p p z H j.H p p v ",
"p p p p p r 6 r q V y x 9.f.:.$ . . o - ! B p p p p v b z p z p ",
"p p p p i y 6 r r e p D s.g.&.# . . o = Q 6.C r 6 p p p p p p p ",
"p p p p p y r p p p b k.h.,.1 . .   . O 2 X.h 6 r p p z v p p v ",
"p z z z p p p p p v V y.f.:.$         o - ! g q y y p p p p p p ",
"p v F z p z p p p v V u.f.O.# .     . o = W B y y p z z p v z v ",
"z v z p p v p p p p C s.g.O.+           @ E ..V p p z z p z p p ",
"p p p p p p v v p p C s.g.o.+           O 2 X.V p p z C z v p p ",
"p p p p t v v t 7 t C s.g.o.+       X X O : ! l v v p z p p p p ",
"z v p p 6 u i 6 r p C s.g.o.+   o O K ) ) ) 3.h p p p p p p p p ",
"p p v p t 6 r 5 i i x u.g.o., O K P } -.;.-.^ 9 t z p t 7 p p p ",
"p p p l u 6 u r i p x r.d.p.#.Q ' $.-.+.+.+.*.M 6 p i 6 r p v p ",
"p p p p i r p p p z V { <.d.,.4.P } ) } -.+.@.q.w u t 6 u u p p ",
"p p p p p p p p z z G 3.;.d.p._ * | * K [ -.w.Z y u 8 e u i p p ",
"p z p p p p p p p p j 1.I *.d.;.] | + O Q +.w.V p p r p p v p p ",
"p p p p p p p p p p h 1.; < | o.| %   X Q >.w.V p p p p p i p p ",
"p z p p v p p p p p l 3.; O + + +     X ) >.w.V v z p p u 5 i v ",
"p p v p t 5 i p v v h 2.L = o         O Q >.7.x v F z p p u p p ",
"p p p p p i p p p p p n 1.- o .       @ Q *.A p p z p v p p p p ",
"p v p z p p p v p z p h 1.; O .     . @ ( *.V u 7 u p p t 6 p p ",
"v p p p v b z p p p p l 3.: & .     X K -.=.V p u 5 i p 6 r p p ",
"z p p z H j.H z p p v l T L ; o     @ Q >.7.x i t 6 r t 6 t i p ",
"p p p b j.J j.b p p l f 0 U : & O O - [ *.A p z m s 6 i e i p p ",
"p v p v H j.H p 6 f 2.R n R L ; - ; Q -.7.k v c 5.7.d p p p p p ",
"p p v p z b p p r 9 Y T h n 3.> Q ) } *.M 5 t p S 5.x p p p p p ",
"v p p z p p p i y q a g y h 2.4.$.-.-.7.c i p p p c z v p p p p ",
"z p p p p p p p y e p p p p N 2./ ! ~ B p p p p p p p p v p p v ",
"p p p p p p p p p p p p p p p h j j l p p p p p p p z p p p p z "
};
