/* XPM */
static char *result[] = {
/* columns rows colors chars-per-pixel */
"32 32 142 2 ",
"   c #4F3139",
".  c #52333D",
"X  c #543344",
"o  c #583447",
"O  c #5B354E",
"+  c #51394B",
"@  c #5E384E",
"#  c #5C3552",
"$  c #563B56",
"%  c #5F3E5D",
"&  c #613852",
"*  c #63375D",
"=  c #65385A",
"-  c #643E67",
";  c #6D3D64",
":  c #723C6F",
">  c #713F71",
",  c #53405B",
"<  c #574566",
"1  c #584067",
"2  c #5A496B",
"3  c #5C4270",
"4  c #65436F",
"5  c #6C436D",
"6  c #70446F",
"7  c #6C4371",
"8  c #684677",
"9  c #69497C",
"0  c #714271",
"q  c #795C7B",
"w  c #7E637F",
"e  c #59981D",
"r  c #5DA21B",
"t  c #60A61E",
"y  c #5F9726",
"u  c #5C9D2E",
"i  c #62982B",
"p  c #638B36",
"a  c #69AC29",
"s  c #6DB627",
"d  c #6EB42B",
"f  c #70B52D",
"g  c #74BD2C",
"h  c #60A530",
"j  c #6FAA33",
"k  c #72AB36",
"l  c #76AE3A",
"z  c #6EB13B",
"x  c #76BE30",
"c  c #73B43C",
"v  c #72B83F",
"b  c #74C02A",
"n  c #7DC13C",
"m  c #5B9749",
"M  c #739C44",
"N  c #6CAB42",
"B  c #6FA349",
"V  c #77A444",
"C  c #73AA4A",
"Z  c #6DB143",
"A  c #71B642",
"S  c #73BC43",
"D  c #70B04D",
"F  c #6EAD51",
"G  c #6DB055",
"H  c #72B856",
"J  c #79B362",
"K  c #7EC053",
"L  c #81BE46",
"P  c #82B26A",
"I  c #89C44D",
"U  c #D6D36A",
"Y  c #793A8E",
"T  c #7C3B92",
"R  c #7E3C9A",
"E  c #6E4883",
"W  c #7E558A",
"Q  c #7F5A8A",
"!  c #7F4A94",
"~  c #71479B",
"^  c #7C419D",
"/  c #715392",
"(  c #7C5D92",
")  c #76559A",
"_  c #7D539D",
"`  c #76589F",
"'  c #7B43A1",
"]  c #7649A6",
"[  c #7E43AA",
"{  c #7C49AC",
"}  c #745BA3",
"|  c #7B49B0",
" . c #7751B0",
".. c #5D63B4",
"X. c #5B6ABD",
"o. c #6E62A4",
"O. c #6A7BAD",
"+. c #6277BE",
"@. c #6873BE",
"#. c #6379BC",
"$. c #5E6CC2",
"%. c #5D76CF",
"&. c #5F72D0",
"*. c #5F78D3",
"=. c #5D77DF",
"-. c #5D79DE",
";. c #6463C0",
":. c #606CC6",
">. c #6479C3",
",. c #607FC9",
"<. c #656CD2",
"1. c #6273D6",
"2. c #6279D5",
"3. c #6173D9",
"4. c #5E7BE1",
"5. c #813D9C",
"6. c #833AA3",
"7. c #80578B",
"8. c #80588A",
"9. c #814C96",
"0. c #805096",
"q. c #8143A3",
"w. c #608C90",
"e. c #6483B4",
"r. c #6287B9",
"t. c #648CBC",
"y. c #6CAFB6",
"u. c #6282CA",
"i. c #6088CD",
"p. c #6385D1",
"a. c #6DAAD0",
"s. c #70B1D3",
"d. c #6184E4",
"f. c #699BE6",
"g. c #6F9BED",
"h. c #6FB0E4",
"j. c #6AA3F6",
"k. c #6CA7F9",
"l. c #6CA9FA",
"z. c #76ADF2",
"x. c #BDD296",
"c. c #B0CEAB",
/* pixels */
"g g b x g g b g g g g g g g g A A l l g g g g g g b g g b g g g ",
"g g g g g g g g g g g g g g D e.#._ 8.C g s g g g g g n x g g b ",
"g g g g g g b x g g g g b v e. .o.` { O.z e g g g x I x.I g g x ",
"b g g b g g g g s t g g g D >.` 0 6 ` _ V s g g b n x.U x.n b g ",
"g g g g g r d g e s g g v e.o.5 & & 6 ) Q l g g g g I x.I x g b ",
"g g g g g s r s t s f g H >.8 & . . & 6 9.V g g g g x n x g g g ",
"g g g g f d e s f f x L s.2.7 O .   @ : 5.7.l s t g g b b g g b ",
"x g g g g f s b x g v c.z.2.5 . . X # T 5.9.k r s g g g x g g g ",
"g x x g b g g g g g b J p.:.% . O Y R ' 6._ k r d f g g g g g g ",
"b x L x g g g g g g A r.&.8 @ O Y [ | <.3.,.F d d g g g g g g g ",
"g x x g b g g g g b A u.:.% o Y [ <.3.=.4.4.r.z g g g x b g x g ",
"b g g b g g g g g g A #.9 # # ' <.=.3.3.=.4.u.A g g g L x g g b ",
"g g g g g g g d t g A #.5 = T { <.| [ | <.4.u.A c c g g x g g g ",
"g g g g r d g r s g A #.7 = ^ <.<.R T R { <.%.F r.t.S g g g g g ",
"b g g g d r s r d f C +.7 = ' <.~ O X # T | #.m i.a.A s t g g g ",
"x g g f s r s d s k ( 1.9 * ' ;.$ + +   * ' >.G y.H g r s g g g ",
"b g g g f d g g g c } f.$.- R ^ $ ..$.$ # ' >.Z h g d e s f g g ",
"x g g g f g g g g b P h.*.8 T T # ] 4.$.- ' >.N d d r a d g b g ",
"g g g g g g g g g g K s.d.$.3 ^ Y ' g.*.- ^ >.A g g d g g b x g ",
"b g g g g g g g g g K h.l.d.*.:.1 2 f.*.4 ^ >.A g g g g g f g g ",
"g g b x g g g g g g A u.k.k.j.d.%.%.-.$.4 ' @.A b x g g f e g g ",
"g g g g f e s g g b c } 1.2.d.j.j.4.$.< / ' Q l b L x b g s g g ",
"x b g b g g g g g g v O.' E $.*.%.X., # ^ 9.V g x x g g g g g g ",
"g g g g g g g b g x x C ! 6 - + + +   = 5._ l g r d g b d r g g ",
"g g g b x n g g g g g l 9.) ; X   . X ; ' >.A g s r g g r s g g ",
"b g g x I x.I x g l c l W 9.> & . . @ > ' e.z d f u d f r d d g ",
"x g b n x.U x.n k 7.w k p ! ~ ; @ @ ; ` _ C g g z w.u d d d f b ",
"g g g x I x.I g i q k r j 7.9.> ; ; 0 ' O.c g g x z f g f g g b ",
"g g g g g n g g d i s e f M 9.) 0 0 ) _ B y s b x b g g b g b x ",
"b g b g g g g f f r s d d l 8.q.} ` { O.v s b g g g g g x g g g ",
"x g b x g g g g d a g g g g V 8.0.0.8.C x g g g g g g b b g g g ",
"g g g g g g g g g g g g g g x l l l l g g x b g b g g g x g g b "
};
