/* XPM */
static char *result[] = {
/* columns rows colors chars-per-pixel */
"32 32 130 2 ",
"   c #4F3239",
".  c #51333C",
"X  c #553345",
"o  c #573448",
"O  c #5C364B",
"+  c #51394B",
"@  c #5F384E",
"#  c #5A3551",
"$  c #543B50",
"%  c #5F3B53",
"&  c #5D3E5C",
"*  c #60384E",
"=  c #623755",
"-  c #613952",
";  c #643C5C",
":  c #6B3D65",
">  c #613D6D",
",  c #6F3C68",
"<  c #713D6C",
"1  c #713F71",
"2  c #763B78",
"3  c #52405A",
"4  c #62405D",
"5  c #574167",
"6  c #6D4067",
"7  c #6D436E",
"8  c #604B6E",
"9  c #6F4876",
"0  c #6F457D",
"q  c #6A497B",
"w  c #704071",
"e  c #7C7170",
"r  c #59981D",
"t  c #5DA21C",
"y  c #60A61E",
"u  c #57912E",
"i  c #5E9D32",
"p  c #6AAD2A",
"a  c #6DB627",
"s  c #6EB42B",
"d  c #6FB828",
"f  c #70B52D",
"g  c #74BD2C",
"h  c #6BAD3D",
"j  c #72AC35",
"k  c #74AD3A",
"l  c #6DB23C",
"z  c #76BE30",
"x  c #73B53D",
"c  c #72B83D",
"v  c #7DC13D",
"b  c #6EAE40",
"n  c #6DAC4F",
"m  c #77A345",
"M  c #70A04C",
"N  c #74A84C",
"B  c #6FB444",
"V  c #71B542",
"C  c #73BB44",
"Z  c #70B14E",
"A  c #6FAF51",
"S  c #6FB051",
"D  c #79B262",
"F  c #83AF54",
"G  c #89C44D",
"H  c #D6D36A",
"J  c #793A8D",
"K  c #7E3B99",
"L  c #6B4E8A",
"P  c #7F4B8F",
"I  c #784197",
"U  c #7F4B90",
"Y  c #7B429C",
"T  c #735495",
"R  c #7C5294",
"E  c #765598",
"W  c #7D529B",
"Q  c #715A9E",
"!  c #7647A4",
"~  c #7A44A2",
"^  c #7548A5",
"/  c #7F42A9",
"(  c #7A4BAD",
")  c #7855A1",
"_  c #7958A2",
"`  c #7B49B0",
"'  c #5A6ABC",
"]  c #697BAD",
"[  c #657FB3",
"{  c #6678BE",
"}  c #5F6AC7",
"|  c #5E74CF",
" . c #5F7FCD",
".. c #5F75D2",
"X. c #5E78D2",
"o. c #5D77DE",
"O. c #5D79DD",
"+. c #616CC6",
"@. c #6965CC",
"#. c #636CCC",
"$. c #6474C2",
"%. c #647AC5",
"&. c #656BD1",
"*. c #6274D7",
"=. c #6270D9",
"-. c #804B8E",
";. c #80588B",
":. c #804D95",
">. c #834B98",
",. c #8044A4",
"<. c #669693",
"1. c #5F86B9",
"2. c #6681B3",
"3. c #6289B6",
"4. c #6286B9",
"5. c #5F81CB",
"6. c #6184CB",
"7. c #6C8AC8",
"8. c #6186D0",
"9. c #638BD2",
"0. c #6184E4",
"q. c #6A9AE7",
"w. c #699DF3",
"e. c #6FB1E4",
"r. c #71B6E7",
"t. c #6AA2F5",
"y. c #6DACFC",
"u. c #70B4FF",
"i. c #BDD296",
"p. c #ABC0BB",
/* pixels */
"g g g g g g g v v d v g g g v l j x k g g v d g g g g g g g g g ",
"g g g g g g g d d v a d g g Z ] W :.;.m g d v a g g v v v d g g ",
"g d v g g g g g g d g g g v 3.( ,.) >.;.j r f g g g v i.v g g g ",
"g v d g g d g g d y d g g C ' ^ E 9 E >.m f g g g v i.H i.v g g ",
"g g g g d y d d r d g g V [ ( T 4 - 7 E ;.x g g g g G i.G g g g ",
"g g g g g d t d y h k z S %.~ ; X . * w -.m g g g g g v v g g g ",
"g g g g d d t d b 4.4.D 4.&.~ =   . @ : >.;.k a y g g g g g g g ",
"g g g d v d a d V 4.7.p.8.` T @ . . O ; T >.j t d g g g g g g g ",
"g d g g g g g g g v v C %.~ ; X     . * 1 U k y g d g g g v d v ",
"g v v v g g g g g g d B $.~ = .   . . * , -.m p d g g g g g g g ",
"g g v d g g d v a v V 1.=.~ %       . O ; K ;.x z g g z g g g g ",
"g g g g g g g g a v V 5.=.~ o       . O = T :.N <.c v z v g g g ",
"g g g g g g g a t a V 5.=.Y X       + + 5 0 P k v g d v d g g g ",
"g g g d y d d t p e N %.o.Y o   + 3 ' X.X.} E k d g g g d d g g ",
"g g g g d t a t d j k _ &.^ # $ ' | 0.y.y.0.[ i a g g d y d g g ",
"g g g d d t d a s g k W &.&.^ } 0.t.y.y.u.y.9.d t d g t d g g g ",
"g g g g d a g g g g V :.` @.` &.| O.X.0.y.u.e.B t d a t d f g g ",
"g g g g d g g g g z F >.,./ / K > J 5 ' 0.u.e.B s d y p s g g g ",
"g g g g v g g g g g k U 2 K @.,.K J X $ X.y.r.C g f s f g g g g ",
"g g g g g g g g g g k R 1 : I K J #   $ X.u.r.C g g g g g g g g ",
"g g g g v a d g g d c [ Q ; = o X   . & | y.r.C d v d v s r d g ",
"g g g g d r a g g v x [ Y , @ .     . ; X.t.3.c v v g d g s g g ",
"g g g g g d g g d v g M :.< * .       5 X.8.Z g a g v d g g g g ",
"g g g g g g g d v g g k R w - .       8 q.8.c g t d d v s t g g ",
"g g g g g v v g g v d c { Q 6 * . . 3 } t.9.s v d t d d t a v v ",
"g g g g v i.G g g g v f %.! w - . . 3 | 0.5.l a d t d d t d a a ",
"g g g v i.H i.z d g g x 2.( E 6 - - q | O.1.v a a a t d a d d v ",
"g g g v G i.v v y a a t n { ^ < 7 9 } O.5.n g g g d a d v g d d ",
"g g g g v z v g a t a t l 4.#.L +...0.w.1.u v g g g g g d g g g ",
"g g g g g g g g a i a a s A 4...*.0.w.9.c d a d g g g g d g g g ",
"g g g g g g g g p s g g g g S 4. .6.8.4.v d g g g g g g g g g g ",
"g g g g g g g g g g g g g g g V V V V V v g g g g g g g g g g g "
};
