/* XPM */
static char *result[] = {
/* columns rows colors chars-per-pixel */
"32 32 128 2 ",
"   c #4F3239",
".  c #52333D",
"X  c #553344",
"o  c #5C354E",
"O  c #52394B",
"+  c #5E384E",
"@  c #5D3756",
"#  c #523F59",
"$  c #5E3E5D",
"%  c #60374E",
"&  c #613852",
"*  c #633C5C",
"=  c #6B3B5E",
"-  c #5C3C62",
";  c #6E3C62",
":  c #703D65",
">  c #713B6A",
",  c #733C72",
"<  c #763C79",
"1  c #53415C",
"2  c #5D436D",
"3  c #544970",
"4  c #64406A",
"5  c #69426C",
"6  c #6D4372",
"7  c #674878",
"8  c #6C497F",
"9  c #704376",
"0  c #704379",
"q  c #7D647E",
"w  c #59981D",
"e  c #5DA21B",
"r  c #60A61D",
"t  c #5E9F31",
"y  c #5F923E",
"u  c #69AC29",
"i  c #6DB627",
"p  c #6EB42B",
"a  c #70B52D",
"s  c #74BD2C",
"d  c #6BAE38",
"f  c #71AC35",
"g  c #76AE3A",
"h  c #6EB23D",
"j  c #76BE30",
"k  c #73B43C",
"l  c #73B93F",
"z  c #7DC13D",
"x  c #6D9B59",
"c  c #6FA14D",
"v  c #77A444",
"b  c #70A04C",
"n  c #73AA4A",
"m  c #6DB440",
"M  c #72B643",
"N  c #73BC44",
"B  c #71B04E",
"V  c #7BBA4E",
"C  c #71B754",
"Z  c #72B957",
"A  c #7EB65B",
"S  c #81BE46",
"D  c #89C44D",
"F  c #D6D36A",
"G  c #793B8E",
"H  c #753F92",
"J  c #7E3C95",
"K  c #7F3C9A",
"L  c #7F4B8D",
"P  c #7E5784",
"I  c #7F598A",
"U  c #774196",
"Y  c #7B4C95",
"T  c #7A429C",
"R  c #7B4E98",
"E  c #7B5194",
"W  c #7C5E91",
"Q  c #7F519D",
"!  c #7747A7",
"~  c #7C42A2",
"^  c #7749A3",
"/  c #7F42A9",
"(  c #7A49AD",
")  c #765CA7",
"_  c #5A6ABD",
"`  c #687AA6",
"'  c #6676AA",
"]  c #697AAD",
"[  c #6874BD",
"{  c #627ABC",
"}  c #6C5FC3",
"|  c #5E6AC2",
" . c #5B6FCA",
".. c #5D71CE",
"X. c #5F76D2",
"o. c #5F7BD5",
"O. c #5D77DF",
"+. c #616DC5",
"@. c #637AC3",
"#. c #667CC9",
"$. c #7276CF",
"%. c #656BD2",
"&. c #6177D5",
"*. c #6171D9",
"=. c #5F7EE2",
"-. c #804A8F",
";. c #80578A",
":. c #804890",
">. c #679495",
",. c #6484B5",
"<. c #6880B6",
"1. c #6286B9",
"2. c #6288BA",
"3. c #6390BE",
"4. c #5F80CA",
"5. c #6184CC",
"6. c #6EAFD0",
"7. c #71B7D3",
"8. c #6185E6",
"9. c #6DAAE1",
"0. c #6FB0E6",
"q. c #70B6E7",
"w. c #6BA4F6",
"e. c #6DABFA",
"r. c #6EB0FC",
"t. c #70B5FF",
"y. c #BDD296",
"u. c #AEC7A7",
/* pixels */
"s s s s s s s s s s s i z i s k g g g s s s s s s s z i z i s s ",
"s s s s s s s s s s s z i z n I L L ;.v s a s s s s s z i z s s ",
"s z i s s s s s s s s s s j ` T , , K ;.f w s s s s D y.z s s s ",
"z i z i s s s s i r i s s k E , ; ; , L v i s s s z y.F y.z s s ",
"s s s i s r i i t k s s k ` 9 = & & ; , P g s s s s D y.D s s s ",
"s s s z s i e s 3.6.M s n R > & . . & > -.v s s s s z z z s s s ",
"s s i s i i e l 7.7.N V <.~ > + . . + 6 ~ W k i r s s s s s s s ",
"s s i z z i r z N N z u.$.~ ; .   O # | *.@.g e i s s s s s s s ",
"s s z s s s s s s i z l Q J & . 1 _ ..8.8.4.m e i i s s s s s s ",
"s s z s s s s s s z >.c :.> @ 1 _ O.8.e.r.0.Z p i s s s s s s s ",
"s s z s s s s s s s n I J & O _ 8.w.r.t.t.t.7.N s s s s s s s s ",
"s s s s s s s s s s g L > + 3 4.e.r.r.r.r.t.q.N s s z z z s s s ",
"s s s s s s z i e s g -.: ; _ e.w.8.8.8.w.r.q.N s s s s s s s s ",
"s s s s r i i e i s g Y ; 2 X.e.8... . .O.8.0.m s s s s i s s s ",
"s s s s i e i e i p g L ; 2 ..w._ 1 O 1 _ 8.6.u s s s i r s s s ",
"s s s i i e i i p s g E , ; ..X.1 X X   2 O.9.s e s i r i s s s ",
"s s s s i i s s s s M [ K 2 .. .1 G G o $ ..5.m w s i w s a s s ",
"s s s s z s s s s j A #.! > | ..3 _ / G 4 ..5.m p i r u p s s s ",
"s s s s i s s s s s M 4.%.U -  ._ | / J 4 X.9.N s s u s s s s s ",
"s s s s s s s s s s M @.O.( ~ T - - ~ K 4 o.9.N s s s s s a s s ",
"s s s s z i i s s i k ) %.%.%.( K T } H ; X.4.N s j s s a w i s ",
"s s s s i e i s s z l ` ( ! %.%.%./ H @ 7 X.4.M z S j s s s s s ",
"s s s s s i s i z s s b L < T ~ K H o $ | =.X.h i z s s s s s s ",
"s s s s s s s z i s s g L > * X X X   - ..=.2.h e i s s i e s s ",
"s z s s s z z s i s s a E 6 = .     . 5 &.9.C s i e s i r i s s ",
"s s s z z y.D s z i s j ' T > & . . % 6 &.9.B i i e i i e i a s ",
"s s s j y.F y.j i z s p y Y , ; & & ; 8 X.#.I f i r r i u a s s ",
"s s s s D y.D s u i i e d ] T > ; ; 6 +.1.x q p z i i s s s s s ",
"s s s s z j z s i e i e p c R , : : 8 @.h w u z s s s s s s s s ",
"s s s s s s s s p e p p p k ] ^ 0 8 +.1.z i z i s s s s s s z s ",
"s s s s s s s s p u s s s j B ,.{ { 1.B s s s s s s s s z s s s ",
"s s s s s s s s s s s s s s s M M M M s s s s s s s z i i s s s "
};
