/* XPM */
static char *_e9486c8bdf649ccb8f38fb7418b868eZN5Ip0mjc4Fneow6[] = {
/* columns rows colors chars-per-pixel */
"128 128 30 1 ",
"  c None",
". c #2E1E22",
"X c #5C2E00",
"o c #6A1C30",
"O c #4D3B39",
"+ c #534721",
"@ c #77584A",
"# c #705654",
"$ c #767678",
"% c #964F00",
"& c #8B5E4A",
"* c #9D704C",
"= c #9D725D",
"- c #8F7772",
"; c #C79D00",
": c #FFD600",
"> c #FFFC00",
", c #D7906E",
"< c #C26C81",
"1 c #928A8C",
"2 c #B7A099",
"3 c #B7B7BB",
"4 c #DD8499",
"5 c #EEBE93",
"6 c #FFA3B9",
"7 c #FFE1AF",
"8 c gray85",
"9 c #D9D9DD",
"0 c gray95",
"q c white",
/* pixels */
"                                                                                                                                ",
"                                                                                                                                ",
"                                                                                                                                ",
"                                                                                                                                ",
"                                                $$$$$$$$$$$$$$$$$$$$$$$$$$$$$$$$$$$$                                            ",
"                                                $$$$$$$$$$$$$$$$$$$$$$$$$$$$$$$$$$$$                                            ",
"                                                $$$$$$$$$$$$$$$$$$$$$$$$$$$$$$$$$$$$                                            ",
"                                                $$$$$$$$$$$$$$$$$$$$$$$$$$$$$$$$$$$$                                            ",
"                                        $$$$$$$$333333339999999999999999999933333333$$$$$$$$                                    ",
"                                        $$$$$$$$333333339999999999999999999933333333$$$$$$$$                                    ",
"                                        $$$$$$$$333333339999999999999999999933333333$$$$$$$$                                    ",
"                                        $$$$$$$$333333339999999999999999999933333333$$$$$$$$                                    ",
"                                $$$$$$$$333399999999qqqqqqqqqqqqqqqqqqqqqqqqqqqq999999993333$$$$$$$$                            ",
"                                $$$$$$$$333399999999qqqqqqqqqqqqqqqqqqqqqqqqqqqq999999993333$$$$$$$$                            ",
"                                $$$$$$$$333399999999qqqqqqqqqqqqqqqqqqqqqqqqqqqq999999993333$$$$$$$$                            ",
"                                $$$$$$$$333399999999qqqqqqqqqqqqqqqqqqqqqqqqqqqq999999993333$$$$$$$$                            ",
"                            $$$$333399999999qqqqqqqqqqqqqqqqqqqqqqqqqqqqqqqqqqqqqqqqqqqq999999993333$$$$                        ",
"                            $$$$333399999999qqqqqqqqqqqqqqqqqqqqqqqqqqqqqqqqqqqqqqqqqqqq999999993333$$$$                        ",
"                            $$$$333399999999qqqqqqqqqqqqqqqqqqqqqqqqqqqqqqqqqqqqqqqqqqqq999999993333$$$$                        ",
"                            $$$$333399999999qqqqqqqqqqqqqqqqqqqqqqqqqqqqqqqqqqqqqqqqqqqq999999993333$$$$                        ",
"                        $$$$333399999999qqqqqqqqqqqqqqqqqqqqqqqqqqqqqqqqqqqqqqqqqqqqqqqqqqqq999999993333$$$$                    ",
"                        $$$$333399999999qqqqqqqqqqqqqqqqqqqqqqqqqqqqqqqqqqqqqqqqqqqqqqqqqqqq999999993333$$$$                    ",
"                        $$$$333399999999qqqqqqqqqqqqqqqqqqqqqqqqqqqqqqqqqqqqqqqqqqqqqqqqqqqq999999993333$$$$                    ",
"                        $$$$333399999999qqqqqqqqqqqqqqqqqqqqqqqqqqqqqqqqqqqqqqqqqqqqqqqqqqqq999999993333$$$$                    ",
"                    $$$$333399999999qqqqqqqqqqqqqqqqqqqqqqqqqqqqqqqqqqqqqqqqqqqqqqqqqqqqqqqqqqqq999999993333$$$$                ",
"                    $$$$333399999999qqqqqqqqqqqqqqqqqqqqqqqqqqqqqqqqqqqqqqqqqqqqqqqqqqqqqqqqqqqq999999993333$$$$                ",
"                    $$$$333399999999qqqqqqqqqqqqqqqqqqqqqqqqqqqqqqqqqqqqqqqqqqqqqqqqqqqqqqqqqqqq999999993333$$$$                ",
"                    $$$$333399999999qqqqqqqqqqqqqqqqqqqqqqqqqqqqqqqqqqqqqqqqqqqqqqqqqqqqqqqqqqqq999999993333$$$$                ",
"                    $$$$333399999999qqqqqqqqqqqqqqqqqqqqqqqqqqqq::::qqqqqqqqqqqqqqqqqqqqqqqqqqqq999999993333$$$$                ",
"                    $$$$333399999999qqqqqqqqqqqqqqqqqqqqqqqqqqqq::::qqqqqqqqqqqqqqqqqqqqqqqqqqqq999999993333$$$$                ",
"                    $$$$333399999999qqqqqqqqqqqqqqqqqqqqqqqqqqqq::::qqqqqqqqqqqqqqqqqqqqqqqqqqqq999999993333$$$$                ",
"                    $$$$333399999999qqqqqqqqqqqqqqqqqqqqqqqqqqqq::::qqqqqqqqqqqqqqqqqqqqqqqqqqqq999999993333$$$$                ",
"                    $$$$3333999999999999qqqqqqqqqqqq::::::::::::>>>>::::::::::::qqqqqqqqqqqq9999999999993333$$$$                ",
"                    $$$$3333999999999999qqqqqqqqqqqq::::::::::::>>>>::::::::::::qqqqqqqqqqqq9999999999993333$$$$                ",
"                    $$$$3333999999999999qqqqqqqqqqqq::::::::::::>>>>::::::::::::qqqqqqqqqqqq9999999999993333$$$$                ",
"                    $$$$3333999999999999qqqqqqqqqqqq::::::::::::>>>>::::::::::::qqqqqqqqqqqq9999999999993333$$$$                ",
"                        ;;;;33333333;;;;;;;;::::::::::::>>>>>>>>>>>>>>>>>>>>::::::::::::;;;;;;;;33333333;;;;                    ",
"                        ;;;;33333333;;;;;;;;::::::::::::>>>>>>>>>>>>>>>>>>>>::::::::::::;;;;;;;;33333333;;;;                    ",
"                        ;;;;33333333;;;;;;;;::::::::::::>>>>>>>>>>>>>>>>>>>>::::::::::::;;;;;;;;33333333;;;;                    ",
"                        ;;;;33333333;;;;;;;;::::::::::::>>>>>>>>>>>>>>>>>>>>::::::::::::;;;;;;;;33333333;;;;                    ",
"                        OOOO;;;;;;;;;;;;----####--------####------------####--------####----;;;;;;;;;;;;OOOO                    ",
"                        OOOO;;;;;;;;;;;;----####--------####------------####--------####----;;;;;;;;;;;;OOOO                    ",
"                        OOOO;;;;;;;;;;;;----####--------####------------####--------####----;;;;;;;;;;;;OOOO                    ",
"                        OOOO;;;;;;;;;;;;----####--------####------------####--------####----;;;;;;;;;;;;OOOO                    ",
"                    OOOO####--------####----####--------####------------####--------####----####--------####OOOO                ",
"                    OOOO####--------####----####--------####------------####--------####----####--------####OOOO                ",
"                    OOOO####--------####----####--------####------------####--------####----####--------####OOOO                ",
"                    OOOO####--------####----####--------####------------####--------####----####--------####OOOO                ",
"                    OOOO####------------####5555####################################5555####------------####OOOO                ",
"                    OOOO####------------####5555####################################5555####------------####OOOO                ",
"                    OOOO####------------####5555####################################5555####------------####OOOO                ",
"                    OOOO####------------####5555####################################5555####------------####OOOO                ",
"                    OOOO####------------5555++++++++++++77777777777777777777++++++++++++5555------------####OOOO                ",
"                    OOOO####------------5555++++++++++++77777777777777777777++++++++++++5555------------####OOOO                ",
"                    OOOO####------------5555++++++++++++77777777777777777777++++++++++++5555------------####OOOO                ",
"                    OOOO####------------5555++++++++++++77777777777777777777++++++++++++5555------------####OOOO                ",
"                    OOOO####------------++++8888....9999777777777777777777779999....8888++++------------####OOOO                ",
"                    OOOO####------------++++8888....9999777777777777777777779999....8888++++------------####OOOO                ",
"                    OOOO####------------++++8888....9999777777777777777777779999....8888++++------------####OOOO                ",
"                    OOOO####------------++++8888....9999777777777777777777779999....8888++++------------####OOOO                ",
"                OOOOOOOO####----2222----++++0000....1111777777777777777777771111....0000++++----2222----####OOOOOOOO            ",
"                OOOOOOOO####----2222----++++0000....1111777777777777777777771111....0000++++----2222----####OOOOOOOO            ",
"                OOOOOOOO####----2222----++++0000....1111777777777777777777771111....0000++++----2222----####OOOOOOOO            ",
"                OOOOOOOO####----2222----++++0000....1111777777777777777777771111....0000++++----2222----####OOOOOOOO            ",
"                OOOO####OOOO----2222----5555qqqqXXXXXXXX77777777777777777777XXXXXXXXqqqq5555----2222----OOOO####OOOO            ",
"                OOOO####OOOO----2222----5555qqqqXXXXXXXX77777777777777777777XXXXXXXXqqqq5555----2222----OOOO####OOOO            ",
"                OOOO####OOOO----2222----5555qqqqXXXXXXXX77777777777777777777XXXXXXXXqqqq5555----2222----OOOO####OOOO            ",
"                OOOO####OOOO----2222----5555qqqqXXXXXXXX77777777777777777777XXXXXXXXqqqq5555----2222----OOOO####OOOO            ",
"                OOOO####OOOO------------,,,,5555%%%%%%%%77777777777777777777%%%%%%%%5555,,,,------------OOOO########OOOO        ",
"                OOOO####OOOO------------,,,,5555%%%%%%%%77777777777777777777%%%%%%%%5555,,,,------------OOOO########OOOO        ",
"                OOOO####OOOO------------,,,,5555%%%%%%%%77777777777777777777%%%%%%%%5555,,,,------------OOOO########OOOO        ",
"                OOOO####OOOO------------,,,,5555%%%%%%%%77777777777777777777%%%%%%%%5555,,,,------------OOOO########OOOO        ",
"                OOOO####OOOO------------oooo,,,,555577777777777777777777777777775555,,,,oooo--------####OOOO########OOOO        ",
"                OOOO####OOOO------------oooo,,,,555577777777777777777777777777775555,,,,oooo--------####OOOO########OOOO        ",
"                OOOO####OOOO------------oooo,,,,555577777777777777777777777777775555,,,,oooo--------####OOOO########OOOO        ",
"                OOOO####OOOO------------oooo,,,,555577777777777777777777777777775555,,,,oooo--------####OOOO########OOOO        ",
"                OOOO####OOOO------------<<<<++++****,,,,55555555555555555555,,,,****++++------------OOOO####----########OOOO    ",
"                OOOO####OOOO------------<<<<++++****,,,,55555555555555555555,,,,****++++------------OOOO####----########OOOO    ",
"                OOOO####OOOO------------<<<<++++****,,,,55555555555555555555,,,,****++++------------OOOO####----########OOOO    ",
"                OOOO####OOOO------------<<<<++++****,,,,55555555555555555555,,,,****++++------------OOOO####----########OOOO    ",
"                OOOO####++++------------<<<<<<<<++++++++++++++++++++++++++++++++++++<<<<--------####OOOO########----####OOOO    ",
"                OOOO####++++------------<<<<<<<<++++++++++++++++++++++++++++++++++++<<<<--------####OOOO########----####OOOO    ",
"                OOOO####++++------------<<<<<<<<++++++++++++++++++++++++++++++++++++<<<<--------####OOOO########----####OOOO    ",
"                OOOO####++++------------<<<<<<<<++++++++++++++++++++++++++++++++++++<<<<--------####OOOO########----####OOOO    ",
"                OOOO++++;;;;####----99999999<<<<44444444<<<<<<<<<<<<<<<<<<<<44444444<<<<--------####$$$$########----####OOOO    ",
"                OOOO++++;;;;####----99999999<<<<44444444<<<<<<<<<<<<<<<<<<<<44444444<<<<--------####$$$$########----####OOOO    ",
"                OOOO++++;;;;####----99999999<<<<44444444<<<<<<<<<<<<<<<<<<<<44444444<<<<--------####$$$$########----####OOOO    ",
"                OOOO++++;;;;####----99999999<<<<44444444<<<<<<<<<<<<<<<<<<<<44444444<<<<--------####$$$$########----####OOOO    ",
"                    ++++****####----999933339999<<<<4444666666666666666666664444<<<<9999----####qqqq3333$$$$############OOOO    ",
"                    ++++****####----999933339999<<<<4444666666666666666666664444<<<<9999----####qqqq3333$$$$############OOOO    ",
"                    ++++****####----999933339999<<<<4444666666666666666666664444<<<<9999----####qqqq3333$$$$############OOOO    ",
"                    ++++****####----999933339999<<<<4444666666666666666666664444<<<<9999----####qqqq3333$$$$############OOOO    ",
"                    ++++****;;;;####3333$$$$33333333444444446666666666664444444433333333####qqqqqqqq9999$$$$########OOOO        ",
"                    ++++****;;;;####3333$$$$33333333444444446666666666664444444433333333####qqqqqqqq9999$$$$########OOOO        ",
"                    ++++****;;;;####3333$$$$33333333444444446666666666664444444433333333####qqqqqqqq9999$$$$########OOOO        ",
"                    ++++****;;;;####3333$$$$33333333444444446666666666664444444433333333####qqqqqqqq9999$$$$########OOOO        ",
"                        ++++;;;;33333333$$$$33333333;;;;99999999999999999999;;;;33333333++++::::>>>>9999$$$$OOOOOOOO            ",
"                        ++++;;;;33333333$$$$33333333;;;;99999999999999999999;;;;33333333++++::::>>>>9999$$$$OOOOOOOO            ",
"                        ++++;;;;33333333$$$$33333333;;;;99999999999999999999;;;;33333333++++::::>>>>9999$$$$OOOOOOOO            ",
"                        ++++;;;;33333333$$$$33333333;;;;99999999999999999999;;;;33333333++++::::>>>>9999$$$$OOOOOOOO            ",
"                        ++++;;;;3333$$$$$$$$99993333::::qqqqqqqqqqqqqqqqqqqq::::33339999++++77777777::::$$$$                    ",
"                        ++++;;;;3333$$$$$$$$99993333::::qqqqqqqqqqqqqqqqqqqq::::33339999++++77777777::::$$$$                    ",
"                        ++++;;;;3333$$$$$$$$99993333::::qqqqqqqqqqqqqqqqqqqq::::33339999++++77777777::::$$$$                    ",
"                        ++++;;;;3333$$$$$$$$99993333::::qqqqqqqqqqqqqqqqqqqq::::33339999++++77777777::::$$$$                    ",
"                            ++++$$$$$$$$333399999999>>>>qqqqqqqqqqqqqqqqqqqq::::99999999++++,,,,5555::::++++                    ",
"                            ++++$$$$$$$$333399999999>>>>qqqqqqqqqqqqqqqqqqqq::::99999999++++,,,,5555::::++++                    ",
"                            ++++$$$$$$$$333399999999>>>>qqqqqqqqqqqqqqqqqqqq::::99999999++++,,,,5555::::++++                    ",
"                            ++++$$$$$$$$333399999999>>>>qqqqqqqqqqqqqqqqqqqq::::99999999++++,,,,5555::::++++                    ",
"                                $$$$333399999999qqqq9999>>>>qqqqqqqqqqqqqqqq9999::::9999++++;;;;;;;;;;;;++++                    ",
"                                $$$$333399999999qqqq9999>>>>qqqqqqqqqqqqqqqq9999::::9999++++;;;;;;;;;;;;++++                    ",
"                                $$$$333399999999qqqq9999>>>>qqqqqqqqqqqqqqqq9999::::9999++++;;;;;;;;;;;;++++                    ",
"                                $$$$333399999999qqqq9999>>>>qqqqqqqqqqqqqqqq9999::::9999++++;;;;;;;;;;;;++++                    ",
"                                oooo<<<<9999qqqqqqqqqqqq>>>>qqqqqqqqqqqq99999999::::99993333++++;;;;++++                        ",
"                                oooo<<<<9999qqqqqqqqqqqq>>>>qqqqqqqqqqqq99999999::::99993333++++;;;;++++                        ",
"                                oooo<<<<9999qqqqqqqqqqqq>>>>qqqqqqqqqqqq99999999::::99993333++++;;;;++++                        ",
"                                oooo<<<<9999qqqqqqqqqqqq>>>>qqqqqqqqqqqq99999999::::99993333++++;;;;++++                        ",
"                                oooo444444446666666666666666>>>>>>>>>>>>::::::::444444444444oooo++++                            ",
"                                oooo444444446666666666666666>>>>>>>>>>>>::::::::444444444444oooo++++                            ",
"                                oooo444444446666666666666666>>>>>>>>>>>>::::::::444444444444oooo++++                            ",
"                                oooo444444446666666666666666>>>>>>>>>>>>::::::::444444444444oooo++++                            ",
"                                    oooooooo++++&&&&========@@@@4444444444444444oooooooooooo                                    ",
"                                    oooooooo++++&&&&========@@@@4444444444444444oooooooooooo                                    ",
"                                    oooooooo++++&&&&========@@@@4444444444444444oooooooooooo                                    ",
"                                    oooooooo++++&&&&========@@@@4444444444444444oooooooooooo                                    ",
"                                            ++++============@@@@oooooooooooooooo                                                ",
"                                            ++++============@@@@oooooooooooooooo                                                ",
"                                            ++++============@@@@oooooooooooooooo                                                ",
"                                            ++++============@@@@oooooooooooooooo                                                "
};
