/* XPM */
static char *_66a829bb9fb42ffa96ab8a2b6c19bd471wGIzXLGWyWSoSO[] = {
/* columns rows colors chars-per-pixel */
"32 32 30 1 ",
"  c None",
". c #2E1E22",
"X c #5C2E00",
"o c #6A1C30",
"O c #4D3B39",
"+ c #534721",
"@ c #77584A",
"# c #705654",
"$ c #767678",
"% c #964F00",
"& c #8B5E4A",
"* c #9D704C",
"= c #9D725D",
"- c #8F7772",
"; c #C79D00",
": c #FFD600",
"> c #FFFC00",
", c #D7906E",
"< c #C26C81",
"1 c #928A8C",
"2 c #B7A099",
"3 c #B7B7BB",
"4 c #DD8499",
"5 c #EEBE93",
"6 c #FFA3B9",
"7 c #FFE1AF",
"8 c gray85",
"9 c #D9D9DD",
"0 c gray95",
"q c white",
/* pixels */
"                                ",
"            $$$$$$$$$           ",
"          $$339999933$$         ",
"        $$399qqqqqqq993$$       ",
"       $399qqqqqqqqqqq993$      ",
"      $399qqqqqqqqqqqqq993$     ",
"     $399qqqqqqqqqqqqqqq993$    ",
"     $399qqqqqqq:qqqqqqq993$    ",
"     $3999qqq:::>:::qqq9993$    ",
"      ;33;;:::>>>>>:::;;33;     ",
"      O;;;-#--#---#--#-;;;O     ",
"     O#--#-#--#---#--#-#--#O    ",
"     O#---#5#########5#---#O    ",
"     O#---5+++77777+++5---#O    ",
"     O#---+8.9777779.8+---#O    ",
"    OO#-2-+0.1777771.0+-2-#OO   ",
"    O#O-2-5qXX77777XXq5-2-O#O   ",
"    O#O---,5%%77777%%5,---O##O  ",
"    O#O---o,577777775,o--#O##O  ",
"    O#O---<+*,55555,*+---O#-##O ",
"    O#+---<<+++++++++<--#O##-#O ",
"    O+;#-99<44<<<<<44<--#$##-#O ",
"     +*#-939<4666664<9-#q3$###O ",
"     +*;#3$33446664433#qq9$##O  ",
"      +;33$33;99999;33+:>9$OO   ",
"      +;3$$93:qqqqq:39+77:$     ",
"       +$$399>qqqqq:99+,5:+     ",
"        $399q9>qqqq9:9+;;;+     ",
"        o<9qqq>qqq99:93+;+      ",
"        o446666>>>::444o+       ",
"         oo+&==@4444ooo         ",
"           +===@oooo            "
};
