/* XPM */
static char *result[] = {
/* columns rows colors chars-per-pixel */
"32 32 199 2 ",
"   c #74BE2C",
".  c #73BE2B",
"X  c #73BD2C",
"o  c #70B82A",
"O  c #75BE2E",
"+  c #7DC13C",
"@  c #71BA2A",
"#  c #59981D",
"$  c #89C44D",
"%  c #BDD296",
"&  c #6EB728",
"*  c #60A61E",
"=  c #7DC13D",
"-  c #D6D36A",
";  c #70B929",
":  c #5DA21B",
">  c #6DB627",
",  c #73BC2C",
"<  c #74BE2D",
"1  c #76BE30",
"2  c #5DA31B",
"3  c #6DB527",
"4  c #5DA21C",
"5  c #6FB72A",
"6  c #70B52D",
"7  c #74BD2E",
"8  c #75BE2D",
"9  c #81BE46",
"0  c #73BD2B",
"q  c #5DA11C",
"w  c #6FB729",
"e  c #6DB02B",
"r  c #6FB32D",
"t  c #74BC2E",
"y  c #73BB2C",
"u  c #6CB02B",
"i  c #73BC2B",
"p  c #74BF2B",
"a  c #75BF2C",
"s  c #8AC44D",
"d  c #68AB2E",
"f  c #72BB2C",
"g  c #70B62D",
"h  c #5CA11C",
"j  c #5D9B30",
"k  c #173043",
"l  c #173045",
"z  c #5E9B31",
"x  c #6FB42D",
"c  c #69AC29",
"v  c #5FA31E",
"b  c #5E9C30",
"n  c #162F47",
"m  c #001470",
"M  c #001682",
"N  c #16304E",
"B  c #6DB12B",
"V  c #162F48",
"C  c #00136D",
"Z  c #00157C",
"A  c #001993",
"S  c #001886",
"D  c #16304D",
"F  c #74BD2C",
"G  c #71BB2A",
"H  c #001577",
"J  c #001578",
"K  c #00188D",
"L  c #001A96",
"P  c #5E9C31",
"I  c #5E9B30",
"U  c #162F45",
"Y  c #00136C",
"T  c #001575",
"R  c #031770",
"E  c #031776",
"W  c #00198D",
"Q  c #001785",
"!  c #64A32F",
"~  c #183041",
"^  c #031567",
"/  c #03187E",
"(  c #001574",
")  c #031670",
"_  c #142FAD",
"`  c #152FAE",
"'  c #061B7E",
"]  c #001990",
"[  c #001264",
"{  c #183140",
"}  c #65A82C",
"|  c #61A71D",
" . c #70B42D",
".. c #65A62E",
"X. c #10244E",
"o. c #1731B3",
"O. c #1833B8",
"+. c #001474",
"@. c #031981",
"#. c #061D8A",
"$. c #122CA6",
"%. c #031775",
"&. c #001688",
"*. c #0D2048",
"=. c #65A72E",
"-. c #6EB727",
";. c #66A82D",
":. c #11264F",
">. c #1A35BE",
",. c #1B38C2",
"<. c #04176F",
"1. c #001579",
"2. c #03187D",
"3. c #001369",
"4. c #00178D",
"5. c #0D2049",
"6. c #62A02F",
"7. c #66A92D",
"8. c #1B37C1",
"9. c #001268",
"0. c #0D2248",
"q. c #64A62D",
"w. c #001475",
"e. c #001368",
"r. c #00178C",
"t. c #0F224B",
"y. c #70AC3F",
"u. c #76BE2F",
"i. c #72BA2C",
"p. c #182559",
"a. c #A3BA95",
"s. c #7FC23D",
"d. c #1B38C1",
"f. c #77C02F",
"g. c #66A82E",
"h. c #1834BB",
"j. c #031773",
"k. c #001473",
"l. c #00136A",
"z. c #001687",
"x. c #0D2148",
"c. c #75BF2B",
"v. c #162E40",
"b. c #03156A",
"n. c #031C96",
"m. c #00136E",
"M. c #001161",
"N. c #162D40",
"B. c #74BE2B",
"V. c #70B82B",
"C. c #4C802A",
"Z. c #112746",
"A. c #001784",
"S. c #00188C",
"D. c #001267",
"F. c #112743",
"G. c #71B82B",
"H. c #71BA2B",
"J. c #5E9A24",
"K. c #497B29",
"L. c #12294C",
"P. c #001786",
"I. c #112846",
"U. c #71B92B",
"Y. c #609E25",
"T. c #599222",
"R. c #477827",
"E. c #11284B",
"W. c #5B9623",
"Q. c #609F25",
"!. c #7DC03C",
"~. c #70BA29",
"^. c #6DB329",
"/. c #4F851D",
"(. c #4A7F17",
"). c #477927",
"_. c #72BB2B",
"`. c #60A61D",
"'. c #579819",
"]. c #5A9620",
"[. c #5A9423",
"{. c #122843",
"}. c #122841",
"|. c #6EB52A",
" X c #70B829",
".X c #6AAF28",
"XX c #5E9826",
"oX c #5C9824",
"OX c #528826",
"+X c #5F9928",
"@X c #619F26",
"#X c #6EB32D",
"$X c #70B82C",
"%X c #6FB62A",
"&X c #619F24",
"*X c #639F29",
"=X c #7CB644",
"-X c #74BA2F",
";X c white",
/* pixels */
"                                                      .         ",
"                                        X o X       O + O       ",
"                  @ X                   o # o     O $ % $ O     ",
"        X @     & * @                   X o X   . = % - % = .   ",
"        @ * & ; : > ,   .   < 1 <                 O $ % $ O     ",
"        , > 2 3 4 5 6 7 = 8 1 9 1   X @         @ 0 O = O       ",
"      X 6 5 q w e r t $ % $ O 1 <   @ * &     & * @   .         ",
"        y r u , X i = % - % = p a   , > : @ @ : > ,             ",
"  < 1 <   , X       O $ % s 7 d d f g 5 h > ; q 5 6 X           ",
"  1 9 1               O = O j k l z f x c v o u r y             ",
"  < 1 <                 0 b n m M N b , f B , X ,   < 1 <       ",
"                @ X     b V C Z A S D b   F         1 9 1       ",
"      X @     & * G   b V C H J K L S D P           < 1 8       ",
"      @ * & ; : > f I U Y J T R E W L Q V I , @         @ X     ",
"      , > 2 3 4 o ! ~ ^ / ( ) _ ` ' W ] [ { } | &     & * @     ",
"    X 6 5 q w e  ...X.o.O.) +.@.#.$.%.] &.*.=.-.: @ @ : > ,     ",
"      y r u , X   ;.:.>.,.<.+.J 1.2.3.] 4.5.6.o q ; > h 5 6 X   ",
"        , X     a 7.:.>.8.<.+.J J +.9.] 4.0.q.x u o v c r y     ",
"                a 7.:.>.8.<.+.J J w.e.] r.t.y.u.X , B i.X       ",
"                a 7.:.>.8.<.+.J J w.e.] r.p.a.s..   F   X o X   ",
"        X o X   a 7.:.>.d.<.+.J J w.e.] 4.t.y.f.< 1 <   o # o   ",
"        o # o   a g.X.o.h.j.k.J J k.l.W z.x.7.c.1 9 1   X o X   ",
"        X o X   a d v.b.n.W m.k.k.3.+.1.M.N.d p @ 1 <     G F   ",
"          B.      V.C.Z.A.L S.Y D.k.J C F.C.G.G * -.    & * @   ",
"        O = O     H.J.K.L.P.L W J J C I.K.J.U.X > : @ @ : > ,   ",
"      O $ % $ O   H.Y.T.R.E.P.A Z C I.K.W.Q.G.g 5 h > ; q 5 6 , ",
"    . = % - % !.~.  ^./.(.).L.M m I.K.W.Y.5   y r c v o u r y   ",
"      O $ % s _.`.& ; '.].[.K.{.}.K.W.Y.|. XX   X i.B , X ,     ",
"        O = O , > 2 3 4 .XXXoXOXOX+X@X5  X# o       F           ",
"          . X 6 5 q w B #X$X%X&X*X=X-X  X o X                   ",
"              y r u , X ,     H.i.1 8                           ",
"                , ,                                             "
};
