/* XPM */
static char *result[] = {
/* columns rows colors chars-per-pixel */
"128 128 16 1 ",
"  c #427610",
". c #467D12",
"X c #48761C",
"o c #000B41",
"O c #00115F",
"+ c #001578",
"@ c #539614",
"# c #568A25",
"$ c #5B9623",
"% c #6DAF2E",
"& c #74BE2C",
"* c #D7CF22",
"= c #8ABE58",
"- c #001A96",
"; c #1E3CCD",
": c gainsboro",
/* pixels */
"&&&&&&&&&&&&&&&&&&&&&&&&&&&&&&&&&&&&&&&&&&&&&&&&&&&&&&&&&&&&&&&&&&&&&&&&&&&&&&&&&&&&&&&&&&&&&&&&&&&&&&&&&&&&&&&&&&&&&&&&&&&&&&&&",
"&&&&&&&&&&&&&&&&&&&&&&&&&&&&&&&&&&&&&&&&&&&&&&&&&&&&&&&&&&&&&&&&&&&&&&&&&&&&&&&&&&&&&&&&&&&&&&&&&&&&&&&&&&&&&&&&&&&&&&&&&&&&&&&&",
"&&&&&&&&&&&&&&&&&&&&&&&&&&&&&&&&&&&&&&&&&&&&&&&&&&&&&&&&&&&&&&&&&&&&&&&&&&&&&&&&&&&&&&&&&&&&&&&&&&&&&&&&&&&&&&&&&&&&&&&&&&&&&&&&",
"&&&&&&&&&&&&&&&&&&&&&&&&&&&&&&&&&&&&&&&&&&&&&&&&&&&&&&&&&&&&&&&&&&&&&&&&&&&&&&&&&&&&&&&&&&&&&&&&&&&&&&&&&&&&&&&&&&&&&&&&&&&&&&&&",
"&&&&&&&&&&&&&&&&&&&&&&&&&&&&&&&&&&&&&&&&&&&&&&&&&&&&&&&&&&&&&&&&&&&&&&&&&&&&&&&&&&&&&&&&&&&&&&&&&&&&&&&&&&&&&&&&&&&&&&&&&&&&&&&&",
"&&&&&&&&&&&&&&&&&&&&&&&&&&&&&&&&&&&&&&&&&&&&&&&&&&&&&&&&&&&&&&&&&&&&&&&&&&&&&&&&&&&&&&&&&&&&&&&&&&&&&&&&&&&&&&&&&&&&&&&&&&&&&&&&",
"&&&&&&&&&&&&&&&&&&&&&&&&&&&&&&&&&&&&&&&&&&&&&&&&&&&&&&&&&&&&&&&&&&&&&&&&&&&&&&&&&&&&&&&&&&&&&&&&&&&&&&&&&&&&&&&&&&&&&&&&&&&&&&&&",
"&&&&&&&&&&&&&&&&&&&&&&&&&&&&&&&&&&&&&&&&&&&&&&&&&&&&&&&&&&&&&&&&&&&&&&&&&&&&&&&&&&&&&&&&&&&&&&&&&&&&&&&&&&&&&&&&&&&&&&&&&&&&&&&&",
"&&&&&&&&&&&&&&&&&&&&&&&&&&&&&&&&&&&&&&&&&&&&&&&&&&&&&&&&&&&&&&&&&&&&&&&&&&&&&&&&&&&&....&&&&&&&&&&&&&&&&&&&&::::&&&&&&&&&&&&&&&&",
"&&&&&&&&&&&&&&&&&&&&&&&&&&&&&&&&&&&&&&&&&&&&&&&&&&&&&&&&&&&&&&&&&&&&&&&&&&&&&&&&&&&&....&&&&&&&&&&&&&&&&&&&&::::&&&&&&&&&&&&&&&&",
"&&&&&&&&&&&&&&&&&&&&&&&&&&&&&&&&&&&&&&&&&&&&&&&&&&&&&&&&&&&&&&&&&&&&&&&&&&&&&&&&&&&&....&&&&&&&&&&&&&&&&&&&&::::&&&&&&&&&&&&&&&&",
"&&&&&&&&&&&&&&&&&&&&&&&&&&&&&&&&&&&&&&&&&&&&&&&&&&&&&&&&&&&&&&&&&&&&&&&&&&&&&&&&&&&&....&&&&&&&&&&&&&&&&&&&&::::&&&&&&&&&&&&&&&&",
"&&&&&&&&&&&&&&&&&&&&&&&&&&&&&&&&&&&&@@@@&&&&&&&&&&&&&&&&&&&&&&&&&&&&&&&&&&&&&&&&&&&&&&&&&&&&&&&&&&&&&&&&::::****::::&&&&&&&&&&&&",
"&&&&&&&&&&&&&&&&&&&&&&&&&&&&&&&&&&&&@@@@&&&&&&&&&&&&&&&&&&&&&&&&&&&&&&&&&&&&&&&&&&&&&&&&&&&&&&&&&&&&&&&&::::****::::&&&&&&&&&&&&",
"&&&&&&&&&&&&&&&&&&&&&&&&&&&&&&&&&&&&@@@@&&&&&&&&&&&&&&&&&&&&&&&&&&&&&&&&&&&&&&&&&&&&&&&&&&&&&&&&&&&&&&&&::::****::::&&&&&&&&&&&&",
"&&&&&&&&&&&&&&&&&&&&&&&&&&&&&&&&&&&&@@@@&&&&&&&&&&&&&&&&&&&&&&&&&&&&&&&&&&&&&&&&&&&&&&&&&&&&&&&&&&&&&&&&::::****::::&&&&&&&&&&&&",
"&&&&&&&&&&&&&&&&&&&&@@@@&&&&&&&&@@@@&&&&&&&&&&&&&&&&&&&&&&&&&&&&&&&&&&&&&&&&&&&&&&&&&&&&&&&&&&&&&&&&&&&&&&&&::::&&&&&&&&&&&&&&&&",
"&&&&&&&&&&&&&&&&&&&&@@@@&&&&&&&&@@@@&&&&&&&&&&&&&&&&&&&&&&&&&&&&&&&&&&&&&&&&&&&&&&&&&&&&&&&&&&&&&&&&&&&&&&&&::::&&&&&&&&&&&&&&&&",
"&&&&&&&&&&&&&&&&&&&&@@@@&&&&&&&&@@@@&&&&&&&&&&&&&&&&&&&&&&&&&&&&&&&&&&&&&&&&&&&&&&&&&&&&&&&&&&&&&&&&&&&&&&&&::::&&&&&&&&&&&&&&&&",
"&&&&&&&&&&&&&&&&&&&&@@@@&&&&&&&&@@@@&&&&&&&&&&&&&&&&&&&&&&&&&&&&&&&&&&&&&&&&&&&&&&&&&&&&&&&&&&&&&&&&&&&&&&&&::::&&&&&&&&&&&&&&&&",
"&&&&&&&&&&&&&&&&&&&&&&&&@@@@&&&&@@@@&&&&%%%%&&&&&&&&&&&&&&&&====&&&&&&&&&&&&&&&&&&&&&&&&&&&&&&&&&&&&&&&&&&&&&&&&&&&&&&&&&&&&&&&&",
"&&&&&&&&&&&&&&&&&&&&&&&&@@@@&&&&@@@@&&&&%%%%&&&&&&&&&&&&&&&&====&&&&&&&&&&&&&&&&&&&&&&&&&&&&&&&&&&&&&&&&&&&&&&&&&&&&&&&&&&&&&&&&",
"&&&&&&&&&&&&&&&&&&&&&&&&@@@@&&&&@@@@&&&&%%%%&&&&&&&&&&&&&&&&====&&&&&&&&&&&&&&&&&&&&&&&&&&&&&&&&&&&&&&&&&&&&&&&&&&&&&&&&&&&&&&&&",
"&&&&&&&&&&&&&&&&&&&&&&&&@@@@&&&&@@@@&&&&%%%%&&&&&&&&&&&&&&&&====&&&&&&&&&&&&&&&&&&&&&&&&&&&&&&&&&&&&&&&&&&&&&&&&&&&&&&&&&&&&&&&&",
"&&&&&&&&&&&&&&&&%%%%&&&&@@@@&&&&%%%%%%%%&&&&&&&&::::&&&&&&&&&&&&&&&&&&&&&&&&@@@@&&&&&&&&&&&&&&&&@@@@&&&&&&&&&&&&&&&&&&&&&&&&&&&&",
"&&&&&&&&&&&&&&&&%%%%&&&&@@@@&&&&%%%%%%%%&&&&&&&&::::&&&&&&&&&&&&&&&&&&&&&&&&@@@@&&&&&&&&&&&&&&&&@@@@&&&&&&&&&&&&&&&&&&&&&&&&&&&&",
"&&&&&&&&&&&&&&&&%%%%&&&&@@@@&&&&%%%%%%%%&&&&&&&&::::&&&&&&&&&&&&&&&&&&&&&&&&@@@@&&&&&&&&&&&&&&&&@@@@&&&&&&&&&&&&&&&&&&&&&&&&&&&&",
"&&&&&&&&&&&&&&&&%%%%&&&&@@@@&&&&%%%%%%%%&&&&&&&&::::&&&&&&&&&&&&&&&&&&&&&&&&@@@@&&&&&&&&&&&&&&&&@@@@&&&&&&&&&&&&&&&&&&&&&&&&&&&&",
"&&&&&&&&&&&&&&&&&&&&%%%%%%%%&&&&&&&&&&&&&&&&::::****::::&&&&&&&&&&&&&&&&&&&&&&&&@@@@&&&&&&&&@@@@&&&&&&&&&&&&&&&&&&&&&&&&&&&&&&&&",
"&&&&&&&&&&&&&&&&&&&&%%%%%%%%&&&&&&&&&&&&&&&&::::****::::&&&&&&&&&&&&&&&&&&&&&&&&@@@@&&&&&&&&@@@@&&&&&&&&&&&&&&&&&&&&&&&&&&&&&&&&",
"&&&&&&&&&&&&&&&&&&&&%%%%%%%%&&&&&&&&&&&&&&&&::::****::::&&&&&&&&&&&&&&&&&&&&&&&&@@@@&&&&&&&&@@@@&&&&&&&&&&&&&&&&&&&&&&&&&&&&&&&&",
"&&&&&&&&&&&&&&&&&&&&%%%%%%%%&&&&&&&&&&&&&&&&::::****::::&&&&&&&&&&&&&&&&&&&&&&&&@@@@&&&&&&&&@@@@&&&&&&&&&&&&&&&&&&&&&&&&&&&&&&&&",
"&&&&&&&&&&&&&&&&&&&&&&&&&&&&&&&&&&&&&&&&&&&&&&&&::::&&&&&&&&&&&&&&&&&&&&%%%%&&&&@@@@&&&&&&&&@@@@&&&&%%%%&&&&&&&&&&&&&&&&&&&&&&&&",
"&&&&&&&&&&&&&&&&&&&&&&&&&&&&&&&&&&&&&&&&&&&&&&&&::::&&&&&&&&&&&&&&&&&&&&%%%%&&&&@@@@&&&&&&&&@@@@&&&&%%%%&&&&&&&&&&&&&&&&&&&&&&&&",
"&&&&&&&&&&&&&&&&&&&&&&&&&&&&&&&&&&&&&&&&&&&&&&&&::::&&&&&&&&&&&&&&&&&&&&%%%%&&&&@@@@&&&&&&&&@@@@&&&&%%%%&&&&&&&&&&&&&&&&&&&&&&&&",
"&&&&&&&&&&&&&&&&&&&&&&&&&&&&&&&&&&&&&&&&&&&&&&&&::::&&&&&&&&&&&&&&&&&&&&%%%%&&&&@@@@&&&&&&&&@@@@&&&&%%%%&&&&&&&&&&&&&&&&&&&&&&&&",
"&&&&&&&&====&&&&&&&&&&&&&&&&&&&&&&&&&&&&&&&&&&&&&&&&&&&&&&&&oooooooo&&&&&&&&%%%%%%%%@@@@&&&&%%%%%%%%&&&&&&&&&&&&&&&&&&&&&&&&&&&&",
"&&&&&&&&====&&&&&&&&&&&&&&&&&&&&&&&&&&&&&&&&&&&&&&&&&&&&&&&&oooooooo&&&&&&&&%%%%%%%%@@@@&&&&%%%%%%%%&&&&&&&&&&&&&&&&&&&&&&&&&&&&",
"&&&&&&&&====&&&&&&&&&&&&&&&&&&&&&&&&&&&&&&&&&&&&&&&&&&&&&&&&oooooooo&&&&&&&&%%%%%%%%@@@@&&&&%%%%%%%%&&&&&&&&&&&&&&&&&&&&&&&&&&&&",
"&&&&&&&&====&&&&&&&&&&&&&&&&&&&&&&&&&&&&&&&&&&&&&&&&&&&&&&&&oooooooo&&&&&&&&%%%%%%%%@@@@&&&&%%%%%%%%&&&&&&&&&&&&&&&&&&&&&&&&&&&&",
"&&&&&&&&&&&&&&&&&&&&&&&&&&&&&&&&&&&&&&&&&&&&&&&&&&&&&&&&oooo++++----oooo&&&&&&&&&&&&%%%%&&&&&&&&&&&&&&&&&&&&&&&&&&&&&&&&&&&&&&&&",
"&&&&&&&&&&&&&&&&&&&&&&&&&&&&&&&&&&&&&&&&&&&&&&&&&&&&&&&&oooo++++----oooo&&&&&&&&&&&&%%%%&&&&&&&&&&&&&&&&&&&&&&&&&&&&&&&&&&&&&&&&",
"&&&&&&&&&&&&&&&&&&&&&&&&&&&&&&&&&&&&&&&&&&&&&&&&&&&&&&&&oooo++++----oooo&&&&&&&&&&&&%%%%&&&&&&&&&&&&&&&&&&&&&&&&&&&&&&&&&&&&&&&&",
"&&&&&&&&&&&&&&&&&&&&&&&&&&&&&&&&&&&&&&&&&&&&&&&&&&&&&&&&oooo++++----oooo&&&&&&&&&&&&%%%%&&&&&&&&&&&&&&&&&&&&&&&&&&&&&&&&&&&&&&&&",
"&&&&&&&&&&&&&&&&&&&&&&&&&&&&&&&&&&&&&&&&&&&&&&&&&&&&oooo++++++++--------oooo&&&&&&&&&&&&&&&&&&&&&&&&&&&&&&&&====&&&&&&&&&&&&&&&&",
"&&&&&&&&&&&&&&&&&&&&&&&&&&&&&&&&&&&&&&&&&&&&&&&&&&&&oooo++++++++--------oooo&&&&&&&&&&&&&&&&&&&&&&&&&&&&&&&&====&&&&&&&&&&&&&&&&",
"&&&&&&&&&&&&&&&&&&&&&&&&&&&&&&&&&&&&&&&&&&&&&&&&&&&&oooo++++++++--------oooo&&&&&&&&&&&&&&&&&&&&&&&&&&&&&&&&====&&&&&&&&&&&&&&&&",
"&&&&&&&&&&&&&&&&&&&&&&&&&&&&&&&&&&&&&&&&&&&&&&&&&&&&oooo++++++++--------oooo&&&&&&&&&&&&&&&&&&&&&&&&&&&&&&&&====&&&&&&&&&&&&&&&&",
"&&&&&&&&&&&&&&&&&&&&&&&&&&&&&&&&@@@@&&&&&&&&&&&&oooo++++++++++++------------oooo&&&&&&&&&&&&&&&&&&&&&&&&&&&&&&&&&&&&&&&&&&&&&&&&",
"&&&&&&&&&&&&&&&&&&&&&&&&&&&&&&&&@@@@&&&&&&&&&&&&oooo++++++++++++------------oooo&&&&&&&&&&&&&&&&&&&&&&&&&&&&&&&&&&&&&&&&&&&&&&&&",
"&&&&&&&&&&&&&&&&&&&&&&&&&&&&&&&&@@@@&&&&&&&&&&&&oooo++++++++++++------------oooo&&&&&&&&&&&&&&&&&&&&&&&&&&&&&&&&&&&&&&&&&&&&&&&&",
"&&&&&&&&&&&&&&&&&&&&&&&&&&&&&&&&@@@@&&&&&&&&&&&&oooo++++++++++++------------oooo&&&&&&&&&&&&&&&&&&&&&&&&&&&&&&&&&&&&&&&&&&&&&&&&",
"&&&&&&&&&&&&&&&&@@@@&&&&&&&&@@@@&&&&&&&&&&&&oooo++++++++++++OOOOOOOO------------oooo&&&&&&&&&&&&&&&&&&&&&&&&&&&&&&&&&&&&&&&&&&&&",
"&&&&&&&&&&&&&&&&@@@@&&&&&&&&@@@@&&&&&&&&&&&&oooo++++++++++++OOOOOOOO------------oooo&&&&&&&&&&&&&&&&&&&&&&&&&&&&&&&&&&&&&&&&&&&&",
"&&&&&&&&&&&&&&&&@@@@&&&&&&&&@@@@&&&&&&&&&&&&oooo++++++++++++OOOOOOOO------------oooo&&&&&&&&&&&&&&&&&&&&&&&&&&&&&&&&&&&&&&&&&&&&",
"&&&&&&&&&&&&&&&&@@@@&&&&&&&&@@@@&&&&&&&&&&&&oooo++++++++++++OOOOOOOO------------oooo&&&&&&&&&&&&&&&&&&&&&&&&&&&&&&&&&&&&&&&&&&&&",
"&&&&&&&&&&&&&&&&&&&&@@@@&&&&@@@@&&&&%%%%ooooOOOO++++++++OOOO;;;;;;;;OOOO--------OOOOoooo&&&&@@@@&&&&&&&&&&&&&&&&@@@@&&&&&&&&&&&&",
"&&&&&&&&&&&&&&&&&&&&@@@@&&&&@@@@&&&&%%%%ooooOOOO++++++++OOOO;;;;;;;;OOOO--------OOOOoooo&&&&@@@@&&&&&&&&&&&&&&&&@@@@&&&&&&&&&&&&",
"&&&&&&&&&&&&&&&&&&&&@@@@&&&&@@@@&&&&%%%%ooooOOOO++++++++OOOO;;;;;;;;OOOO--------OOOOoooo&&&&@@@@&&&&&&&&&&&&&&&&@@@@&&&&&&&&&&&&",
"&&&&&&&&&&&&&&&&&&&&@@@@&&&&@@@@&&&&%%%%ooooOOOO++++++++OOOO;;;;;;;;OOOO--------OOOOoooo&&&&@@@@&&&&&&&&&&&&&&&&@@@@&&&&&&&&&&&&",
"&&&&&&&&&&&&%%%%&&&&@@@@&&&&%%%%%%%%&&&&oooo;;;;;;;;OOOO++++++++++++;;;;OOOO--------oooo&&&&&&&&@@@@&&&&&&&&@@@@&&&&&&&&&&&&&&&&",
"&&&&&&&&&&&&%%%%&&&&@@@@&&&&%%%%%%%%&&&&oooo;;;;;;;;OOOO++++++++++++;;;;OOOO--------oooo&&&&&&&&@@@@&&&&&&&&@@@@&&&&&&&&&&&&&&&&",
"&&&&&&&&&&&&%%%%&&&&@@@@&&&&%%%%%%%%&&&&oooo;;;;;;;;OOOO++++++++++++;;;;OOOO--------oooo&&&&&&&&@@@@&&&&&&&&@@@@&&&&&&&&&&&&&&&&",
"&&&&&&&&&&&&%%%%&&&&@@@@&&&&%%%%%%%%&&&&oooo;;;;;;;;OOOO++++++++++++;;;;OOOO--------oooo&&&&&&&&@@@@&&&&&&&&@@@@&&&&&&&&&&&&&&&&",
"&&&&&&&&&&&&&&&&%%%%%%%%&&&&&&&&&&&&&&&&oooo;;;;;;;;OOOO++++++++++++++++OOOO--------oooo%%%%&&&&@@@@&&&&&&&&@@@@&&&&%%%%&&&&&&&&",
"&&&&&&&&&&&&&&&&%%%%%%%%&&&&&&&&&&&&&&&&oooo;;;;;;;;OOOO++++++++++++++++OOOO--------oooo%%%%&&&&@@@@&&&&&&&&@@@@&&&&%%%%&&&&&&&&",
"&&&&&&&&&&&&&&&&%%%%%%%%&&&&&&&&&&&&&&&&oooo;;;;;;;;OOOO++++++++++++++++OOOO--------oooo%%%%&&&&@@@@&&&&&&&&@@@@&&&&%%%%&&&&&&&&",
"&&&&&&&&&&&&&&&&%%%%%%%%&&&&&&&&&&&&&&&&oooo;;;;;;;;OOOO++++++++++++++++OOOO--------oooo%%%%&&&&@@@@&&&&&&&&@@@@&&&&%%%%&&&&&&&&",
"&&&&&&&&&&&&&&&&&&&&&&&&&&&&&&&&&&&&&&&&oooo;;;;;;;;OOOO++++++++++++++++OOOO--------oooo&&&&%%%%%%%%&&&&@@@@%%%%%%%%&&&&&&&&&&&&",
"&&&&&&&&&&&&&&&&&&&&&&&&&&&&&&&&&&&&&&&&oooo;;;;;;;;OOOO++++++++++++++++OOOO--------oooo&&&&%%%%%%%%&&&&@@@@%%%%%%%%&&&&&&&&&&&&",
"&&&&&&&&&&&&&&&&&&&&&&&&&&&&&&&&&&&&&&&&oooo;;;;;;;;OOOO++++++++++++++++OOOO--------oooo&&&&%%%%%%%%&&&&@@@@%%%%%%%%&&&&&&&&&&&&",
"&&&&&&&&&&&&&&&&&&&&&&&&&&&&&&&&&&&&&&&&oooo;;;;;;;;OOOO++++++++++++++++OOOO--------oooo&&&&%%%%%%%%&&&&@@@@%%%%%%%%&&&&&&&&&&&&",
"&&&&&&&&&&&&&&&&&&&&&&&&&&&&&&&&&&&&&&&&oooo;;;;;;;;OOOO++++++++++++++++OOOO--------oooo&&&&&&&&&&&&&&&&%%%%&&&&&&&&&&&&&&&&&&&&",
"&&&&&&&&&&&&&&&&&&&&&&&&&&&&&&&&&&&&&&&&oooo;;;;;;;;OOOO++++++++++++++++OOOO--------oooo&&&&&&&&&&&&&&&&%%%%&&&&&&&&&&&&&&&&&&&&",
"&&&&&&&&&&&&&&&&&&&&&&&&&&&&&&&&&&&&&&&&oooo;;;;;;;;OOOO++++++++++++++++OOOO--------oooo&&&&&&&&&&&&&&&&%%%%&&&&&&&&&&&&&&&&&&&&",
"&&&&&&&&&&&&&&&&&&&&&&&&&&&&&&&&&&&&&&&&oooo;;;;;;;;OOOO++++++++++++++++OOOO--------oooo&&&&&&&&&&&&&&&&%%%%&&&&&&&&&&&&&&&&&&&&",
"&&&&&&&&&&&&&&&&&&&&&&&&&&&&&&&&&&&&&&&&oooo;;;;;;;;OOOO++++++++++++++++OOOO--------oooo::::&&&&&&&&&&&&&&&&&&&&&&&&&&&&&&&&&&&&",
"&&&&&&&&&&&&&&&&&&&&&&&&&&&&&&&&&&&&&&&&oooo;;;;;;;;OOOO++++++++++++++++OOOO--------oooo::::&&&&&&&&&&&&&&&&&&&&&&&&&&&&&&&&&&&&",
"&&&&&&&&&&&&&&&&&&&&&&&&&&&&&&&&&&&&&&&&oooo;;;;;;;;OOOO++++++++++++++++OOOO--------oooo::::&&&&&&&&&&&&&&&&&&&&&&&&&&&&&&&&&&&&",
"&&&&&&&&&&&&&&&&&&&&&&&&&&&&&&&&&&&&&&&&oooo;;;;;;;;OOOO++++++++++++++++OOOO--------oooo::::&&&&&&&&&&&&&&&&&&&&&&&&&&&&&&&&&&&&",
"&&&&&&&&&&&&&&&&&&&&&&&&&&&&&&&&&&&&&&&&oooo;;;;;;;;OOOO++++++++++++++++OOOO--------oooo&&&&&&&&&&&&&&&&&&&&&&&&&&&&....&&&&&&&&",
"&&&&&&&&&&&&&&&&&&&&&&&&&&&&&&&&&&&&&&&&oooo;;;;;;;;OOOO++++++++++++++++OOOO--------oooo&&&&&&&&&&&&&&&&&&&&&&&&&&&&....&&&&&&&&",
"&&&&&&&&&&&&&&&&&&&&&&&&&&&&&&&&&&&&&&&&oooo;;;;;;;;OOOO++++++++++++++++OOOO--------oooo&&&&&&&&&&&&&&&&&&&&&&&&&&&&....&&&&&&&&",
"&&&&&&&&&&&&&&&&&&&&&&&&&&&&&&&&&&&&&&&&oooo;;;;;;;;OOOO++++++++++++++++OOOO--------oooo&&&&&&&&&&&&&&&&&&&&&&&&&&&&....&&&&&&&&",
"&&&&&&&&&&&&&&&&&&&&....&&&&&&&&&&&&&&&&oooo;;;;;;;;OOOO++++++++++++++++OOOO--------oooo&&&&&&&&&&&&====&&&&&&&&&&&&&&&&&&&&&&&&",
"&&&&&&&&&&&&&&&&&&&&....&&&&&&&&&&&&&&&&oooo;;;;;;;;OOOO++++++++++++++++OOOO--------oooo&&&&&&&&&&&&====&&&&&&&&&&&&&&&&&&&&&&&&",
"&&&&&&&&&&&&&&&&&&&&....&&&&&&&&&&&&&&&&oooo;;;;;;;;OOOO++++++++++++++++OOOO--------oooo&&&&&&&&&&&&====&&&&&&&&&&&&&&&&&&&&&&&&",
"&&&&&&&&&&&&&&&&&&&&....&&&&&&&&&&&&&&&&oooo;;;;;;;;OOOO++++++++++++++++OOOO--------oooo&&&&&&&&&&&&====&&&&&&&&&&&&&&&&&&&&&&&&",
"&&&&&&&&&&&&&&&&&&&&&&&&&&&&&&&&&&&&&&&&ooooOOOO--------OOOO++++++++OOOO++++++++OOOOoooo&&&&&&&&&&&&&&&&&&&&&&&&&&&&&&&&&&&&&&&&",
"&&&&&&&&&&&&&&&&&&&&&&&&&&&&&&&&&&&&&&&&ooooOOOO--------OOOO++++++++OOOO++++++++OOOOoooo&&&&&&&&&&&&&&&&&&&&&&&&&&&&&&&&&&&&&&&&",
"&&&&&&&&&&&&&&&&&&&&&&&&&&&&&&&&&&&&&&&&ooooOOOO--------OOOO++++++++OOOO++++++++OOOOoooo&&&&&&&&&&&&&&&&&&&&&&&&&&&&&&&&&&&&&&&&",
"&&&&&&&&&&&&&&&&&&&&&&&&&&&&&&&&&&&&&&&&ooooOOOO--------OOOO++++++++OOOO++++++++OOOOoooo&&&&&&&&&&&&&&&&&&&&&&&&&&&&&&&&&&&&&&&&",
"&&&&&&&&&&&&&&&&&&&&&&&&&&&&&&&&&&&&&&&&$$$$oooo------------OOOOOOOO++++++++++++oooo$$$$&&&&&&&&@@@@&&&&&&&&&&&&&&&&@@@@&&&&&&&&",
"&&&&&&&&&&&&&&&&&&&&&&&&&&&&&&&&&&&&&&&&$$$$oooo------------OOOOOOOO++++++++++++oooo$$$$&&&&&&&&@@@@&&&&&&&&&&&&&&&&@@@@&&&&&&&&",
"&&&&&&&&&&&&&&&&&&&&&&&&&&&&&&&&&&&&&&&&$$$$oooo------------OOOOOOOO++++++++++++oooo$$$$&&&&&&&&@@@@&&&&&&&&&&&&&&&&@@@@&&&&&&&&",
"&&&&&&&&&&&&&&&&&&&&&&&&&&&&&&&&&&&&&&&&$$$$oooo------------OOOOOOOO++++++++++++oooo$$$$&&&&&&&&@@@@&&&&&&&&&&&&&&&&@@@@&&&&&&&&",
"&&&&&&&&&&&&&&&&&&&&&&&&&&&&&&&&&&&&&&&&$$$$$$$$oooo------------++++++++++++oooo$$$$$$$$&&&&&&&&&&&&@@@@&&&&&&&&@@@@&&&&&&&&&&&&",
"&&&&&&&&&&&&&&&&&&&&&&&&&&&&&&&&&&&&&&&&$$$$$$$$oooo------------++++++++++++oooo$$$$$$$$&&&&&&&&&&&&@@@@&&&&&&&&@@@@&&&&&&&&&&&&",
"&&&&&&&&&&&&&&&&&&&&&&&&&&&&&&&&&&&&&&&&$$$$$$$$oooo------------++++++++++++oooo$$$$$$$$&&&&&&&&&&&&@@@@&&&&&&&&@@@@&&&&&&&&&&&&",
"&&&&&&&&&&&&&&&&&&&&&&&&&&&&&&&&&&&&&&&&$$$$$$$$oooo------------++++++++++++oooo$$$$$$$$&&&&&&&&&&&&@@@@&&&&&&&&@@@@&&&&&&&&&&&&",
"&&&&&&&&&&&&&&&&&&&&::::&&&&&&&&&&&&&&&&$$$$$$$$$$$$oooo--------++++++++oooo$$$$$$$$$$$$&&&&%%%%&&&&@@@@&&&&&&&&@@@@&&&&%%%%&&&&",
"&&&&&&&&&&&&&&&&&&&&::::&&&&&&&&&&&&&&&&$$$$$$$$$$$$oooo--------++++++++oooo$$$$$$$$$$$$&&&&%%%%&&&&@@@@&&&&&&&&@@@@&&&&%%%%&&&&",
"&&&&&&&&&&&&&&&&&&&&::::&&&&&&&&&&&&&&&&$$$$$$$$$$$$oooo--------++++++++oooo$$$$$$$$$$$$&&&&%%%%&&&&@@@@&&&&&&&&@@@@&&&&%%%%&&&&",
"&&&&&&&&&&&&&&&&&&&&::::&&&&&&&&&&&&&&&&$$$$$$$$$$$$oooo--------++++++++oooo$$$$$$$$$$$$&&&&%%%%&&&&@@@@&&&&&&&&@@@@&&&&%%%%&&&&",
"&&&&&&&&&&&&&&&&::::****::::&&&&&&&&&&&&&&&&XXXX    $$$$oooo----++++oooo$$$$$$$$$$$$&&&&&&&&&&&&%%%%%%%%@@@@&&&&%%%%%%%%&&&&&&&&",
"&&&&&&&&&&&&&&&&::::****::::&&&&&&&&&&&&&&&&XXXX    $$$$oooo----++++oooo$$$$$$$$$$$$&&&&&&&&&&&&%%%%%%%%@@@@&&&&%%%%%%%%&&&&&&&&",
"&&&&&&&&&&&&&&&&::::****::::&&&&&&&&&&&&&&&&XXXX    $$$$oooo----++++oooo$$$$$$$$$$$$&&&&&&&&&&&&%%%%%%%%@@@@&&&&%%%%%%%%&&&&&&&&",
"&&&&&&&&&&&&&&&&::::****::::&&&&&&&&&&&&&&&&XXXX    $$$$oooo----++++oooo$$$$$$$$$$$$&&&&&&&&&&&&%%%%%%%%@@@@&&&&%%%%%%%%&&&&&&&&",
"&&&&&&&&&&&&&&&&&&&&::::&&&&&&&&@@@@&&&&&&&&@@@@$$$$$$$$$$$$oooooooo$$$$$$$$$$$$&&&&&&&&&&&&&&&&&&&&&&&&%%%%&&&&&&&&&&&&&&&&&&&&",
"&&&&&&&&&&&&&&&&&&&&::::&&&&&&&&@@@@&&&&&&&&@@@@$$$$$$$$$$$$oooooooo$$$$$$$$$$$$&&&&&&&&&&&&&&&&&&&&&&&&%%%%&&&&&&&&&&&&&&&&&&&&",
"&&&&&&&&&&&&&&&&&&&&::::&&&&&&&&@@@@&&&&&&&&@@@@$$$$$$$$$$$$oooooooo$$$$$$$$$$$$&&&&&&&&&&&&&&&&&&&&&&&&%%%%&&&&&&&&&&&&&&&&&&&&",
"&&&&&&&&&&&&&&&&&&&&::::&&&&&&&&@@@@&&&&&&&&@@@@$$$$$$$$$$$$oooooooo$$$$$$$$$$$$&&&&&&&&&&&&&&&&&&&&&&&&%%%%&&&&&&&&&&&&&&&&&&&&",
"&&&&&&&&&&&&&&&&&&&&&&&&&&&&&&&&&&&&@@@@&&&&@@@@&&&&####$$$$$$$$$$$$$$$$$$$$&&&&&&&&....&&&&&&&&&&&&&&&&&&&&&&&&&&&&&&&&&&&&&&&&",
"&&&&&&&&&&&&&&&&&&&&&&&&&&&&&&&&&&&&@@@@&&&&@@@@&&&&####$$$$$$$$$$$$$$$$$$$$&&&&&&&&....&&&&&&&&&&&&&&&&&&&&&&&&&&&&&&&&&&&&&&&&",
"&&&&&&&&&&&&&&&&&&&&&&&&&&&&&&&&&&&&@@@@&&&&@@@@&&&&####$$$$$$$$$$$$$$$$$$$$&&&&&&&&....&&&&&&&&&&&&&&&&&&&&&&&&&&&&&&&&&&&&&&&&",
"&&&&&&&&&&&&&&&&&&&&&&&&&&&&&&&&&&&&@@@@&&&&@@@@&&&&####$$$$$$$$$$$$$$$$$$$$&&&&&&&&....&&&&&&&&&&&&&&&&&&&&&&&&&&&&&&&&&&&&&&&&",
"&&&&&&&&&&&&&&&&&&&&&&&&&&&&%%%%&&&&@@@@&&&&%%%%%%%%&&&&&&&&$$$$$$$$====&&&&&&&&&&&&&&&&&&&&&&&&&&&&&&&&&&&&&&&&&&&&&&&&&&&&&&&&",
"&&&&&&&&&&&&&&&&&&&&&&&&&&&&%%%%&&&&@@@@&&&&%%%%%%%%&&&&&&&&$$$$$$$$====&&&&&&&&&&&&&&&&&&&&&&&&&&&&&&&&&&&&&&&&&&&&&&&&&&&&&&&&",
"&&&&&&&&&&&&&&&&&&&&&&&&&&&&%%%%&&&&@@@@&&&&%%%%%%%%&&&&&&&&$$$$$$$$====&&&&&&&&&&&&&&&&&&&&&&&&&&&&&&&&&&&&&&&&&&&&&&&&&&&&&&&&",
"&&&&&&&&&&&&&&&&&&&&&&&&&&&&%%%%&&&&@@@@&&&&%%%%%%%%&&&&&&&&$$$$$$$$====&&&&&&&&&&&&&&&&&&&&&&&&&&&&&&&&&&&&&&&&&&&&&&&&&&&&&&&&",
"&&&&&&&&&&&&&&&&&&&&&&&&&&&&&&&&%%%%%%%%&&&&&&&&&&&&&&&&&&&&&&&&&&&&&&&&&&&&&&&&&&&&&&&&&&&&&&&&&&&&&&&&&&&&&&&&&&&&&&&&&&&&&&&&",
"&&&&&&&&&&&&&&&&&&&&&&&&&&&&&&&&%%%%%%%%&&&&&&&&&&&&&&&&&&&&&&&&&&&&&&&&&&&&&&&&&&&&&&&&&&&&&&&&&&&&&&&&&&&&&&&&&&&&&&&&&&&&&&&&",
"&&&&&&&&&&&&&&&&&&&&&&&&&&&&&&&&%%%%%%%%&&&&&&&&&&&&&&&&&&&&&&&&&&&&&&&&&&&&&&&&&&&&&&&&&&&&&&&&&&&&&&&&&&&&&&&&&&&&&&&&&&&&&&&&",
"&&&&&&&&&&&&&&&&&&&&&&&&&&&&&&&&%%%%%%%%&&&&&&&&&&&&&&&&&&&&&&&&&&&&&&&&&&&&&&&&&&&&&&&&&&&&&&&&&&&&&&&&&&&&&&&&&&&&&&&&&&&&&&&&",
"&&&&&&&&&&&&&&&&&&&&&&&&&&&&&&&&&&&&&&&&&&&&&&&&&&&&&&&&&&&&&&&&&&&&&&&&&&&&&&&&&&&&&&&&&&&&&&&&&&&&&&&&&&&&&&&&&&&&&&&&&&&&&&&&",
"&&&&&&&&&&&&&&&&&&&&&&&&&&&&&&&&&&&&&&&&&&&&&&&&&&&&&&&&&&&&&&&&&&&&&&&&&&&&&&&&&&&&&&&&&&&&&&&&&&&&&&&&&&&&&&&&&&&&&&&&&&&&&&&&",
"&&&&&&&&&&&&&&&&&&&&&&&&&&&&&&&&&&&&&&&&&&&&&&&&&&&&&&&&&&&&&&&&&&&&&&&&&&&&&&&&&&&&&&&&&&&&&&&&&&&&&&&&&&&&&&&&&&&&&&&&&&&&&&&&",
"&&&&&&&&&&&&&&&&&&&&&&&&&&&&&&&&&&&&&&&&&&&&&&&&&&&&&&&&&&&&&&&&&&&&&&&&&&&&&&&&&&&&&&&&&&&&&&&&&&&&&&&&&&&&&&&&&&&&&&&&&&&&&&&&"
};
