/* XPM */
static char *result[] = {
/* columns rows colors chars-per-pixel */
"32 32 199 2 ",
"   c #74BE2C",
".  c #73BE2B",
"X  c #73BD2C",
"o  c #70B82A",
"O  c #75BE2E",
"+  c #7DC13C",
"@  c #71BA2A",
"#  c #59981D",
"$  c #89C44D",
"%  c #BDD296",
"&  c #6EB728",
"*  c #60A61E",
"=  c #75BF2C",
"-  c #7DC13D",
";  c #D6D36A",
":  c #70B929",
">  c #5DA21B",
",  c #6DB627",
"<  c #73BC2C",
"1  c #68AB2E",
"2  c #5DA31B",
"3  c #6DB527",
"4  c #5DA21C",
"5  c #6FB72A",
"6  c #70B52D",
"7  c #74BD2E",
"8  c #7EC13D",
"9  c #75BE2F",
"0  c #5E9C30",
"q  c #173043",
"w  c #173045",
"e  c #5E9C31",
"r  c #71BB2A",
"t  c #73BD2B",
"y  c #5DA11C",
"u  c #6FB729",
"i  c #6DB02B",
"p  c #6FB32D",
"a  c #74BC2E",
"s  c #8AC44E",
"d  c #BCD195",
"f  c #699F41",
"g  c #162F46",
"h  c #001470",
"j  c #001682",
"k  c #16314E",
"l  c #5B982E",
"z  c #73BB2C",
"x  c #6CB02B",
"c  c #73BC2B",
"v  c #ACAB4C",
"b  c #213148",
"n  c #00136D",
"m  c #00157C",
"M  c #001993",
"N  c #001886",
"B  c #16304D",
"V  c #57932B",
"C  c #74BE2D",
"Z  c #76BE30",
"A  c #02146D",
"S  c #001577",
"D  c #001578",
"F  c #00188D",
"G  c #001A96",
"H  c #011886",
"J  c #132C4B",
"K  c #478020",
"L  c #81BE46",
"P  c #5E9B30",
"I  c #152E44",
"U  c #00136C",
"Y  c #001575",
"T  c #031770",
"R  c #031776",
"E  c #00198D",
"W  c #001785",
"Q  c #102844",
"!  c #4A8421",
"~  c #6DB12B",
"^  c #68AC2E",
"/  c #183141",
"(  c #031567",
")  c #03187E",
"_  c #001574",
"`  c #031670",
"'  c #142FAD",
"]  c #152FAE",
"[  c #061B7E",
"{  c #001990",
"}  c #001164",
"|  c #152D3E",
" . c #67AB2E",
".. c #72BC2A",
"X. c #66A82D",
"o. c #10244E",
"O. c #1731B3",
"+. c #1833B8",
"@. c #001474",
"#. c #031981",
"$. c #061D8A",
"%. c #122CA6",
"&. c #031775",
"*. c #001688",
"=. c #0D2148",
"-. c #66A92E",
";. c #61A71D",
":. c #63A52B",
">. c #11264F",
",. c #1A35BE",
"<. c #1B38C2",
"1. c #04176F",
"2. c #001579",
"3. c #03187D",
"4. c #001369",
"5. c #00178D",
"6. c #0E2249",
"7. c #75C02C",
"8. c #75BE2D",
"9. c #6EB727",
"0. c #65A72D",
"q. c #1B37C1",
"w. c #001268",
"e. c #62A02F",
"r. c #11244F",
"t. c #001475",
"y. c #001368",
"u. c #63A52C",
"i. c #70B42D",
"p. c #65A62E",
"a. c #65A72E",
"s. c #1B38C1",
"d. c #0D2049",
"f. c #5CA11C",
"g. c #66A82E",
"h. c #1834BB",
"j. c #031773",
"k. c #001473",
"l. c #00136A",
"z. c #001687",
"x. c #0C2048",
"c. c #64A62D",
"v. c #6FB42D",
"b. c #5FA31E",
"n. c #69AC29",
"m. c #03156A",
"M. c #031C96",
"N. c #00136E",
"B. c #011261",
"V. c #233341",
"C. c #73AF3E",
"Z. c #76BE2F",
"A. c #72BA2C",
"S. c #162F48",
"D. c #001784",
"F. c #00188C",
"G. c #001267",
"H. c #213146",
"J. c #ABAB4C",
"K. c #BBD095",
"L. c #74BD2C",
"P. c #162F47",
"I. c #00146D",
"U. c #74BE2B",
"Y. c #142D4D",
"T. c #001370",
"R. c #142C47",
"E. c #6FB62A",
"W. c #4C7F2A",
"Q. c #122843",
"!. c #122841",
"~. c #609E25",
"^. c #5A9523",
"/. c #528726",
"(. c #71BA2B",
"). c #5F9E23",
"_. c #5B9623",
"`. c #5C9723",
"'. c #7DC03C",
"]. c #70BA29",
"[. c #6EB627",
"{. c #5B9D1C",
"}. c #5A9622",
"|. c #74BF2C",
" X c #8AC44D",
".X c #72BB2B",
"XX c #60A61D",
"oX c #6BB226",
"OX c #5F9D25",
"+X c #6BAE2C",
"@X c #609D25",
"#X c #5E9B24",
"$X c #5E9A25",
"%X c #629E29",
"&X c #70B62B",
"*X c #71B92B",
"=X c #73B92F",
"-X c #7EBA45",
";X c white",
/* pixels */
"                                                      .         ",
"                                        X o X       O + O       ",
"                  @ X                   o # o     O $ % $ O     ",
"        X @     & * @         = =       X o X   . - % ; % - .   ",
"        @ * & : > , <   .   X 1 1 X               O $ % $ O     ",
"        < , 2 3 4 5 6 7 8 9 0 q w e X r         @ t O - O       ",
"      X 6 5 y u i p a s d f g h j k l * &     & * @   .         ",
"        z p x < X c - d v b n m M N B V > @ @ > , <             ",
"  C Z C   < X       9 f b A S D F G H J K , : y 5 6 X           ",
"  Z L Z           X P I U D Y T R E G W Q ! 5 ~ p z             ",
"  C Z C         = ^ / ( ) _ ` ' ] [ E { } |  .  <   C Z C       ",
"                ..X.o.O.+.` @.#.$.%.&.{ *.=.-.=     Z L Z       ",
"      X @     & ;.:.>.,.<.1.@.D 2.3.4.{ 5.6.-.7.    C Z 8.      ",
"      @ * & : > 9.0.>.,.q.1.@.D D @.w.{ 5.6.X...        @ X     ",
"      < , 2 3 4 o e.r.,.q.1.@.D D t.y.{ 5.6.u.;.&     & * @     ",
"    X 6 5 y u i i.p.>.,.q.1.@.D D t.y.{ 5.6.a.9.> @ @ > , <     ",
"      z p x < X   X.>.,.s.1.@.D D t.y.{ 5.d.e.o y : , f.5 6 X   ",
"        < X     = g.o.O.h.j.k.D D k.l.E z.x.c.v.x o b.n.p z     ",
"                = ^ / m.M.E N.k.k.4.@.2.B.V.C.Z.X < ~ A.X       ",
"                  X P S.D.G F.U G.k.D n H.J.K.- .   L.  X o X   ",
"        X o X         e B N G E D S n P.f d s O C Z C   o # o   ",
"        o # o           0 B N M m I.S.0 9 8 O U.Z L Z   X o X   ",
"        X o X             P Y.j T.R.P     .   X @ Z C     r L.  ",
"          U.              E.W.Q.!.W.E.        @ * 9.    & * @   ",
"        O - O           E.~.^././.^.~.E.      < , > @ @ > , <   ",
"      O $ % $ O       (.)._._.`.`._._.~.(.  X 6 5 f., : y 5 6 < ",
"    . - % ; % '.].    [.{.}._._._._._.~.(.|.  z p n.b.o x p z   ",
"      O $ %  X.XXX& : 2 oXOX_._._._.~.E.X o X   X A.~ < X <     ",
"        O - O < , 2 3 4 E.+X@X#X$X%X&X  o # o       L.          ",
"          . X 6 5 y u i p z (.*X=X-XZ   X o X                   ",
"              z p x < X <       8.Z C                           ",
"                < <                                             "
};
