/* XPM */
static char *result[] = {
/* columns rows colors chars-per-pixel */
"32 32 165 2 ",
"   c #74BE2C",
".  c #73BE2B",
"X  c #75BF2C",
"o  c #73BD2C",
"O  c #70B82A",
"+  c #75BE2E",
"@  c #7DC13C",
"#  c #71BA2A",
"$  c #68AB2E",
"%  c #59981D",
"&  c #89C44D",
"*  c #BDD296",
"=  c #6EB728",
"-  c #60A61E",
";  c #5E9C30",
":  c #173043",
">  c #173045",
",  c #5E9C31",
"<  c #7DC13D",
"1  c #D6D36A",
"2  c #70B929",
"3  c #5DA21B",
"4  c #6DB627",
"5  c #73BC2C",
"6  c #162F47",
"7  c #001470",
"8  c #001682",
"9  c #16304E",
"0  c #5DA31B",
"q  c #6DB527",
"w  c #5DA21C",
"e  c #6FB72A",
"r  c #70B62D",
"t  c #162F48",
"y  c #00136D",
"u  c #00157C",
"i  c #001993",
"p  c #001886",
"a  c #16304D",
"s  c #73BD2B",
"d  c #70B52D",
"f  c #5DA11C",
"g  c #6FB729",
"h  c #6CB02B",
"j  c #6FB32D",
"k  c #72BB2C",
"l  c #001577",
"z  c #001578",
"x  c #00188D",
"c  c #001A96",
"v  c #73BB2C",
"b  c #74BD2C",
"n  c #5E9B30",
"m  c #162F45",
"M  c #00136C",
"N  c #001575",
"B  c #031770",
"V  c #031776",
"C  c #00198D",
"Z  c #001785",
"A  c #6FB829",
"S  c #74BE2D",
"D  c #76BE30",
"F  c #68AC2E",
"G  c #183141",
"H  c #031567",
"J  c #03187E",
"K  c #001574",
"L  c #031670",
"P  c #142FAD",
"I  c #152FAE",
"U  c #061B7E",
"Y  c #001990",
"T  c #001264",
"R  c #183140",
"E  c #64A72B",
"W  c #5EA21C",
"Q  c #81BE46",
"!  c #66A82E",
"~  c #10244E",
"^  c #1731B3",
"/  c #1833B8",
"(  c #001474",
")  c #031981",
"_  c #061D8A",
"`  c #122CA6",
"'  c #031775",
"]  c #001688",
"[  c #0D2148",
"{  c #65A72E",
"}  c #6DB22B",
"|  c #75C02C",
" . c #66A92D",
".. c #11264F",
"X. c #1A35BE",
"o. c #1B38C2",
"O. c #04176F",
"+. c #001579",
"@. c #03187D",
"#. c #001369",
"$. c #00178D",
"%. c #0E2249",
"&. c #66A92E",
"*. c #72BC2A",
"=. c #66A82D",
"-. c #1B37C1",
";. c #001268",
":. c #61A71D",
">. c #63A52B",
",. c #001475",
"<. c #001368",
"1. c #75BE2D",
"2. c #6EB727",
"3. c #65A72D",
"4. c #62A02F",
"5. c #11244F",
"6. c #1A36BE",
"7. c #1B38C1",
"8. c #63A52C",
"9. c #6DB02B",
"0. c #70B42D",
"q. c #65A62E",
"w. c #1834BB",
"e. c #031773",
"r. c #001473",
"t. c #00136A",
"y. c #001687",
"u. c #0D2048",
"i. c #03156A",
"p. c #031C96",
"a. c #00136E",
"s. c #001161",
"d. c #172F3F",
"f. c #64A32F",
"g. c #5CA11C",
"h. c #001784",
"j. c #00188C",
"k. c #001267",
"l. c #172F47",
"z. c #679E41",
"x. c #73BA2E",
"c. c #5FA31E",
"v. c #69AC29",
"b. c #173049",
"n. c #73A252",
"m. c #74BD2E",
"M. c #6DB12B",
"N. c #72BA2C",
"B. c #162F46",
"V. c #D6D46A",
"C. c #8AC44D",
"Z. c #74BE2B",
"A. c #71BB2A",
"S. c #71BA2B",
"D. c #6FB62A",
"F. c #609E25",
"G. c #7DC03C",
"H. c #70BA29",
"J. c #63A226",
"K. c #5B9623",
"L. c #62A226",
"P. c #72BA2B",
"I. c #72BB2B",
"U. c #60A61D",
"Y. c white",
/* pixels */
"                                                      .         ",
"                              X X       o O o       + @ +       ",
"                  # o       o $ $ o     O % O     + & * & +     ",
"        o #     = - #       ; : > ,     o O o   . < * 1 * < .   ",
"        # - = 2 3 4 5     ; 6 7 8 9 ;             + & * & +     ",
"        5 4 0 q w e r 5 ; t y u i p a ;         # s + < +       ",
"      o d e f g h j k ; t y l z x c p a ,     = - #   .         ",
"        v j h 5 b k n m M z N B V C c Z t ; A 3 4 5             ",
"  S D S   5 o   X F G H J K L P I U C Y T R E W e d o           ",
"  D Q D         X ! ~ ^ / L ( ) _ ` ' Y ] [ { } j v             ",
"  S D S         |  ...X.o.O.( z +.@.#.Y $.%.&.  5   S D S       ",
"                *.=...X.-.O.( z z ( ;.Y $.%.&.X     D Q D       ",
"      o #     = :.>...X.-.O.( z z ,.<.Y $.%.&.|     S D 1.      ",
"      # - = 2 3 2.3...X.-.O.( z z ,.<.Y $.%.=.*.        # o     ",
"      5 4 0 q w O 4.5.6.7.O.( z z ,.<.Y $.%.8.:.=     = - #     ",
"    o d e f g 9.0.q.~ ^ w.e.r.z z r.t.C y.u.{ 2.3 # # 3 4 5     ",
"      v j h 5 o   $ G i.p.C a.r.r.#.( +.s.d.f.O f 2 4 g.e d o   ",
"        5 o       o n t h.c j.M k.r.z y l.z.x.j h O c.v.j v     ",
"                      , a p c C z l y b.n.* & m.o 5 M.N.o       ",
"                        ; a p i u y B.z.* V.* < .   b   o O o   ",
"        o O o             ; 9 8 7 6 ; + C.* & + S D S   O % O   ",
"        O % O               , > : ;     + < + Z.D Q D   o O o   ",
"        o O o               o $ $ o       .   o # D S     A.b   ",
"          Z.                  | |             # - 2.    = - #   ",
"        + < +                 S.S.            5 4 3 # # 3 4 5   ",
"      + & * & +         # o D.F.F.D.        o d e g.4 2 f e d 5 ",
"    . < * 1 * G.H.    = - g J.K.K.L.P.        v j v.c.O h j v   ",
"      + & * C.I.U.= 2 3 4 5 D.F.F.D.    o O o   o N.M.5 o 5     ",
"        + < + 5 4 0 q w e d 5 S.N.D S   O % O       b           ",
"          . o d e f g 9.j v     D Q D   o O o                   ",
"              v j h 5 o 5       S D S                           ",
"                5 5                                             "
};
