/* XPM */
static char *result[] = {
/* columns rows colors chars-per-pixel */
"32 32 208 2 ",
"   c #74BE2C",
".  c #73BE2B",
"X  c #73BD2C",
"o  c #70B82A",
"O  c #75BE2E",
"+  c #7DC13C",
"@  c #71BA2A",
"#  c #59981D",
"$  c #89C44D",
"%  c #BDD296",
"&  c #6EB728",
"*  c #60A61E",
"=  c #7DC13D",
"-  c #D6D36A",
";  c #70B929",
":  c #5DA21B",
">  c #6DB627",
",  c #73BC2C",
"<  c #74BE2D",
"1  c #76BE30",
"2  c #5DA31B",
"3  c #6DB527",
"4  c #5DA21C",
"5  c #6FB72A",
"6  c #70B52D",
"7  c #74BD2E",
"8  c #75BE2D",
"9  c #82BF46",
"0  c #77BF30",
"q  c #73BD2B",
"w  c #5DA11C",
"e  c #6FB729",
"r  c #6DB02B",
"t  c #6FB32D",
"y  c #74BC2E",
"u  c #74BD2F",
"i  c #6AAB32",
"p  c #68AB2E",
"a  c #71BB2A",
"s  c #73BB2C",
"d  c #6CB02B",
"f  c #73BC2B",
"g  c #D6D46A",
"h  c #679E41",
"j  c #173042",
"k  c #173045",
"l  c #5E9B31",
"z  c #8AC44D",
"x  c #73A251",
"c  c #173049",
"v  c #001470",
"b  c #001782",
"n  c #162F4E",
"m  c #5A9332",
"M  c #6FB62A",
"N  c #5DA11B",
"B  c #81BE46",
"V  c #00136D",
"C  c #00157C",
"Z  c #001993",
"A  c #001786",
"S  c #152D4E",
"D  c #599131",
"F  c #69AC29",
"G  c #5FA41E",
"H  c #5E9C30",
"J  c #162F47",
"K  c #001577",
"L  c #001578",
"P  c #00188D",
"I  c #001A96",
"U  c #5C9831",
"Y  c #6CB12B",
"T  c #5E9B30",
"R  c #162F45",
"E  c #00136C",
"W  c #001575",
"Q  c #031770",
"!  c #031776",
"~  c #00198D",
"^  c #001785",
"/  c #162F48",
"(  c #5D9A30",
")  c #61A71D",
"_  c #65A82C",
"`  c #193141",
"'  c #031567",
"]  c #03187E",
"[  c #001574",
"{  c #031670",
"}  c #142FAD",
"|  c #152FAE",
" . c #061B7E",
".. c #001990",
"X. c #001264",
"o. c #183140",
"O. c #68AC2E",
"+. c #75BF2C",
"@. c #6EB727",
"#. c #65A72D",
"$. c #10244E",
"%. c #1731B3",
"&. c #1833B8",
"*. c #001474",
"=. c #031981",
"-. c #061D8A",
";. c #122CA6",
":. c #031775",
">. c #001688",
",. c #0D2148",
"<. c #66A82E",
"1. c #72BC2A",
"2. c #62A02F",
"3. c #11244F",
"4. c #1A36BE",
"5. c #1B38C2",
"6. c #04176F",
"7. c #001579",
"8. c #03187D",
"9. c #001369",
"0. c #00178D",
"q. c #0E2249",
"w. c #63A52C",
"e. c #70B42D",
"r. c #65A62E",
"t. c #11264F",
"y. c #1A35BE",
"u. c #1B37C1",
"i. c #001268",
"p. c #65A72E",
"a. c #66A82D",
"s. c #001475",
"d. c #001368",
"f. c #0D2049",
"g. c #5CA11C",
"h. c #66A92D",
"j. c #0D2248",
"k. c #64A62D",
"l. c #6FB42D",
"z. c #5FA31E",
"x. c #1B38C1",
"c. c #0F224B",
"v. c #70AC3F",
"b. c #76BE2F",
"n. c #6DB12B",
"m. c #72BA2C",
"M. c #1834BB",
"N. c #031773",
"B. c #001473",
"V. c #00136A",
"C. c #001686",
"Z. c #172459",
"A. c #A3BA95",
"S. c #7FC23D",
"D. c #74BD2C",
"F. c #183141",
"G. c #03156A",
"H. c #031C96",
"J. c #00136E",
"K. c #001161",
"L. c #1A3143",
"P. c #72AE3F",
"I. c #76C02F",
"U. c #00188C",
"Y. c #001267",
"T. c #00146D",
"R. c #72BC2B",
"E. c #142D4D",
"W. c #142C47",
"Q. c #74BE2B",
"!. c #4C802A",
"~. c #11284B",
"^. c #112746",
"/. c #4C7F2A",
"(. c #71BA2B",
"). c #609E25",
"_. c #5B9623",
"`. c #4A7B29",
"'. c #11294C",
"]. c #001682",
"[. c #112846",
"{. c #5A9622",
"}. c #497B2A",
"|. c #122843",
" X c #122841",
".X c #497B29",
"XX c #7DC03C",
"oX c #70BA29",
"OX c #6BB327",
"+X c #5B9D1C",
"@X c #5B9622",
"#X c #5A9523",
"$X c #528726",
"%X c #72BB2B",
"&X c #60A61D",
"*X c #6BB226",
"=X c #5F9D25",
"-X c #5B9723",
";X c #6BAE2C",
":X c #609D25",
">X c #5E9B24",
",X c #5E9A25",
"<X c #629E29",
"1X c #70B62B",
"2X c #71B92B",
"3X c #73B92F",
"4X c #7EBA45",
"5X c white",
/* pixels */
"                                                      .         ",
"                                        X o X       O + O       ",
"                  @ X                   o # o     O $ % $ O     ",
"        X @     & * @                   X o X   . = % - % = .   ",
"        @ * & ; : > ,   .   < 1 <                 O $ % $ O     ",
"        , > 2 3 4 5 6 7 = 8 1 9 0   X @         @ q O = O       ",
"      X 6 5 w e r t y $ % $ u i p X a * &     & * @   .         ",
"        s t d , X f = % g % h j k l , > : @ @ : > ,             ",
"  < 1 <   , X       O z % x c v b n m M N > ; w 5 6 X           ",
"  1 B 1               O h c V C Z A S D F G o d t s             ",
"  < 1 <               H J V K L P I A n U Y , X ,   < 1 <       ",
"                @ , T R E L W Q ! ~ I ^ / ( ,       1 B 1       ",
"      X @     & ) _ ` ' ] [ { } |  .~ ..X.o.O.+.    < 1 8       ",
"      @ * & ; : @.#.$.%.&.{ *.=.-.;.:...>.,.<.1.        @ X     ",
"      , > 2 3 4 o 2.3.4.5.6.*.L 7.8.9...0.q.w.) &     & * @     ",
"    X 6 5 w e r e.r.t.y.u.6.*.L L *.i...0.q.p.@.: @ @ : > ,     ",
"      s t d , X   a.t.y.u.6.*.L L s.d...0.f.2.o w ; > g.5 6 X   ",
"        , X     +.h.t.y.u.6.*.L L s.d...0.j.k.l.d o z.F t s     ",
"                +.h.t.y.x.6.*.L L s.d...0.c.v.b.X , n.m.X       ",
"                +.<.$.%.M.N.B.L L B.V.~ C.Z.A.S..   D.  X o X   ",
"        X o X   +.O.F.G.H.~ J.B.B.9.*.L K.L.P.I.< 1 <   o # o   ",
"        o # o     X T / ^ I U.E Y.B.L T.R T R.  1 B 1   X o X   ",
"        X o X         T E.A I ~ L L V W.T     X @ 1 <     a D.  ",
"          Q.          M !.~.A Z C V ^./.M     @ * @.    & * @   ",
"        O = O       (.)._.`.'.].v [.`._.).(.  , > : @ @ : > ,   ",
"      O $ % $ O     (.).{._.}.|. X.X_._.).(.D.6 5 g.> ; w 5 6 , ",
"    . = % - % XXoX  X OX+X@X#X$X$X#X_.).M     s t F z.o d t s   ",
"      O $ % z %X&X& ; 2 *X=X_.-X-X_.).M X o X   X m.n., X ,     ",
"        O = O , > 2 3 4 M ;X:X>X,X<X1X  o # o       D.          ",
"          . X 6 5 w e r t s (.2X3X4X1   X o X                   ",
"              s t d , X ,       8 1 <                           ",
"                , ,                                             "
};
