/* XPM */
static char *_78baff877b0434291ac5cbb4d6c1289wv4iQJ8UirttIbS0[] = {
/* columns rows colors chars-per-pixel */
"128 128 7 1 ",
"  c #467D12",
". c #539614",
"X c #6DAF2E",
"o c #74BE2C",
"O c #D7CF22",
"+ c #8ABE58",
"@ c gainsboro",
/* pixels */
"oooooooooooooooooooooooooooooooooooooooooooooooooooooooooooooooooooooooooooooooooooooooooooooooooooooooooooooooooooooooooooooooo",
"oooooooooooooooooooooooooooooooooooooooooooooooooooooooooooooooooooooooooooooooooooooooooooooooooooooooooooooooooooooooooooooooo",
"oooooooooooooooooooooooooooooooooooooooooooooooooooooooooooooooooooooooooooooooooooooooooooooooooooooooooooooooooooooooooooooooo",
"oooooooooooooooooooooooooooooooooooooooooooooooooooooooooooooooooooooooooooooooooooooooooooooooooooooooooooooooooooooooooooooooo",
"oooooooooooooooooooooooooooooooooooooooooooooooooooooooooooooooooooooooooooooooooooooooooooooooooooooooooooooooooooooooooooooooo",
"oooooooooooooooooooooooooooooooooooooooooooooooooooooooooooooooooooooooooooooooooooooooooooooooooooooooooooooooooooooooooooooooo",
"oooooooooooooooooooooooooooooooooooooooooooooooooooooooooooooooooooooooooooooooooooooooooooooooooooooooooooooooooooooooooooooooo",
"oooooooooooooooooooooooooooooooooooooooooooooooooooooooooooooooooooooooooooooooooooooooooooooooooooooooooooooooooooooooooooooooo",
"oooooooooooooooooooooooooooooooooooooooooooooooooooooooooooooooooooooooooooooooooooo    oooooooooooooooooooo@@@@oooooooooooooooo",
"oooooooooooooooooooooooooooooooooooooooooooooooooooooooooooooooooooooooooooooooooooo    oooooooooooooooooooo@@@@oooooooooooooooo",
"oooooooooooooooooooooooooooooooooooooooooooooooooooooooooooooooooooooooooooooooooooo    oooooooooooooooooooo@@@@oooooooooooooooo",
"oooooooooooooooooooooooooooooooooooooooooooooooooooooooooooooooooooooooooooooooooooo    oooooooooooooooooooo@@@@oooooooooooooooo",
"oooooooooooooooooooooooooooooooooooo....oooooooooooooooooooooooooooooooooooooooooooooooooooooooooooooooo@@@@OOOO@@@@oooooooooooo",
"oooooooooooooooooooooooooooooooooooo....oooooooooooooooooooooooooooooooooooooooooooooooooooooooooooooooo@@@@OOOO@@@@oooooooooooo",
"oooooooooooooooooooooooooooooooooooo....oooooooooooooooooooooooooooooooooooooooooooooooooooooooooooooooo@@@@OOOO@@@@oooooooooooo",
"oooooooooooooooooooooooooooooooooooo....oooooooooooooooooooooooooooooooooooooooooooooooooooooooooooooooo@@@@OOOO@@@@oooooooooooo",
"oooooooooooooooooooo....oooooooo....oooooooooooooooooooooooooooooooooooooooooooooooooooooooooooooooooooooooo@@@@oooooooooooooooo",
"oooooooooooooooooooo....oooooooo....oooooooooooooooooooooooooooooooooooooooooooooooooooooooooooooooooooooooo@@@@oooooooooooooooo",
"oooooooooooooooooooo....oooooooo....oooooooooooooooooooooooooooooooooooooooooooooooooooooooooooooooooooooooo@@@@oooooooooooooooo",
"oooooooooooooooooooo....oooooooo....oooooooooooooooooooooooooooooooooooooooooooooooooooooooooooooooooooooooo@@@@oooooooooooooooo",
"oooooooooooooooooooooooo....oooo....ooooXXXXoooooooooooooooo++++oooooooooooooooooooooooooooooooooooooooooooooooooooooooooooooooo",
"oooooooooooooooooooooooo....oooo....ooooXXXXoooooooooooooooo++++oooooooooooooooooooooooooooooooooooooooooooooooooooooooooooooooo",
"oooooooooooooooooooooooo....oooo....ooooXXXXoooooooooooooooo++++oooooooooooooooooooooooooooooooooooooooooooooooooooooooooooooooo",
"oooooooooooooooooooooooo....oooo....ooooXXXXoooooooooooooooo++++oooooooooooooooooooooooooooooooooooooooooooooooooooooooooooooooo",
"ooooooooooooooooXXXXoooo....ooooXXXXXXXXoooooooo@@@@oooooooooooooooooooooooo....oooooooooooooooo....oooooooooooooooooooooooooooo",
"ooooooooooooooooXXXXoooo....ooooXXXXXXXXoooooooo@@@@oooooooooooooooooooooooo....oooooooooooooooo....oooooooooooooooooooooooooooo",
"ooooooooooooooooXXXXoooo....ooooXXXXXXXXoooooooo@@@@oooooooooooooooooooooooo....oooooooooooooooo....oooooooooooooooooooooooooooo",
"ooooooooooooooooXXXXoooo....ooooXXXXXXXXoooooooo@@@@oooooooooooooooooooooooo....oooooooooooooooo....oooooooooooooooooooooooooooo",
"ooooooooooooooooooooXXXXXXXXoooooooooooooooo@@@@OOOO@@@@oooooooooooooooooooooooo....oooooooo....oooooooooooooooooooooooooooooooo",
"ooooooooooooooooooooXXXXXXXXoooooooooooooooo@@@@OOOO@@@@oooooooooooooooooooooooo....oooooooo....oooooooooooooooooooooooooooooooo",
"ooooooooooooooooooooXXXXXXXXoooooooooooooooo@@@@OOOO@@@@oooooooooooooooooooooooo....oooooooo....oooooooooooooooooooooooooooooooo",
"ooooooooooooooooooooXXXXXXXXoooooooooooooooo@@@@OOOO@@@@oooooooooooooooooooooooo....oooooooo....oooooooooooooooooooooooooooooooo",
"oooooooooooooooooooooooooooooooooooooooooooooooo@@@@ooooooooooooooooooooXXXXoooo....oooooooo....ooooXXXXoooooooooooooooooooooooo",
"oooooooooooooooooooooooooooooooooooooooooooooooo@@@@ooooooooooooooooooooXXXXoooo....oooooooo....ooooXXXXoooooooooooooooooooooooo",
"oooooooooooooooooooooooooooooooooooooooooooooooo@@@@ooooooooooooooooooooXXXXoooo....oooooooo....ooooXXXXoooooooooooooooooooooooo",
"oooooooooooooooooooooooooooooooooooooooooooooooo@@@@ooooooooooooooooooooXXXXoooo....oooooooo....ooooXXXXoooooooooooooooooooooooo",
"oooooooo++++ooooooooooooooooooooooooooooooooooooooooooooooooooooooooooooooooXXXXXXXX....ooooXXXXXXXXoooooooooooooooooooooooooooo",
"oooooooo++++ooooooooooooooooooooooooooooooooooooooooooooooooooooooooooooooooXXXXXXXX....ooooXXXXXXXXoooooooooooooooooooooooooooo",
"oooooooo++++ooooooooooooooooooooooooooooooooooooooooooooooooooooooooooooooooXXXXXXXX....ooooXXXXXXXXoooooooooooooooooooooooooooo",
"oooooooo++++ooooooooooooooooooooooooooooooooooooooooooooooooooooooooooooooooXXXXXXXX....ooooXXXXXXXXoooooooooooooooooooooooooooo",
"ooooooooooooooooooooooooooooooooooooooooooooooooooooooooooooooooooooooooooooooooooooXXXXoooooooooooooooooooooooooooooooooooooooo",
"ooooooooooooooooooooooooooooooooooooooooooooooooooooooooooooooooooooooooooooooooooooXXXXoooooooooooooooooooooooooooooooooooooooo",
"ooooooooooooooooooooooooooooooooooooooooooooooooooooooooooooooooooooooooooooooooooooXXXXoooooooooooooooooooooooooooooooooooooooo",
"ooooooooooooooooooooooooooooooooooooooooooooooooooooooooooooooooooooooooooooooooooooXXXXoooooooooooooooooooooooooooooooooooooooo",
"oooooooooooooooooooooooooooooooooooooooooooooooooooooooooooooooooooooooooooooooooooooooooooooooooooooooooooo++++oooooooooooooooo",
"oooooooooooooooooooooooooooooooooooooooooooooooooooooooooooooooooooooooooooooooooooooooooooooooooooooooooooo++++oooooooooooooooo",
"oooooooooooooooooooooooooooooooooooooooooooooooooooooooooooooooooooooooooooooooooooooooooooooooooooooooooooo++++oooooooooooooooo",
"oooooooooooooooooooooooooooooooooooooooooooooooooooooooooooooooooooooooooooooooooooooooooooooooooooooooooooo++++oooooooooooooooo",
"oooooooooooooooooooooooooooooooo....oooooooooooooooooooooooooooooooooooooooooooooooooooooooooooooooooooooooooooooooooooooooooooo",
"oooooooooooooooooooooooooooooooo....oooooooooooooooooooooooooooooooooooooooooooooooooooooooooooooooooooooooooooooooooooooooooooo",
"oooooooooooooooooooooooooooooooo....oooooooooooooooooooooooooooooooooooooooooooooooooooooooooooooooooooooooooooooooooooooooooooo",
"oooooooooooooooooooooooooooooooo....oooooooooooooooooooooooooooooooooooooooooooooooooooooooooooooooooooooooooooooooooooooooooooo",
"oooooooooooooooo....oooooooo....oooooooooooooooooooooooooooooooooooooooooooooooooooooooooooooooooooooooooooooooooooooooooooooooo",
"oooooooooooooooo....oooooooo....oooooooooooooooooooooooooooooooooooooooooooooooooooooooooooooooooooooooooooooooooooooooooooooooo",
"oooooooooooooooo....oooooooo....oooooooooooooooooooooooooooooooooooooooooooooooooooooooooooooooooooooooooooooooooooooooooooooooo",
"oooooooooooooooo....oooooooo....oooooooooooooooooooooooooooooooooooooooooooooooooooooooooooooooooooooooooooooooooooooooooooooooo",
"oooooooooooooooooooo....oooo....ooooXXXXoooooooooooooooooooo    oooooooooooooooooooooooooooo....oooooooooooooooo....oooooooooooo",
"oooooooooooooooooooo....oooo....ooooXXXXoooooooooooooooooooo    oooooooooooooooooooooooooooo....oooooooooooooooo....oooooooooooo",
"oooooooooooooooooooo....oooo....ooooXXXXoooooooooooooooooooo    oooooooooooooooooooooooooooo....oooooooooooooooo....oooooooooooo",
"oooooooooooooooooooo....oooo....ooooXXXXoooooooooooooooooooo    oooooooooooooooooooooooooooo....oooooooooooooooo....oooooooooooo",
"ooooooooooooXXXXoooo....ooooXXXXXXXXoooooooooooooooooooooooooooooooooooooooooooooooooooooooooooo....oooooooo....oooooooooooooooo",
"ooooooooooooXXXXoooo....ooooXXXXXXXXoooooooooooooooooooooooooooooooooooooooooooooooooooooooooooo....oooooooo....oooooooooooooooo",
"ooooooooooooXXXXoooo....ooooXXXXXXXXoooooooooooooooooooooooooooooooooooooooooooooooooooooooooooo....oooooooo....oooooooooooooooo",
"ooooooooooooXXXXoooo....ooooXXXXXXXXoooooooooooooooooooooooooooooooooooooooooooooooooooooooooooo....oooooooo....oooooooooooooooo",
"ooooooooooooooooXXXXXXXXooooooooooooooooooooooooooooooooooooooooooooooooooooooooooooooooXXXXoooo....oooooooo....ooooXXXXoooooooo",
"ooooooooooooooooXXXXXXXXooooooooooooooooooooooooooooooooooooooooooooooooooooooooooooooooXXXXoooo....oooooooo....ooooXXXXoooooooo",
"ooooooooooooooooXXXXXXXXooooooooooooooooooooooooooooooooooooooooooooooooooooooooooooooooXXXXoooo....oooooooo....ooooXXXXoooooooo",
"ooooooooooooooooXXXXXXXXooooooooooooooooooooooooooooooooooooooooooooooooooooooooooooooooXXXXoooo....oooooooo....ooooXXXXoooooooo",
"oooooooooooooooooooooooooooooooooooooooo++++ooooooooooooooooooooooooooooooooooooooooooooooooXXXXXXXXoooo....XXXXXXXXoooooooooooo",
"oooooooooooooooooooooooooooooooooooooooo++++ooooooooooooooooooooooooooooooooooooooooooooooooXXXXXXXXoooo....XXXXXXXXoooooooooooo",
"oooooooooooooooooooooooooooooooooooooooo++++ooooooooooooooooooooooooooooooooooooooooooooooooXXXXXXXXoooo....XXXXXXXXoooooooooooo",
"oooooooooooooooooooooooooooooooooooooooo++++ooooooooooooooooooooooooooooooooooooooooooooooooXXXXXXXXoooo....XXXXXXXXoooooooooooo",
"oooooooooooooooooooooooooooooooooooooooooooooooooooooooooooooooooooooooooooooooooooo@@@@ooooooooooooooooXXXXoooooooooooooooooooo",
"oooooooooooooooooooooooooooooooooooooooooooooooooooooooooooooooooooooooooooooooooooo@@@@ooooooooooooooooXXXXoooooooooooooooooooo",
"oooooooooooooooooooooooooooooooooooooooooooooooooooooooooooooooooooooooooooooooooooo@@@@ooooooooooooooooXXXXoooooooooooooooooooo",
"oooooooooooooooooooooooooooooooooooooooooooooooooooooooooooooooooooooooooooooooooooo@@@@ooooooooooooooooXXXXoooooooooooooooooooo",
"oooooooooooooooooooooooooooooooooooooooooooooooooooooooooooooooooooooooooooooooo@@@@OOOO@@@@oooooooooooooooooooooooooooooooooooo",
"oooooooooooooooooooooooooooooooooooooooooooooooooooooooooooooooooooooooooooooooo@@@@OOOO@@@@oooooooooooooooooooooooooooooooooooo",
"oooooooooooooooooooooooooooooooooooooooooooooooooooooooooooooooooooooooooooooooo@@@@OOOO@@@@oooooooooooooooooooooooooooooooooooo",
"oooooooooooooooooooooooooooooooooooooooooooooooooooooooooooooooooooooooooooooooo@@@@OOOO@@@@oooooooooooooooooooooooooooooooooooo",
"oooooooooooooooooooooooooooooooooooooooooooooooo....oooooooooooooooo....oooooooooooo@@@@oooooooooooooooooooooooooooo    oooooooo",
"oooooooooooooooooooooooooooooooooooooooooooooooo....oooooooooooooooo....oooooooooooo@@@@oooooooooooooooooooooooooooo    oooooooo",
"oooooooooooooooooooooooooooooooooooooooooooooooo....oooooooooooooooo....oooooooooooo@@@@oooooooooooooooooooooooooooo    oooooooo",
"oooooooooooooooooooooooooooooooooooooooooooooooo....oooooooooooooooo....oooooooooooo@@@@oooooooooooooooooooooooooooo    oooooooo",
"oooooooooooooooooooo    oooooooooooooooooooooooooooo....oooooooo....oooooooooooooooooooooooooooooooo++++oooooooooooooooooooooooo",
"oooooooooooooooooooo    oooooooooooooooooooooooooooo....oooooooo....oooooooooooooooooooooooooooooooo++++oooooooooooooooooooooooo",
"oooooooooooooooooooo    oooooooooooooooooooooooooooo....oooooooo....oooooooooooooooooooooooooooooooo++++oooooooooooooooooooooooo",
"oooooooooooooooooooo    oooooooooooooooooooooooooooo....oooooooo....oooooooooooooooooooooooooooooooo++++oooooooooooooooooooooooo",
"ooooooooooooooooooooooooooooooooooooooooooooXXXXoooo....oooooooo....ooooXXXXoooooooooooooooooooooooooooooooooooooooooooooooooooo",
"ooooooooooooooooooooooooooooooooooooooooooooXXXXoooo....oooooooo....ooooXXXXoooooooooooooooooooooooooooooooooooooooooooooooooooo",
"ooooooooooooooooooooooooooooooooooooooooooooXXXXoooo....oooooooo....ooooXXXXoooooooooooooooooooooooooooooooooooooooooooooooooooo",
"ooooooooooooooooooooooooooooooooooooooooooooXXXXoooo....oooooooo....ooooXXXXoooooooooooooooooooooooooooooooooooooooooooooooooooo",
"ooooooooooooooooooooooooooooooooooooooooooooooooXXXXXXXX....ooooXXXXXXXXoooooooooooooooooooooooo....oooooooooooooooo....oooooooo",
"ooooooooooooooooooooooooooooooooooooooooooooooooXXXXXXXX....ooooXXXXXXXXoooooooooooooooooooooooo....oooooooooooooooo....oooooooo",
"ooooooooooooooooooooooooooooooooooooooooooooooooXXXXXXXX....ooooXXXXXXXXoooooooooooooooooooooooo....oooooooooooooooo....oooooooo",
"ooooooooooooooooooooooooooooooooooooooooooooooooXXXXXXXX....ooooXXXXXXXXoooooooooooooooooooooooo....oooooooooooooooo....oooooooo",
"ooooooooooooooooooooooooooooooooooooooooooooooooooooooooXXXXoooooooooooooooooooooooooooooooooooooooo....oooooooo....oooooooooooo",
"ooooooooooooooooooooooooooooooooooooooooooooooooooooooooXXXXoooooooooooooooooooooooooooooooooooooooo....oooooooo....oooooooooooo",
"ooooooooooooooooooooooooooooooooooooooooooooooooooooooooXXXXoooooooooooooooooooooooooooooooooooooooo....oooooooo....oooooooooooo",
"ooooooooooooooooooooooooooooooooooooooooooooooooooooooooXXXXoooooooooooooooooooooooooooooooooooooooo....oooooooo....oooooooooooo",
"oooooooooooooooooooo@@@@ooooooooooooooooooooooooooooooooooooooooooooooooooooooooooooooooooooXXXXoooo....oooooooo....ooooXXXXoooo",
"oooooooooooooooooooo@@@@ooooooooooooooooooooooooooooooooooooooooooooooooooooooooooooooooooooXXXXoooo....oooooooo....ooooXXXXoooo",
"oooooooooooooooooooo@@@@ooooooooooooooooooooooooooooooooooooooooooooooooooooooooooooooooooooXXXXoooo....oooooooo....ooooXXXXoooo",
"oooooooooooooooooooo@@@@ooooooooooooooooooooooooooooooooooooooooooooooooooooooooooooooooooooXXXXoooo....oooooooo....ooooXXXXoooo",
"oooooooooooooooo@@@@OOOO@@@@oooooooooooooooooooo....ooooooooooooooooooooooooooooooooooooooooooooXXXXXXXX....ooooXXXXXXXXoooooooo",
"oooooooooooooooo@@@@OOOO@@@@oooooooooooooooooooo....ooooooooooooooooooooooooooooooooooooooooooooXXXXXXXX....ooooXXXXXXXXoooooooo",
"oooooooooooooooo@@@@OOOO@@@@oooooooooooooooooooo....ooooooooooooooooooooooooooooooooooooooooooooXXXXXXXX....ooooXXXXXXXXoooooooo",
"oooooooooooooooo@@@@OOOO@@@@oooooooooooooooooooo....ooooooooooooooooooooooooooooooooooooooooooooXXXXXXXX....ooooXXXXXXXXoooooooo",
"oooooooooooooooooooo@@@@oooooooo....oooooooo....ooooooooooooooooooooooooooooooooooooooooooooooooooooooooXXXXoooooooooooooooooooo",
"oooooooooooooooooooo@@@@oooooooo....oooooooo....ooooooooooooooooooooooooooooooooooooooooooooooooooooooooXXXXoooooooooooooooooooo",
"oooooooooooooooooooo@@@@oooooooo....oooooooo....ooooooooooooooooooooooooooooooooooooooooooooooooooooooooXXXXoooooooooooooooooooo",
"oooooooooooooooooooo@@@@oooooooo....oooooooo....ooooooooooooooooooooooooooooooooooooooooooooooooooooooooXXXXoooooooooooooooooooo",
"oooooooooooooooooooooooooooooooooooo....oooo....ooooXXXXoooooooooooooooooooooooooooo    oooooooooooooooooooooooooooooooooooooooo",
"oooooooooooooooooooooooooooooooooooo....oooo....ooooXXXXoooooooooooooooooooooooooooo    oooooooooooooooooooooooooooooooooooooooo",
"oooooooooooooooooooooooooooooooooooo....oooo....ooooXXXXoooooooooooooooooooooooooooo    oooooooooooooooooooooooooooooooooooooooo",
"oooooooooooooooooooooooooooooooooooo....oooo....ooooXXXXoooooooooooooooooooooooooooo    oooooooooooooooooooooooooooooooooooooooo",
"ooooooooooooooooooooooooooooXXXXoooo....ooooXXXXXXXXoooooooooooooooo++++oooooooooooooooooooooooooooooooooooooooooooooooooooooooo",
"ooooooooooooooooooooooooooooXXXXoooo....ooooXXXXXXXXoooooooooooooooo++++oooooooooooooooooooooooooooooooooooooooooooooooooooooooo",
"ooooooooooooooooooooooooooooXXXXoooo....ooooXXXXXXXXoooooooooooooooo++++oooooooooooooooooooooooooooooooooooooooooooooooooooooooo",
"ooooooooooooooooooooooooooooXXXXoooo....ooooXXXXXXXXoooooooooooooooo++++oooooooooooooooooooooooooooooooooooooooooooooooooooooooo",
"ooooooooooooooooooooooooooooooooXXXXXXXXoooooooooooooooooooooooooooooooooooooooooooooooooooooooooooooooooooooooooooooooooooooooo",
"ooooooooooooooooooooooooooooooooXXXXXXXXoooooooooooooooooooooooooooooooooooooooooooooooooooooooooooooooooooooooooooooooooooooooo",
"ooooooooooooooooooooooooooooooooXXXXXXXXoooooooooooooooooooooooooooooooooooooooooooooooooooooooooooooooooooooooooooooooooooooooo",
"ooooooooooooooooooooooooooooooooXXXXXXXXoooooooooooooooooooooooooooooooooooooooooooooooooooooooooooooooooooooooooooooooooooooooo",
"oooooooooooooooooooooooooooooooooooooooooooooooooooooooooooooooooooooooooooooooooooooooooooooooooooooooooooooooooooooooooooooooo",
"oooooooooooooooooooooooooooooooooooooooooooooooooooooooooooooooooooooooooooooooooooooooooooooooooooooooooooooooooooooooooooooooo",
"oooooooooooooooooooooooooooooooooooooooooooooooooooooooooooooooooooooooooooooooooooooooooooooooooooooooooooooooooooooooooooooooo",
"oooooooooooooooooooooooooooooooooooooooooooooooooooooooooooooooooooooooooooooooooooooooooooooooooooooooooooooooooooooooooooooooo"
};
