/* XPM */
static char *result[] = {
/* columns rows colors chars-per-pixel */
"32 32 55 1 ",
"  c #74BE2C",
". c #73BE2B",
"X c #73BD2C",
"o c #70B82A",
"O c #75BE2E",
"+ c #7DC13C",
"@ c #71BA2A",
"# c #59981D",
"$ c #89C44D",
"% c #BDD296",
"& c #6EB728",
"* c #60A61E",
"= c #7DC13D",
"- c #D6D36A",
"; c #70B929",
": c #5DA21B",
"> c #6DB627",
", c #73BC2C",
"< c #74BE2D",
"1 c #76BE30",
"2 c #5DA31B",
"3 c #6DB527",
"4 c #5DA21C",
"5 c #6FB72A",
"6 c #70B52D",
"7 c #74BD2E",
"8 c #75BE2D",
"9 c #81BE46",
"0 c #73BD2B",
"q c #5DA11C",
"w c #6FB729",
"e c #6DB02B",
"r c #6FB32D",
"t c #74BC2E",
"y c #73BB2C",
"u c #6CB02B",
"i c #73BC2B",
"p c #5CA11C",
"a c #69AC29",
"s c #5FA31E",
"d c #72BA2C",
"f c #6DB12B",
"g c #74BD2C",
"h c #6EB32D",
"j c #75BF2E",
"k c #74BE2B",
"l c #71BB2A",
"z c #6EB727",
"x c #72BB2C",
"c c #7DC03C",
"v c #70BA29",
"b c #8AC44D",
"n c #72BB2B",
"m c #60A61D",
"M c white",
/* pixels */
"                           .    ",
"                    XoX   O+O   ",
"         @X         o#o  O$%$O  ",
"    X@  &*@         XoX .=%-%=. ",
"    @*&;:>, . <1<        O$%$O  ",
"    ,>234567=8191 X@    @0O=O   ",
"   X65qwert$%$O1< @*&  &*@ .    ",
"    yru,Xi=%-%=.  ,>:@@:>,      ",
" <1< ,X   O$%$O  X65p>;q56X     ",
" 191       O=O    yrasoury      ",
" <1<        .      Xdf,X, <1<   ",
"        @X           g    191   ",
"   X@  &*@                <18   ",
"   @*&;:>,    XoX     X@    @X  ",
"   ,>23456X   o#o     @*&  &*@  ",
"  X65qwery    XoX     ,>:@@:>,  ",
"   yru,X,<1<         i65q;>p56X ",
"    ,X   191        O=thuosary  ",
"         <1<       O$%$7X,fdX   ",
"           X@    @0=%-%=. g XoX ",
"    XoX    @*&  &*@j$%$O<1< o#o ",
"    o#o    ,>:@@:>, O=Ok191 XoX ",
"    XoX   X65p>;q56X . X@1<  lg ",
"     k     yrasoury    @*z  &*@ ",
"    O=O     gxf,X,     ,>:@@:>, ",
"   O$%$O    @Xg       X65p>;q56,",
"  .=%-%cv  &*@         yrasoury ",
"   O$%bnm&;:>,      XoX Xdf,X,  ",
"    O=O,>23456X <1< o#o   g     ",
"     .X65qwery  191 XoX         ",
"       yru,X,   <1<             ",
"        ,,                      "
};
