/* XPM */
static char *result[] = {
/* columns rows colors chars-per-pixel */
"32 32 181 2 ",
"   c #6B362C",
".  c #78273C",
"X  c #753839",
"o  c #78531B",
"O  c #5A4B29",
"+  c #5D5828",
"@  c #564D3B",
"#  c #564B3C",
"$  c #585639",
"%  c #59593A",
"&  c #6B442F",
"*  c #724A25",
"=  c #685E2D",
"-  c #794536",
";  c #6C5733",
":  c #73583A",
">  c #5B6338",
",  c #65622C",
"<  c #6B6A2D",
"1  c #756829",
"2  c #736A35",
"3  c #773845",
"4  c #564545",
"5  c #594543",
"6  c #654E4C",
"7  c #69514E",
"8  c #785D48",
"9  c #6D5452",
"0  c #6A5756",
"q  c #705654",
"w  c #735A57",
"e  c #755B59",
"r  c #756748",
"t  c #6D6F55",
"y  c #7B6854",
"u  c #7B615C",
"i  c #7E7C76",
"p  c #9A7510",
"a  c #A76C26",
"s  c #86674E",
"d  c #98744C",
"f  c #966D56",
"g  c #887356",
"h  c #9A765D",
"j  c #816561",
"k  c #846A64",
"l  c #8C6D67",
"z  c #866D6A",
"x  c #877067",
"c  c #8B726D",
"v  c #9C7760",
"b  c #957A61",
"n  c #8E7672",
"m  c #8D7977",
"M  c #927A75",
"N  c #947B74",
"B  c #967D79",
"V  c #AC606D",
"C  c #B9697B",
"Z  c #59961C",
"A  c #5DA21C",
"S  c #60A61E",
"D  c #598C21",
"F  c #6C902F",
"G  c #68992A",
"H  c #699C30",
"J  c #6CA42D",
"K  c #6EAC2D",
"L  c #71A42A",
"P  c #72AB2D",
"I  c #6DB627",
"U  c #6EB42B",
"Y  c #6FB829",
"T  c #70B32D",
"R  c #7AB429",
"E  c #74BE2C",
"W  c #75AF3C",
"Q  c #74B534",
"!  c #76BE30",
"~  c #75B13B",
"^  c #7DC13D",
"/  c #7C8C6E",
"(  c #7D8676",
")  c #B6950E",
"_  c #B08E22",
"`  c #BA9E24",
"'  c #AF9C30",
"]  c #C69E0E",
"[  c #C19E24",
"{  c #C8A528",
"}  c #D0AB32",
"|  c #E4C011",
" . c #E8C62C",
".. c #F3CF21",
"X. c #E5DE2F",
"o. c #F1D238",
"O. c #F1E829",
"+. c #A48D5A",
"@. c #9B8263",
"#. c #818A7A",
"$. c #94867D",
"%. c #9D847A",
"&. c #8D927A",
"*. c #DFA25D",
"=. c #C38A67",
"-. c #CC946F",
";. c #E09A7A",
":. c #89C44D",
">. c #F3EF40",
",. c #FAF345",
"<. c #D6D36A",
"1. c #FBFA60",
"2. c #B96E81",
"3. c #C47C8A",
"4. c #CC7F92",
"5. c #868E81",
"6. c #8E8A8C",
"7. c #8C9387",
"8. c #8D8E92",
"9. c #959497",
"0. c #AB938D",
"q. c #AF9891",
"w. c #AEA58F",
"e. c #B0A79C",
"r. c #BAB297",
"t. c #B4AFA5",
"y. c #BFB0A3",
"u. c #AEAEB1",
"i. c #B3ACB3",
"p. c #B1B1B5",
"a. c #B4B4B8",
"s. c #BBB7BD",
"d. c #DC8693",
"f. c #C2A884",
"g. c #D9AE86",
"h. c #DDB287",
"j. c #E7B88D",
"k. c #E6BC93",
"l. c #D696A2",
"z. c #E39FAE",
"x. c #FA9DB4",
"c. c #C4BAAC",
"v. c #EEA2B1",
"b. c #F5A7B7",
"n. c #BDD296",
"m. c #BEC4A6",
"M. c #F6CF8E",
"N. c #FCDF83",
"B. c #EECA98",
"V. c #F1CB97",
"C. c #D9D2AB",
"Z. c #D4CFBF",
"A. c #D7D4BC",
"S. c #EBD7AE",
"D. c #F5D6A8",
"F. c #FEDDAB",
"G. c #E8E9BC",
"H. c #BEBEC1",
"J. c #C8C7C7",
"K. c #D4C7CC",
"L. c #DBD8C4",
"P. c #CDCDD2",
"I. c #D6CCD1",
"U. c #D2D2D6",
"Y. c #D5D5D9",
"T. c #DCD1D8",
"R. c #DBDBDE",
"E. c #E5DECB",
"W. c #E4E4CB",
"Q. c #FCF5C6",
"!. c #FCF9CA",
"~. c #FEFBD7",
"^. c #DDDDE1",
"/. c #E1E1E5",
"(. c #EAEAEA",
"). c #FFFDE2",
"_. c #F9EFF2",
"`. c #F4F4F5",
"'. c #FBF6F7",
"]. c #F7F7F8",
"[. c #FEFEFE",
/* pixels */
"E E E E E E E E ^ I I I E ^ ~ Q Q ~ Q Q Q Q E E E E Y ^ I Y E E ",
"E E E I E E E E I ^ E ^ I / ( #.( #.5.( ( / W Q Y ^ ^ Q ^ I E E ",
"E E E ^ I ^ E E ^ T ~ / #.t.m.U.U.U.U.P.H.u.5./ Q Q :.n.^ ^ E E ",
"E E ^ Y E Y E E ~ / 5.p.P.^.].].[.].[.[.`.R.U.p.#.5.C.<.n.^ E E ",
"E E E E I S I E #.p.P.^.].[.[.[.[.[.[.[.[.[.].^.P.p.9.m.:.I ^ I ",
"E E E E E I G / p.Y.^.].[.[.[.[.[.[.[.[.[.[.[.]./.Y.p.&.! ^ E E ",
"E E E E Y Y / t.U.^.].[.[.[.[.[.[.[.[.[.[.[.[.[.].^.U.u./ I E E ",
"Y ^ E E E R ` r.L.^.].[.[.[.[.[.[.[.[.[.[.[.[.[.].^.Y.u./ ^ E E ",
"^ I ^ I E R ) ]  .C.E.~.).[.[.[.[.[.[.[.[.[.[.[.]./.Y.a.( Q ! E ",
"I ^ ^ E E U , ) ] [ {  .o.!.).).).[.[.[.[.[.[.]./.R.Y.a.( Q ^ E ",
"E E ^ E I I @ 8 f y h b d  ...O.>.!.).).).].].^.Y.Y.m.t./ I Y ^ ",
"E E E E ^ T % 7 z j c c y @.h g +.X.O.o.o.S.E.L.A.a.r.' R I ^ I ",
"E E E I E E K $ u -.c c f.u q j c g @.@.+. . .{ [ ` _ = I E E E ",
"E E E I S I I Z > h.k.B.g O r f.x z n n M v @.b v b 8 @ I E E E ",
"E E E ^ I A I Z = h.F.F.t.4 e.r x N n c n m n m n n w @ D Y E E ",
"E E E I I A I S = h.F.S.$.4 J.t n 0.n u c B M n n M c 7 $ J E E ",
"E E E E I I E I = -.D.B.o * E.C.%.0.n u n 0.q.B M 0.n e 9 % T E ",
"E E E E R E E I , d j.V.a a D.D.%.N c e c B q.0.M n n z q # J E ",
"E E E E E E E E L < =.j.B.M.F.D.%.n c e w c M B c u n n w 7 % P ",
"E E E E E E E E ^ L 2 d =.=.g.;.N n c 9 5 z m n c e n c e 9 @ K ",
"^ I I E I I ^ E Y I G = : ; : s c M l 3 3 0 c n c e c c e 9 @ K ",
"I ^ E E I A I E ^ I - V C C C 3.N c j 3.2.4 0 z e q w z e 9 @ K ",
"E E E E E I I ^ E P X C 4.x.x.v.%.c k K.P.i 4 0 q 9 5 9 9 9 @ K ",
"E E E E E E E Y ^ P X C 3.d.b.b.z.B m (.`.u.0 7 9 9 5 9 9 7 % K ",
"E E E E E ^ ^ E ^ I i i.y.} c.T.K.6.J.].[.A.w.9 6 5 9 9 9 # J ! ",
"E E E ^ ^ n.:.E E Q / J.L.o.L./.(.9.a.`.!.,.o.+.# # 9 9 6 $ J E ",
"E E E ^ n.<.n.! I ~ 7.Y.Q.,.W.].].P.9.Z.,.N.M.=.X F $ 6 % H E E ",
"E E E E :.n.:.E J / J.Q.1.G.].[.].U.8.r...*.=.:   P H > J E E E ",
"E E E E ^ ^ E E T #.C.,.Q._.'._./.Y.p.&.| ] p 0 K I T I ! E E E ",
"E E E E E E I E T < } ;.b.b.v.l.K.I.s.r.p o p = I ^ ^ ^ E E E E ",
"E E E E E E E E U G 1 f v h s : 3.4.2.V s   o L Y ^ E E E E E E ",
"E E E E E E E E E Y J + O & = F X . . X G L U E Y I E E E E E E "
};
