/* XPM */
static char *result[] = {
/* columns rows colors chars-per-pixel */
"128 128 35 1 ",
"  c #2E1E22",
". c #5C2E00",
"X c #6A1C30",
"o c #4D3B39",
"O c #467D12",
"+ c #534721",
"@ c #705654",
"# c #767678",
"$ c #964F00",
"% c #8B5E4A",
"& c #9D704C",
"* c #9D725D",
"= c #8F7772",
"- c #539614",
"; c #6DAF2E",
": c #74BE2C",
"> c #C79D00",
", c #FFD600",
"< c #FFFC00",
"1 c #D7CF22",
"2 c #8ABE58",
"3 c #D7906E",
"4 c #C26C81",
"5 c #928A8C",
"6 c #B7A099",
"7 c #B7B7BB",
"8 c #DD8499",
"9 c #EEBE93",
"0 c #FFA3B9",
"q c #FFE1AF",
"w c gray85",
"e c #D9D9DD",
"r c gainsboro",
"t c gray95",
"y c white",
/* pixels */
"::::::::::::::::::::::::::::::::::::::::::::::::::::::::::::::::::::::::::::::::::::::::::::::::::::::::::::::::::::::::::::::::",
"::::::::::::::::::::::::::::::::::::::::::::::::::::::::::::::::::::::::::::::::::::::::::::::::::::::::::::::::::::::::::::::::",
"::::::::::::::::::::::::::::::::::::::::::::::::::::::::::::::::::::::::::::::::::::::::::::::::::::::::::::::::::::::::::::::::",
"::::::::::::::::::::::::::::::::::::::::::::::::::::::::::::::::::::::::::::::::::::::::::::::::::::::::::::::::::::::::::::::::",
"::::::::::::::::::::::::::::::::::::::::::::::::::::####################################::::::::::::::::::::::::::::::::::::::::",
"::::::::::::::::::::::::::::::::::::::::::::::::::::####################################::::::::::::::::::::::::::::::::::::::::",
"::::::::::::::::::::::::::::::::::::::::::::::::::::####################################::::::::::::::::::::::::::::::::::::::::",
"::::::::::::::::::::::::::::::::::::::::::::::::::::####################################::::::::::::::::::::::::::::::::::::::::",
"::::::::::::::::::::::::::::::::::::::::::::########77777777eeeeeeeeeeeeeeeeeeee77777777########::::::::::::rrrr::::::::::::::::",
"::::::::::::::::::::::::::::::::::::::::::::########77777777eeeeeeeeeeeeeeeeeeee77777777########::::::::::::rrrr::::::::::::::::",
"::::::::::::::::::::::::::::::::::::::::::::########77777777eeeeeeeeeeeeeeeeeeee77777777########::::::::::::rrrr::::::::::::::::",
"::::::::::::::::::::::::::::::::::::::::::::########77777777eeeeeeeeeeeeeeeeeeee77777777########::::::::::::rrrr::::::::::::::::",
"::::::::::::::::::::::::::::::::::::########7777eeeeeeeeyyyyyyyyyyyyyyyyyyyyyyyyyyyyeeeeeeee7777########rrrr1111rrrr::::::::::::",
"::::::::::::::::::::::::::::::::::::########7777eeeeeeeeyyyyyyyyyyyyyyyyyyyyyyyyyyyyeeeeeeee7777########rrrr1111rrrr::::::::::::",
"::::::::::::::::::::::::::::::::::::########7777eeeeeeeeyyyyyyyyyyyyyyyyyyyyyyyyyyyyeeeeeeee7777########rrrr1111rrrr::::::::::::",
"::::::::::::::::::::::::::::::::::::########7777eeeeeeeeyyyyyyyyyyyyyyyyyyyyyyyyyyyyeeeeeeee7777########rrrr1111rrrr::::::::::::",
"::::::::::::::::::::----::::::::####7777eeeeeeeeyyyyyyyyyyyyyyyyyyyyyyyyyyyyyyyyyyyyyyyyyyyyeeeeeeee7777####rrrr::::::::::::::::",
"::::::::::::::::::::----::::::::####7777eeeeeeeeyyyyyyyyyyyyyyyyyyyyyyyyyyyyyyyyyyyyyyyyyyyyeeeeeeee7777####rrrr::::::::::::::::",
"::::::::::::::::::::----::::::::####7777eeeeeeeeyyyyyyyyyyyyyyyyyyyyyyyyyyyyyyyyyyyyyyyyyyyyeeeeeeee7777####rrrr::::::::::::::::",
"::::::::::::::::::::----::::::::####7777eeeeeeeeyyyyyyyyyyyyyyyyyyyyyyyyyyyyyyyyyyyyyyyyyyyyeeeeeeee7777####rrrr::::::::::::::::",
"::::::::::::::::::::::::----####7777eeeeeeeeyyyyyyyyyyyyyyyyyyyyyyyyyyyyyyyyyyyyyyyyyyyyyyyyyyyyeeeeeeee7777####::::::::::::::::",
"::::::::::::::::::::::::----####7777eeeeeeeeyyyyyyyyyyyyyyyyyyyyyyyyyyyyyyyyyyyyyyyyyyyyyyyyyyyyeeeeeeee7777####::::::::::::::::",
"::::::::::::::::::::::::----####7777eeeeeeeeyyyyyyyyyyyyyyyyyyyyyyyyyyyyyyyyyyyyyyyyyyyyyyyyyyyyeeeeeeee7777####::::::::::::::::",
"::::::::::::::::::::::::----####7777eeeeeeeeyyyyyyyyyyyyyyyyyyyyyyyyyyyyyyyyyyyyyyyyyyyyyyyyyyyyeeeeeeee7777####::::::::::::::::",
"::::::::::::::::;;;;::::####7777eeeeeeeeyyyyyyyyyyyyyyyyyyyyyyyyyyyyyyyyyyyyyyyyyyyyyyyyyyyyyyyyyyyyeeeeeeee7777####::::::::::::",
"::::::::::::::::;;;;::::####7777eeeeeeeeyyyyyyyyyyyyyyyyyyyyyyyyyyyyyyyyyyyyyyyyyyyyyyyyyyyyyyyyyyyyeeeeeeee7777####::::::::::::",
"::::::::::::::::;;;;::::####7777eeeeeeeeyyyyyyyyyyyyyyyyyyyyyyyyyyyyyyyyyyyyyyyyyyyyyyyyyyyyyyyyyyyyeeeeeeee7777####::::::::::::",
"::::::::::::::::;;;;::::####7777eeeeeeeeyyyyyyyyyyyyyyyyyyyyyyyyyyyyyyyyyyyyyyyyyyyyyyyyyyyyyyyyyyyyeeeeeeee7777####::::::::::::",
"::::::::::::::::::::;;;;>>>>7777eeeeeeeeyyyyyyyyyyyyyyyyyyyyyyyyyyyyyyyyyyyyyyyyyyyyyyyyyyyyyyyyyyyyeeeeeeee7777####::::::::::::",
"::::::::::::::::::::;;;;>>>>7777eeeeeeeeyyyyyyyyyyyyyyyyyyyyyyyyyyyyyyyyyyyyyyyyyyyyyyyyyyyyyyyyyyyyeeeeeeee7777####::::::::::::",
"::::::::::::::::::::;;;;>>>>7777eeeeeeeeyyyyyyyyyyyyyyyyyyyyyyyyyyyyyyyyyyyyyyyyyyyyyyyyyyyyyyyyyyyyeeeeeeee7777####::::::::::::",
"::::::::::::::::::::;;;;>>>>7777eeeeeeeeyyyyyyyyyyyyyyyyyyyyyyyyyyyyyyyyyyyyyyyyyyyyyyyyyyyyyyyyyyyyeeeeeeee7777####::::::::::::",
"::::::::::::::::::::::::>>>>>>>>,,,,eeeeeeeeyyyyyyyyyyyyyyyyyyyyyyyyyyyyyyyyyyyyyyyyyyyyyyyyyyyyyyyyeeeeeeee7777####::::::::::::",
"::::::::::::::::::::::::>>>>>>>>,,,,eeeeeeeeyyyyyyyyyyyyyyyyyyyyyyyyyyyyyyyyyyyyyyyyyyyyyyyyyyyyyyyyeeeeeeee7777####::::::::::::",
"::::::::::::::::::::::::>>>>>>>>,,,,eeeeeeeeyyyyyyyyyyyyyyyyyyyyyyyyyyyyyyyyyyyyyyyyyyyyyyyyyyyyyyyyeeeeeeee7777####::::::::::::",
"::::::::::::::::::::::::>>>>>>>>,,,,eeeeeeeeyyyyyyyyyyyyyyyyyyyyyyyyyyyyyyyyyyyyyyyyyyyyyyyyyyyyyyyyeeeeeeee7777####::::::::::::",
"::::::::2222::::::::::::oooo>>>>>>>>>>>>>>>>,,,,,,,,yyyyyyyyyyyyyyyyyyyyyyyyyyyyyyyyyyyyyyyyyyyyeeeeeeeeeeee7777####::::::::::::",
"::::::::2222::::::::::::oooo>>>>>>>>>>>>>>>>,,,,,,,,yyyyyyyyyyyyyyyyyyyyyyyyyyyyyyyyyyyyyyyyyyyyeeeeeeeeeeee7777####::::::::::::",
"::::::::2222::::::::::::oooo>>>>>>>>>>>>>>>>,,,,,,,,yyyyyyyyyyyyyyyyyyyyyyyyyyyyyyyyyyyyyyyyyyyyeeeeeeeeeeee7777####::::::::::::",
"::::::::2222::::::::::::oooo>>>>>>>>>>>>>>>>,,,,,,,,yyyyyyyyyyyyyyyyyyyyyyyyyyyyyyyyyyyyyyyyyyyyeeeeeeeeeeee7777####::::::::::::",
"::::::::::::::::::::::::oooo@@@@====@@@@========@@@@,,,,,,,,<<<<<<<<yyyyyyyyyyyyyyyyyyyyyyyyeeeeeeeeeeee77777777####::::::::::::",
"::::::::::::::::::::::::oooo@@@@====@@@@========@@@@,,,,,,,,<<<<<<<<yyyyyyyyyyyyyyyyyyyyyyyyeeeeeeeeeeee77777777####::::::::::::",
"::::::::::::::::::::::::oooo@@@@====@@@@========@@@@,,,,,,,,<<<<<<<<yyyyyyyyyyyyyyyyyyyyyyyyeeeeeeeeeeee77777777####::::::::::::",
"::::::::::::::::::::::::oooo@@@@====@@@@========@@@@,,,,,,,,<<<<<<<<yyyyyyyyyyyyyyyyyyyyyyyyeeeeeeeeeeee77777777####::::::::::::",
"::::::::::::::::::::::::oooo@@@@====@@@@========@@@@========@@@@====<<<<<<<<,,,,,,,,eeeeeeeeeeeeeeee77777777>>>>::::::::::::::::",
"::::::::::::::::::::::::oooo@@@@====@@@@========@@@@========@@@@====<<<<<<<<,,,,,,,,eeeeeeeeeeeeeeee77777777>>>>::::::::::::::::",
"::::::::::::::::::::::::oooo@@@@====@@@@========@@@@========@@@@====<<<<<<<<,,,,,,,,eeeeeeeeeeeeeeee77777777>>>>::::::::::::::::",
"::::::::::::::::::::::::oooo@@@@====@@@@========@@@@========@@@@====<<<<<<<<,,,,,,,,eeeeeeeeeeeeeeee77777777>>>>::::::::::::::::",
"::::::::::::::::::::::::::::oooo@@@@9999@@@@@@@@qqqq@@@@@@@@@@@@====@@@@============,,,,,,,,>>>>>>>>>>>>>>>>oooo::::::::::::::::",
"::::::::::::::::::::::::::::oooo@@@@9999@@@@@@@@qqqq@@@@@@@@@@@@====@@@@============,,,,,,,,>>>>>>>>>>>>>>>>oooo::::::::::::::::",
"::::::::::::::::::::::::::::oooo@@@@9999@@@@@@@@qqqq@@@@@@@@@@@@====@@@@============,,,,,,,,>>>>>>>>>>>>>>>>oooo::::::::::::::::",
"::::::::::::::::::::::::::::oooo@@@@9999@@@@@@@@qqqq@@@@@@@@@@@@====@@@@============,,,,,,,,>>>>>>>>>>>>>>>>oooo::::::::::::::::",
"::::::::::::::::----::::::::----++++99999999qqqq++++++++++++qqqq@@@@====================================@@@@oooo::::::::::::::::",
"::::::::::::::::----::::::::----++++99999999qqqq++++++++++++qqqq@@@@====================================@@@@oooo::::::::::::::::",
"::::::::::::::::----::::::::----++++99999999qqqq++++++++++++qqqq@@@@====================================@@@@oooo::::::::::::::::",
"::::::::::::::::----::::::::----++++99999999qqqq++++++++++++qqqq@@@@====================================@@@@oooo::::::::::::::::",
"::::::::::::::::::::----::::----++++9999qqqqqqqqeeee    wwww++++========================================@@@@oooo----::::::::::::",
"::::::::::::::::::::----::::----++++9999qqqqqqqqeeee    wwww++++========================================@@@@oooo----::::::::::::",
"::::::::::::::::::::----::::----++++9999qqqqqqqqeeee    wwww++++========================================@@@@oooo----::::::::::::",
"::::::::::::::::::::----::::----++++9999qqqqqqqqeeee    wwww++++========================================@@@@oooo----::::::::::::",
"::::::::::::;;;;::::----::::;;;;++++9999qqqqqqqq5555    tttt++++====6666====@@@@============================@@@@oooo::::::::::::",
"::::::::::::;;;;::::----::::;;;;++++9999qqqqqqqq5555    tttt++++====6666====@@@@============================@@@@oooo::::::::::::",
"::::::::::::;;;;::::----::::;;;;++++9999qqqqqqqq5555    tttt++++====6666====@@@@============================@@@@oooo::::::::::::",
"::::::::::::;;;;::::----::::;;;;++++9999qqqqqqqq5555    tttt++++====6666====@@@@============================@@@@oooo::::::::::::",
"::::::::::::::::;;;;;;;;::::::::++++3333qqqqqqqq........yyyyqqqq====6666====@@@@====66666666========6666====@@@@@@@@oooo::::::::",
"::::::::::::::::;;;;;;;;::::::::++++3333qqqqqqqq........yyyyqqqq====6666====@@@@====66666666========6666====@@@@@@@@oooo::::::::",
"::::::::::::::::;;;;;;;;::::::::++++3333qqqqqqqq........yyyyqqqq====6666====@@@@====66666666========6666====@@@@@@@@oooo::::::::",
"::::::::::::::::;;;;;;;;::::::::++++3333qqqqqqqq........yyyyqqqq====6666====@@@@====66666666========6666====@@@@@@@@oooo::::::::",
"::::::::::::::::::::::::::::::::++++&&&&9999qqqq$$$$$$$$qqqqqqqq============@@@@========66666666================@@@@oooo::::::::",
"::::::::::::::::::::::::::::::::++++&&&&9999qqqq$$$$$$$$qqqqqqqq============@@@@========66666666================@@@@oooo::::::::",
"::::::::::::::::::::::::::::::::++++&&&&9999qqqq$$$$$$$$qqqqqqqq============@@@@========66666666================@@@@oooo::::::::",
"::::::::::::::::::::::::::::::::++++&&&&9999qqqq$$$$$$$$qqqqqqqq============@@@@========66666666================@@@@oooo::::::::",
"::::::::::::::::::::::::::::::::::::++++33339999qqqqqqqqqqqqqqqq============@@@@@@@@================@@@@========@@@@@@@@oooo::::",
"::::::::::::::::::::::::::::::::::::++++33339999qqqqqqqqqqqqqqqq============@@@@@@@@================@@@@========@@@@@@@@oooo::::",
"::::::::::::::::::::::::::::::::::::++++33339999qqqqqqqqqqqqqqqq============@@@@@@@@================@@@@========@@@@@@@@oooo::::",
"::::::::::::::::::::::::::::::::::::++++33339999qqqqqqqqqqqqqqqq============@@@@@@@@================@@@@========@@@@@@@@oooo::::",
"::::::::::::::::::::::::::::::::::::::::++++&&&&3333333399999999============@@@@oooo================@@@@========@@@@@@@@oooo::::",
"::::::::::::::::::::::::::::::::::::::::++++&&&&3333333399999999============@@@@oooo================@@@@========@@@@@@@@oooo::::",
"::::::::::::::::::::::::::::::::::::::::++++&&&&3333333399999999============@@@@oooo================@@@@========@@@@@@@@oooo::::",
"::::::::::::::::::::::::::::::::::::::::++++&&&&3333333399999999============@@@@oooo================@@@@========@@@@@@@@oooo::::",
"::::::::::::::::::::::::::::::::::::::::::::++++++++++++++++++++============XXXXoooo@@@@============@@@@========@@@@@@@@oooo::::",
"::::::::::::::::::::::::::::::::::::::::::::++++++++++++++++++++============XXXXoooo@@@@============@@@@========@@@@@@@@oooo::::",
"::::::::::::::::::::::::::::::::::::::::::::++++++++++++++++++++============XXXXoooo@@@@============@@@@========@@@@@@@@oooo::::",
"::::::::::::::::::::::::::::::::::::::::::::++++++++++++++++++++============XXXXoooo@@@@============@@@@========@@@@@@@@oooo::::",
"::::::::::::::::::::OOOO::::::::::::::::XXXX44444444444444448888========@@@@88884444oooo@@@@====@@@@@@@@@@@@====@@@@@@@@oooo::::",
"::::::::::::::::::::OOOO::::::::::::::::XXXX44444444444444448888========@@@@88884444oooo@@@@====@@@@@@@@@@@@====@@@@@@@@oooo::::",
"::::::::::::::::::::OOOO::::::::::::::::XXXX44444444444444448888========@@@@88884444oooo@@@@====@@@@@@@@@@@@====@@@@@@@@oooo::::",
"::::::::::::::::::::OOOO::::::::::::::::XXXX44444444444444448888========@@@@88884444oooo@@@@====@@@@@@@@@@@@====@@@@@@@@oooo::::",
"::::::::::::::::::::::::::::::::::::::::XXXX44448888000000000000========@@@@eeeeeeee####oooo@@@@@@@@@@@@oooo@@@@@@@@@@@@oooo::::",
"::::::::::::::::::::::::::::::::::::::::XXXX44448888000000000000========@@@@eeeeeeee####oooo@@@@@@@@@@@@oooo@@@@@@@@@@@@oooo::::",
"::::::::::::::::::::::::::::::::::::::::XXXX44448888000000000000========@@@@eeeeeeee####oooo@@@@@@@@@@@@oooo@@@@@@@@@@@@oooo::::",
"::::::::::::::::::::::::::::::::::::::::XXXX44448888000000000000========@@@@eeeeeeee####oooo@@@@@@@@@@@@oooo@@@@@@@@@@@@oooo::::",
"::::::::::::::::::::::::::::::::::::::::XXXX444444448888000000000000====@@@@yyyyyyyy7777oooo@@@@@@@@@@@@oooo@@@@@@@@@@@@oooo::::",
"::::::::::::::::::::::::::::::::::::::::XXXX444444448888000000000000====@@@@yyyyyyyy7777oooo@@@@@@@@@@@@oooo@@@@@@@@@@@@oooo::::",
"::::::::::::::::::::::::::::::::::::::::XXXX444444448888000000000000====@@@@yyyyyyyy7777oooo@@@@@@@@@@@@oooo@@@@@@@@@@@@oooo::::",
"::::::::::::::::::::::::::::::::::::::::XXXX444444448888000000000000====@@@@yyyyyyyy7777oooo@@@@@@@@@@@@oooo@@@@@@@@@@@@oooo::::",
"::::::::::::::::::::::::::::::::::::::::####77777777>>>>7777eeeeeeee####eeeeyyyyyyyyeeee7777oooo@@@@oooo@@@@@@@@@@@@oooo::::::::",
"::::::::::::::::::::::::::::::::::::::::####77777777>>>>7777eeeeeeee####eeeeyyyyyyyyeeee7777oooo@@@@oooo@@@@@@@@@@@@oooo::::::::",
"::::::::::::::::::::::::::::::::::::::::####77777777>>>>7777eeeeeeee####eeeeyyyyyyyyeeee7777oooo@@@@oooo@@@@@@@@@@@@oooo::::::::",
"::::::::::::::::::::::::::::::::::::::::####77777777>>>>7777eeeeeeee####eeeeyyyyyyyyeeee7777oooo@@@@oooo@@@@@@@@@@@@oooo::::::::",
"::::::::::::::::::::rrrr::::::::::::::::####eeeeeeee,,,,eeeeeeeeyyyy####7777yyyyyyyy<<<<,,,,3333oooooooo@@@@@@@@@@@@oooo;;;;::::",
"::::::::::::::::::::rrrr::::::::::::::::####eeeeeeee,,,,eeeeeeeeyyyy####7777yyyyyyyy<<<<,,,,3333oooooooo@@@@@@@@@@@@oooo;;;;::::",
"::::::::::::::::::::rrrr::::::::::::::::####eeeeeeee,,,,eeeeeeeeyyyy####7777yyyyyyyy<<<<,,,,3333oooooooo@@@@@@@@@@@@oooo;;;;::::",
"::::::::::::::::::::rrrr::::::::::::::::####eeeeeeee,,,,eeeeeeeeyyyy####7777yyyyyyyy<<<<,,,,3333oooooooo@@@@@@@@@@@@oooo;;;;::::",
"::::::::::::::::rrrr1111rrrr::::::::::::####eeeeyyyy<<<<eeeeyyyyyyyyeeee####eeee<<<<qqqqqqqq3333XXXX;;;;oooo@@@@oooo;;;;::::::::",
"::::::::::::::::rrrr1111rrrr::::::::::::####eeeeyyyy<<<<eeeeyyyyyyyyeeee####eeee<<<<qqqqqqqq3333XXXX;;;;oooo@@@@oooo;;;;::::::::",
"::::::::::::::::rrrr1111rrrr::::::::::::####eeeeyyyy<<<<eeeeyyyyyyyyeeee####eeee<<<<qqqqqqqq3333XXXX;;;;oooo@@@@oooo;;;;::::::::",
"::::::::::::::::rrrr1111rrrr::::::::::::####eeeeyyyy<<<<eeeeyyyyyyyyeeee####eeee<<<<qqqqqqqq3333XXXX;;;;oooo@@@@oooo;;;;::::::::",
"::::::::::::::::::::rrrr::::::::----####eeeeyyyy<<<<eeeeyyyyyyyyyyyyeeee####7777,,,,33333333++++XXXX::::;;;;oooo::::::::::::::::",
"::::::::::::::::::::rrrr::::::::----####eeeeyyyy<<<<eeeeyyyyyyyyyyyyeeee####7777,,,,33333333++++XXXX::::;;;;oooo::::::::::::::::",
"::::::::::::::::::::rrrr::::::::----####eeeeyyyy<<<<eeeeyyyyyyyyyyyyeeee####7777,,,,33333333++++XXXX::::;;;;oooo::::::::::::::::",
"::::::::::::::::::::rrrr::::::::----####eeeeyyyy<<<<eeeeyyyyyyyyyyyyeeee####7777,,,,33333333++++XXXX::::;;;;oooo::::::::::::::::",
"::::::::::::::::::::::::::::::::::::####eeee<<<<yyyyyyyyyyyyyyyyeeeeeeee7777####,,,,>>>>++++####::::::::::::::::::::::::::::::::",
"::::::::::::::::::::::::::::::::::::####eeee<<<<yyyyyyyyyyyyyyyyeeeeeeee7777####,,,,>>>>++++####::::::::::::::::::::::::::::::::",
"::::::::::::::::::::::::::::::::::::####eeee<<<<yyyyyyyyyyyyyyyyeeeeeeee7777####,,,,>>>>++++####::::::::::::::::::::::::::::::::",
"::::::::::::::::::::::::::::::::::::####eeee<<<<yyyyyyyyyyyyyyyyeeeeeeee7777####,,,,>>>>++++####::::::::::::::::::::::::::::::::",
"::::::::::::::::::::::::::::;;;;::::++++,,,,88880000000000008888eeeeeeee77777777>>>>++++>>>>++++::::::::::::::::::::::::::::::::",
"::::::::::::::::::::::::::::;;;;::::++++,,,,88880000000000008888eeeeeeee77777777>>>>++++>>>>++++::::::::::::::::::::::::::::::::",
"::::::::::::::::::::::::::::;;;;::::++++,,,,88880000000000008888eeeeeeee77777777>>>>++++>>>>++++::::::::::::::::::::::::::::::::",
"::::::::::::::::::::::::::::;;;;::::++++,,,,88880000000000008888eeeeeeee77777777>>>>++++>>>>++++::::::::::::::::::::::::::::::::",
"::::::::::::::::::::::::::::::::;;;;;;;;++++************%%%%++++8888888844444444XXXXXXXXXXXX::::::::::::::::::::::::::::::::::::",
"::::::::::::::::::::::::::::::::;;;;;;;;++++************%%%%++++8888888844444444XXXXXXXXXXXX::::::::::::::::::::::::::::::::::::",
"::::::::::::::::::::::::::::::::;;;;;;;;++++************%%%%++++8888888844444444XXXXXXXXXXXX::::::::::::::::::::::::::::::::::::",
"::::::::::::::::::::::::::::::::;;;;;;;;++++************%%%%++++8888888844444444XXXXXXXXXXXX::::::::::::::::::::::::::::::::::::",
"::::::::::::::::::::::::::::::::::::::::::::++++++++++++++++::::XXXXXXXXXXXXXXXX::::::::::::::::::::::::::::::::::::::::::::::::",
"::::::::::::::::::::::::::::::::::::::::::::++++++++++++++++::::XXXXXXXXXXXXXXXX::::::::::::::::::::::::::::::::::::::::::::::::",
"::::::::::::::::::::::::::::::::::::::::::::++++++++++++++++::::XXXXXXXXXXXXXXXX::::::::::::::::::::::::::::::::::::::::::::::::",
"::::::::::::::::::::::::::::::::::::::::::::++++++++++++++++::::XXXXXXXXXXXXXXXX::::::::::::::::::::::::::::::::::::::::::::::::"
};
