/* XPM */
static char *_8f56419a0fa4197c53c0f5c7c540359ueIYCbXBVxEHX0Xq[] = {
/* columns rows colors chars-per-pixel */
"128 128 12 1 ",
"  c #4F3D32",
". c #603A38",
"X c #467D12",
"o c #703D45",
"O c #539614",
"+ c #6DAF2E",
"@ c #74BE2C",
"# c #8ABE58",
"$ c #A33C83",
"% c #9B66A6",
"& c #935DDE",
"* c #8570FF",
/* pixels */
"@@@@@@@@@@@@@@@@@@@@@@@@@@@@@@@@@@@@@@@@@@@@@@@@@@@@@@@@@@@@@@@@@@@@@@@@@@@@@@@@@@@@@@@@@@@@@@@@@@@@@@@@@@@@@@@@@@@@@@@@@@@@@@@@",
"@@@@@@@@@@@@@@@@@@@@@@@@@@@@@@@@@@@@@@@@@@@@@@@@@@@@@@@@@@@@@@@@@@@@@@@@@@@@@@@@@@@@@@@@@@@@@@@@@@@@@@@@@@@@@@@@@@@@@@@@@@@@@@@@",
"@@@@@@@@@@@@@@@@@@@@@@@@@@@@@@@@@@@@@@@@@@@@@@@@@@@@@@@@@@@@@@@@@@@@@@@@@@@@@@@@@@@@@@@@@@@@@@@@@@@@@@@@@@@@@@@@@@@@@@@@@@@@@@@@",
"@@@@@@@@@@@@@@@@@@@@@@@@@@@@@@@@@@@@@@@@@@@@@@@@@@@@@@@@@@@@@@@@@@@@@@@@@@@@@@@@@@@@@@@@@@@@@@@@@@@@@@@@@@@@@@@@@@@@@@@@@@@@@@@@",
"@@@@@@@@@@@@@@@@@@@@@@@@@@@@@@@@@@@@@@@@@@@@@@@@@@@@@@@@@@@@&&&&$$$$$$$$$$$$@@@@@@@@@@@@@@@@@@@@@@@@@@@@@@@@@@@@@@@@@@@@@@@@@@@@",
"@@@@@@@@@@@@@@@@@@@@@@@@@@@@@@@@@@@@@@@@@@@@@@@@@@@@@@@@@@@@&&&&$$$$$$$$$$$$@@@@@@@@@@@@@@@@@@@@@@@@@@@@@@@@@@@@@@@@@@@@@@@@@@@@",
"@@@@@@@@@@@@@@@@@@@@@@@@@@@@@@@@@@@@@@@@@@@@@@@@@@@@@@@@@@@@&&&&$$$$$$$$$$$$@@@@@@@@@@@@@@@@@@@@@@@@@@@@@@@@@@@@@@@@@@@@@@@@@@@@",
"@@@@@@@@@@@@@@@@@@@@@@@@@@@@@@@@@@@@@@@@@@@@@@@@@@@@@@@@@@@@&&&&$$$$$$$$$$$$@@@@@@@@@@@@@@@@@@@@@@@@@@@@@@@@@@@@@@@@@@@@@@@@@@@@",
"@@@@@@@@@@@@@@@@@@@@@@@@@@@@@@@@@@@@@@@@@@@@@@@@@@@@@@@@&&&&$$$$$$$$%%%%$$$$$$$$@@@@XXXX@@@@@@@@@@@@@@@@@@@@@@@@@@@@@@@@@@@@@@@@",
"@@@@@@@@@@@@@@@@@@@@@@@@@@@@@@@@@@@@@@@@@@@@@@@@@@@@@@@@&&&&$$$$$$$$%%%%$$$$$$$$@@@@XXXX@@@@@@@@@@@@@@@@@@@@@@@@@@@@@@@@@@@@@@@@",
"@@@@@@@@@@@@@@@@@@@@@@@@@@@@@@@@@@@@@@@@@@@@@@@@@@@@@@@@&&&&$$$$$$$$%%%%$$$$$$$$@@@@XXXX@@@@@@@@@@@@@@@@@@@@@@@@@@@@@@@@@@@@@@@@",
"@@@@@@@@@@@@@@@@@@@@@@@@@@@@@@@@@@@@@@@@@@@@@@@@@@@@@@@@&&&&$$$$$$$$%%%%$$$$$$$$@@@@XXXX@@@@@@@@@@@@@@@@@@@@@@@@@@@@@@@@@@@@@@@@",
"@@@@@@@@@@@@@@@@@@@@@@@@@@@@@@@@@@@@OOOO@@@@@@@@@@@@@@@@&&&&$$$$%%%%oooo%%%%$$$$@@@@@@@@@@@@@@@@@@@@@@@@@@@@@@@@@@@@@@@@@@@@@@@@",
"@@@@@@@@@@@@@@@@@@@@@@@@@@@@@@@@@@@@OOOO@@@@@@@@@@@@@@@@&&&&$$$$%%%%oooo%%%%$$$$@@@@@@@@@@@@@@@@@@@@@@@@@@@@@@@@@@@@@@@@@@@@@@@@",
"@@@@@@@@@@@@@@@@@@@@@@@@@@@@@@@@@@@@OOOO@@@@@@@@@@@@@@@@&&&&$$$$%%%%oooo%%%%$$$$@@@@@@@@@@@@@@@@@@@@@@@@@@@@@@@@@@@@@@@@@@@@@@@@",
"@@@@@@@@@@@@@@@@@@@@@@@@@@@@@@@@@@@@OOOO@@@@@@@@@@@@@@@@&&&&$$$$%%%%oooo%%%%$$$$@@@@@@@@@@@@@@@@@@@@@@@@@@@@@@@@@@@@@@@@@@@@@@@@",
"@@@@@@@@@@@@@@@@@@@@OOOO@@@@@@@@OOOO@@@@@@@@@@@@@@@@&&&&$$$$%%%%........oooo%%%%$$$$@@@@@@@@@@@@@@@@@@@@@@@@@@@@@@@@@@@@@@@@@@@@",
"@@@@@@@@@@@@@@@@@@@@OOOO@@@@@@@@OOOO@@@@@@@@@@@@@@@@&&&&$$$$%%%%........oooo%%%%$$$$@@@@@@@@@@@@@@@@@@@@@@@@@@@@@@@@@@@@@@@@@@@@",
"@@@@@@@@@@@@@@@@@@@@OOOO@@@@@@@@OOOO@@@@@@@@@@@@@@@@&&&&$$$$%%%%........oooo%%%%$$$$@@@@@@@@@@@@@@@@@@@@@@@@@@@@@@@@@@@@@@@@@@@@",
"@@@@@@@@@@@@@@@@@@@@OOOO@@@@@@@@OOOO@@@@@@@@@@@@@@@@&&&&$$$$%%%%........oooo%%%%$$$$@@@@@@@@@@@@@@@@@@@@@@@@@@@@@@@@@@@@@@@@@@@@",
"@@@@@@@@@@@@@@@@@@@@@@@@OOOO@@@@OOOO@@@@++++@@@@@@@@&&&&$$$$....        ....oooo$$$$@@@@@@@@@@@@@@@@@@@@@@@@@@@@@@@@@@@@@@@@@@@@",
"@@@@@@@@@@@@@@@@@@@@@@@@OOOO@@@@OOOO@@@@++++@@@@@@@@&&&&$$$$....        ....oooo$$$$@@@@@@@@@@@@@@@@@@@@@@@@@@@@@@@@@@@@@@@@@@@@",
"@@@@@@@@@@@@@@@@@@@@@@@@OOOO@@@@OOOO@@@@++++@@@@@@@@&&&&$$$$....        ....oooo$$$$@@@@@@@@@@@@@@@@@@@@@@@@@@@@@@@@@@@@@@@@@@@@",
"@@@@@@@@@@@@@@@@@@@@@@@@OOOO@@@@OOOO@@@@++++@@@@@@@@&&&&$$$$....        ....oooo$$$$@@@@@@@@@@@@@@@@@@@@@@@@@@@@@@@@@@@@@@@@@@@@",
"@@@@@@@@@@@@@@@@++++@@@@OOOO@@@@++++&&&&&&&&@@@@&&&&&&&&$$$$....        ....oooo$$$$$$$$@@@@@@@@OOOO@@@@@@@@@@@@@@@@@@@@@@@@@@@@",
"@@@@@@@@@@@@@@@@++++@@@@OOOO@@@@++++&&&&&&&&@@@@&&&&&&&&$$$$....        ....oooo$$$$$$$$@@@@@@@@OOOO@@@@@@@@@@@@@@@@@@@@@@@@@@@@",
"@@@@@@@@@@@@@@@@++++@@@@OOOO@@@@++++&&&&&&&&@@@@&&&&&&&&$$$$....        ....oooo$$$$$$$$@@@@@@@@OOOO@@@@@@@@@@@@@@@@@@@@@@@@@@@@",
"@@@@@@@@@@@@@@@@++++@@@@OOOO@@@@++++&&&&&&&&@@@@&&&&&&&&$$$$....        ....oooo$$$$$$$$@@@@@@@@OOOO@@@@@@@@@@@@@@@@@@@@@@@@@@@@",
"@@@@@@@@@@@@@@@@@@@@++++++++@@@@@@@@&&&&&&&&@@@@&&&&$$$$%%%%....        ........%%%%$$$$@@@@OOOO@@@@@@@@@@@@@@@@@@@@@@@@@@@@@@@@",
"@@@@@@@@@@@@@@@@@@@@++++++++@@@@@@@@&&&&&&&&@@@@&&&&$$$$%%%%....        ........%%%%$$$$@@@@OOOO@@@@@@@@@@@@@@@@@@@@@@@@@@@@@@@@",
"@@@@@@@@@@@@@@@@@@@@++++++++@@@@@@@@&&&&&&&&@@@@&&&&$$$$%%%%....        ........%%%%$$$$@@@@OOOO@@@@@@@@@@@@@@@@@@@@@@@@@@@@@@@@",
"@@@@@@@@@@@@@@@@@@@@++++++++@@@@@@@@&&&&&&&&@@@@&&&&$$$$%%%%....        ........%%%%$$$$@@@@OOOO@@@@@@@@@@@@@@@@@@@@@@@@@@@@@@@@",
"@@@@@@@@@@@@@@@@@@@@@@@@@@@@@@@@@@@@@@@@@@@@@@@@&&&&$$$$....                ....oooo$$$$@@@@OOOO@@@@++++@@@@@@@@@@@@@@@@@@@@@@@@",
"@@@@@@@@@@@@@@@@@@@@@@@@@@@@@@@@@@@@@@@@@@@@@@@@&&&&$$$$....                ....oooo$$$$@@@@OOOO@@@@++++@@@@@@@@@@@@@@@@@@@@@@@@",
"@@@@@@@@@@@@@@@@@@@@@@@@@@@@@@@@@@@@@@@@@@@@@@@@&&&&$$$$....                ....oooo$$$$@@@@OOOO@@@@++++@@@@@@@@@@@@@@@@@@@@@@@@",
"@@@@@@@@@@@@@@@@@@@@@@@@@@@@@@@@@@@@@@@@@@@@@@@@&&&&$$$$....                ....oooo$$$$@@@@OOOO@@@@++++@@@@@@@@@@@@@@@@@@@@@@@@",
"@@@@@@@@####@@@@@@@@@@@@@@@@@@@@@@@@@@@@@@@@@@@@&&&&$$$$....                ....oooo$$$$@@@@++++++++@@@@@@@@@@@@@@@@@@@@@@@@@@@@",
"@@@@@@@@####@@@@@@@@@@@@@@@@@@@@@@@@@@@@@@@@@@@@&&&&$$$$....                ....oooo$$$$@@@@++++++++@@@@@@@@@@@@@@@@@@@@@@@@@@@@",
"@@@@@@@@####@@@@@@@@@@@@@@@@@@@@@@@@@@@@@@@@@@@@&&&&$$$$....                ....oooo$$$$@@@@++++++++@@@@@@@@@@@@@@@@@@@@@@@@@@@@",
"@@@@@@@@####@@@@@@@@@@@@@@@@@@@@@@@@@@@@@@@@@@@@&&&&$$$$....                ....oooo$$$$@@@@++++++++@@@@@@@@@@@@@@@@@@@@@@@@@@@@",
"@@@@@@@@@@@@@@@@@@@@@@@@@@@@@@@@@@@@@@@@@@@@&&&&&&&&$$$$....                ........$$$$$$$$@@@@@@@@@@@@@@@@@@@@@@@@@@@@@@@@@@@@",
"@@@@@@@@@@@@@@@@@@@@@@@@@@@@@@@@@@@@@@@@@@@@&&&&&&&&$$$$....                ........$$$$$$$$@@@@@@@@@@@@@@@@@@@@@@@@@@@@@@@@@@@@",
"@@@@@@@@@@@@@@@@@@@@@@@@@@@@@@@@@@@@@@@@@@@@&&&&&&&&$$$$....                ........$$$$$$$$@@@@@@@@@@@@@@@@@@@@@@@@@@@@@@@@@@@@",
"@@@@@@@@@@@@@@@@@@@@@@@@@@@@@@@@@@@@@@@@@@@@&&&&&&&&$$$$....                ........$$$$$$$$@@@@@@@@@@@@@@@@@@@@@@@@@@@@@@@@@@@@",
"@@@@@@@@@@@@@@@@@@@@@@@@@@@@@@@@@@@@@@@@@@@@&&&&&&&&$$$$                    ........%%%%$$$$@@@@&&&&@@@@@@@@####@@@@@@@@@@@@@@@@",
"@@@@@@@@@@@@@@@@@@@@@@@@@@@@@@@@@@@@@@@@@@@@&&&&&&&&$$$$                    ........%%%%$$$$@@@@&&&&@@@@@@@@####@@@@@@@@@@@@@@@@",
"@@@@@@@@@@@@@@@@@@@@@@@@@@@@@@@@@@@@@@@@@@@@&&&&&&&&$$$$                    ........%%%%$$$$@@@@&&&&@@@@@@@@####@@@@@@@@@@@@@@@@",
"@@@@@@@@@@@@@@@@@@@@@@@@@@@@@@@@@@@@@@@@@@@@&&&&&&&&$$$$                    ........%%%%$$$$@@@@&&&&@@@@@@@@####@@@@@@@@@@@@@@@@",
"@@@@@@@@@@@@@@@@@@@@@@@@@@@@@@@@OOOO@@@@@@@@&&&&&&&&$$$$                        ....oooo$$$$@@@@@@@@@@@@@@@@@@@@@@@@@@@@@@@@@@@@",
"@@@@@@@@@@@@@@@@@@@@@@@@@@@@@@@@OOOO@@@@@@@@&&&&&&&&$$$$                        ....oooo$$$$@@@@@@@@@@@@@@@@@@@@@@@@@@@@@@@@@@@@",
"@@@@@@@@@@@@@@@@@@@@@@@@@@@@@@@@OOOO@@@@@@@@&&&&&&&&$$$$                        ....oooo$$$$@@@@@@@@@@@@@@@@@@@@@@@@@@@@@@@@@@@@",
"@@@@@@@@@@@@@@@@@@@@@@@@@@@@@@@@OOOO@@@@@@@@&&&&&&&&$$$$                        ....oooo$$$$@@@@@@@@@@@@@@@@@@@@@@@@@@@@@@@@@@@@",
"@@@@@@@@@@@@@@@@OOOO@@@@@@@@OOOO@@@@$$$$@@@@&&&&&&&&$$$$                &&&&&&&&&&&&&&&&$$$$@@@@@@@@@@@@@@@@@@@@@@@@@@@@@@@@@@@@",
"@@@@@@@@@@@@@@@@OOOO@@@@@@@@OOOO@@@@$$$$@@@@&&&&&&&&$$$$                &&&&&&&&&&&&&&&&$$$$@@@@@@@@@@@@@@@@@@@@@@@@@@@@@@@@@@@@",
"@@@@@@@@@@@@@@@@OOOO@@@@@@@@OOOO@@@@$$$$@@@@&&&&&&&&$$$$                &&&&&&&&&&&&&&&&$$$$@@@@@@@@@@@@@@@@@@@@@@@@@@@@@@@@@@@@",
"@@@@@@@@@@@@@@@@OOOO@@@@@@@@OOOO@@@@$$$$@@@@&&&&&&&&$$$$                &&&&&&&&&&&&&&&&$$$$@@@@@@@@@@@@@@@@@@@@@@@@@@@@@@@@@@@@",
"@@@@@@@@@@@@@@@@@@@@OOOO@@@@OOOO@@@@++++@@@@$$$$&&&&$$$$        &&&&&&&&&&&&********&&&&&&&&OOOO@@@@@@@@@@@@@@@@OOOO@@@@@@@@@@@@",
"@@@@@@@@@@@@@@@@@@@@OOOO@@@@OOOO@@@@++++@@@@$$$$&&&&$$$$        &&&&&&&&&&&&********&&&&&&&&OOOO@@@@@@@@@@@@@@@@OOOO@@@@@@@@@@@@",
"@@@@@@@@@@@@@@@@@@@@OOOO@@@@OOOO@@@@++++@@@@$$$$&&&&$$$$        &&&&&&&&&&&&********&&&&&&&&OOOO@@@@@@@@@@@@@@@@OOOO@@@@@@@@@@@@",
"@@@@@@@@@@@@@@@@@@@@OOOO@@@@OOOO@@@@++++@@@@$$$$&&&&$$$$        &&&&&&&&&&&&********&&&&&&&&OOOO@@@@@@@@@@@@@@@@OOOO@@@@@@@@@@@@",
"@@@@@@@@@@@@++++@@@@OOOO@@@@++++++++@@@@@@@@$$$$&&&&&&&&$$$$&&&&&&&&********************&&&&@@@@OOOO@@@@@@@@OOOO@@@@@@@@@@@@@@@@",
"@@@@@@@@@@@@++++@@@@OOOO@@@@++++++++@@@@@@@@$$$$&&&&&&&&$$$$&&&&&&&&********************&&&&@@@@OOOO@@@@@@@@OOOO@@@@@@@@@@@@@@@@",
"@@@@@@@@@@@@++++@@@@OOOO@@@@++++++++@@@@@@@@$$$$&&&&&&&&$$$$&&&&&&&&********************&&&&@@@@OOOO@@@@@@@@OOOO@@@@@@@@@@@@@@@@",
"@@@@@@@@@@@@++++@@@@OOOO@@@@++++++++@@@@@@@@$$$$&&&&&&&&$$$$&&&&&&&&********************&&&&@@@@OOOO@@@@@@@@OOOO@@@@@@@@@@@@@@@@",
"@@@@@@@@@@@@@@@@++++++++@@@@@@@@@@@@@@@@@@@@$$$$$$$$&&&&$$$$&&&&&&&&&&&&&&&&&&&&************@@@@OOOO@@@@@@@@OOOO@@@@++++@@@@@@@@",
"@@@@@@@@@@@@@@@@++++++++@@@@@@@@@@@@@@@@@@@@$$$$$$$$&&&&$$$$&&&&&&&&&&&&&&&&&&&&************@@@@OOOO@@@@@@@@OOOO@@@@++++@@@@@@@@",
"@@@@@@@@@@@@@@@@++++++++@@@@@@@@@@@@@@@@@@@@$$$$$$$$&&&&$$$$&&&&&&&&&&&&&&&&&&&&************@@@@OOOO@@@@@@@@OOOO@@@@++++@@@@@@@@",
"@@@@@@@@@@@@@@@@++++++++@@@@@@@@@@@@@@@@@@@@$$$$$$$$&&&&$$$$&&&&&&&&&&&&&&&&&&&&************@@@@OOOO@@@@@@@@OOOO@@@@++++@@@@@@@@",
"@@@@@@@@@@@@@@@@@@@@@@@@@@@@@@@@@@@@@@@@####$$$$$$$$$$$$$$$$$$$$    $$$$    &&&&&&&&********++++++++@@@@OOOO++++++++@@@@@@@@@@@@",
"@@@@@@@@@@@@@@@@@@@@@@@@@@@@@@@@@@@@@@@@####$$$$$$$$$$$$$$$$$$$$    $$$$    &&&&&&&&********++++++++@@@@OOOO++++++++@@@@@@@@@@@@",
"@@@@@@@@@@@@@@@@@@@@@@@@@@@@@@@@@@@@@@@@####$$$$$$$$$$$$$$$$$$$$    $$$$    &&&&&&&&********++++++++@@@@OOOO++++++++@@@@@@@@@@@@",
"@@@@@@@@@@@@@@@@@@@@@@@@@@@@@@@@@@@@@@@@####$$$$$$$$$$$$$$$$$$$$    $$$$    &&&&&&&&********++++++++@@@@OOOO++++++++@@@@@@@@@@@@",
"@@@@@@@@@@@@@@@@@@@@@@@@@@@@@@@@@@@@@@@@@@@@$$$$oooo$$$$&&&&$$$$$$$$$$$$        &&&&********@@@@@@@@@@@@++++@@@@@@@@@@@@@@@@@@@@",
"@@@@@@@@@@@@@@@@@@@@@@@@@@@@@@@@@@@@@@@@@@@@$$$$oooo$$$$&&&&$$$$$$$$$$$$        &&&&********@@@@@@@@@@@@++++@@@@@@@@@@@@@@@@@@@@",
"@@@@@@@@@@@@@@@@@@@@@@@@@@@@@@@@@@@@@@@@@@@@$$$$oooo$$$$&&&&$$$$$$$$$$$$        &&&&********@@@@@@@@@@@@++++@@@@@@@@@@@@@@@@@@@@",
"@@@@@@@@@@@@@@@@@@@@@@@@@@@@@@@@@@@@@@@@@@@@$$$$oooo$$$$&&&&$$$$$$$$$$$$        &&&&********@@@@@@@@@@@@++++@@@@@@@@@@@@@@@@@@@@",
"@@@@@@@@@@@@@@@@@@@@@@@@@@@@@@@@@@@@@@@@@@@@$$$$oooo....$$$$$$$$$$$$            &&&&********@@@@@@@@@@@@@@@@@@@@@@@@@@@@@@@@@@@@",
"@@@@@@@@@@@@@@@@@@@@@@@@@@@@@@@@@@@@@@@@@@@@$$$$oooo....$$$$$$$$$$$$            &&&&********@@@@@@@@@@@@@@@@@@@@@@@@@@@@@@@@@@@@",
"@@@@@@@@@@@@@@@@@@@@@@@@@@@@@@@@@@@@@@@@@@@@$$$$oooo....$$$$$$$$$$$$            &&&&********@@@@@@@@@@@@@@@@@@@@@@@@@@@@@@@@@@@@",
"@@@@@@@@@@@@@@@@@@@@@@@@@@@@@@@@@@@@@@@@@@@@$$$$oooo....$$$$$$$$$$$$            &&&&********@@@@@@@@@@@@@@@@@@@@@@@@@@@@@@@@@@@@",
"@@@@@@@@@@@@@@@@@@@@@@@@@@@@@@@@@@@@@@@@@@@@&&&&%%%%........                ....&&&&********@@@@@@@@@@@@@@@@@@@@@@@@XXXX@@@@@@@@",
"@@@@@@@@@@@@@@@@@@@@@@@@@@@@@@@@@@@@@@@@@@@@&&&&%%%%........                ....&&&&********@@@@@@@@@@@@@@@@@@@@@@@@XXXX@@@@@@@@",
"@@@@@@@@@@@@@@@@@@@@@@@@@@@@@@@@@@@@@@@@@@@@&&&&%%%%........                ....&&&&********@@@@@@@@@@@@@@@@@@@@@@@@XXXX@@@@@@@@",
"@@@@@@@@@@@@@@@@@@@@@@@@@@@@@@@@@@@@@@@@@@@@&&&&%%%%........                ....&&&&********@@@@@@@@@@@@@@@@@@@@@@@@XXXX@@@@@@@@",
"@@@@@@@@@@@@@@@@@@@@XXXX@@@@@@@@@@@@@@@@@@@@&&&&$$$$oooo....                ....&&&&****&&&&@@@@@@@@####@@@@@@@@@@@@@@@@@@@@@@@@",
"@@@@@@@@@@@@@@@@@@@@XXXX@@@@@@@@@@@@@@@@@@@@&&&&$$$$oooo....                ....&&&&****&&&&@@@@@@@@####@@@@@@@@@@@@@@@@@@@@@@@@",
"@@@@@@@@@@@@@@@@@@@@XXXX@@@@@@@@@@@@@@@@@@@@&&&&$$$$oooo....                ....&&&&****&&&&@@@@@@@@####@@@@@@@@@@@@@@@@@@@@@@@@",
"@@@@@@@@@@@@@@@@@@@@XXXX@@@@@@@@@@@@@@@@@@@@&&&&$$$$oooo....                ....&&&&****&&&&@@@@@@@@####@@@@@@@@@@@@@@@@@@@@@@@@",
"@@@@@@@@@@@@@@@@@@@@@@@@@@@@@@@@@@@@@@@@@@@@++++$$$$oooo....                ....&&&&&&&&@@@@@@@@@@@@@@@@@@@@@@@@@@@@@@@@@@@@@@@@",
"@@@@@@@@@@@@@@@@@@@@@@@@@@@@@@@@@@@@@@@@@@@@++++$$$$oooo....                ....&&&&&&&&@@@@@@@@@@@@@@@@@@@@@@@@@@@@@@@@@@@@@@@@",
"@@@@@@@@@@@@@@@@@@@@@@@@@@@@@@@@@@@@@@@@@@@@++++$$$$oooo....                ....&&&&&&&&@@@@@@@@@@@@@@@@@@@@@@@@@@@@@@@@@@@@@@@@",
"@@@@@@@@@@@@@@@@@@@@@@@@@@@@@@@@@@@@@@@@@@@@++++$$$$oooo....                ....&&&&&&&&@@@@@@@@@@@@@@@@@@@@@@@@@@@@@@@@@@@@@@@@",
"@@@@@@@@@@@@@@@@@@@@@@@@@@@@@@@@@@@@@@@@@@@@@@@@$$$$oooo....                ....****&&&&@@@@@@@@OOOO@@@@@@@@@@@@@@@@OOOO@@@@@@@@",
"@@@@@@@@@@@@@@@@@@@@@@@@@@@@@@@@@@@@@@@@@@@@@@@@$$$$oooo....                ....****&&&&@@@@@@@@OOOO@@@@@@@@@@@@@@@@OOOO@@@@@@@@",
"@@@@@@@@@@@@@@@@@@@@@@@@@@@@@@@@@@@@@@@@@@@@@@@@$$$$oooo....                ....****&&&&@@@@@@@@OOOO@@@@@@@@@@@@@@@@OOOO@@@@@@@@",
"@@@@@@@@@@@@@@@@@@@@@@@@@@@@@@@@@@@@@@@@@@@@@@@@$$$$oooo....                ....****&&&&@@@@@@@@OOOO@@@@@@@@@@@@@@@@OOOO@@@@@@@@",
"@@@@@@@@@@@@@@@@@@@@@@@@@@@@@@@@@@@@@@@@@@@@@@@@&&&&%%%%oooo....        ....&&&&****&&&&@@@@@@@@@@@@OOOO@@@@@@@@OOOO@@@@@@@@@@@@",
"@@@@@@@@@@@@@@@@@@@@@@@@@@@@@@@@@@@@@@@@@@@@@@@@&&&&%%%%oooo....        ....&&&&****&&&&@@@@@@@@@@@@OOOO@@@@@@@@OOOO@@@@@@@@@@@@",
"@@@@@@@@@@@@@@@@@@@@@@@@@@@@@@@@@@@@@@@@@@@@@@@@&&&&%%%%oooo....        ....&&&&****&&&&@@@@@@@@@@@@OOOO@@@@@@@@OOOO@@@@@@@@@@@@",
"@@@@@@@@@@@@@@@@@@@@@@@@@@@@@@@@@@@@@@@@@@@@@@@@&&&&%%%%oooo....        ....&&&&****&&&&@@@@@@@@@@@@OOOO@@@@@@@@OOOO@@@@@@@@@@@@",
"@@@@@@@@@@@@@@@@@@@@@@@@@@@@@@@@@@@@@@@@@@@@@@@@&&&&$$$$oooo....        ....&&&&&&&&&&&&@@@@++++@@@@OOOO@@@@@@@@OOOO@@@@++++@@@@",
"@@@@@@@@@@@@@@@@@@@@@@@@@@@@@@@@@@@@@@@@@@@@@@@@&&&&$$$$oooo....        ....&&&&&&&&&&&&@@@@++++@@@@OOOO@@@@@@@@OOOO@@@@++++@@@@",
"@@@@@@@@@@@@@@@@@@@@@@@@@@@@@@@@@@@@@@@@@@@@@@@@&&&&$$$$oooo....        ....&&&&&&&&&&&&@@@@++++@@@@OOOO@@@@@@@@OOOO@@@@++++@@@@",
"@@@@@@@@@@@@@@@@@@@@@@@@@@@@@@@@@@@@@@@@@@@@@@@@&&&&$$$$oooo....        ....&&&&&&&&&&&&@@@@++++@@@@OOOO@@@@@@@@OOOO@@@@++++@@@@",
"@@@@@@@@@@@@@@@@@@@@@@@@@@@@@@@@@@@@@@@@@@@@@@@@&&&&$$$$%%%%oooo........oooo&&&&&&&&&&&&@@@@@@@@++++++++OOOO@@@@++++++++@@@@@@@@",
"@@@@@@@@@@@@@@@@@@@@@@@@@@@@@@@@@@@@@@@@@@@@@@@@&&&&$$$$%%%%oooo........oooo&&&&&&&&&&&&@@@@@@@@++++++++OOOO@@@@++++++++@@@@@@@@",
"@@@@@@@@@@@@@@@@@@@@@@@@@@@@@@@@@@@@@@@@@@@@@@@@&&&&$$$$%%%%oooo........oooo&&&&&&&&&&&&@@@@@@@@++++++++OOOO@@@@++++++++@@@@@@@@",
"@@@@@@@@@@@@@@@@@@@@@@@@@@@@@@@@@@@@@@@@@@@@@@@@&&&&$$$$%%%%oooo........oooo&&&&&&&&&&&&@@@@@@@@++++++++OOOO@@@@++++++++@@@@@@@@",
"@@@@@@@@@@@@@@@@@@@@@@@@@@@@@@@@OOOO@@@@@@@@OOOO@@@@&&&&$$$$oooooooooooo&&&&&&&&&&&&@@@@@@@@@@@@@@@@@@@@++++@@@@@@@@@@@@@@@@@@@@",
"@@@@@@@@@@@@@@@@@@@@@@@@@@@@@@@@OOOO@@@@@@@@OOOO@@@@&&&&$$$$oooooooooooo&&&&&&&&&&&&@@@@@@@@@@@@@@@@@@@@++++@@@@@@@@@@@@@@@@@@@@",
"@@@@@@@@@@@@@@@@@@@@@@@@@@@@@@@@OOOO@@@@@@@@OOOO@@@@&&&&$$$$oooooooooooo&&&&&&&&&&&&@@@@@@@@@@@@@@@@@@@@++++@@@@@@@@@@@@@@@@@@@@",
"@@@@@@@@@@@@@@@@@@@@@@@@@@@@@@@@OOOO@@@@@@@@OOOO@@@@&&&&$$$$oooooooooooo&&&&&&&&&&&&@@@@@@@@@@@@@@@@@@@@++++@@@@@@@@@@@@@@@@@@@@",
"@@@@@@@@@@@@@@@@@@@@@@@@@@@@@@@@@@@@OOOO@@@@OOOO@@@@&&&&&&&&oooo&&&&&&&&&&&&****&&&&XXXX@@@@@@@@@@@@@@@@@@@@@@@@@@@@@@@@@@@@@@@@",
"@@@@@@@@@@@@@@@@@@@@@@@@@@@@@@@@@@@@OOOO@@@@OOOO@@@@&&&&&&&&oooo&&&&&&&&&&&&****&&&&XXXX@@@@@@@@@@@@@@@@@@@@@@@@@@@@@@@@@@@@@@@@",
"@@@@@@@@@@@@@@@@@@@@@@@@@@@@@@@@@@@@OOOO@@@@OOOO@@@@&&&&&&&&oooo&&&&&&&&&&&&****&&&&XXXX@@@@@@@@@@@@@@@@@@@@@@@@@@@@@@@@@@@@@@@@",
"@@@@@@@@@@@@@@@@@@@@@@@@@@@@@@@@@@@@OOOO@@@@OOOO@@@@&&&&&&&&oooo&&&&&&&&&&&&****&&&&XXXX@@@@@@@@@@@@@@@@@@@@@@@@@@@@@@@@@@@@@@@@",
"@@@@@@@@@@@@@@@@@@@@@@@@@@@@++++@@@@OOOO@@@@++++++++@@@@&&&&&&&&&&&&&&&&****&&&&@@@@@@@@@@@@@@@@@@@@@@@@@@@@@@@@@@@@@@@@@@@@@@@@",
"@@@@@@@@@@@@@@@@@@@@@@@@@@@@++++@@@@OOOO@@@@++++++++@@@@&&&&&&&&&&&&&&&&****&&&&@@@@@@@@@@@@@@@@@@@@@@@@@@@@@@@@@@@@@@@@@@@@@@@@",
"@@@@@@@@@@@@@@@@@@@@@@@@@@@@++++@@@@OOOO@@@@++++++++@@@@&&&&&&&&&&&&&&&&****&&&&@@@@@@@@@@@@@@@@@@@@@@@@@@@@@@@@@@@@@@@@@@@@@@@@",
"@@@@@@@@@@@@@@@@@@@@@@@@@@@@++++@@@@OOOO@@@@++++++++@@@@&&&&&&&&&&&&&&&&****&&&&@@@@@@@@@@@@@@@@@@@@@@@@@@@@@@@@@@@@@@@@@@@@@@@@",
"@@@@@@@@@@@@@@@@@@@@@@@@@@@@@@@@++++++++@@@@@@@@@@@@@@@@@@@@&&&&&&&&&&&&&&&&&&&&@@@@@@@@@@@@@@@@@@@@@@@@@@@@@@@@@@@@@@@@@@@@@@@@",
"@@@@@@@@@@@@@@@@@@@@@@@@@@@@@@@@++++++++@@@@@@@@@@@@@@@@@@@@&&&&&&&&&&&&&&&&&&&&@@@@@@@@@@@@@@@@@@@@@@@@@@@@@@@@@@@@@@@@@@@@@@@@",
"@@@@@@@@@@@@@@@@@@@@@@@@@@@@@@@@++++++++@@@@@@@@@@@@@@@@@@@@&&&&&&&&&&&&&&&&&&&&@@@@@@@@@@@@@@@@@@@@@@@@@@@@@@@@@@@@@@@@@@@@@@@@",
"@@@@@@@@@@@@@@@@@@@@@@@@@@@@@@@@++++++++@@@@@@@@@@@@@@@@@@@@&&&&&&&&&&&&&&&&&&&&@@@@@@@@@@@@@@@@@@@@@@@@@@@@@@@@@@@@@@@@@@@@@@@@",
"@@@@@@@@@@@@@@@@@@@@@@@@@@@@@@@@@@@@@@@@@@@@@@@@@@@@@@@@@@@@@@@@@@@@@@@@@@@@@@@@@@@@@@@@@@@@@@@@@@@@@@@@@@@@@@@@@@@@@@@@@@@@@@@@",
"@@@@@@@@@@@@@@@@@@@@@@@@@@@@@@@@@@@@@@@@@@@@@@@@@@@@@@@@@@@@@@@@@@@@@@@@@@@@@@@@@@@@@@@@@@@@@@@@@@@@@@@@@@@@@@@@@@@@@@@@@@@@@@@@",
"@@@@@@@@@@@@@@@@@@@@@@@@@@@@@@@@@@@@@@@@@@@@@@@@@@@@@@@@@@@@@@@@@@@@@@@@@@@@@@@@@@@@@@@@@@@@@@@@@@@@@@@@@@@@@@@@@@@@@@@@@@@@@@@@",
"@@@@@@@@@@@@@@@@@@@@@@@@@@@@@@@@@@@@@@@@@@@@@@@@@@@@@@@@@@@@@@@@@@@@@@@@@@@@@@@@@@@@@@@@@@@@@@@@@@@@@@@@@@@@@@@@@@@@@@@@@@@@@@@@"
};
