/* XPM */
static char *_168d5b88b264b6fb687a54b4830f43dk3hrZXWM5EVy8z8c[] = {
/* columns rows colors chars-per-pixel */
"128 128 35 1 ",
"  c #2E1E22",
". c #5C2E00",
"X c #6A1C30",
"o c #4D3B39",
"O c #467D12",
"+ c #534721",
"@ c #705654",
"# c #767678",
"$ c #964F00",
"% c #8B5E4A",
"& c #9D704C",
"* c #9D725D",
"= c #8F7772",
"- c #539614",
"; c #6DAF2E",
": c #74BE2C",
"> c #C79D00",
", c #FFD600",
"< c #FFFC00",
"1 c #D7CF22",
"2 c #8ABE58",
"3 c #D7906E",
"4 c #C26C81",
"5 c #928A8C",
"6 c #B7A099",
"7 c #B7B7BB",
"8 c #DD8499",
"9 c #EEBE93",
"0 c #FFA3B9",
"q c #FFE1AF",
"w c gray85",
"e c #D9D9DD",
"r c gainsboro",
"t c gray95",
"y c white",
/* pixels */
"::::::::::::::::::::::::::::::::::::::::::::::::::::::::::::::::::::::::::::::::::::::::::::::::::::::::::::::::::::::::::::::::",
"::::::::::::::::::::::::::::::::::::::::::::::::::::::::::::::::::::::::::::::::::::::::::::::::::::::::::::::::::::::::::::::::",
"::::::::::::::::::::::::::::::::::::::::::::::::::::::::::::::::::::::::::::::::::::::::::::::::::::::::::::::::::::::::::::::::",
"::::::::::::::::::::::::::::::::::::::::::::::::::::::::::::::::::::::::::::::::::::::::::::::::::::::::::::::::::::::::::::::::",
"::::::::::::::::::::::::::::::::::::::::::::####################################::::::::::::::::::::::::::::::::::::::::::::::::",
"::::::::::::::::::::::::::::::::::::::::::::####################################::::::::::::::::::::::::::::::::::::::::::::::::",
"::::::::::::::::::::::::::::::::::::::::::::####################################::::::::::::::::::::::::::::::::::::::::::::::::",
"::::::::::::::::::::::::::::::::::::::::::::####################################::::::::::::::::::::::::::::::::::::::::::::::::",
"::::::::::::::::::::::::::::::::::::########77777777eeeeeeeeeeeeeeeeeeee77777777########::::::::::::::::::::rrrr::::::::::::::::",
"::::::::::::::::::::::::::::::::::::########77777777eeeeeeeeeeeeeeeeeeee77777777########::::::::::::::::::::rrrr::::::::::::::::",
"::::::::::::::::::::::::::::::::::::########77777777eeeeeeeeeeeeeeeeeeee77777777########::::::::::::::::::::rrrr::::::::::::::::",
"::::::::::::::::::::::::::::::::::::########77777777eeeeeeeeeeeeeeeeeeee77777777########::::::::::::::::::::rrrr::::::::::::::::",
"::::::::::::::::::::::::::::########7777eeeeeeeeyyyyyyyyyyyyyyyyyyyyyyyyyyyyeeeeeeee7777########::::::::rrrr1111rrrr::::::::::::",
"::::::::::::::::::::::::::::########7777eeeeeeeeyyyyyyyyyyyyyyyyyyyyyyyyyyyyeeeeeeee7777########::::::::rrrr1111rrrr::::::::::::",
"::::::::::::::::::::::::::::########7777eeeeeeeeyyyyyyyyyyyyyyyyyyyyyyyyyyyyeeeeeeee7777########::::::::rrrr1111rrrr::::::::::::",
"::::::::::::::::::::::::::::########7777eeeeeeeeyyyyyyyyyyyyyyyyyyyyyyyyyyyyeeeeeeee7777########::::::::rrrr1111rrrr::::::::::::",
"::::::::::::::::::::----####7777eeeeeeeeyyyyyyyyyyyyyyyyyyyyyyyyyyyyyyyyyyyyyyyyyyyyeeeeeeee7777####::::::::rrrr::::::::::::::::",
"::::::::::::::::::::----####7777eeeeeeeeyyyyyyyyyyyyyyyyyyyyyyyyyyyyyyyyyyyyyyyyyyyyeeeeeeee7777####::::::::rrrr::::::::::::::::",
"::::::::::::::::::::----####7777eeeeeeeeyyyyyyyyyyyyyyyyyyyyyyyyyyyyyyyyyyyyyyyyyyyyeeeeeeee7777####::::::::rrrr::::::::::::::::",
"::::::::::::::::::::----####7777eeeeeeeeyyyyyyyyyyyyyyyyyyyyyyyyyyyyyyyyyyyyyyyyyyyyeeeeeeee7777####::::::::rrrr::::::::::::::::",
"::::::::::::::::::::####7777eeeeeeeeyyyyyyyyyyyyyyyyyyyyyyyyyyyyyyyyyyyyyyyyyyyyyyyyyyyyeeeeeeee7777####::::::::::::::::::::::::",
"::::::::::::::::::::####7777eeeeeeeeyyyyyyyyyyyyyyyyyyyyyyyyyyyyyyyyyyyyyyyyyyyyyyyyyyyyeeeeeeee7777####::::::::::::::::::::::::",
"::::::::::::::::::::####7777eeeeeeeeyyyyyyyyyyyyyyyyyyyyyyyyyyyyyyyyyyyyyyyyyyyyyyyyyyyyeeeeeeee7777####::::::::::::::::::::::::",
"::::::::::::::::::::####7777eeeeeeeeyyyyyyyyyyyyyyyyyyyyyyyyyyyyyyyyyyyyyyyyyyyyyyyyyyyyeeeeeeee7777####::::::::::::::::::::::::",
"::::::::::::::::####7777eeeeeeeeyyyyyyyyyyyyyyyyyyyyyyyyyyyyyyyyyyyyyyyyyyyyyyyyyyyyyyyyyyyyeeeeeeee7777####::::::::::::::::::::",
"::::::::::::::::####7777eeeeeeeeyyyyyyyyyyyyyyyyyyyyyyyyyyyyyyyyyyyyyyyyyyyyyyyyyyyyyyyyyyyyeeeeeeee7777####::::::::::::::::::::",
"::::::::::::::::####7777eeeeeeeeyyyyyyyyyyyyyyyyyyyyyyyyyyyyyyyyyyyyyyyyyyyyyyyyyyyyyyyyyyyyeeeeeeee7777####::::::::::::::::::::",
"::::::::::::::::####7777eeeeeeeeyyyyyyyyyyyyyyyyyyyyyyyyyyyyyyyyyyyyyyyyyyyyyyyyyyyyyyyyyyyyeeeeeeee7777####::::::::::::::::::::",
"::::::::::::::::####7777eeeeeeeeyyyyyyyyyyyyyyyyyyyyyyyyyyyyyyyyyyyyyyyyyyyyyyyyyyyyyyyyyyyyeeeeeeee7777>>>>::::::::::::::::::::",
"::::::::::::::::####7777eeeeeeeeyyyyyyyyyyyyyyyyyyyyyyyyyyyyyyyyyyyyyyyyyyyyyyyyyyyyyyyyyyyyeeeeeeee7777>>>>::::::::::::::::::::",
"::::::::::::::::####7777eeeeeeeeyyyyyyyyyyyyyyyyyyyyyyyyyyyyyyyyyyyyyyyyyyyyyyyyyyyyyyyyyyyyeeeeeeee7777>>>>::::::::::::::::::::",
"::::::::::::::::####7777eeeeeeeeyyyyyyyyyyyyyyyyyyyyyyyyyyyyyyyyyyyyyyyyyyyyyyyyyyyyyyyyyyyyeeeeeeee7777>>>>::::::::::::::::::::",
"::::::::::::::::####7777eeeeeeeeyyyyyyyyyyyyyyyyyyyyyyyyyyyyyyyyyyyyyyyyyyyyyyyyyyyyyyyyeeeeeeee,,,,>>>>>>>>::::::::::::::::::::",
"::::::::::::::::####7777eeeeeeeeyyyyyyyyyyyyyyyyyyyyyyyyyyyyyyyyyyyyyyyyyyyyyyyyyyyyyyyyeeeeeeee,,,,>>>>>>>>::::::::::::::::::::",
"::::::::::::::::####7777eeeeeeeeyyyyyyyyyyyyyyyyyyyyyyyyyyyyyyyyyyyyyyyyyyyyyyyyyyyyyyyyeeeeeeee,,,,>>>>>>>>::::::::::::::::::::",
"::::::::::::::::####7777eeeeeeeeyyyyyyyyyyyyyyyyyyyyyyyyyyyyyyyyyyyyyyyyyyyyyyyyyyyyyyyyeeeeeeee,,,,>>>>>>>>::::::::::::::::::::",
"::::::::2222::::####7777eeeeeeeeeeeeyyyyyyyyyyyyyyyyyyyyyyyyyyyyyyyyyyyyyyyyyyyy,,,,,,,,>>>>>>>>>>>>>>>>oooo::::::::::::::::::::",
"::::::::2222::::####7777eeeeeeeeeeeeyyyyyyyyyyyyyyyyyyyyyyyyyyyyyyyyyyyyyyyyyyyy,,,,,,,,>>>>>>>>>>>>>>>>oooo::::::::::::::::::::",
"::::::::2222::::####7777eeeeeeeeeeeeyyyyyyyyyyyyyyyyyyyyyyyyyyyyyyyyyyyyyyyyyyyy,,,,,,,,>>>>>>>>>>>>>>>>oooo::::::::::::::::::::",
"::::::::2222::::####7777eeeeeeeeeeeeyyyyyyyyyyyyyyyyyyyyyyyyyyyyyyyyyyyyyyyyyyyy,,,,,,,,>>>>>>>>>>>>>>>>oooo::::::::::::::::::::",
"::::::::::::::::####77777777eeeeeeeeeeeeyyyyyyyyyyyyyyyyyyyyyyyy<<<<<<<<,,,,,,,,@@@@========@@@@====@@@@oooo::::::::::::::::::::",
"::::::::::::::::####77777777eeeeeeeeeeeeyyyyyyyyyyyyyyyyyyyyyyyy<<<<<<<<,,,,,,,,@@@@========@@@@====@@@@oooo::::::::::::::::::::",
"::::::::::::::::####77777777eeeeeeeeeeeeyyyyyyyyyyyyyyyyyyyyyyyy<<<<<<<<,,,,,,,,@@@@========@@@@====@@@@oooo::::::::::::::::::::",
"::::::::::::::::####77777777eeeeeeeeeeeeyyyyyyyyyyyyyyyyyyyyyyyy<<<<<<<<,,,,,,,,@@@@========@@@@====@@@@oooo::::::::::::::::::::",
"::::::::::::::::::::>>>>77777777eeeeeeeeeeeeeeee,,,,,,,,<<<<<<<<====@@@@========@@@@========@@@@====@@@@oooo2222::::::::::::::::",
"::::::::::::::::::::>>>>77777777eeeeeeeeeeeeeeee,,,,,,,,<<<<<<<<====@@@@========@@@@========@@@@====@@@@oooo2222::::::::::::::::",
"::::::::::::::::::::>>>>77777777eeeeeeeeeeeeeeee,,,,,,,,<<<<<<<<====@@@@========@@@@========@@@@====@@@@oooo2222::::::::::::::::",
"::::::::::::::::::::>>>>77777777eeeeeeeeeeeeeeee,,,,,,,,<<<<<<<<====@@@@========@@@@========@@@@====@@@@oooo2222::::::::::::::::",
"::::::::::::::::::::oooo>>>>>>>>>>>>>>>>,,,,,,,,============@@@@====@@@@@@@@@@@@qqqq@@@@@@@@9999@@@@oooo::::::::::::::::::::::::",
"::::::::::::::::::::oooo>>>>>>>>>>>>>>>>,,,,,,,,============@@@@====@@@@@@@@@@@@qqqq@@@@@@@@9999@@@@oooo::::::::::::::::::::::::",
"::::::::::::::::::::oooo>>>>>>>>>>>>>>>>,,,,,,,,============@@@@====@@@@@@@@@@@@qqqq@@@@@@@@9999@@@@oooo::::::::::::::::::::::::",
"::::::::::::::::::::oooo>>>>>>>>>>>>>>>>,,,,,,,,============@@@@====@@@@@@@@@@@@qqqq@@@@@@@@9999@@@@oooo::::::::::::::::::::::::",
"::::::::::::::::----oooo@@@@====================================@@@@qqqq++++++++++++qqqq99999999++++::::::::::::::::::::::::::::",
"::::::::::::::::----oooo@@@@====================================@@@@qqqq++++++++++++qqqq99999999++++::::::::::::::::::::::::::::",
"::::::::::::::::----oooo@@@@====================================@@@@qqqq++++++++++++qqqq99999999++++::::::::::::::::::::::::::::",
"::::::::::::::::----oooo@@@@====================================@@@@qqqq++++++++++++qqqq99999999++++::::::::::::::::::::::::::::",
"::::::::::::::::::::oooo@@@@========================================++++wwww    eeeeqqqqqqqq9999++++::::::::::::----::::::::::::",
"::::::::::::::::::::oooo@@@@========================================++++wwww    eeeeqqqqqqqq9999++++::::::::::::----::::::::::::",
"::::::::::::::::::::oooo@@@@========================================++++wwww    eeeeqqqqqqqq9999++++::::::::::::----::::::::::::",
"::::::::::::::::::::oooo@@@@========================================++++wwww    eeeeqqqqqqqq9999++++::::::::::::----::::::::::::",
"::::::::::::;;;;oooo@@@@============================@@@@============++++tttt    5555qqqqqqqq9999++++::::::::----::::::::::::::::",
"::::::::::::;;;;oooo@@@@============================@@@@============++++tttt    5555qqqqqqqq9999++++::::::::----::::::::::::::::",
"::::::::::::;;;;oooo@@@@============================@@@@============++++tttt    5555qqqqqqqq9999++++::::::::----::::::::::::::::",
"::::::::::::;;;;oooo@@@@============================@@@@============++++tttt    5555qqqqqqqq9999++++::::::::----::::::::::::::::",
"::::::::::::oooo@@@@====6666========6666============@@@@====6666====qqqqyyyy........qqqqqqqq3333++++::::::::----::::;;;;::::::::",
"::::::::::::oooo@@@@====6666========6666============@@@@====6666====qqqqyyyy........qqqqqqqq3333++++::::::::----::::;;;;::::::::",
"::::::::::::oooo@@@@====6666========6666============@@@@====6666====qqqqyyyy........qqqqqqqq3333++++::::::::----::::;;;;::::::::",
"::::::::::::oooo@@@@====6666========6666============@@@@====6666====qqqqyyyy........qqqqqqqq3333++++::::::::----::::;;;;::::::::",
"::::::::::::oooo@@@@====================66666666====@@@@====6666====qqqqqqqq$$$$$$$$qqqq9999&&&&++++::::----;;;;;;;;::::::::::::",
"::::::::::::oooo@@@@====================66666666====@@@@====6666====qqqqqqqq$$$$$$$$qqqq9999&&&&++++::::----;;;;;;;;::::::::::::",
"::::::::::::oooo@@@@====================66666666====@@@@====6666====qqqqqqqq$$$$$$$$qqqq9999&&&&++++::::----;;;;;;;;::::::::::::",
"::::::::::::oooo@@@@====================66666666====@@@@====6666====qqqqqqqq$$$$$$$$qqqq9999&&&&++++::::----;;;;;;;;::::::::::::",
"::::::::oooo@@@@========================6666====@@@@@@@@================qqqqqqqqqqqq99993333++++::::::::;;;;::::::::::::::::::::",
"::::::::oooo@@@@========================6666====@@@@@@@@================qqqqqqqqqqqq99993333++++::::::::;;;;::::::::::::::::::::",
"::::::::oooo@@@@========================6666====@@@@@@@@================qqqqqqqqqqqq99993333++++::::::::;;;;::::::::::::::::::::",
"::::::::oooo@@@@========================6666====@@@@@@@@================qqqqqqqqqqqq99993333++++::::::::;;;;::::::::::::::::::::",
"::::::::oooo@@@@============@@@@================oooo@@@@@@@@================33333333&&&&++++::::::::::::::::::::::::::::::::::::",
"::::::::oooo@@@@============@@@@================oooo@@@@@@@@================33333333&&&&++++::::::::::::::::::::::::::::::::::::",
"::::::::oooo@@@@============@@@@================oooo@@@@@@@@================33333333&&&&++++::::::::::::::::::::::::::::::::::::",
"::::::::oooo@@@@============@@@@================oooo@@@@@@@@================33333333&&&&++++::::::::::::::::::::::::::::::::::::",
"::::::::oooo@@@@============@@@@============@@@@ooooXXXXXXXX@@@@============++++++++++++::::::::::::::::::::::::::::OOOO::::::::",
"::::::::oooo@@@@============@@@@============@@@@ooooXXXXXXXX@@@@============++++++++++++::::::::::::::::::::::::::::OOOO::::::::",
"::::::::oooo@@@@============@@@@============@@@@ooooXXXXXXXX@@@@============++++++++++++::::::::::::::::::::::::::::OOOO::::::::",
"::::::::oooo@@@@============@@@@============@@@@ooooXXXXXXXX@@@@============++++++++++++::::::::::::::::::::::::::::OOOO::::::::",
"::::::::oooo@@@@============@@@@============oooo888800000000@@@@============444444444444XXXX::::::::2222::::::::::::::::::::::::",
"::::::::oooo@@@@============@@@@============oooo888800000000@@@@============444444444444XXXX::::::::2222::::::::::::::::::::::::",
"::::::::oooo@@@@============@@@@============oooo888800000000@@@@============444444444444XXXX::::::::2222::::::::::::::::::::::::",
"::::::::oooo@@@@============@@@@============oooo888800000000@@@@============444444444444XXXX::::::::2222::::::::::::::::::::::::",
"::::::::oooo@@@@============@@@@========@@@@oooo8888eeeeyyyyeeee@@@@========000088884444XXXX::::::::::::::::::::::::::::::::::::",
"::::::::oooo@@@@============@@@@========@@@@oooo8888eeeeyyyyeeee@@@@========000088884444XXXX::::::::::::::::::::::::::::::::::::",
"::::::::oooo@@@@============@@@@========@@@@oooo8888eeeeyyyyeeee@@@@========000088884444XXXX::::::::::::::::::::::::::::::::::::",
"::::::::oooo@@@@============@@@@========@@@@oooo8888eeeeyyyyeeee@@@@========000088884444XXXX::::::::::::::::::::::::::::::::::::",
"::::::::::::oooo============@@@@====@@@@oooo8888####yyyyyyyyyyyy7777@@@@====888844444444XXXX::::----::::::::::::::::----::::::::",
"::::::::::::oooo============@@@@====@@@@oooo8888####yyyyyyyyyyyy7777@@@@====888844444444XXXX::::----::::::::::::::::----::::::::",
"::::::::::::oooo============@@@@====@@@@oooo8888####yyyyyyyyyyyy7777@@@@====888844444444XXXX::::----::::::::::::::::----::::::::",
"::::::::::::oooo============@@@@====@@@@oooo8888####yyyyyyyyyyyy7777@@@@====888844444444XXXX::::----::::::::::::::::----::::::::",
"::::::::::::oooo@@@@========oooo@@@@oooo44448888####eeeeyyyyyyyy<<<<++++@@@@>>>>77777777####::::::::----::::::::----::::::::::::",
"::::::::::::oooo@@@@========oooo@@@@oooo44448888####eeeeyyyyyyyy<<<<++++@@@@>>>>77777777####::::::::----::::::::----::::::::::::",
"::::::::::::oooo@@@@========oooo@@@@oooo44448888####eeeeyyyyyyyy<<<<++++@@@@>>>>77777777####::::::::----::::::::----::::::::::::",
"::::::::::::oooo@@@@========oooo@@@@oooo44448888####eeeeyyyyyyyy<<<<++++@@@@>>>>77777777####::::::::----::::::::----::::::::::::",
"::::::::::::oooo@@@@@@@@====@@@@oooo444488880000####eeeeyyyy<<<<qqqqqqqq++++,,,,eeee7777####;;;;::::----::::::::----::::;;;;::::",
"::::::::::::oooo@@@@@@@@====@@@@oooo444488880000####eeeeyyyy<<<<qqqqqqqq++++,,,,eeee7777####;;;;::::----::::::::----::::;;;;::::",
"::::::::::::oooo@@@@@@@@====@@@@oooo444488880000####eeeeyyyy<<<<qqqqqqqq++++,,,,eeee7777####;;;;::::----::::::::----::::;;;;::::",
"::::::::::::oooo@@@@@@@@====@@@@oooo444488880000####eeeeyyyy<<<<qqqqqqqq++++,,,,eeee7777####;;;;::::----::::::::----::::;;;;::::",
"::::::::::::::::oooo@@@@@@@@oooooooo444488880000####7777eeee,,,,qqqqqqqq++++<<<<eeee7777####::::;;;;;;;;----::::;;;;;;;;::::::::",
"::::::::::::::::oooo@@@@@@@@oooooooo444488880000####7777eeee,,,,qqqqqqqq++++<<<<eeee7777####::::;;;;;;;;----::::;;;;;;;;::::::::",
"::::::::::::::::oooo@@@@@@@@oooooooo444488880000####7777eeee,,,,qqqqqqqq++++<<<<eeee7777####::::;;;;;;;;----::::;;;;;;;;::::::::",
"::::::::::::::::oooo@@@@@@@@oooooooo444488880000####7777eeee,,,,qqqqqqqq++++<<<<eeee7777####::::;;;;;;;;----::::;;;;;;;;::::::::",
"::::::::::::::::::::ooooooooooooXXXX77777777>>>>7777####eeee,,,,99993333++++>>>>,,,,77777777####::::::::;;;;::::::::::::::::::::",
"::::::::::::::::::::ooooooooooooXXXX77777777>>>>7777####eeee,,,,99993333++++>>>>,,,,77777777####::::::::;;;;::::::::::::::::::::",
"::::::::::::::::::::ooooooooooooXXXX77777777>>>>7777####eeee,,,,99993333++++>>>>,,,,77777777####::::::::;;;;::::::::::::::::::::",
"::::::::::::::::::::ooooooooooooXXXX77777777>>>>7777####eeee,,,,99993333++++>>>>,,,,77777777####::::::::;;;;::::::::::::::::::::",
"::::::::::::::::::::::::::::::::::::####7777,,,,eeee####7777,,,,>>>>++++eeee7777>>>>77777777####::::::::::::::::::::::::::::::::",
"::::::::::::::::::::::::::::::::::::####7777,,,,eeee####7777,,,,>>>>++++eeee7777>>>>77777777####::::::::::::::::::::::::::::::::",
"::::::::::::::::::::::::::::::::::::####7777,,,,eeee####7777,,,,>>>>++++eeee7777>>>>77777777####::::::::::::::::::::::::::::::::",
"::::::::::::::::::::::::::::::::::::####7777,,,,eeee####7777,,,,>>>>++++eeee7777>>>>77777777####::::::::::::::::::::::::::::::::",
"::::::::::::::::::::::::::::;;;;::::++++>>>>4444000000008888>>>>8888yyyyeeeeeeee4444>>>>>>>>++++::::::::::::::::::::::::::::::::",
"::::::::::::::::::::::::::::;;;;::::++++>>>>4444000000008888>>>>8888yyyyeeeeeeee4444>>>>>>>>++++::::::::::::::::::::::::::::::::",
"::::::::::::::::::::::::::::;;;;::::++++>>>>4444000000008888>>>>8888yyyyeeeeeeee4444>>>>>>>>++++::::::::::::::::::::::::::::::::",
"::::::::::::::::::::::::::::;;;;::::++++>>>>4444000000008888>>>>8888yyyyeeeeeeee4444>>>>>>>>++++::::::::::::::::::::::::::::::::",
"::::::::::::::::::::::::::::::::;;;;;;;;++++++++%%%%************++++888888884444++++++++++++::::::::::::::::::::::::::::::::::::",
"::::::::::::::::::::::::::::::::;;;;;;;;++++++++%%%%************++++888888884444++++++++++++::::::::::::::::::::::::::::::::::::",
"::::::::::::::::::::::::::::::::;;;;;;;;++++++++%%%%************++++888888884444++++++++++++::::::::::::::::::::::::::::::::::::",
"::::::::::::::::::::::::::::::::;;;;;;;;++++++++%%%%************++++888888884444++++++++++++::::::::::::::::::::::::::::::::::::",
"::::::::::::::::::::::::::::::::::::::::::::::::++++++++++++++++XXXXXXXXXXXXXXXX::::::::::::::::::::::::::::::::::::::::::::::::",
"::::::::::::::::::::::::::::::::::::::::::::::::++++++++++++++++XXXXXXXXXXXXXXXX::::::::::::::::::::::::::::::::::::::::::::::::",
"::::::::::::::::::::::::::::::::::::::::::::::::++++++++++++++++XXXXXXXXXXXXXXXX::::::::::::::::::::::::::::::::::::::::::::::::",
"::::::::::::::::::::::::::::::::::::::::::::::::++++++++++++++++XXXXXXXXXXXXXXXX::::::::::::::::::::::::::::::::::::::::::::::::"
};
