/* XPM */
static char *result[] = {
/* columns rows colors chars-per-pixel */
"32 32 183 2 ",
"   c #543F3E",
".  c #67272E",
"X  c #78283C",
"o  c #753739",
"O  c #6E551E",
"+  c #66691E",
"@  c #5B4A2A",
"#  c #5C5626",
"$  c #564B3A",
"%  c #554D3B",
"&  c #585739",
"*  c #5A593B",
"=  c #704720",
"-  c #685D2D",
";  c #744F3A",
":  c #6E5234",
">  c #6B5B32",
",  c #66642A",
"<  c #6B6B2C",
"1  c #7B6A2C",
"2  c #6B6234",
"3  c #7B6A39",
"4  c #5D3E42",
"5  c #7A3545",
"6  c #594646",
"7  c #5B5140",
"8  c #664746",
"9  c #6C4C4E",
"0  c #774240",
"q  c #69514F",
"w  c #785A48",
"e  c #6D5553",
"r  c #725754",
"t  c #725956",
"y  c #755B59",
"u  c #785E5B",
"i  c #776547",
"p  c #7C6854",
"a  c #7B635C",
"s  c #7C7D70",
"d  c #A76C26",
"f  c #86674F",
"g  c #926C49",
"h  c #98744C",
"j  c #897455",
"k  c #9B745D",
"l  c #866D64",
"z  c #856D69",
"x  c #896E6D",
"c  c #8B726D",
"v  c #957A61",
"b  c #957867",
"n  c #877373",
"m  c #8E7672",
"M  c #8F7872",
"N  c #927A74",
"B  c #957875",
"V  c #977F7A",
"C  c #AC606D",
"Z  c #B3706F",
"A  c #BA677A",
"S  c #B46C7B",
"D  c #C27E66",
"F  c #5B981E",
"G  c #5DA21C",
"H  c #60A61E",
"J  c #6B9E2B",
"K  c #68982C",
"L  c #6DA42D",
"P  c #6EAD2B",
"I  c #71AC2C",
"U  c #6DB627",
"Y  c #6EB32B",
"T  c #7DB927",
"R  c #70B22D",
"E  c #74BE2C",
"W  c #71AB34",
"Q  c #75AF3C",
"!  c #74B534",
"~  c #7CB330",
"^  c #76BE30",
"/  c #75B13B",
"(  c #7DC13D",
")  c #7DB047",
"_  c #7A816D",
"`  c #7C8C6F",
"'  c #7D8677",
"]  c #B09112",
"[  c #AC8924",
"{  c #B08E22",
"}  c #BB9623",
"|  c #AF9C30",
" . c #C69E0E",
".. c #C8A515",
"X. c #C59C26",
"o. c #C8A528",
"O. c #CCA737",
"+. c #E7C61C",
"@. c #E1D619",
"#. c #E6C42C",
"$. c #EBCA2B",
"%. c #E5DE2F",
"&. c #F6D62B",
"*. c #EAC439",
"=. c #F1D23E",
"-. c #F1E829",
";. c #A48D5A",
":. c #9B8263",
">. c #808574",
",. c #818A7B",
"<. c #9B867C",
"1. c #829176",
"2. c #A3887B",
"3. c #C38D68",
"4. c #C8916E",
"5. c #CD8F75",
"6. c #EBBC70",
"7. c #89C44D",
"8. c #F3EF40",
"9. c #F3EC45",
"0. c #D6D36A",
"q. c #B67282",
"w. c #C57B8A",
"e. c #878E82",
"r. c #94878B",
"t. c #928D94",
"y. c #A68F89",
"u. c #A79089",
"i. c #AB938D",
"p. c #B2AB98",
"a. c #BDB394",
"s. c #B6B19B",
"d. c #AA9AA1",
"f. c #A9AAAF",
"g. c #B5ACA6",
"h. c #BFB6A7",
"j. c #AEAEB1",
"k. c #B1B1B5",
"l. c #B3B3B9",
"z. c #BCBABC",
"x. c #D28A88",
"c. c #CA8394",
"v. c #D98498",
"b. c #E69B9E",
"n. c #DCAF86",
"m. c #DDB389",
"M. c #C1B59C",
"N. c #E7B88D",
"B. c #E6BC93",
"V. c #E595A9",
"C. c #C0BBAC",
"Z. c #BDD296",
"A. c #DDC294",
"S. c #ECC999",
"D. c #F1CA97",
"F. c #FFDD98",
"G. c #FEE68B",
"H. c #DDD6AD",
"J. c #D4CAB9",
"K. c #D3D0B9",
"L. c #E7CBA3",
"P. c #F9D9A9",
"I. c #E5DCB4",
"U. c #FADFB2",
"Y. c #BEBEC1",
"T. c #CCC6C5",
"R. c #DCD7C5",
"E. c #CECDD2",
"W. c #D2D2D7",
"Q. c #D4D5D9",
"!. c #DBDBDE",
"~. c #E2CFCE",
"^. c #E5DECB",
"/. c #E6D3DA",
"(. c #FEFACB",
"). c #DDDDE1",
"_. c #E1E1E4",
"`. c #E9E9EA",
"'. c #FFFDE2",
"]. c #F4F4F4",
"[. c #F7F7F8",
"{. c #F7F8FA",
"}. c #FEFEFE",
/* pixels */
"E E ( U E E E E E E E ! ! ! ! ! ! ! / ! E E E U ( U E E E ( U ( ",
"E E E E E E E E E ! / ` ' ,.,.,.,.,.' ` / ! E ( E E E ( E E E U ",
"E ( E E U ( E E Q ` e.j.z.E.W.E.W.E.z.j.e.` Q ! E E 7.Z.7.E E E ",
"E E E E ( U ! ` e.k.W.!.].{.}.}.}.{.].).W.k.,.` E ( Z.0.Z.( E E ",
"E E U ( U K ` k.E.!.[.}.}.}.}.}.}.}.}.}.[.!.E.k.1./ ( Z.7.( E E ",
"E E E U U ` k.W._.[.}.}.}.}.}.}.}.}.}.}.}.{._.Q.l.1.^ ( E E E E ",
"E E ( U ` j.W.).[.}.}.}.}.}.}.}.}.}.}.}.}.}.{.).W.j.` U E E E E ",
"E E ( ! ' l.Q.).}.}.}.}.}.}.}.}.}.}.}.}.}.}.{.!.R.M...T E E E E ",
"E U E ( ' l.Q.).{.}.}.}.}.}.}.}.}.}.}.{.'.'.R.H.$...] T ( U ( U ",
"E ( ( U ' l.W.!._.{.}.}.}.}.}.}.'.'.'.(.=.$.o.}  .] - R ( U E E ",
"E E ( U ` g.Y.Q.Q._.{.{.'.'.'.(.8.-.&.#.h k v p k w % R E E E E ",
"E E U ( ~ | a.h.K.R.^.I.=.&.-.%.;.f v v j n n a l e * ) E E E E ",
"E E E E U , { } o.o.#.#.;.:.:.j z p r p a.l k 5.f * U ( E E E E ",
"E E U U F @ w v v b :.:.m B m x l a.i @ j A.B.n.2 H U E E E E E ",
"E E E ( J % t m M M m m m n B M z i d.6 g.U.P.m., R E U H E E E ",
"E E E L & t c M M N M m n a c B >.p T.6 <.P.U.n., Y U G U E E E ",
"E E Y * e m u.B N y.<.N n u m i.<.L.^.= = D.P.4.- I U G U Y E ^ ",
"E E L % t m N N m <.i.i.c u m i.2.S.P.d d D.N.h , I G P Y E E E ",
"E R * e z m m c m N i.V y y x B N 2.L.S.D.N.3.< P T U U U ( E E ",
"E R % e m M c a c M N l 6 9 r x M M <.4.3.h < L E E E E ( Y E E ",
"E W $ e c N c u c M n r 8 5 5 t c N l ; : > K ~ E ( ( E U F U U ",
"E R % e n M c u c M l 9 w.V.V.x c M B A S C ; I E ( U E ( U E E ",
"( P * e c M c y c c e 9 c./.].T.c x V V.v.D 5 I U ( E E E E E E ",
"U E L 7 z m m y z t 9 q.r.`.}.{.s.a c x.w.A 5 L H U E E U H U E ",
"( U Y % t c c 6 q 9 S v.r.).}.(.9.3 w } h.j.s ! U G U U H U E E ",
"U ( Y # q y l e 4 S w.V.q.E.'.8.G.A.3 +.K.l.' W U G U U G U U E ",
"E E E U & q e   4 q.v.b.e.f.R.&.F.S.1 @.H.l.,./ U H G U U U ( U ",
"E E E E L & $ $ 0 d.M.O.f.t.K.%.6.;.3 ..$.C.f.` ( U U ( ( E E E ",
"E E E E E P P R L >.a.*.J.y.M.+.X.h z.M.o.M.p._ ( E E E U E E E ",
"E E E E E E E R Y < [ D V.V.x.X.5.~./.T.Z } ] < U E E E E E E E ",
"E E E E E U ( U Y K + - f C k g w w.w.q.- O + U U E E E E E E E ",
"E E E E E U ( ( E E P J # # @ @ . X X o J P U E E E E E E E E E "
};
