/* XPM */
static char *a59504df786547eb83f1c618652d822ewbA5OF2QP9hTJ21g[] = {
/* columns rows colors chars-per-pixel */
"32 32 136 2 ",
"   c black",
".  c #281D19",
"X  c #25211C",
"o  c #28211B",
"O  c #1D1D21",
"+  c #231E24",
"@  c #1E2628",
"#  c #232325",
"$  c #467D12",
"%  c #9B7A37",
"&  c #D4760E",
"*  c #D4790D",
"=  c #D9780F",
"-  c #CD7D17",
";  c #D77510",
":  c #DC7615",
">  c #D57B13",
",  c #DA7A13",
"<  c #DC771A",
"1  c #D27C1B",
"2  c #CD7C20",
"3  c #D57B23",
"4  c #C1793E",
"5  c #539614",
"6  c #6DAF2E",
"7  c #74BE2C",
"8  c #72BA33",
"9  c #70B43F",
"0  c #79B63C",
"q  c #CA8017",
"w  c #CB831B",
"e  c #DA8312",
"r  c #D88819",
"t  c #DA921D",
"y  c #E18719",
"u  c #E38E1D",
"i  c #E88E1E",
"p  c #E4921D",
"a  c #E3991E",
"s  c #C18620",
"d  c #CE8422",
"f  c #C98A22",
"g  c #CF9529",
"h  c #D49526",
"j  c #D99426",
"k  c #D59825",
"l  c #D3942A",
"z  c #DA942C",
"x  c #D4982A",
"c  c #CF8934",
"v  c #CF9531",
"b  c #D69833",
"n  c #E48C20",
"m  c #EC8E24",
"M  c #EF8F29",
"N  c #F08F26",
"B  c #F18E2A",
"V  c #E69422",
"C  c #EB9324",
"Z  c #E59921",
"A  c #EA9922",
"S  c #E4902D",
"D  c #EC9129",
"F  c #F09220",
"G  c #F1912B",
"H  c #F39E2A",
"J  c #F39231",
"K  c #EFA125",
"L  c #EFAF27",
"P  c #EEA429",
"I  c #EFAE29",
"U  c #F2AF20",
"Y  c #F3A42C",
"T  c #F4AD2D",
"R  c #F8AC2F",
"E  c #F4B12D",
"W  c #F4A330",
"Q  c #FCA637",
"!  c #F5AD31",
"~  c #FAAC33",
"^  c #F7AC39",
"/  c #FCAE39",
"(  c #F4B632",
")  c #FCB135",
"_  c #F4B834",
"`  c #FBBD36",
"'  c #FEBB3B",
"]  c #D7CF22",
"[  c #EFC53F",
"{  c #FAC536",
"}  c #FCC837",
"|  c #F0C53E",
" . c #FDC53B",
".. c #8F9E4C",
"X. c #919C52",
"o. c #AF8B44",
"O. c #B6914B",
"+. c #BA9948",
"@. c #B99C50",
"#. c #8CA949",
"$. c #8ABE58",
"%. c #9A9C69",
"&. c #CB9C4D",
"*. c #C49A5E",
"=. c #C6A04D",
"-. c #CAA04C",
";. c #CEA94D",
":. c #C9A551",
">. c #C7AB6C",
",. c #EEC046",
"<. c #FFC341",
"1. c #F8C641",
"2. c #FFC442",
"3. c #FECA40",
"4. c #F5C74D",
"5. c #FFC449",
"6. c #ECCE5E",
"7. c #F2C957",
"8. c #FFCB53",
"9. c #F9CF57",
"0. c #F9CF5F",
"q. c #FAD155",
"w. c #F7D25F",
"e. c #F9D05E",
"r. c #E8CD62",
"t. c #F3CD64",
"y. c #F3CC65",
"u. c #F3CB69",
"i. c #F3D565",
"p. c #FFD065",
"a. c #FFD66F",
"s. c #E9CB71",
"d. c #FFD872",
"f. c #FFD876",
"g. c #FCDA81",
"h. c gainsboro",
/* pixels */
"7 7 7 7 7 7 7 7 7 7 7 7 7 7 7 7 7 7 7 7 7 7 7 7 7 7 7 7 7 7 7 7 ",
"7 7 7 7 7 7 7 7 7 7 7 7 7 7 7 7 7 7 7 7 7 7 7 7 7 7 7 7 7 7 7 7 ",
"7 7 7 7 7 7 7 7 7 7 7 7 7 7 7 7 7 7 7 7 7 $ 7 7 7 7 7 h.7 7 7 7 ",
"7 7 7 7 7 7 7 7 7 @ X X X X X X X X X X o X . 7 7 7 h.] h.7 7 7 ",
"7 7 7 7 7 5 7 7 O g.a.a.d.8.p.5.<.2.<. . .} }   7 7 7 h.7 7 7 7 ",
"7 7 7 7 7 7 5 7 O f.Y T H o.X.%.X.X...< ! ! `   7 7 7 7 7 7 7 7 ",
"7 7 7 7 6 7 5 7 # q.T T H 0 7 7 7 7 #.A T T `   5 7 7 7 7 7 7 7 ",
"7 7 7 7 7 6 6 7 + } T T +.h.7 7 7 7 1 Q T T `   7 7 7 7 7 7 7 7 ",
"7 7 7 7 7 7 7 7 X  .T ! < 3 1 3 3 1 : ^ T T `   7 6 7 7 7 7 7 7 ",
"7 7 $.7 7 7 7   ,.T E T R T T T T T T T T _ V c   7 7 7 7 7 7 7 ",
"7 7 7 7 7 7 7   1.T T T T T T T T T T T T ( p w   7 7 7 7 7 7 7 ",
"7 7 7 7 7 7 7   } T T T T i , : T T T T T ( p d   7 7 $.7 7 7 7 ",
"7 7 7 7 7 7 7   } T T Y H A T * T T T T T ( p d   7 7 7 7 7 7 7 ",
"7 7 7 7 5 7 7   } T T ~ y ! ! * T T T T T ( p d   7 7 7 7 7 7 7 ",
"7 7 7 7 7 5 8   ` T E A p m ~ u H T T T E ( r d   9 7 7 5 7 7 7 ",
"7 7 7 6 7 5   9.T T ! * P C R T , T T T L T 2 z l   7 5 7 7 7 7 ",
"7 7 7 7 6 6   e.T ! , T H A T T & ~ T T I Y q z h   7 5 7 6 7 7 ",
"7 7 7 7 7 7   e.T T , T T ! T T T e ! T I Y q z h   5 6 6 7 7 7 ",
"7 7 7 7 7 7   e.T , T T Y A T T T : T T I Y q z h   6 7 7 7 7 7 ",
"7 7 7 7 7 7   w.I > T T ! T T T ! , T T T T - z h   7 7 7 7 7 7 ",
"7 7 7 7 7 7   0.~ * ; * * & & & & & ! T E ^ q h x   7 7 7 $ 7 7 ",
"7 7 7 7 7   u.T ) T T / / Q R ~ / / ( T ' 1 l h h x   7 7 7 7 7 ",
"7 7 7 7 7   y.T : T W , H , K e : , T T ' 1 l h h h   7 7 7 7 7 ",
"7 7 7 7 7   y.T u C i = Y n T T > C T T ' - l h h h   7 7 5 7 7 ",
"7 7 7 7 7   y.U E ) T ! T / T ! ) ) E E ' 1 l h z h   7 5 7 7 7 ",
"7 7 7 7 7   6.S M C m M M G G C D M D F ' 1 l x j b   7 5 7 6 7 ",
"7 7 7 7   :.t J N C  .{ { { Z B M D D 3.> f h z z t v   6 6 7 7 ",
"7 7 7 7   ;.p M D |     ; < ` V D D D  .4   % k h h g   7 7 7 7 ",
"7 7 7 7   ;.V D 1.  7 5   s 1  .V B C [   $   &.h h g   7 7 7 7 ",
"7 7 7 7   ;.a n 7.  7 6   f - 4.i C p |   7   *.j j h   7 7 7 7 ",
"7 7 7 7   >.y.i.  6 7 7   =.O.  r.y.y.s.  7 7   @.&.-.  7 7 7 7 ",
"7 7 7 7 8       7 7 7 7       7         7 7 7 7         7 7 7 7 "
};
